<svg xmlns="http://www.w3.org/2000/svg" xmlns:xlink="http://www.w3.org/1999/xlink" width="240" height="180" viewBox="0 0 240 180">
  <defs>
    <clipPath id="clip-BronsThrophy">
      <rect width="240" height="180"/>
    </clipPath>
  </defs>
  <g id="BronsThrophy" clip-path="url(#clip-BronsThrophy)">
    <g id="Bronze_Trophy" data-name="Bronze Trophy" transform="translate(-1516.881 -724.88)">
      <g id="Group_457" data-name="Group 457" transform="translate(1556.881 744.88)">
        <g id="Group_452" data-name="Group 452" transform="translate(34.016 130.384)">
          <path id="Path_2960" data-name="Path 2960" d="M1653.5,1149.646c.3-8.632,27.955-10.445,48.728-24.375,20.906,15.708,48.425,15.762,48.728,24.375h0v5.24H1653.5v-5.24h0Z" transform="translate(-1653.5 -1125.27)" fill="#bf755a" fill-rule="evenodd"/>
          <path id="Path_2961" data-name="Path 2961" d="M1757.3,1200.539h-82.822a.8.8,0,1,1,0-1.609H1757.3a.8.8,0,0,1,0,1.609Z" transform="translate(-1667.154 -1175.133)" fill="#935139"/>
        </g>
        <path id="Path_2962" data-name="Path 2962" d="M1765.41,1015.9a49.11,49.11,0,0,1,5.1,11.546,24.885,24.885,0,0,1,1.5,7.7,26.068,26.068,0,0,1-1.657,7.7,56.782,56.782,0,0,1-4.946,11.547c0,6.939,25.151,6.939,25.151,0a57.117,57.117,0,0,1-4.946-11.547,25.916,25.916,0,0,1-1.657-7.7,24.786,24.786,0,0,1,1.5-7.7,49.037,49.037,0,0,1,5.1-11.546,12.574,12.574,0,1,0-25.147,0Z" transform="translate(-1695.365 -912.341)" fill="#935139" fill-rule="evenodd"/>
        <g id="Group_453" data-name="Group 453" transform="translate(0 15.32)">
          <path id="Path_2963" data-name="Path 2963" d="M1911.548,848.433a4.039,4.039,0,0,1-.3-8.067c17.94-1.36,29.057-10.739,29.735-25.089.22-4.63-.914-8.061-3.47-10.49-5.56-5.292-16.066-4.339-16.173-4.329a4.04,4.04,0,0,1-.814-8.038c.578-.058,14.241-1.357,22.518,6.481,4.319,4.09,6.338,9.728,6.006,16.757a31.624,31.624,0,0,1-10.374,22.434c-6.523,5.922-15.8,9.492-26.821,10.328-.1.006-.207.013-.31.013Z" transform="translate(-1789.085 -792.304)" fill="#935139"/>
          <path id="Path_2964" data-name="Path 2964" d="M1594.421,848.43c-.1,0-.207,0-.31-.013-11.023-.833-20.3-4.407-26.821-10.328a31.623,31.623,0,0,1-10.374-22.434c-.333-7.03,1.686-12.671,6.006-16.757,8.28-7.838,21.943-6.542,22.518-6.481a4.039,4.039,0,0,1-.811,8.038c-.181-.016-10.629-.943-16.169,4.329-2.556,2.429-3.69,5.864-3.47,10.49.682,14.351,11.8,23.729,29.735,25.089a4.039,4.039,0,0,1-.3,8.067Z" transform="translate(-1556.881 -792.301)" fill="#935139"/>
        </g>
        <path id="Path_2965" data-name="Path 2965" d="M1639.66,769.575V749.93a5.051,5.051,0,0,1,5.05-5.05h95.628a5.052,5.052,0,0,1,5.05,5.05v19.9c-.094,42.884-23.745,77.652-52.864,77.652s-52.864-34.907-52.864-77.9Z" transform="translate(-1607.765 -744.88)" fill="#bf755a" fill-rule="evenodd"/>
        <g id="Group_454" data-name="Group 454" transform="translate(23.186 0.003)">
          <path id="Path_2966" data-name="Path 2966" d="M1746.642,750.705a5.7,5.7,0,0,0-1.78-4.113,6.212,6.212,0,0,0-4.3-1.7H1634.731a6.233,6.233,0,0,0-4.3,1.7,5.684,5.684,0,0,0-1.78,4.113h0a5.692,5.692,0,0,0,1.78,4.113,6.213,6.213,0,0,0,4.3,1.7h105.831a6.239,6.239,0,0,0,4.3-1.7,5.684,5.684,0,0,0,1.78-4.113Z" transform="translate(-1628.65 -744.89)" fill="#dbb2a3" fill-rule="evenodd"/>
          <path id="Path_2967" data-name="Path 2967" d="M1754.36,761.3h-99.67a1.456,1.456,0,1,1,0-2.908h99.67a1.456,1.456,0,1,1,0,2.908Z" transform="translate(-1645.242 -754.029)" fill="#935139"/>
        </g>
        <g id="Group_455" data-name="Group 455" transform="translate(50.796 19.794)">
          <circle id="Ellipse_73" data-name="Ellipse 73" cx="27.015" cy="27.015" r="27.015" transform="translate(0.594 53.967) rotate(-81.02)" fill="#dbb2a3"/>
          <path id="Path_2968" data-name="Path 2968" d="M1737.269,869.168a31.509,31.509,0,1,1,31.509-31.509A31.544,31.544,0,0,1,1737.269,869.168Zm0-61.609a30.1,30.1,0,1,0,30.1,30.1A30.134,30.134,0,0,0,1737.269,807.559Z" transform="translate(-1705.76 -806.15)" fill="#935139"/>
          <path id="Path_2969" data-name="Path 2969" d="M1778.423,865.633a5.412,5.412,0,0,0,3.492-1.179,4.285,4.285,0,0,0-2.859-7.621,6.153,6.153,0,0,0-2.223.362,4.1,4.1,0,0,0-1.406,1,9.763,9.763,0,0,0-.953,1.586c-.271.682-.591,1.27-.817,1.861a1.462,1.462,0,0,1-.817.727,2.967,2.967,0,0,1-1.315.271,2.246,2.246,0,0,1-1.635-.727,2.5,2.5,0,0,1-.727-1.906,5.253,5.253,0,0,1,.682-2.449,8.8,8.8,0,0,1,2.042-2.4,9.967,9.967,0,0,1,3.357-1.861,13.688,13.688,0,0,1,4.445-.682,11.886,11.886,0,0,1,3.9.591,8.8,8.8,0,0,1,3.085,1.68,7.375,7.375,0,0,1,2,2.585,7.9,7.9,0,0,1,.636,3.13,7.306,7.306,0,0,1-.953,3.812,13.155,13.155,0,0,1-2.769,3.085,11.234,11.234,0,0,1,2.9,2.132,7.888,7.888,0,0,1,1.816,2.63,8.762,8.762,0,0,1,.591,3.13,9.7,9.7,0,0,1-.817,3.9,10.016,10.016,0,0,1-2.358,3.357,11.368,11.368,0,0,1-3.764,2.313,13.319,13.319,0,0,1-4.762.817,11.575,11.575,0,0,1-4.762-.953,10.807,10.807,0,0,1-3.447-2.358,10.98,10.98,0,0,1-2.087-2.95,6.677,6.677,0,0,1-.682-2.539,2.8,2.8,0,0,1,.817-2.087,3.04,3.04,0,0,1,2.087-.772,2.254,2.254,0,0,1,1.179.362,1.73,1.73,0,0,1,.772.863,15.588,15.588,0,0,0,2.449,4.581,4.752,4.752,0,0,0,3.719,1.5,5.384,5.384,0,0,0,2.63-.682,5.608,5.608,0,0,0,2.132-2,5.792,5.792,0,0,0,.818-3.085,5.656,5.656,0,0,0-1.406-4.084,5.344,5.344,0,0,0-3.948-1.451c-.317,0-.772.045-1.36.091-.636.045-1.043.09-1.224.09a2.556,2.556,0,0,1-1.861-.636,2.065,2.065,0,0,1-.682-1.68,2.107,2.107,0,0,1,.817-1.725,3.758,3.758,0,0,1,2.358-.636h.908Z" transform="translate(-1748.042 -837.6)" fill="#bf3d32"/>
        </g>
        <g id="Group_456" data-name="Group 456" transform="translate(34.155 18.383)">
          <path id="Path_2970" data-name="Path 2970" d="M1668.875,848.2a2.118,2.118,0,0,1-1.948-1.289,107.01,107.01,0,0,1-8.219-43.129,2.114,2.114,0,1,1,4.222.223h0a104.686,104.686,0,0,0,7.886,41.252,2.115,2.115,0,0,1-1.118,2.772,2.079,2.079,0,0,1-.827.168Z" transform="translate(-1658.659 -801.782)" fill="#dbb2a3"/>
          <path id="Path_2971" data-name="Path 2971" d="M1702.844,968.9a2.113,2.113,0,0,1-1.7-.853,80.346,80.346,0,0,1-6.074-9.534,2.116,2.116,0,0,1,3.718-2.019,76.167,76.167,0,0,0,5.751,9.03,2.114,2.114,0,0,1-1.7,3.376Z" transform="translate(-1683.133 -905.76)" fill="#dbb2a3"/>
        </g>
      </g>
    </g>
  </g>
</svg>
