<svg xmlns="http://www.w3.org/2000/svg" xmlns:xlink="http://www.w3.org/1999/xlink" width="240" height="140" viewBox="0 0 240 140">
  <defs>
    <clipPath id="clip-GoldThrophy">
      <rect width="240" height="140"/>
    </clipPath>
  </defs>
  <g id="GoldThrophy" clip-path="url(#clip-GoldThrophy)">
    <g id="Gold_Trophy" data-name="Gold Trophy" transform="translate(-809.044 -352.42)">
      <g id="Group_476" data-name="Group 476" transform="translate(849.044 372.42)">
        <g id="Group_471" data-name="Group 471" transform="translate(45.258 99.238)">
          <path id="Path_2993" data-name="Path 2993" d="M1070.674,920.039c.218-6.051,20.076-7.324,35-17.089,15.014,11.012,34.78,11.052,35,17.089h0v3.673H1070.67v-3.673h0Z" transform="translate(-1070.67 -902.95)" fill="#fbcb22" fill-rule="evenodd"/>
          <path id="Path_2994" data-name="Path 2994" d="M1155.441,993.1H1095.96a.468.468,0,1,1,0-.937h59.481a.468.468,0,1,1,0,.937Z" transform="translate(-1090.7 -975.381)" fill="#eca400"/>
        </g>
        <path id="Path_2995" data-name="Path 2995" d="M1205.46,764.906a34.05,34.05,0,0,1,3.665,8.1,17.114,17.114,0,0,1,1.079,5.4,17.883,17.883,0,0,1-1.191,5.4,39.357,39.357,0,0,1-3.553,8.1c0,4.866,18.062,4.866,18.062,0a39.493,39.493,0,0,1-3.551-8.1,17.9,17.9,0,0,1-1.191-5.4,17.016,17.016,0,0,1,1.079-5.4,34.05,34.05,0,0,1,3.665-8.1,9.033,9.033,0,0,0-18.06,0Z" transform="translate(-1134.238 -684.474)" fill="#eca400" fill-rule="evenodd"/>
        <g id="Group_472" data-name="Group 472" transform="translate(0 0.001)">
          <path id="Path_2996" data-name="Path 2996" d="M891.576,416.254c-20.355-1.379-29.11-7.316-33.017-15.94s-4.09-21.127-1.337-21.212c1.561.026,4.214.111,5.555,0,3.177-.013.578,2.306,5.142,9.816,6.676,10.982,19.825,12.274,19.825,12.274v-9.417S876.39,393.893,871.5,385s-1.873-12.645-5.05-12.571c-4.429.1-11.367.075-14.962,0-4.14-.087-2.572,17.616,1.337,28.109s18.407,23.941,38.749,25.647C891.634,424.344,891.584,418.259,891.576,416.254Z" transform="translate(-849.044 -372.424)" fill="#eca400" fill-rule="evenodd"/>
          <path id="Path_2997" data-name="Path 2997" d="M1432.225,416.254c20.355-1.379,29.109-7.316,33.017-15.94s4.09-21.127,1.337-21.212c-1.561.026-4.214.111-5.555,0-3.177-.013-.578,2.306-5.142,9.816-6.676,10.982-19.825,12.274-19.825,12.274v-9.417s11.354,2.118,16.242-6.778,1.873-12.645,5.05-12.571c4.429.1,11.367.075,14.962,0,4.14-.087,2.572,17.616-1.337,28.109s-18.407,23.941-38.749,25.647C1432.167,424.344,1432.217,418.259,1432.225,416.254Z" transform="translate(-1314.756 -372.424)" fill="#eca400" fill-rule="evenodd"/>
        </g>
        <path id="Path_2998" data-name="Path 2998" d="M1016.682,393.011V381.235a8.49,8.49,0,0,1,2.794-6.233,9.95,9.95,0,0,1,6.745-2.582h76.319a9.955,9.955,0,0,1,6.747,2.582,8.49,8.49,0,0,1,2.794,6.233V393.22c-.086,35.762-21.427,64.755-47.7,64.755s-47.7-29.109-47.7-64.966Z" transform="translate(-984.383 -372.42)" fill="#fbcb22" fill-rule="evenodd"/>
        <g id="Group_473" data-name="Group 473" transform="translate(31.805 0)">
          <path id="Path_2999" data-name="Path 2999" d="M1097.31,377.269a4.908,4.908,0,0,0-4.967-4.849h-86.456a4.908,4.908,0,0,0-4.967,4.849h0a4.909,4.909,0,0,0,4.967,4.851h86.456a4.908,4.908,0,0,0,4.967-4.849h0Z" transform="translate(-1000.92 -372.42)" fill="#feedb4" fill-rule="evenodd"/>
          <path id="Path_3000" data-name="Path 3000" d="M1119.7,395.393h-80.871a.847.847,0,1,1,0-1.693H1119.7a.847.847,0,1,1,0,1.693Z" transform="translate(-1030.824 -389.698)" fill="#fbcb22"/>
        </g>
        <g id="Group_474" data-name="Group 474" transform="translate(47.75 10.525)">
          <path id="Path_3060" data-name="Path 3060" d="M22.53,0A23.477,23.477,0,0,1,45.607,23.079,22.152,22.152,0,0,1,23.079,45.607,23.477,23.477,0,0,1,0,22.53,22.152,22.152,0,0,1,22.53,0Z" transform="translate(0 32.251) rotate(-45)" fill="#feedb4"/>
          <path id="Path_3001" data-name="Path 3001" d="M1138.285,512.71c-14.841,0-26.915-11.787-26.915-26.275s12.074-26.275,26.915-26.275,26.915,11.787,26.915,26.275S1153.126,512.71,1138.285,512.71Zm0-51.375c-14.178,0-25.711,11.26-25.711,25.1s11.535,25.1,25.711,25.1,25.711-11.26,25.711-25.1-11.535-25.1-25.711-25.1Z" transform="translate(-1106.035 -454.183)" fill="#eca400"/>
          <path id="Path_3002" data-name="Path 3002" d="M1211.509,548.715h3.744a3.385,3.385,0,0,1,2.3.687,2.3,2.3,0,0,1,.778,1.817q0,2.44-3.528,2.535v0H1202.96v0q-3.529-.093-3.528-2.535a2.3,2.3,0,0,1,.778-1.817,3.382,3.382,0,0,1,2.3-.687h3.83V533.881q-4.823,3.617-6.5,3.617a1.938,1.938,0,0,1-1.414-.621,1.977,1.977,0,0,1-.618-1.437,1.6,1.6,0,0,1,.609-1.39,13.42,13.42,0,0,1,2.146-1.149,16.088,16.088,0,0,0,3.674-2.225,15.25,15.25,0,0,0,2.441-2.614q1.064-1.445,1.387-1.779a1.692,1.692,0,0,1,1.216-.333,1.968,1.968,0,0,1,1.615.76,3.271,3.271,0,0,1,.609,2.1v19.914Z" transform="translate(-1175.821 -507.599)" fill="#bf3f34"/>
        </g>
        <g id="Group_475" data-name="Group 475" transform="translate(38.945 15.326)">
          <path id="Path_3003" data-name="Path 3003" d="M1052.633,492.616a1.806,1.806,0,0,1-1.663-1.074,87.253,87.253,0,0,1-7.019-35.965,1.806,1.806,0,0,1,3.607.184,85.4,85.4,0,0,0,6.737,34.4,1.746,1.746,0,0,1-.956,2.312,1.835,1.835,0,0,1-.705.141Z" transform="translate(-1043.909 -453.906)" fill="#feedb4"/>
          <path id="Path_3004" data-name="Path 3004" d="M1102.56,685.2a1.815,1.815,0,0,1-1.451-.713,67.08,67.08,0,0,1-5.188-7.95,1.741,1.741,0,0,1,.724-2.391,1.828,1.828,0,0,1,2.449.707,63.464,63.464,0,0,0,4.913,7.531,1.736,1.736,0,0,1-.374,2.468,1.825,1.825,0,0,1-1.075.348Z" transform="translate(-1085.723 -632.548)" fill="#feedb4"/>
        </g>
      </g>
    </g>
  </g>
</svg>
