<svg xmlns="http://www.w3.org/2000/svg" xmlns:xlink="http://www.w3.org/1999/xlink" width="240" height="240" viewBox="0 0 240 240">
  <defs>
    <linearGradient id="linear-gradient" x1="-3877.824" y1="-2842.768" x2="-3878.824" y2="-2842.768" gradientUnits="objectBoundingBox">
      <stop offset="0" stop-color="#fa9cb3"/>
      <stop offset="0.58" stop-color="#fa4784"/>
      <stop offset="0.74" stop-color="#f32e75"/>
      <stop offset="1" stop-color="#e60059"/>
    </linearGradient>
    <linearGradient id="linear-gradient-2" x1="-0.769" y1="-2.403" x2="-1.8" y2="-2.385" xlink:href="#linear-gradient"/>
    <linearGradient id="linear-gradient-3" x1="-9710.926" y1="-7532.328" x2="-9712.925" y2="-7532.328" xlink:href="#linear-gradient"/>
    <radialGradient id="radial-gradient" cx="0.488" cy="0.514" r="0.387" gradientTransform="matrix(1.269, 0.5, -0.732, 0.866, -0.555, 0.116)" gradientUnits="objectBoundingBox">
      <stop offset="0.28" stop-color="#ffad00"/>
      <stop offset="0.77" stop-color="#ffad00"/>
      <stop offset="1" stop-color="#ffad00"/>
    </radialGradient>
    <linearGradient id="linear-gradient-4" x1="-3560.478" y1="-2805.603" x2="-3561.478" y2="-2805.436" gradientUnits="objectBoundingBox">
      <stop offset="0.05" stop-color="#808283"/>
      <stop offset="0.13" stop-color="#fff"/>
      <stop offset="0.15" stop-color="#f5f5f5"/>
      <stop offset="0.18" stop-color="#dbdcdc"/>
      <stop offset="0.22" stop-color="#b0b2b4"/>
      <stop offset="0.25" stop-color="#96999b"/>
      <stop offset="0.27" stop-color="#989b9d"/>
      <stop offset="0.29" stop-color="#a0a3a5"/>
      <stop offset="0.3" stop-color="#afb1b3"/>
      <stop offset="0.31" stop-color="#c3c5c6"/>
      <stop offset="0.31" stop-color="#d0d2d3"/>
      <stop offset="0.36" stop-color="#c6c8c9"/>
      <stop offset="0.45" stop-color="#acaeaf"/>
      <stop offset="0.55" stop-color="#828385"/>
      <stop offset="0.65" stop-color="#58595b"/>
      <stop offset="0.68" stop-color="#616264"/>
      <stop offset="0.73" stop-color="#7a7b7e"/>
      <stop offset="0.74" stop-color="#808184"/>
      <stop offset="0.75" stop-color="#636466"/>
      <stop offset="0.76" stop-color="#4a4b4c"/>
      <stop offset="0.77" stop-color="#393939"/>
      <stop offset="0.78" stop-color="#2e2e2e"/>
      <stop offset="0.79" stop-color="#2b2b2b"/>
      <stop offset="0.8" stop-color="#474747"/>
      <stop offset="0.81" stop-color="#777"/>
      <stop offset="0.82" stop-color="#a1a1a1"/>
      <stop offset="0.83" stop-color="#c3c3c3"/>
      <stop offset="0.84" stop-color="#ddd"/>
      <stop offset="0.86" stop-color="#f0f0f0"/>
      <stop offset="0.87" stop-color="#fbfbfb"/>
      <stop offset="0.88" stop-color="#fff"/>
      <stop offset="0.9" stop-color="#e9eaea"/>
      <stop offset="0.92" stop-color="#cfd0d2"/>
      <stop offset="0.95" stop-color="#bcbec0"/>
      <stop offset="0.97" stop-color="#b1b3b6"/>
      <stop offset="1" stop-color="#aeb0b3"/>
    </linearGradient>
    <linearGradient id="linear-gradient-5" x1="-0.699" y1="-2.762" x2="-1.802" y2="-2.741" xlink:href="#linear-gradient-4"/>
    <linearGradient id="linear-gradient-6" x1="-1.539" y1="-4.092" x2="-0.388" y2="-4.092" gradientUnits="objectBoundingBox">
      <stop offset="0" stop-color="#636363"/>
      <stop offset="0.02" stop-color="#666"/>
      <stop offset="0.03" stop-color="#717171"/>
      <stop offset="0.05" stop-color="#848484"/>
      <stop offset="0.07" stop-color="#9e9e9e"/>
      <stop offset="0.08" stop-color="silver"/>
      <stop offset="0.09" stop-color="#dedede"/>
      <stop offset="0.15" stop-color="#fff"/>
      <stop offset="0.16" stop-color="#fbfbfb"/>
      <stop offset="0.17" stop-color="#f0f0f0"/>
      <stop offset="0.17" stop-color="#ddd"/>
      <stop offset="0.18" stop-color="#c3c3c3"/>
      <stop offset="0.19" stop-color="#a1a1a1"/>
      <stop offset="0.2" stop-color="#777"/>
      <stop offset="0.2" stop-color="#474747"/>
      <stop offset="0.21" stop-color="#2b2b2b"/>
      <stop offset="0.22" stop-color="#2e2e2e"/>
      <stop offset="0.23" stop-color="#393939"/>
      <stop offset="0.24" stop-color="#4a4b4c"/>
      <stop offset="0.25" stop-color="#636466"/>
      <stop offset="0.26" stop-color="#808184"/>
      <stop offset="0.27" stop-color="#7a7b7e"/>
      <stop offset="0.32" stop-color="#616264"/>
      <stop offset="0.35" stop-color="#58595b"/>
      <stop offset="0.37" stop-color="#616264"/>
      <stop offset="0.48" stop-color="#9c9c9d"/>
      <stop offset="0.57" stop-color="#c7c7c7"/>
      <stop offset="0.64" stop-color="#e1e1e1"/>
      <stop offset="0.68" stop-color="#ebebeb"/>
      <stop offset="0.69" stop-color="#ddddde"/>
      <stop offset="0.69" stop-color="#c3c4c5"/>
      <stop offset="0.7" stop-color="#afb1b2"/>
      <stop offset="0.72" stop-color="#a0a3a5"/>
      <stop offset="0.73" stop-color="#989b9d"/>
      <stop offset="0.75" stop-color="#96999b"/>
      <stop offset="0.78" stop-color="#b0b2b4"/>
      <stop offset="0.82" stop-color="#dbdcdc"/>
      <stop offset="0.85" stop-color="#f5f5f5"/>
      <stop offset="0.87" stop-color="#fff"/>
      <stop offset="0.95" stop-color="#808283"/>
    </linearGradient>
    <linearGradient id="linear-gradient-7" x1="-1.519" y1="-4.085" x2="-0.368" y2="-4.085" xlink:href="#linear-gradient-6"/>
    <radialGradient id="radial-gradient-2" cx="0.324" cy="0.851" r="0.733" gradientTransform="matrix(0.943, 0.497, -0.635, 1.021, -25.566, 6.535)" gradientUnits="objectBoundingBox">
      <stop offset="0" stop-color="#fff"/>
      <stop offset="0.11" stop-color="#fafafb"/>
      <stop offset="0.22" stop-color="#eeeeef"/>
      <stop offset="0.34" stop-color="#d9dadc"/>
      <stop offset="0.45" stop-color="#bdbec1"/>
      <stop offset="0.5" stop-color="#aeb0b3"/>
      <stop offset="0.54" stop-color="#a7a9ac"/>
      <stop offset="0.6" stop-color="#96989b"/>
      <stop offset="0.65" stop-color="#808184"/>
      <stop offset="0.67" stop-color="#707072"/>
      <stop offset="0.71" stop-color="#5c5c5d"/>
      <stop offset="0.74" stop-color="#505151"/>
      <stop offset="0.77" stop-color="#4d4d4d"/>
      <stop offset="0.81" stop-color="#575757"/>
      <stop offset="0.87" stop-color="#737373"/>
      <stop offset="0.95" stop-color="#a0a0a0"/>
      <stop offset="1" stop-color="#bfbfbf"/>
    </radialGradient>
    <radialGradient id="radial-gradient-3" cx="0.325" cy="0.827" r="0.832" gradientTransform="matrix(0.867, 0.497, -0.496, 0.868, -22.582, 5.765)" xlink:href="#radial-gradient-2"/>
    <radialGradient id="radial-gradient-4" cx="0.325" cy="0.824" r="0.83" gradientTransform="matrix(0.868, 0.497, -0.497, 0.868, -23.437, 5.165)" xlink:href="#radial-gradient-2"/>
    <radialGradient id="radial-gradient-5" cx="0.325" cy="0.824" r="0.831" gradientTransform="matrix(0.869, 0.497, -0.498, 0.868, -24.443, 4.684)" xlink:href="#radial-gradient-2"/>
    <radialGradient id="radial-gradient-6" cx="0.225" cy="0.809" r="0.69" gradientTransform="matrix(0.97, 0.497, -0.704, 1.098, -33.636, 6.406)" xlink:href="#radial-gradient-2"/>
    <linearGradient id="linear-gradient-8" x1="-1.481" y1="-4.066" x2="-0.33" y2="-4.066" xlink:href="#linear-gradient-6"/>
    <linearGradient id="linear-gradient-9" x1="-1.46" y1="-4.059" x2="-0.309" y2="-4.059" xlink:href="#linear-gradient-6"/>
    <radialGradient id="radial-gradient-7" cx="-9.23" cy="-38.596" r="0.861" gradientTransform="translate(-0.044) scale(1.088 1)" xlink:href="#radial-gradient-2"/>
    <radialGradient id="radial-gradient-8" cx="0.324" cy="0.827" r="0.832" gradientTransform="matrix(0.868, 0.497, -0.497, 0.868, -22.049, 4.841)" xlink:href="#radial-gradient-2"/>
    <radialGradient id="radial-gradient-9" cx="0.325" cy="0.828" r="0.832" gradientTransform="translate(-22.96 4.242) rotate(29.81)" xlink:href="#radial-gradient-2"/>
    <radialGradient id="radial-gradient-10" cx="0.326" cy="0.825" r="0.832" gradientTransform="matrix(0.867, 0.497, -0.496, 0.868, -23.92, 3.727)" xlink:href="#radial-gradient-2"/>
    <radialGradient id="radial-gradient-11" cx="0.227" cy="0.809" r="0.69" gradientTransform="matrix(0.973, 0.497, -0.706, 1.098, -33.252, 5.166)" xlink:href="#radial-gradient-2"/>
    <radialGradient id="radial-gradient-12" cx="0.506" cy="0.484" r="0.947" gradientTransform="matrix(0.523, 0.5, -0.045, 0.13, -1.118, -3.118)" gradientUnits="objectBoundingBox">
      <stop offset="0" stop-color="#f66484"/>
      <stop offset="1" stop-color="#ec1b5e"/>
    </radialGradient>
    <clipPath id="clip-Pencil">
      <rect width="240" height="240"/>
    </clipPath>
  </defs>
  <g id="Pencil" clip-path="url(#clip-Pencil)">
    <g id="Layer_1" data-name="Layer 1" transform="translate(57.815 26.921)">
      <g id="Group_480" data-name="Group 480">
        <path id="Path_3014" data-name="Path 3014" d="M63.93,18.2s.39-.95.65-1.63c.34-.59.73-.88,1.54-.41l-1.43,2.6-.76-.56Z" fill="#646464"/>
        <path id="Path_3015" data-name="Path 3015" d="M114.38,47.1s.62-.82,1.08-1.38c.34-.59.39-1.07-.42-1.54l-1.52,2.55.87.38Z" fill="#646464"/>
        <g id="Group_478" data-name="Group 478">
          <path id="Path_3016" data-name="Path 3016" d="M124.35,28.97l.02-.04-.03-.02v.05Z" fill="url(#linear-gradient)"/>
          <path id="Path_3017" data-name="Path 3017" d="M124.16,29.3C121.14,34.53,71.95,4.92,74.54.43c-1.1,1.91-11.75,20.41-13.45,23.34-2.74,4.75,46.4,34.43,49.71,28.7,1.58-2.74,13.35-23.18,13.35-23.18Z" fill="url(#linear-gradient-2)"/>
        </g>
        <path id="Path_3018" data-name="Path 3018" d="M70.26,33.34c3.18,2.3,6.93,4.78,10.85,7.17L95.16,17.26c-3.9-2.37-7.66-4.82-10.88-7.1L70.27,33.35Z" fill="#fff" opacity="0.1"/>
        <path id="Path_3019" data-name="Path 3019" d="M77.54,54.81h-.01v0Z" fill="url(#linear-gradient-3)"/>
        <path id="Path_3020" data-name="Path 3020" d="M65.33,16.4c-.26.45-1.4,2.43-1.71,2.96-2.74,4.75,46.4,34.44,49.71,28.7.28-.48,1.47-2.54,1.71-2.96-.47.81-8.14.44-26.43-10.11S64.89,17.1,65.32,16.4Z" fill="#c70038"/>
        <path id="Path_3021" data-name="Path 3021" d="M.05,128.72l.38,28.26.38,29.17L17.1,137.68Z" fill="#ffecc5"/>
        <path id="Path_3022" data-name="Path 3022" d="M50.42,157.87,34.37,147.31,1.02,186.03l25.04-14.48Z" fill="#fdc780"/>
        <path id="Path_3023" data-name="Path 3023" d="M25.69,142.38l-8.59-4.7L.81,186.15h0l.21-.12,33.07-38.47Z" fill="#ffde96"/>
        <path id="Path_3024" data-name="Path 3024" d="M13.3,171.77l-.03.04.02-.05a18.32,18.32,0,0,0-2.85-1.99,18.214,18.214,0,0,0-3.59-1.57,17.743,17.743,0,0,0-6.27-.82l.24,18.77.21-.12,16.3-9.43a17.8,17.8,0,0,0-4.02-4.83Z" fill="#1a1a1a"/>
        <path id="Path_3025" data-name="Path 3025" d="M13.3,171.77,1.02,186.03l16.3-9.43a17.8,17.8,0,0,0-4.02-4.83Z" fill="#121212"/>
        <path id="Path_3026" data-name="Path 3026" d="M13.28,171.76a18.321,18.321,0,0,0-2.85-1.99,18.214,18.214,0,0,0-3.59-1.57L.81,186.16l.21-.12,12.27-14.27Z" fill="#1a1a1a"/>
        <path id="Path_3027" data-name="Path 3027" d="M16.93,138.34A15.057,15.057,0,0,1,6.57,136.6,14.539,14.539,0,0,1,0,128.56L55.26,32.87l16.93,9.78-55.26,95.7Z" fill="#ffe138"/>
        <path id="Path_3028" data-name="Path 3028" d="M33.75,148.05a15.057,15.057,0,0,1-10.36-1.74,14.53,14.53,0,0,1-6.58-8.04l55.26-95.7L89,52.35l-55.26,95.7Z" fill="#ffcc1a"/>
        <path id="Path_3029" data-name="Path 3029" d="M50.56,157.76a15.057,15.057,0,0,1-10.36-1.74,14.53,14.53,0,0,1-6.58-8.04l55.26-95.7,16.93,9.78-55.26,95.7Z" fill="url(#radial-gradient)"/>
        <path id="Path_3030" data-name="Path 3030" d="M72.19,42.65,65.36,54.66,58.49,66.63,44.73,90.59l-13.87,23.9-6.94,11.94-6.99,11.91,6.83-12.01,6.88-11.97L44.39,90.4,58.26,66.51,65.2,54.56Z" fill="#ffe87d"/>
        <path id="Path_3031" data-name="Path 3031" d="M89.01,52.36,82.18,64.37,75.3,76.35,61.55,100.3,47.67,124.19l-6.93,11.95-6.99,11.91,6.82-12.01,6.88-11.97,13.76-23.96L75.08,76.22l6.94-11.95Z" fill="#ffe87d"/>
        <path id="Path_3032" data-name="Path 3032" d="M54.69,33.84C54.4,36.7,66.27,44.91,78.52,52.1c11.92,7,24.19,13.05,26.71,11l.6-1.03L55.26,32.87l-.56.98Z" fill="#ff7500"/>
        <path id="Path_3033" data-name="Path 3033" d="M86.43,56.55c9,4.84,16.85,8.14,18.8,6.54l.6-1.03L88.9,52.28l-2.46,4.27Z" fill="#ff8200"/>
        <path id="Path_3034" data-name="Path 3034" d="M69.7,46.69c2.8,1.8,5.8,3.64,8.82,5.41,2.7,1.58,5.41,3.12,8.02,4.52L89,52.36,72.07,42.58,69.7,46.69Z" fill="#f90"/>
        <path id="Path_3035" data-name="Path 3035" d="M69.81,46.76l2.37-4.11L55.25,32.87l-.56.98c-.22,2.17,6.52,7.39,15.12,12.92Z" fill="#ffb000"/>
        <g id="Group_479" data-name="Group 479">
          <path id="Path_3036" data-name="Path 3036" d="M115.42,45.63l.02-.04-.03-.02v.06Z" fill="url(#linear-gradient-4)"/>
          <path id="Path_3037" data-name="Path 3037" d="M115.22,45.96c-3.08,5.33-53.26-24.88-50.62-29.45-1.13,1.95-7.69,13.32-9.42,16.32-2.8,4.85,47.34,35.13,50.72,29.28l9.32-16.15Z" fill="url(#linear-gradient-5)"/>
        </g>
        <path id="Path_3038" data-name="Path 3038" d="M87.46,41.76c-.22-.13-.44-.25-.64-.37-1.14-.66-27.96-16.21-25.47-20.52a.636.636,0,0,1,.87-.23h0a.636.636,0,0,1,.23.87c-.77,1.33,8.59,9.31,25,18.78,16.58,9.58,23.83,11.23,24.52,10.03a.634.634,0,0,1,.87-.23h0a.634.634,0,0,1,.23.87c-2.12,3.68-18.12-4.91-25.61-9.2Z" fill="url(#linear-gradient-6)"/>
        <path id="Path_3039" data-name="Path 3039" d="M86.41,43.6c-.22-.13-.44-.25-.65-.37-1.14-.66-27.95-16.21-25.47-20.52a.672.672,0,0,1,.87-.23.636.636,0,0,1,.23.87c-.77,1.33,8.59,9.31,25,18.78,16.58,9.58,23.83,11.23,24.52,10.03a.636.636,0,0,1,.87-.23h0a.638.638,0,0,1,.23.87c-2.12,3.68-18.12-4.91-25.61-9.2Z" fill="url(#linear-gradient-7)"/>
        <path id="Path_3040" data-name="Path 3040" d="M66.47,22.62a1.473,1.473,0,1,1-.41-2.21,1.593,1.593,0,0,1,.41,2.21Z" fill="url(#radial-gradient-2)"/>
        <path id="Path_3041" data-name="Path 3041" d="M76.15,30.41a1.714,1.714,0,1,1-.63-2.34A1.715,1.715,0,0,1,76.15,30.41Z" fill="url(#radial-gradient-3)"/>
        <path id="Path_3042" data-name="Path 3042" d="M87.95,38.19a1.714,1.714,0,1,1-.63-2.34A1.706,1.706,0,0,1,87.95,38.19Z" fill="url(#radial-gradient-4)"/>
        <path id="Path_3043" data-name="Path 3043" d="M100.48,44.68a1.714,1.714,0,1,1-.63-2.34A1.706,1.706,0,0,1,100.48,44.68Z" fill="url(#radial-gradient-5)"/>
        <path id="Path_3044" data-name="Path 3044" d="M110.89,48.89a1.1,1.1,0,1,1,.01,0Z" fill="url(#radial-gradient-6)"/>
        <path id="Path_3045" data-name="Path 3045" d="M84.41,47.09c-.22-.13-.44-.25-.65-.37C82.62,46.06,55.81,30.51,58.3,26.2a.636.636,0,0,1,.87-.23h0a.636.636,0,0,1,.23.87c-.77,1.33,8.59,9.31,25,18.78,16.58,9.58,23.83,11.23,24.52,10.03a.636.636,0,0,1,.87-.23h0a.636.636,0,0,1,.23.87C107.9,59.97,91.89,51.38,84.41,47.09Z" fill="url(#linear-gradient-8)"/>
        <path id="Path_3046" data-name="Path 3046" d="M83.36,48.93c-.22-.13-.44-.25-.65-.37-1.14-.66-27.95-16.21-25.47-20.52a.672.672,0,0,1,.87-.23.636.636,0,0,1,.23.87c-.77,1.33,8.59,9.31,25,18.78,16.58,9.58,23.83,11.23,24.52,10.03a.634.634,0,0,1,.87-.23h0a.636.636,0,0,1,.23.87c-2.12,3.68-18.13-4.91-25.61-9.2Z" fill="url(#linear-gradient-9)"/>
        <path id="Path_3047" data-name="Path 3047" d="M59.52,34.75A1.473,1.473,0,1,1,57,33.3a1.472,1.472,0,1,1,2.52,1.44Z" fill="url(#radial-gradient-7)"/>
        <path id="Path_3048" data-name="Path 3048" d="M69.21,42.54a1.718,1.718,0,1,1-.64-2.34A1.715,1.715,0,0,1,69.21,42.54Z" fill="url(#radial-gradient-8)"/>
        <path id="Path_3049" data-name="Path 3049" d="M81,50.31a1.714,1.714,0,1,1-.63-2.34A1.715,1.715,0,0,1,81,50.31Z" fill="url(#radial-gradient-9)"/>
        <path id="Path_3050" data-name="Path 3050" d="M93.53,56.81a1.714,1.714,0,1,1-.63-2.34A1.715,1.715,0,0,1,93.53,56.81Z" fill="url(#radial-gradient-10)"/>
        <path id="Path_3051" data-name="Path 3051" d="M103.94,61.02a1.4,1.4,0,1,1-.33-2.16A1.57,1.57,0,0,1,103.94,61.02Z" fill="url(#radial-gradient-11)"/>
        <path id="Path_3052" data-name="Path 3052" d="M.57,167.38l.24,18.77,6.03-17.96a17.743,17.743,0,0,0-6.27-.82Z" fill="#333"/>
        <path id="Path_3053" data-name="Path 3053" d="M124.03,29.42c-1.49,2.59-13.82-1.73-27.53-9.65S72.88,3.34,74.37.75,88.19,2.48,101.9,10.4,125.52,26.83,124.03,29.42Z" fill="url(#radial-gradient-12)"/>
        <path id="Path_3054" data-name="Path 3054" d="M124.03,29.42a1.4,1.4,0,0,1-.72.59,3.616,3.616,0,0,1-.92.21,9.2,9.2,0,0,1-1.89-.06,24.456,24.456,0,0,1-3.69-.78,66.335,66.335,0,0,1-7.08-2.54c-2.32-.95-4.58-2.04-6.82-3.17s-4.44-2.32-6.62-3.56c-2.16-1.26-4.3-2.58-6.39-3.95s-4.17-2.79-6.15-4.32a68.226,68.226,0,0,1-5.74-4.86,25.6,25.6,0,0,1-2.51-2.8,9.126,9.126,0,0,1-1-1.6,3.24,3.24,0,0,1-.28-.9,1.3,1.3,0,0,1,.15-.91,1.281,1.281,0,0,0-.09.9,3.326,3.326,0,0,0,.33.86,9.427,9.427,0,0,0,1.05,1.53,25.119,25.119,0,0,0,2.61,2.65,67.367,67.367,0,0,0,5.84,4.66,139.288,139.288,0,0,0,12.58,8.08,141.22,141.22,0,0,0,13.28,6.86,66.7,66.7,0,0,0,6.95,2.72,26.223,26.223,0,0,0,3.61.94,9.559,9.559,0,0,0,1.85.15,3.1,3.1,0,0,0,.91-.15,1.318,1.318,0,0,0,.74-.53Z" fill="#ff70aa"/>
      </g>
    </g>
  </g>
</svg>
