<svg xmlns="http://www.w3.org/2000/svg" width="2127.18" height="1355.14" viewBox="0 0 2127.18 1355.14">
  <g id="podium" transform="translate(-186.41 -83.29)">
    <g id="White_BG" data-name="White BG">
      <g id="Layer1">
        <path id="Path_2757" data-name="Path 2757" d="M1300.82,1404.29c-283.26-4.07-647.83,19.57-879.7-154.63C235.1,1109.91,270.83,793.56,410.25,685.4c119.34-92.58,265.91,46.84,332.98,5.3,103.52-64.1,13.12-173.88,152.48-333.77,83.41-95.69,237.59-151.3,429.13-144.34,347.59,12.62,474.33,186.18,478.56,338.73,4.33,156.15,87.36,158.87,232.38,204.71,185.1,58.5,229.41,362.66,84.88,518.02-114.71,123.31-543.16,134.21-819.84,130.24ZM669.88,590.66c38.18,19.6,84.41-30.58,104.28-98.07,25.31-85.96,69.65-184,142.29-236.44,51.68-37.31,18.06-112.19-63.45-100.19C754.15,170.51,689.9,231,646.8,329.74c-38.83,88.97-39.62,228.74,23.08,260.93ZM1827.73,471.19c-12.16-42.22-34.03-73.64-25.48-96.39,10.01-26.64,81.89-18.43,112.49,56.88,29.42,72.4-2.59,114.63-39.5,116.14-32.31,1.32-32.96-26.14-47.5-76.63Zm-104.7-169.11c-19.55-13.82-31.35-50.64-9.63-69.43s74.16-15.93,85.28,27.96S1761.98,329.62,1723.03,302.08Z" fill="#fff" fill-rule="evenodd"/>
      </g>
    </g>
    <g id="Laurel2">
      <g id="Layer21">
        <g id="Group_371" data-name="Group 371">
          <path id="Path_2758" data-name="Path 2758" d="M2236.95,878.19a604.78,604.78,0,0,1-55.62,142.12c-22.05,40.35-51.6,83.08-90.93,122.06-68.77,68.16-159.46,121.37-264.64,132.76-86.98,9.42-183.84-9.84-286.34-72.85a6.426,6.426,0,0,0-6.68,10.98c105.62,63.66,205.09,82.43,294.16,71.99,107.17-12.56,199.29-67.44,268.82-137.57,39.5-39.83,69.07-83.37,91.05-124.44a609.788,609.788,0,0,0,54.89-143.92,2.418,2.418,0,1,0-4.7-1.14Z" fill="#a9503c" fill-rule="evenodd"/>
          <g id="Group_347" data-name="Group 347">
            <path id="Path_2759" data-name="Path 2759" d="M1698.3,1131.89c-5.8-.13-57-.68-81.91,16.61-43.64,30.3-31.65,76.22-31.18,77.93,11.88-12.33,33.24-33.68,50.41-47.07,17.07-13.31,45.81-34.88,62.68-47.47Z" fill="#a9503c" fill-rule="evenodd"/>
            <path id="Path_2760" data-name="Path 2760" d="M1698.3,1131.89c-16.87,12.58-45.61,34.16-62.68,47.46-17.17,13.39-38.53,34.74-50.41,47.07v.05s57.34,3.22,82.58-26.78c24.66-29.31,31.05-67.8,31.05-67.8h-.54Z" fill="#bf604b" fill-rule="evenodd"/>
          </g>
          <g id="Group_348" data-name="Group 348">
            <path id="Path_2761" data-name="Path 2761" d="M2241.41,800.06c1.98,2.42,19.19,23.96,20.11,40.26,1.61,28.56-21.84,38.7-22.72,39.07,1.29-9.13,3.27-25.27,3.26-36.99-.01-11.65-.39-31-.64-42.33Z" fill="#bf604b" fill-rule="evenodd"/>
            <path id="Path_2762" data-name="Path 2762" d="M2241.41,800.06c.25,11.33.63,30.68.65,42.33.01,11.73-1.97,27.86-3.26,37h-.02s-20.37-23.24-16.01-43.9c4.26-20.18,18.47-35.65,18.47-35.65l.18.23Z" fill="#a9503c" fill-rule="evenodd"/>
          </g>
          <g id="Group_349" data-name="Group 349">
            <path id="Path_2763" data-name="Path 2763" d="M2293.49,997.32c-2.36,3.8-23.54,37.06-45.18,45.86-37.92,15.41-62.5-11.65-63.4-12.67,12.96-2.48,35.72-7.27,51.58-12.72,15.77-5.41,41.78-14.88,57-20.47Z" fill="#a9503c" fill-rule="evenodd"/>
            <path id="Path_2764" data-name="Path 2764" d="M2293.49,997.32c-15.22,5.59-41.23,15.06-57,20.47-15.87,5.45-38.63,10.24-51.58,12.72l-.03-.03s22.04-38.34,52.02-42c29.29-3.58,56.81,8.5,56.81,8.5l-.23.35Z" fill="#bf604b" fill-rule="evenodd"/>
          </g>
          <g id="Group_350" data-name="Group 350">
            <path id="Path_2765" data-name="Path 2765" d="M2218.48,1150.28c-3.7,3.13-36.65,30.35-61.89,32.19-44.23,3.23-60.54-32.88-61.13-34.23,14.19,1.77,39.25,4.43,57.43,4.11,18.06-.31,48.04-1.39,65.6-2.07Z" fill="#a9503c" fill-rule="evenodd"/>
            <path id="Path_2766" data-name="Path 2766" d="M2218.48,1150.28c-17.55.68-47.53,1.76-65.6,2.07-18.18.32-43.24-2.34-57.43-4.11l-.02-.04s35.53-32.17,67.66-25.93c31.39,6.09,55.74,27.73,55.74,27.73l-.35.28Z" fill="#bf604b" fill-rule="evenodd"/>
          </g>
          <g id="Group_351" data-name="Group 351">
            <path id="Path_2767" data-name="Path 2767" d="M1973.73,1160.17c-3.82,1.25-37.35,12.67-49.62,29.68-21.51,29.81-3.12,57.02-2.42,58.02,4.92-10.78,13.94-29.62,22.07-42.31,8.08-12.61,21.87-33.3,29.98-45.39Z" fill="#a9503c" fill-rule="evenodd"/>
            <path id="Path_2768" data-name="Path 2768" d="M1973.73,1160.17c-8.11,12.09-21.9,32.78-29.98,45.39-8.13,12.69-17.15,31.53-22.07,42.31l.02.03s38.15-11.08,47.72-36.47c9.35-24.8,4.66-51.38,4.66-51.38l-.35.12Z" fill="#bf604b" fill-rule="evenodd"/>
          </g>
          <g id="Group_352" data-name="Group 352">
            <path id="Path_2769" data-name="Path 2769" d="M2159.35,886.15c-.69,3.56-6.34,35.03,1.72,52.16,14.13,30.02,43.65,27.41,44.75,27.3-6.36-8.6-17.29-23.97-23.75-35.93C2175.65,917.79,2165.35,897.85,2159.35,886.15Z" fill="#a9503c" fill-rule="evenodd"/>
            <path id="Path_2770" data-name="Path 2770" d="M2159.35,886.15c6,11.69,16.3,31.63,22.72,43.53,6.46,11.97,17.39,27.33,23.75,35.93h.03s7.94-34.97-7.91-53.63c-15.49-18.23-38.53-26.16-38.53-26.16l-.06.33Z" fill="#bf604b" fill-rule="evenodd"/>
          </g>
          <g id="Group_353" data-name="Group 353">
            <path id="Path_2771" data-name="Path 2771" d="M1956.29,1372.83c-5.38.22-52.91,1.57-78.36-14.4-44.59-27.99-39.51-71.67-39.3-73.29,12.68,11.48,35.36,31.36,53.1,43.76C1909.36,1341.23,1938.94,1361.19,1956.29,1372.83Z" fill="#a9503c" fill-rule="evenodd"/>
            <path id="Path_2772" data-name="Path 2772" d="M1956.29,1372.83c-17.35-11.64-46.93-31.61-64.56-43.93-17.74-12.4-40.42-32.28-53.1-43.76v-.05s52.88-3.98,80.32,24.02c26.8,27.36,37.84,63.71,37.84,63.71h-.5Z" fill="#bf604b" fill-rule="evenodd"/>
          </g>
          <g id="Group_354" data-name="Group 354">
            <path id="Path_2773" data-name="Path 2773" d="M2313.45,875.07c-1.39,2.85-13.96,27.83-29.33,36.54-26.93,15.27-48.13.44-48.91-.12,9.49-3.36,26.1-9.55,37.47-15.27,11.3-5.69,29.89-15.42,40.76-21.15Z" fill="#a9503c" fill-rule="evenodd"/>
            <path id="Path_2774" data-name="Path 2774" d="M2313.45,875.07c-10.87,5.73-29.46,15.47-40.76,21.15-11.37,5.72-27.99,11.91-37.48,15.27h-.02s12.7-28.5,34.86-34.89c21.64-6.24,43.54-1.8,43.54-1.8l-.14.26Z" fill="#bf604b" fill-rule="evenodd"/>
          </g>
          <g id="Group_355" data-name="Group 355">
            <path id="Path_2775" data-name="Path 2775" d="M1637.13,1367.46c-3.09-22.02.76-56.12-13.09-84.72s-46.04-42.96-46.04-42.96-2.99,25.56,13.6,58.5c8.78,17.44,30,47.63,40.06,61.64l5.47,7.54Z" fill="#bf604b" fill-rule="evenodd"/>
            <path id="Path_2776" data-name="Path 2776" d="M1577.99,1239.77s-36.61,29.29-21.33,63.84c17.92,40.51,80.46,63.84,80.46,63.84l-5.47-7.54c-10.06-14.01-31.28-44.21-40.06-61.64-16.59-32.94-13.6-58.5-13.6-58.5Z" fill="#a9503c" fill-rule="evenodd"/>
          </g>
          <g id="Group_356" data-name="Group 356">
            <path id="Path_2777" data-name="Path 2777" d="M2011.87,1303.65c-13.84-10.11-30.63-30.53-53.88-38.21s-48.46,2.42-48.46,2.42,12.53,15.36,39.65,23.86c14.36,4.5,42.44,8.96,55.59,10.91l7.1,1.02Z" fill="#bf604b" fill-rule="evenodd"/>
            <path id="Path_2778" data-name="Path 2778" d="M1909.53,1267.87s-3.44,35.96,23.87,46.04c32.02,11.81,78.47-10.26,78.47-10.26l-7.1-1.02c-13.15-1.95-41.23-6.41-55.59-10.91-27.12-8.49-39.65-23.86-39.65-23.86Z" fill="#a9503c" fill-rule="evenodd"/>
          </g>
          <g id="Group_357" data-name="Group 357">
            <path id="Path_2779" data-name="Path 2779" d="M1849.27,1369.47c-9.28-16.24-16.9-44.06-36.64-62.08s-49.35-19.19-49.35-19.19,5.63,20.89,28.86,41.44c12.3,10.88,38.28,27.84,50.51,35.64l6.62,4.18Z" fill="#bf604b" fill-rule="evenodd"/>
            <path id="Path_2780" data-name="Path 2780" d="M1763.29,1288.21s-19.46,34.29,3.25,56.5c26.63,26.04,82.73,24.76,82.73,24.76l-6.62-4.18c-12.22-7.8-38.21-24.77-50.51-35.64-23.22-20.55-28.86-41.44-28.86-41.44Z" fill="#a9503c" fill-rule="evenodd"/>
          </g>
          <g id="Group_358" data-name="Group 358">
            <path id="Path_2781" data-name="Path 2781" d="M1836.54,1197.06c-5.85,14.87-8.88,39.33-23.36,56.98s-39.37,22.28-39.37,22.28,2.2-18.35,19.31-38.58c9.06-10.71,28.95-28.24,38.33-36.34l5.08-4.35Z" fill="#bf604b" fill-rule="evenodd"/>
            <path id="Path_2782" data-name="Path 2782" d="M1773.81,1276.32s-20.66-26.6-4.18-48.17c19.31-25.29,66.91-31.09,66.91-31.09l-5.08,4.35c-9.38,8.1-29.27,25.63-38.33,36.34-17.11,20.22-19.31,38.58-19.31,38.58Z" fill="#a9503c" fill-rule="evenodd"/>
          </g>
          <g id="Group_359" data-name="Group 359">
            <path id="Path_2783" data-name="Path 2783" d="M1663.15,1254.01c8.34,4.95,43.89,22.67,79-10.4,22.75-21.43,25.62-52.97,32.97-72.3l-59.91,41.65c-16.71,11.59-53.89,39.9-53.89,39.9l1.83,1.15Z" fill="#bf604b" fill-rule="evenodd"/>
            <path id="Path_2784" data-name="Path 2784" d="M1767.37,1170.46c-14.46-1.2-45.88-1.9-65.86,11.57-34.59,23.32-39.42,60.06-40.08,68.88l-.11,1.95s37.18-28.31,53.89-39.9,59.91-41.65,59.91-41.65l-7.76-.85Z" fill="#a9503c" fill-rule="evenodd"/>
          </g>
          <g id="Group_360" data-name="Group 360">
            <path id="Path_2785" data-name="Path 2785" d="M2121.35,1096.26c6.42-3.65,27.73-19.26,19.11-54.97-5.59-23.14-21.53-38.15-31.54-50.31l4.93,55.35c1.36,15.43,6.05,50.7,6.05,50.7Z" fill="#bf604b" fill-rule="evenodd"/>
            <path id="Path_2786" data-name="Path 2786" d="M2105.43,995.79c-6.25,9.11-18.58,29.63-17.21,47.92,2.36,31.68,24.85,48.74,30.43,52.51l1.25.81s-4.69-35.28-6.05-50.7-4.93-55.35-4.93-55.35l-3.49,4.81Z" fill="#a9503c" fill-rule="evenodd"/>
          </g>
          <g id="Group_361" data-name="Group 361">
            <path id="Path_2787" data-name="Path 2787" d="M2040.77,1200.11c1.93,8.36,12.3,41.93,54.91,44.2,27.61,1.47,49.54-15.96,66.4-23.06l-63.24-12.9c-17.63-3.61-58.45-10.12-58.45-10.12l.38,1.87Z" fill="#a9503c" fill-rule="evenodd"/>
            <path id="Path_2788" data-name="Path 2788" d="M2157.89,1215.77c-8.07-9.98-26.81-30.52-47.63-35.08-36.05-7.89-62.51,11.46-68.56,16.42l-1.31,1.12s40.82,6.5,58.45,10.12,63.24,12.9,63.24,12.9l-4.19-5.48Z" fill="#bf604b" fill-rule="evenodd"/>
          </g>
          <g id="Group_362" data-name="Group 362">
            <path id="Path_2789" data-name="Path 2789" d="M2215.82,965.78c4.45,4.7,24.04,22.6,52.65,7.78,18.54-9.6,26.15-29.33,34.41-40.4l-46.1,15.78c-12.86,4.39-41.92,15.76-41.92,15.76l.96,1.07Z" fill="#a9503c" fill-rule="evenodd"/>
            <path id="Path_2790" data-name="Path 2790" d="M2298.06,931.19c-9.07-3.42-29.12-9.62-44.42-4.63-26.48,8.64-36.31,31.36-38.35,36.9l-.42,1.23s29.06-11.37,41.92-15.76,46.1-15.78,46.1-15.78l-4.83-1.97Z" fill="#bf604b" fill-rule="evenodd"/>
          </g>
          <g id="Group_363" data-name="Group 363">
            <path id="Path_2791" data-name="Path 2791" d="M2063.53,1157.43c7.05-1.79,29.41-17.77,33.02-47.62,2.82-23.26-11.01-41.4-17.33-55.55l-9.77,53.82c-2.74,15-7.5,49.71-7.5,49.71l1.58-.36Z" fill="#bf604b" fill-rule="evenodd"/>
            <path id="Path_2792" data-name="Path 2792" d="M2074.65,1057.91c-8.31,7.02-25.37,23.27-28.85,41-6.03,30.69,10.85,52.75,15.17,57.79l.98,1.09s4.76-34.71,7.5-49.71,9.77-53.82,9.77-53.82l-4.57,3.65Z" fill="#a9503c" fill-rule="evenodd"/>
          </g>
          <g id="Group_364" data-name="Group 364">
            <path id="Path_2793" data-name="Path 2793" d="M1745.42,1405.27s8.86-43.95-7.58-75.79c-21.06-40.81-67.26-54.5-78.48-57.28l-2.49-.57s20.22,24.97,40.11,54.01c9.94,14.52,22.05,34.43,31.67,50.71l16.76,28.93Z" fill="#bf604b" fill-rule="evenodd"/>
            <path id="Path_2794" data-name="Path 2794" d="M1654.59,1279.93c-3.67,15.54-8.87,49.57,8.29,73.2,22.89,31.51,82.53,52.14,82.53,52.14l-16.76-28.93c-9.62-16.28-21.73-36.19-31.67-50.71-19.89-29.04-40.11-54.01-40.11-54.01l-2.28,8.3Z" fill="#a9503c" fill-rule="evenodd"/>
          </g>
          <g id="Group_365" data-name="Group 365">
            <path id="Path_2795" data-name="Path 2795" d="M2169.82,838.54s25.02,2.45,39.42,16.48c18.44,17.99,18.21,45.01,17.87,51.48l-.1,1.43s-10.08-14.94-22.4-30.37c-6.16-7.71-14.85-17.47-22.01-25.3l-12.77-13.73Z" fill="#bf604b" fill-rule="evenodd"/>
            <path id="Path_2796" data-name="Path 2796" d="M2222.17,907.8c-8.94-.58-28.04-3.37-37.91-16.44-13.15-17.44-14.45-52.82-14.45-52.82l12.77,13.73c7.16,7.83,15.85,17.59,22.01,25.3,12.32,15.43,22.4,30.37,22.4,30.37l-4.83-.14Z" fill="#a9503c" fill-rule="evenodd"/>
          </g>
          <g id="Group_366" data-name="Group 366">
            <path id="Path_2797" data-name="Path 2797" d="M2101.25,1302.05s-9.09-36.04-32.77-53.99c-30.35-23-69.8-16.72-79.19-14.79l-2.07.46s24.06,11.45,49.32,26.06c12.63,7.31,28.81,17.87,41.83,26.61Z" fill="#bf604b" fill-rule="evenodd"/>
            <path id="Path_2798" data-name="Path 2798" d="M1988.48,1240.76c2.81,12.94,11.09,40.25,32.38,51.8,28.39,15.39,80.39,9.5,80.39,9.5l-22.88-15.65c-13.02-8.74-29.2-19.3-41.83-26.61-25.26-14.61-49.32-26.06-49.32-26.06l1.26,7.03Z" fill="#a9503c" fill-rule="evenodd"/>
          </g>
          <g id="Group_367" data-name="Group 367">
            <path id="Path_2799" data-name="Path 2799" d="M2128.13,931.2s28.47,10.65,40.91,31.51c15.94,26.74,7.27,58.24,4.86,65.69l-.56,1.64s-7.13-20.59-16.72-42.44c-4.8-10.92-11.92-25.03-17.84-36.4l-10.65-20.01Z" fill="#bf604b" fill-rule="evenodd"/>
            <path id="Path_2800" data-name="Path 2800" d="M2167.74,1028.38c-10.26-3.45-31.71-12.65-39.16-31-9.94-24.46-.45-66.18-.45-66.18l10.65,20.01c5.92,11.37,13.04,25.47,17.84,36.4,9.59,21.85,16.72,42.44,16.72,42.44l-5.6-1.66Z" fill="#a9503c" fill-rule="evenodd"/>
          </g>
          <g id="Group_368" data-name="Group 368">
            <path id="Path_2801" data-name="Path 2801" d="M2030.05,1098.52s15.27,30.45,9.58,57.07c-7.29,34.12-38.42,53.38-46.09,57.66l-1.71.92s9.84-22.34,18.62-47.6c4.39-12.63,9.29-29.64,13.1-43.5l6.51-24.55Z" fill="#bf604b" fill-rule="evenodd"/>
            <path id="Path_2802" data-name="Path 2802" d="M1988.5,1208.54c-5.79-10.66-16.4-34.57-8.54-55.32,10.48-27.67,50.09-54.7,50.09-54.7l-6.51,24.55c-3.8,13.86-8.71,30.87-13.1,43.5-8.78,25.26-18.62,47.6-18.62,47.6l-3.33-5.63Z" fill="#a9503c" fill-rule="evenodd"/>
          </g>
          <g id="Group_369" data-name="Group 369">
            <path id="Path_2803" data-name="Path 2803" d="M2259.2,1074.81s-28.31-18.95-55.43-16.62c-34.77,2.98-57.76,31.47-62.96,38.54l-1.12,1.58s23.4-6.98,49.55-12.54c13.08-2.78,30.57-5.52,44.79-7.57l25.17-3.4Z" fill="#bf604b" fill-rule="evenodd"/>
            <path id="Path_2804" data-name="Path 2804" d="M2144.85,1102.31c9.85,7.08,32.25,20.58,53.82,15.37,28.76-6.95,60.52-42.88,60.52-42.88l-25.17,3.4c-14.22,2.05-31.71,4.79-44.79,7.57-26.16,5.56-49.55,12.54-49.55,12.54Z" fill="#a9503c" fill-rule="evenodd"/>
          </g>
          <g id="Group_370" data-name="Group 370">
            <path id="Path_2805" data-name="Path 2805" d="M1914.16,1151.6s10.12,36.7-1.9,64.66c-15.41,35.83-53.72,50.18-63.06,53.21l-2.08.63s15.64-22.36,30.75-48.15c7.56-12.89,16.63-30.48,23.81-44.84l12.47-25.51Z" fill="#bf604b" fill-rule="evenodd"/>
            <path id="Path_2806" data-name="Path 2806" d="M1844.7,1263.19c-4.04-12.94-10.47-41.46,2.66-62.5,17.51-28.06,66.8-49.09,66.8-49.09l-12.47,25.51c-7.18,14.36-16.25,31.95-23.81,44.84-15.11,25.79-30.75,48.15-30.75,48.15l-2.43-6.9Z" fill="#a9503c" fill-rule="evenodd"/>
          </g>
        </g>
        <g id="Group_396" data-name="Group 396">
          <path id="Path_2807" data-name="Path 2807" d="M258.35,879.32a609.794,609.794,0,0,0,54.89,143.92c21.98,41.07,51.55,84.61,91.05,124.44,69.53,70.12,161.65,125.01,268.82,137.57,89.07,10.43,188.54-8.34,294.16-71.99a6.426,6.426,0,1,0-6.68-10.98c-102.49,63-199.35,82.27-286.34,72.85-105.18-11.39-195.87-64.61-264.64-132.76-39.33-38.98-68.88-81.71-90.93-122.06a604.333,604.333,0,0,1-55.62-142.12,2.418,2.418,0,1,0-4.7,1.14Z" fill="#a9503c" fill-rule="evenodd"/>
          <g id="Group_372" data-name="Group 372">
            <path id="Path_2808" data-name="Path 2808" d="M801.7,1131.89c5.8-.13,57-.68,81.91,16.61,43.64,30.3,31.65,76.22,31.18,77.93-11.88-12.33-33.24-33.68-50.41-47.07-17.07-13.31-45.81-34.88-62.68-47.47Z" fill="#a9503c" fill-rule="evenodd"/>
            <path id="Path_2809" data-name="Path 2809" d="M801.7,1131.89c16.87,12.58,45.61,34.16,62.68,47.46,17.17,13.39,38.53,34.74,50.41,47.07v.05s-57.34,3.22-82.58-26.78c-24.66-29.31-31.05-67.8-31.05-67.8h.54Z" fill="#bf604b" fill-rule="evenodd"/>
          </g>
          <g id="Group_373" data-name="Group 373">
            <path id="Path_2810" data-name="Path 2810" d="M258.59,800.06c-1.98,2.42-19.19,23.96-20.11,40.26-1.61,28.56,21.84,38.7,22.72,39.07-1.29-9.13-3.27-25.27-3.26-36.99.01-11.65.39-31,.64-42.33Z" fill="#bf604b" fill-rule="evenodd"/>
            <path id="Path_2811" data-name="Path 2811" d="M258.59,800.06c-.25,11.33-.63,30.68-.65,42.33-.01,11.73,1.97,27.86,3.26,37h.02s20.37-23.24,16.01-43.9c-4.26-20.18-18.47-35.65-18.47-35.65l-.18.23Z" fill="#a9503c" fill-rule="evenodd"/>
          </g>
          <g id="Group_374" data-name="Group 374">
            <path id="Path_2812" data-name="Path 2812" d="M206.51,997.32c2.36,3.8,23.54,37.06,45.18,45.86,37.92,15.41,62.5-11.65,63.4-12.67-12.96-2.48-35.72-7.27-51.58-12.72-15.77-5.41-41.78-14.88-57-20.47Z" fill="#a9503c" fill-rule="evenodd"/>
            <path id="Path_2813" data-name="Path 2813" d="M206.51,997.32c15.22,5.59,41.23,15.06,57,20.47,15.87,5.45,38.63,10.24,51.58,12.72l.03-.03s-22.04-38.34-52.02-42c-29.29-3.58-56.81,8.5-56.81,8.5l.23.35Z" fill="#bf604b" fill-rule="evenodd"/>
          </g>
          <g id="Group_375" data-name="Group 375">
            <path id="Path_2814" data-name="Path 2814" d="M281.52,1150.28c3.7,3.13,36.65,30.35,61.89,32.19,44.23,3.23,60.54-32.88,61.13-34.23-14.19,1.77-39.25,4.43-57.43,4.11-18.06-.31-48.04-1.39-65.6-2.07Z" fill="#a9503c" fill-rule="evenodd"/>
            <path id="Path_2815" data-name="Path 2815" d="M281.52,1150.28c17.55.68,47.53,1.76,65.6,2.07,18.18.32,43.24-2.34,57.43-4.11l.02-.04s-35.53-32.17-67.66-25.93c-31.39,6.09-55.74,27.73-55.74,27.73l.35.28Z" fill="#bf604b" fill-rule="evenodd"/>
          </g>
          <g id="Group_376" data-name="Group 376">
            <path id="Path_2816" data-name="Path 2816" d="M526.27,1160.17c3.82,1.25,37.35,12.67,49.62,29.68,21.51,29.81,3.12,57.02,2.42,58.02-4.92-10.78-13.94-29.62-22.07-42.31-8.08-12.61-21.87-33.3-29.98-45.39Z" fill="#a9503c" fill-rule="evenodd"/>
            <path id="Path_2817" data-name="Path 2817" d="M526.27,1160.17c8.11,12.09,21.9,32.78,29.98,45.39,8.13,12.69,17.15,31.53,22.07,42.31l-.02.03s-38.15-11.08-47.72-36.47c-9.35-24.8-4.66-51.38-4.66-51.38l.35.12Z" fill="#bf604b" fill-rule="evenodd"/>
          </g>
          <g id="Group_377" data-name="Group 377">
            <path id="Path_2818" data-name="Path 2818" d="M340.65,886.15c.69,3.56,6.34,35.03-1.72,52.16-14.13,30.02-43.65,27.41-44.75,27.3,6.36-8.6,17.29-23.97,23.75-35.93C324.35,917.79,334.65,897.85,340.65,886.15Z" fill="#a9503c" fill-rule="evenodd"/>
            <path id="Path_2819" data-name="Path 2819" d="M340.65,886.15c-6,11.69-16.3,31.63-22.72,43.53-6.46,11.97-17.39,27.33-23.75,35.93h-.03s-7.94-34.97,7.91-53.63c15.49-18.23,38.53-26.16,38.53-26.16l.06.33Z" fill="#bf604b" fill-rule="evenodd"/>
          </g>
          <g id="Group_378" data-name="Group 378">
            <path id="Path_2820" data-name="Path 2820" d="M543.71,1372.83c5.38.22,52.91,1.57,78.36-14.4,44.59-27.99,39.51-71.67,39.3-73.29-12.68,11.48-35.36,31.36-53.1,43.76C590.64,1341.23,561.06,1361.19,543.71,1372.83Z" fill="#a9503c" fill-rule="evenodd"/>
            <path id="Path_2821" data-name="Path 2821" d="M543.71,1372.83c17.35-11.64,46.93-31.61,64.56-43.93,17.74-12.4,40.42-32.28,53.1-43.76v-.05s-52.88-3.98-80.32,24.02c-26.8,27.36-37.84,63.71-37.84,63.71h.5Z" fill="#bf604b" fill-rule="evenodd"/>
          </g>
          <g id="Group_379" data-name="Group 379">
            <path id="Path_2822" data-name="Path 2822" d="M186.55,875.07c1.39,2.85,13.96,27.83,29.33,36.54,26.94,15.27,48.13.44,48.91-.12-9.48-3.36-26.1-9.55-37.47-15.27-11.3-5.69-29.89-15.42-40.76-21.15Z" fill="#a9503c" fill-rule="evenodd"/>
            <path id="Path_2823" data-name="Path 2823" d="M186.55,875.07c10.87,5.73,29.46,15.47,40.76,21.15,11.37,5.72,27.99,11.91,37.48,15.27h.02s-12.7-28.5-34.86-34.89c-21.64-6.24-43.54-1.8-43.54-1.8l.14.26Z" fill="#bf604b" fill-rule="evenodd"/>
          </g>
          <g id="Group_380" data-name="Group 380">
            <path id="Path_2824" data-name="Path 2824" d="M862.87,1367.46c3.09-22.02-.76-56.12,13.09-84.72S922,1239.78,922,1239.78s2.99,25.56-13.6,58.5c-8.78,17.44-30,47.63-40.06,61.64l-5.47,7.54Z" fill="#bf604b" fill-rule="evenodd"/>
            <path id="Path_2825" data-name="Path 2825" d="M922.01,1239.77s36.61,29.29,21.33,63.84c-17.92,40.51-80.46,63.84-80.46,63.84l5.47-7.54c10.06-14.01,31.28-44.21,40.06-61.64,16.59-32.94,13.6-58.5,13.6-58.5Z" fill="#a9503c" fill-rule="evenodd"/>
          </g>
          <g id="Group_381" data-name="Group 381">
            <path id="Path_2826" data-name="Path 2826" d="M488.13,1303.65c13.84-10.11,30.63-30.53,53.88-38.21s48.46,2.42,48.46,2.42-12.53,15.36-39.65,23.86c-14.36,4.5-42.44,8.96-55.59,10.91l-7.1,1.02Z" fill="#bf604b" fill-rule="evenodd"/>
            <path id="Path_2827" data-name="Path 2827" d="M590.47,1267.87s3.44,35.96-23.87,46.04c-32.02,11.81-78.47-10.26-78.47-10.26l7.1-1.02c13.15-1.95,41.23-6.41,55.59-10.91,27.12-8.49,39.65-23.86,39.65-23.86Z" fill="#a9503c" fill-rule="evenodd"/>
          </g>
          <g id="Group_382" data-name="Group 382">
            <path id="Path_2828" data-name="Path 2828" d="M650.73,1369.47c9.28-16.24,16.9-44.06,36.64-62.08s49.35-19.19,49.35-19.19-5.63,20.89-28.86,41.44c-12.3,10.88-38.28,27.84-50.51,35.64l-6.62,4.18Z" fill="#bf604b" fill-rule="evenodd"/>
            <path id="Path_2829" data-name="Path 2829" d="M736.71,1288.21s19.46,34.29-3.25,56.5c-26.63,26.04-82.73,24.76-82.73,24.76l6.62-4.18c12.22-7.8,38.21-24.77,50.51-35.64,23.22-20.55,28.86-41.44,28.86-41.44Z" fill="#a9503c" fill-rule="evenodd"/>
          </g>
          <g id="Group_383" data-name="Group 383">
            <path id="Path_2830" data-name="Path 2830" d="M663.46,1197.06c5.85,14.87,8.88,39.33,23.36,56.98s39.37,22.28,39.37,22.28-2.2-18.35-19.31-38.58c-9.06-10.71-28.95-28.24-38.33-36.34l-5.08-4.35Z" fill="#bf604b" fill-rule="evenodd"/>
            <path id="Path_2831" data-name="Path 2831" d="M726.19,1276.32s20.66-26.6,4.18-48.17c-19.31-25.29-66.91-31.09-66.91-31.09l5.08,4.35c9.38,8.1,29.27,25.63,38.33,36.34,17.11,20.22,19.31,38.58,19.31,38.58Z" fill="#a9503c" fill-rule="evenodd"/>
          </g>
          <g id="Group_384" data-name="Group 384">
            <path id="Path_2832" data-name="Path 2832" d="M836.85,1254.01c-8.34,4.95-43.89,22.67-79-10.4-22.75-21.43-25.62-52.97-32.97-72.3l59.91,41.65c16.71,11.59,53.89,39.9,53.89,39.9Z" fill="#bf604b" fill-rule="evenodd"/>
            <path id="Path_2833" data-name="Path 2833" d="M732.63,1170.46c14.46-1.2,45.88-1.9,65.86,11.57,34.59,23.32,39.42,60.06,40.08,68.88l.11,1.95s-37.18-28.31-53.89-39.9-59.91-41.65-59.91-41.65l7.76-.85Z" fill="#a9503c" fill-rule="evenodd"/>
          </g>
          <g id="Group_385" data-name="Group 385">
            <path id="Path_2834" data-name="Path 2834" d="M378.65,1096.26c-6.42-3.65-27.73-19.26-19.11-54.97,5.59-23.14,21.53-38.15,31.54-50.31l-4.93,55.35c-1.36,15.43-6.05,50.7-6.05,50.7Z" fill="#bf604b" fill-rule="evenodd"/>
            <path id="Path_2835" data-name="Path 2835" d="M394.57,995.79c6.25,9.11,18.58,29.63,17.21,47.92-2.36,31.68-24.85,48.74-30.43,52.51l-1.25.81s4.69-35.28,6.05-50.7,4.93-55.35,4.93-55.35l3.49,4.81Z" fill="#a9503c" fill-rule="evenodd"/>
          </g>
          <g id="Group_386" data-name="Group 386">
            <path id="Path_2836" data-name="Path 2836" d="M459.23,1200.11c-1.93,8.36-12.3,41.93-54.91,44.2-27.61,1.47-49.54-15.96-66.4-23.06l63.24-12.9c17.63-3.61,58.45-10.12,58.45-10.12l-.38,1.87Z" fill="#a9503c" fill-rule="evenodd"/>
            <path id="Path_2837" data-name="Path 2837" d="M342.11,1215.77c8.07-9.98,26.81-30.52,47.63-35.08,36.05-7.89,62.51,11.46,68.56,16.42l1.31,1.12s-40.82,6.5-58.45,10.12-63.24,12.9-63.24,12.9l4.19-5.48Z" fill="#bf604b" fill-rule="evenodd"/>
          </g>
          <g id="Group_387" data-name="Group 387">
            <path id="Path_2838" data-name="Path 2838" d="M284.18,965.78c-4.45,4.7-24.04,22.6-52.65,7.78-18.54-9.6-26.15-29.33-34.41-40.4l46.1,15.78c12.86,4.39,41.92,15.76,41.92,15.76l-.96,1.07Z" fill="#a9503c" fill-rule="evenodd"/>
            <path id="Path_2839" data-name="Path 2839" d="M201.94,931.19c9.07-3.42,29.12-9.62,44.42-4.63,26.48,8.64,36.31,31.36,38.35,36.9l.42,1.23s-29.06-11.37-41.92-15.76-46.1-15.78-46.1-15.78l4.83-1.97Z" fill="#bf604b" fill-rule="evenodd"/>
          </g>
          <g id="Group_388" data-name="Group 388">
            <path id="Path_2840" data-name="Path 2840" d="M436.47,1157.43c-7.05-1.79-29.41-17.77-33.02-47.62-2.82-23.26,11.01-41.4,17.33-55.55l9.77,53.82c2.74,15,7.5,49.71,7.5,49.71l-1.58-.36Z" fill="#bf604b" fill-rule="evenodd"/>
            <path id="Path_2841" data-name="Path 2841" d="M425.35,1057.91c8.31,7.02,25.37,23.27,28.85,41,6.03,30.69-10.85,52.75-15.17,57.79l-.98,1.09s-4.76-34.71-7.5-49.71-9.77-53.82-9.77-53.82l4.57,3.65Z" fill="#a9503c" fill-rule="evenodd"/>
          </g>
          <g id="Group_389" data-name="Group 389">
            <path id="Path_2842" data-name="Path 2842" d="M754.59,1405.27s-8.86-43.95,7.58-75.79c21.06-40.81,67.26-54.5,78.48-57.28l2.49-.57s-20.22,24.97-40.11,54.01c-9.94,14.52-22.05,34.43-31.67,50.71l-16.76,28.93Z" fill="#bf604b" fill-rule="evenodd"/>
            <path id="Path_2843" data-name="Path 2843" d="M845.41,1279.93c3.67,15.54,8.87,49.57-8.29,73.2-22.88,31.51-82.53,52.14-82.53,52.14l16.76-28.93c9.62-16.28,21.73-36.19,31.67-50.71,19.89-29.04,40.11-54.01,40.11-54.01l2.28,8.3Z" fill="#a9503c" fill-rule="evenodd"/>
          </g>
          <g id="Group_390" data-name="Group 390">
            <path id="Path_2844" data-name="Path 2844" d="M330.18,838.54s-25.02,2.45-39.42,16.48c-18.44,17.99-18.21,45.01-17.87,51.48l.1,1.43s10.08-14.94,22.4-30.37c6.16-7.71,14.85-17.47,22.01-25.3l12.77-13.73Z" fill="#bf604b" fill-rule="evenodd"/>
            <path id="Path_2845" data-name="Path 2845" d="M277.83,907.8c8.94-.58,28.04-3.37,37.91-16.44,13.15-17.44,14.45-52.82,14.45-52.82l-12.77,13.73c-7.16,7.83-15.85,17.59-22.01,25.3-12.32,15.43-22.4,30.37-22.4,30.37l4.83-.14Z" fill="#a9503c" fill-rule="evenodd"/>
          </g>
          <g id="Group_391" data-name="Group 391">
            <path id="Path_2846" data-name="Path 2846" d="M398.75,1302.05s9.09-36.04,32.77-53.99c30.35-23,69.8-16.72,79.19-14.79l2.07.46s-24.06,11.45-49.32,26.06c-12.63,7.31-28.81,17.87-41.83,26.61l-22.88,15.65Z" fill="#bf604b" fill-rule="evenodd"/>
            <path id="Path_2847" data-name="Path 2847" d="M511.52,1240.76c-2.81,12.94-11.09,40.25-32.38,51.8-28.39,15.39-80.39,9.5-80.39,9.5l22.88-15.65c13.02-8.74,29.2-19.3,41.83-26.61,25.26-14.61,49.32-26.06,49.32-26.06l-1.26,7.03Z" fill="#a9503c" fill-rule="evenodd"/>
          </g>
          <g id="Group_392" data-name="Group 392">
            <path id="Path_2848" data-name="Path 2848" d="M371.87,931.2s-28.47,10.65-40.91,31.51c-15.94,26.74-7.27,58.24-4.86,65.69l.56,1.64s7.13-20.59,16.72-42.44c4.8-10.92,11.92-25.03,17.84-36.4l10.65-20.01Z" fill="#bf604b" fill-rule="evenodd"/>
            <path id="Path_2849" data-name="Path 2849" d="M332.26,1028.38c10.26-3.45,31.71-12.65,39.16-31,9.94-24.46.45-66.18.45-66.18l-10.65,20.01c-5.92,11.37-13.04,25.47-17.84,36.4-9.59,21.85-16.72,42.44-16.72,42.44l5.6-1.66Z" fill="#a9503c" fill-rule="evenodd"/>
          </g>
          <g id="Group_393" data-name="Group 393">
            <path id="Path_2850" data-name="Path 2850" d="M469.95,1098.52s-15.27,30.45-9.58,57.07c7.29,34.12,38.42,53.38,46.09,57.66l1.71.92s-9.84-22.34-18.62-47.6c-4.39-12.63-9.29-29.64-13.1-43.5l-6.51-24.55Z" fill="#bf604b" fill-rule="evenodd"/>
            <path id="Path_2851" data-name="Path 2851" d="M511.5,1208.54c5.79-10.66,16.4-34.57,8.54-55.32-10.48-27.67-50.09-54.7-50.09-54.7l6.51,24.55c3.8,13.86,8.71,30.87,13.1,43.5,8.78,25.26,18.62,47.6,18.62,47.6l3.33-5.63Z" fill="#a9503c" fill-rule="evenodd"/>
          </g>
          <g id="Group_394" data-name="Group 394">
            <path id="Path_2852" data-name="Path 2852" d="M240.8,1074.81s28.31-18.95,55.43-16.62c34.77,2.98,57.76,31.47,62.96,38.54l1.12,1.58s-23.4-6.98-49.55-12.54c-13.08-2.78-30.57-5.52-44.79-7.57l-25.17-3.4Z" fill="#bf604b" fill-rule="evenodd"/>
            <path id="Path_2853" data-name="Path 2853" d="M355.15,1102.31c-9.85,7.08-32.25,20.58-53.82,15.37-28.76-6.95-60.52-42.88-60.52-42.88l25.17,3.4c14.22,2.05,31.71,4.79,44.79,7.57,26.16,5.56,49.55,12.54,49.55,12.54l-5.17,4Z" fill="#a9503c" fill-rule="evenodd"/>
          </g>
          <g id="Group_395" data-name="Group 395">
            <path id="Path_2854" data-name="Path 2854" d="M585.84,1151.6s-10.12,36.7,1.9,64.66c15.41,35.83,53.72,50.18,63.06,53.21l2.08.63s-15.64-22.36-30.75-48.15c-7.56-12.89-16.63-30.48-23.81-44.84l-12.47-25.51Z" fill="#bf604b" fill-rule="evenodd"/>
            <path id="Path_2855" data-name="Path 2855" d="M655.3,1263.19c4.04-12.94,10.47-41.46-2.66-62.5-17.51-28.06-66.8-49.09-66.8-49.09l12.47,25.51c7.18,14.36,16.25,31.95,23.81,44.84,15.11,25.79,30.75,48.15,30.75,48.15l2.43-6.9Z" fill="#a9503c" fill-rule="evenodd"/>
          </g>
        </g>
      </g>
    </g>
    <g id="Laurel1">
      <g id="Group_447" data-name="Group 447">
        <g id="Group_421" data-name="Group 421">
          <path id="Path_2856" data-name="Path 2856" d="M693.07,367.78c-17.7,37.64-46.21,107.58-62.44,196.17-11.21,61.24-16.55,131.38-8.42,205.91,14.31,131.2,64.93,265.29,166.52,367.64,84.43,85.06,204.07,148.26,367.49,169.64a8.592,8.592,0,0,0,2.15-17.05c-159.62-19.46-276.92-79.96-360.02-162.23-100.48-99.48-151-230.62-166.15-359.13-8.67-73.5-3.99-142.77,6.56-203.32,15.31-87.91,42.96-157.46,60.17-194.9a3.237,3.237,0,0,0-5.87-2.73Z" fill="#a9503c" fill-rule="evenodd"/>
          <g id="Group_397" data-name="Group 397">
            <path id="Path_2857" data-name="Path 2857" d="M1050.87,1084.22c6.18,4.69,60.16,46.74,71.81,85.56,20.4,68.02-30.37,106.04-32.28,107.44-2.16-22.79-6.71-62.88-13.52-91.18-6.76-28.12-18.85-74.61-26.01-101.81Z" fill="#a9503c" fill-rule="evenodd"/>
            <path id="Path_2858" data-name="Path 2858" d="M1050.87,1084.22c7.16,27.2,19.25,73.68,26.01,101.81,6.81,28.3,11.35,68.4,13.51,91.19l-.05.04s-62.62-44.36-64.03-96.75c-1.38-51.17,23.99-96.74,23.99-96.74l.56.45Z" fill="#bf604b" fill-rule="evenodd"/>
          </g>
          <g id="Group_398" data-name="Group 398">
            <path id="Path_2859" data-name="Path 2859" d="M759.31,285.12c-4.08.88-40.01,9.07-54.54,25.34-25.47,28.52-9.38,58.65-8.77,59.76,6.25-10.62,17.62-29.14,27.4-41.39,9.72-12.17,26.22-32.09,35.92-43.72Z" fill="#bf604b" fill-rule="evenodd"/>
            <path id="Path_2860" data-name="Path 2860" d="M759.31,285.12c-9.7,11.63-26.2,31.55-35.92,43.72-9.78,12.25-21.14,30.77-27.4,41.39l.02.03s40.66-7.35,53.3-32.58c12.35-24.64,10.37-52.66,10.37-52.66l-.38.09Z" fill="#a9503c" fill-rule="evenodd"/>
          </g>
          <g id="Group_399" data-name="Group 399">
            <path id="Path_2861" data-name="Path 2861" d="M540.63,448c-.7,5.94-6.24,58.35,9.06,85.56,26.81,47.68,75.04,39.85,76.84,39.54-11.48-13.38-31.29-37.34-43.34-56.25-11.98-18.79-31.29-50.34-42.55-68.85Z" fill="#a9503c" fill-rule="evenodd"/>
            <path id="Path_2862" data-name="Path 2862" d="M540.63,448c11.26,18.51,30.57,50.07,42.55,68.86,12.05,18.9,31.86,42.87,43.34,56.25h.05s8.88-58.45-19.42-87.24c-27.64-28.12-66.47-38.42-66.47-38.42l-.05.55Z" fill="#bf604b" fill-rule="evenodd"/>
          </g>
          <g id="Group_400" data-name="Group 400">
            <path id="Path_2863" data-name="Path 2863" d="M491.71,670.37c1.26,6.35,13.05,62.24,37.91,85.19,43.56,40.2,90.67,16.03,92.42,15.11-16.31-9.96-44.72-28.05-63.46-43.52-18.62-15.37-49.07-41.45-66.86-56.78Z" fill="#a9503c" fill-rule="evenodd"/>
            <path id="Path_2864" data-name="Path 2864" d="M491.71,670.37c17.79,15.32,48.24,41.41,66.86,56.78,18.74,15.47,47.16,33.55,63.47,43.52l.05-.02s-10.36-63.22-49.15-83.45c-37.89-19.76-81.36-17.41-81.36-17.41l.13.59Z" fill="#bf604b" fill-rule="evenodd"/>
          </g>
          <g id="Group_401" data-name="Group 401">
            <path id="Path_2865" data-name="Path 2865" d="M739.36,884.47c2.95,4.48,28.5,44.34,27.17,72.34-2.33,49.07-44.21,62.21-45.77,62.68,3.83-15.37,10.09-42.58,12.16-62.61,2.06-19.91,4.86-53.02,6.45-72.41Z" fill="#a9503c" fill-rule="evenodd"/>
            <path id="Path_2866" data-name="Path 2866" d="M739.36,884.47c-1.59,19.39-4.39,52.51-6.44,72.42-2.07,20.03-8.32,47.24-12.16,62.61h-.04s-30.66-43.33-19.52-77.84c10.87-33.71,37.9-57.61,37.9-57.61l.26.42Z" fill="#bf604b" fill-rule="evenodd"/>
          </g>
          <g id="Group_402" data-name="Group 402">
            <path id="Path_2867" data-name="Path 2867" d="M773.43,443.44c-2.25,4.29-22.53,41.9-45.23,53.11-39.76,19.63-68.45-7.68-69.51-8.71,13.81-3.7,38.03-10.66,54.75-17.8C730.06,462.95,757.42,450.68,773.43,443.44Z" fill="#a9503c" fill-rule="evenodd"/>
            <path id="Path_2868" data-name="Path 2868" d="M773.43,443.43c-16.01,7.23-43.37,19.51-59.99,26.6-16.72,7.13-40.94,14.1-54.75,17.8l-.03-.03s20.81-43.17,52.92-49.48c31.37-6.16,62.06,4.72,62.06,4.72l-.22.39Z" fill="#bf604b" fill-rule="evenodd"/>
          </g>
          <g id="Group_403" data-name="Group 403">
            <path id="Path_2869" data-name="Path 2869" d="M580.55,1121.34c5.44,4.71,54.01,45.69,93.91,50.18,69.92,7.86,100.98-42.04,102.11-43.91-22.82,1.45-63.07,3.35-91.95,1.54-28.7-1.79-76.24-5.55-104.07-7.81Z" fill="#a9503c" fill-rule="evenodd"/>
            <path id="Path_2870" data-name="Path 2870" d="M580.55,1121.33c27.83,2.27,75.38,6.02,104.07,7.82,28.87,1.8,69.13-.09,91.95-1.54l.03-.05s-51.97-48.19-103.98-41.75c-50.8,6.29-92.6,35.1-92.6,35.1l.52.43Z" fill="#bf604b" fill-rule="evenodd"/>
          </g>
          <g id="Group_404" data-name="Group 404">
            <path id="Path_2871" data-name="Path 2871" d="M621.55,303.57c-.92,4.13-8.58,40.71.24,62.62,15.45,38.39,49.95,40.53,51.23,40.6-7.12-11.41-19.34-31.72-26.47-47.17-7.08-15.35-18.41-41.01-25.01-56.05Z" fill="#a9503c" fill-rule="evenodd"/>
            <path id="Path_2872" data-name="Path 2872" d="M621.55,303.57c6.59,15.04,17.92,40.7,25.01,56.06,7.13,15.45,19.35,35.76,26.47,47.17h.04s10.44-40.35-7.41-65.48c-17.43-24.54-44.02-38.13-44.02-38.13l-.08.39Z" fill="#bf604b" fill-rule="evenodd"/>
          </g>
          <g id="Group_405" data-name="Group 405">
            <path id="Path_2873" data-name="Path 2873" d="M918.71,1381.44c21.57-20.46,45.93-59.31,84.22-77.68s83.9-6.58,83.9-6.58-18.15,29.21-62.92,49.84c-23.7,10.92-71.03,24.82-93.21,31.09l-11.99,3.33Z" fill="#bf604b" fill-rule="evenodd"/>
            <path id="Path_2874" data-name="Path 2874" d="M1086.84,1297.18s13.89,61.11-30.85,84.5c-52.46,27.43-137.27-.24-137.27-.24l11.99-3.33c22.18-6.27,69.51-20.17,93.21-31.09,44.77-20.63,62.92-49.84,62.92-49.84Z" fill="#a9503c" fill-rule="evenodd"/>
          </g>
          <g id="Group_406" data-name="Group 406">
            <path id="Path_2875" data-name="Path 2875" d="M580.03,1002.73c22.88.96,57.44-6.41,88.15,4.92s48.65,42.88,48.65,42.88-25.89,5.63-61.32-8.07c-18.75-7.25-51.83-25.97-67.2-34.88Z" fill="#bf604b" fill-rule="evenodd"/>
            <path id="Path_2876" data-name="Path 2876" d="M716.82,1050.53s-26.35,40.46-63.29,28.26c-43.31-14.31-73.5-76.06-73.5-76.06l8.28,4.85c15.37,8.91,48.45,27.63,67.2,34.88,35.42,13.7,61.32,8.07,61.32,8.07Z" fill="#a9503c" fill-rule="evenodd"/>
          </g>
          <g id="Group_407" data-name="Group 407">
            <path id="Path_2877" data-name="Path 2877" d="M695.23,1206.93c23.22-9.25,54.36-31.99,89.99-34.4s67.57,21.02,67.57,21.02-23.28,17.15-64.67,19.3c-21.91,1.14-63.2-2.76-82.48-4.78l-10.4-1.14Z" fill="#bf604b" fill-rule="evenodd"/>
            <path id="Path_2878" data-name="Path 2878" d="M852.78,1193.55s-8.21,52.05-50.44,56.36c-49.52,5.06-107.12-42.99-107.12-42.99l10.4,1.14c19.28,2.02,60.57,5.92,82.48,4.78,41.39-2.15,64.67-19.3,64.67-19.3Z" fill="#a9503c" fill-rule="evenodd"/>
          </g>
          <g id="Group_408" data-name="Group 408">
            <path id="Path_2879" data-name="Path 2879" d="M852.09,1037.26c-6.26,20.41-23.45,48.51-23.02,79.02s22.61,56.07,22.61,56.07,12.98-21.02,11.93-56.41c-.56-18.74-6.76-53.62-9.82-69.9l-1.69-8.78Z" fill="#bf604b" fill-rule="evenodd"/>
            <path id="Path_2880" data-name="Path 2880" d="M851.68,1172.36s43.75-10.61,44.48-46.88c.86-42.52-44.07-88.21-44.07-88.21l1.69,8.78c3.06,16.27,9.26,51.16,9.82,69.9,1.05,35.39-11.93,56.41-11.93,56.41Z" fill="#a9503c" fill-rule="evenodd"/>
          </g>
          <g id="Group_409" data-name="Group 409">
            <path id="Path_2881" data-name="Path 2881" d="M985.96,1241.17c-12.84-1.77-64.76-12.84-73.94-76.65-5.94-41.35,17.31-76.71,25.72-103.04l27.97,93.42c7.82,26.04,23.13,86.59,23.13,86.59l-2.87-.32Z" fill="#bf604b" fill-rule="evenodd"/>
            <path id="Path_2882" data-name="Path 2882" d="M946.55,1067.04c16.12,10.79,49.56,36.21,59.23,66.93,16.75,53.18-8.79,95.61-15.44,105.39l-1.51,2.13s-15.31-60.55-23.13-86.59-27.97-93.42-27.97-93.42l8.82,5.57Z" fill="#a9503c" fill-rule="evenodd"/>
          </g>
          <g id="Group_410" data-name="Group 410">
            <path id="Path_2883" data-name="Path 2883" d="M638.23,694.75c-3.67-9.16-12.96-43.23,25.79-73.38,25.1-19.54,54.27-21.96,74.86-26.34l-51.23,53.76c-14.27,15-48.54,47.98-48.54,47.98l-.87-2.02Z" fill="#bf604b" fill-rule="evenodd"/>
            <path id="Path_2884" data-name="Path 2884" d="M738.52,602.96c-1.05,14.73-5.24,46.44-21.91,64.44-28.85,31.15-66.56,30.27-75.53,29.57l-1.98-.2s34.27-32.98,48.54-47.98,51.23-53.76,51.23-53.76l-.35,7.93Z" fill="#a9503c" fill-rule="evenodd"/>
          </g>
          <g id="Group_411" data-name="Group 411">
            <path id="Path_2885" data-name="Path 2885" d="M636.02,870.43c-8.97,7.13-47.77,33.6-94.21.5-30.09-21.45-38.51-57.93-50.23-79.39l76.86,39.17c21.44,10.9,69.53,38.09,69.53,38.09l-1.96,1.64Z" fill="#a9503c" fill-rule="evenodd"/>
            <path id="Path_2886" data-name="Path 2886" d="M500.53,789.29c16.75-3.72,53.44-9.59,79,2.97,44.26,21.76,55.81,64.02,58.01,74.25l.44,2.27s-48.1-27.19-69.53-38.09-76.86-39.17-76.86-39.17l8.95-2.24Z" fill="#bf604b" fill-rule="evenodd"/>
          </g>
          <g id="Group_412" data-name="Group 412">
            <path id="Path_2887" data-name="Path 2887" d="M648.1,479.67c-8.57,1.21-43.94,3.61-61.52-35.69-11.39-25.47-2.92-52.44-2.34-70.89l35.06,54.88c9.79,15.29,30.7,51.38,30.7,51.38l-1.9.32Z" fill="#a9503c" fill-rule="evenodd"/>
            <path id="Path_2888" data-name="Path 2888" d="M590.91,375.05c12.33,3.98,38.46,14.19,50.29,32.14,20.49,31.09,11.85,63.02,9.37,70.52l-.58,1.64s-20.92-36.09-30.7-51.38-35.06-54.88-35.06-54.88l6.68,1.96Z" fill="#bf604b" fill-rule="evenodd"/>
          </g>
          <g id="Group_413" data-name="Group 413">
            <path id="Path_2889" data-name="Path 2889" d="M647.76,806.85c-5.88-7.73-15.95-43.07,5.12-77.29,16.42-26.67,45.97-34.12,64.37-43.65l-34.59,64.41c-9.63,17.96-33.54,58.22-33.54,58.22l-1.36-1.69Z" fill="#bf604b" fill-rule="evenodd"/>
            <path id="Path_2890" data-name="Path 2890" d="M718.98,693.54c2.85,14.26,7.15,45.45-3.97,66.88-19.25,37.1-55.27,46.12-63.97,47.79l-1.93.33s23.92-40.25,33.54-58.22,34.59-64.41,34.59-64.41l1.74,7.62Z" fill="#a9503c" fill-rule="evenodd"/>
          </g>
          <g id="Group_414" data-name="Group 414">
            <path id="Path_2891" data-name="Path 2891" d="M774,1330.83s27.33-53.32,71.02-72.93c56-25.13,115.69-.98,129.74,5.45l3.08,1.47s-41.93,9.27-86.9,23.08c-22.48,6.9-51.72,17.63-75.33,26.64L774,1330.83Z" fill="#bf604b" fill-rule="evenodd"/>
            <path id="Path_2892" data-name="Path 2892" d="M973.32,1275.39c-9.1,19.3-32,59.21-69.62,69.63-50.16,13.89-129.7-14.2-129.7-14.2l41.61-16.29c23.61-9.01,52.85-19.74,75.33-26.64,44.97-13.81,86.9-23.08,86.9-23.08l-4.53,10.58Z" fill="#a9503c" fill-rule="evenodd"/>
          </g>
          <g id="Group_415" data-name="Group 415">
            <path id="Path_2893" data-name="Path 2893" d="M802.13,384.95s-28.2-18.27-54.93-15.58c-34.25,3.45-56.51,31.89-61.55,38.95l-1.09,1.58s22.98-7.23,48.7-13.1c12.86-2.94,30.08-5.9,44.08-8.13Z" fill="#bf604b" fill-rule="evenodd"/>
            <path id="Path_2894" data-name="Path 2894" d="M689.73,413.78c9.82,6.84,32.12,19.83,53.33,14.37,28.27-7.28,59.08-43.19,59.08-43.19l-24.79,3.72c-14,2.23-31.22,5.19-44.08,8.13-25.72,5.87-48.7,13.1-48.7,13.1Z" fill="#a9503c" fill-rule="evenodd"/>
          </g>
          <g id="Group_416" data-name="Group 416">
            <path id="Path_2895" data-name="Path 2895" d="M487.92,926.65s39.51-30.12,79.21-29.16c50.88,1.22,86.9,40.63,95.11,50.47l1.78,2.21s-34.69-8.06-73.26-13.81c-19.29-2.88-45-5.3-65.88-7.01l-36.95-2.69Z" fill="#bf604b" fill-rule="evenodd"/>
            <path id="Path_2896" data-name="Path 2896" d="M656.85,956.45c-13.71,11.19-45.11,32.85-76.98,27.19-42.5-7.54-91.95-57-91.95-57l36.95,2.69c20.89,1.7,46.6,4.13,65.88,7.01,38.58,5.75,73.26,13.81,73.26,13.81l-7.17,6.29Z" fill="#a9503c" fill-rule="evenodd"/>
          </g>
          <g id="Group_417" data-name="Group 417">
            <path id="Path_2897" data-name="Path 2897" d="M768.57,516.53s-38.63-12.57-69.01-1.11c-38.94,14.69-56.09,54.83-59.77,64.64l-.78,2.18s24.59-15.59,52.81-30.45c14.11-7.43,33.3-16.24,48.96-23.2l27.79-12.06Z" fill="#bf604b" fill-rule="evenodd"/>
            <path id="Path_2898" data-name="Path 2898" d="M646.24,585.16c13.6,4.93,43.69,13.17,66.75.2,30.76-17.3,55.57-68.82,55.57-68.82L740.77,528.6c-15.66,6.96-34.85,15.77-48.96,23.2C663.59,566.66,639,582.25,639,582.25l7.23,2.92Z" fill="#a9503c" fill-rule="evenodd"/>
          </g>
          <g id="Group_418" data-name="Group 418">
            <path id="Path_2899" data-name="Path 2899" d="M731.81,773.12s-41.31,19.12-57.53,51.7c-20.79,41.75-4.27,87.8.18,98.66l1.03,2.38s8.32-31.55,20.17-65.27c5.92-16.86,14.96-38.73,22.52-56.38l13.64-31.09Z" fill="#bf604b" fill-rule="evenodd"/>
            <path id="Path_2900" data-name="Path 2900" d="M683.65,922.75c14.93-6.32,45.92-22.49,54.98-50.73,12.08-37.66-6.82-98.9-6.82-98.9l-13.64,31.09c-7.56,17.65-16.6,39.52-22.52,56.38-11.85,33.72-20.17,65.27-20.17,65.27l8.17-3.12Z" fill="#a9503c" fill-rule="evenodd"/>
          </g>
          <g id="Group_419" data-name="Group 419">
            <path id="Path_2901" data-name="Path 2901" d="M511.97,557.56s45.37,3.76,71.8,28.77c33.87,32.06,34.19,80.98,33.74,92.71l-.14,2.59S598.72,654.86,576,627.27c-11.36-13.79-27.36-31.22-40.53-45.2l-23.49-24.51Z" fill="#bf604b" fill-rule="evenodd"/>
            <path id="Path_2902" data-name="Path 2902" d="M608.62,681.52c-16.19-.8-50.85-5.33-69.07-28.74-24.29-31.21-27.58-95.22-27.58-95.22l23.49,24.51c13.17,13.98,29.17,31.41,40.53,45.2,22.72,27.59,41.37,54.36,41.37,54.36l-8.74-.12Z" fill="#a9503c" fill-rule="evenodd"/>
          </g>
          <g id="Group_420" data-name="Group 420">
            <path id="Path_2903" data-name="Path 2903" d="M808.78,925.11s-41.14,29.94-51.85,69.18c-13.72,50.28,14.39,97.19,21.63,108.13l1.64,2.39s2.26-36.4,7.93-75.94c2.83-19.77,7.99-45.71,12.45-66.71l8.2-37.05Z" fill="#bf604b" fill-rule="evenodd"/>
            <path id="Path_2904" data-name="Path 2904" d="M788.49,1099.62c15-10.17,45.46-34.63,49.26-67.56,5.06-43.91-28.97-106.94-28.97-106.94l-8.2,37.05c-4.45,21-9.61,46.94-12.45,66.71-5.67,39.54-7.93,75.94-7.93,75.94l8.28-5.19Z" fill="#a9503c" fill-rule="evenodd"/>
          </g>
        </g>
        <g id="Group_446" data-name="Group 446">
          <path id="Path_2905" data-name="Path 2905" d="M1801.07,370.51c17.21,37.44,44.86,106.99,60.17,194.9,10.54,60.55,15.22,129.82,6.56,203.32-15.15,128.51-65.67,259.66-166.15,359.13-83.1,82.27-200.4,142.77-360.02,162.23a8.592,8.592,0,1,0,2.15,17.05c163.42-21.38,283.05-84.57,367.49-169.64,101.59-102.35,152.21-236.44,166.52-367.64,8.13-74.53,2.8-144.67-8.42-205.91-16.22-88.59-44.74-158.54-62.44-196.17a3.237,3.237,0,1,0-5.87,2.73Z" fill="#a9503c" fill-rule="evenodd"/>
          <g id="Group_422" data-name="Group 422">
            <path id="Path_2906" data-name="Path 2906" d="M1449.13,1084.22c-6.18,4.69-60.16,46.74-71.81,85.56-20.4,68.02,30.37,106.04,32.28,107.44,2.16-22.79,6.71-62.88,13.52-91.18,6.76-28.12,18.85-74.61,26.01-101.81Z" fill="#a9503c" fill-rule="evenodd"/>
            <path id="Path_2907" data-name="Path 2907" d="M1449.13,1084.22c-7.16,27.2-19.25,73.68-26.01,101.81-6.81,28.3-11.35,68.4-13.51,91.19l.05.04s62.62-44.36,64.03-96.75c1.38-51.17-23.99-96.74-23.99-96.74l-.56.45Z" fill="#bf604b" fill-rule="evenodd"/>
          </g>
          <g id="Group_423" data-name="Group 423">
            <path id="Path_2908" data-name="Path 2908" d="M1740.69,285.12c4.09.88,40.01,9.07,54.54,25.34,25.47,28.52,9.38,58.65,8.77,59.76-6.25-10.62-17.62-29.14-27.4-41.39-9.72-12.17-26.22-32.09-35.92-43.72Z" fill="#bf604b" fill-rule="evenodd"/>
            <path id="Path_2909" data-name="Path 2909" d="M1740.69,285.12c9.7,11.63,26.2,31.55,35.92,43.72,9.78,12.25,21.14,30.77,27.4,41.39l-.02.03s-40.66-7.35-53.3-32.58c-12.35-24.64-10.37-52.66-10.37-52.66l.38.09Z" fill="#a9503c" fill-rule="evenodd"/>
          </g>
          <g id="Group_424" data-name="Group 424">
            <path id="Path_2910" data-name="Path 2910" d="M1959.37,448c.7,5.94,6.24,58.35-9.06,85.56-26.81,47.68-75.04,39.85-76.84,39.54,11.48-13.38,31.29-37.34,43.34-56.25,11.98-18.79,31.29-50.34,42.55-68.85Z" fill="#a9503c" fill-rule="evenodd"/>
            <path id="Path_2911" data-name="Path 2911" d="M1959.37,448c-11.26,18.51-30.57,50.07-42.55,68.86-12.05,18.9-31.86,42.87-43.34,56.25h-.05s-8.88-58.45,19.42-87.24c27.64-28.12,66.47-38.42,66.47-38.42Z" fill="#bf604b" fill-rule="evenodd"/>
          </g>
          <g id="Group_425" data-name="Group 425">
            <path id="Path_2912" data-name="Path 2912" d="M2008.29,670.37c-1.26,6.35-13.05,62.24-37.91,85.19-43.56,40.2-90.67,16.03-92.42,15.11,16.31-9.96,44.72-28.05,63.46-43.52,18.62-15.37,49.07-41.45,66.86-56.78Z" fill="#a9503c" fill-rule="evenodd"/>
            <path id="Path_2913" data-name="Path 2913" d="M2008.29,670.37c-17.79,15.32-48.24,41.41-66.86,56.78-18.74,15.47-47.16,33.55-63.47,43.52l-.05-.02s10.36-63.22,49.15-83.45c37.89-19.76,81.36-17.41,81.36-17.41l-.13.59Z" fill="#bf604b" fill-rule="evenodd"/>
          </g>
          <g id="Group_426" data-name="Group 426">
            <path id="Path_2914" data-name="Path 2914" d="M1760.64,884.47c-2.95,4.48-28.5,44.34-27.17,72.34,2.33,49.07,44.21,62.21,45.77,62.68-3.83-15.37-10.09-42.58-12.16-62.61-2.06-19.91-4.86-53.02-6.45-72.41Z" fill="#a9503c" fill-rule="evenodd"/>
            <path id="Path_2915" data-name="Path 2915" d="M1760.64,884.47c1.59,19.39,4.39,52.51,6.44,72.42,2.07,20.03,8.32,47.24,12.16,62.61h.04s30.66-43.33,19.52-77.84c-10.87-33.71-37.9-57.61-37.9-57.61l-.26.42Z" fill="#bf604b" fill-rule="evenodd"/>
          </g>
          <g id="Group_427" data-name="Group 427">
            <path id="Path_2916" data-name="Path 2916" d="M1726.57,443.44c2.25,4.29,22.53,41.9,45.23,53.11,39.76,19.63,68.45-7.68,69.51-8.71-13.81-3.7-38.03-10.66-54.75-17.8C1769.94,462.95,1742.58,450.68,1726.57,443.44Z" fill="#a9503c" fill-rule="evenodd"/>
            <path id="Path_2917" data-name="Path 2917" d="M1726.57,443.43c16.01,7.23,43.37,19.51,59.99,26.6,16.72,7.13,40.94,14.1,54.75,17.8l.03-.03s-20.81-43.17-52.92-49.48c-31.37-6.16-62.06,4.72-62.06,4.72l.22.39Z" fill="#bf604b" fill-rule="evenodd"/>
          </g>
          <g id="Group_428" data-name="Group 428">
            <path id="Path_2918" data-name="Path 2918" d="M1919.45,1121.34c-5.44,4.71-54.01,45.69-93.91,50.18-69.92,7.86-100.98-42.04-102.11-43.91,22.82,1.45,63.07,3.35,91.95,1.54,28.7-1.79,76.24-5.55,104.07-7.81Z" fill="#a9503c" fill-rule="evenodd"/>
            <path id="Path_2919" data-name="Path 2919" d="M1919.45,1121.33c-27.83,2.27-75.38,6.02-104.07,7.82-28.87,1.8-69.13-.09-91.95-1.54l-.03-.05s51.97-48.19,103.98-41.75c50.8,6.29,92.6,35.1,92.6,35.1l-.52.43Z" fill="#bf604b" fill-rule="evenodd"/>
          </g>
          <g id="Group_429" data-name="Group 429">
            <path id="Path_2920" data-name="Path 2920" d="M1878.45,303.57c.92,4.13,8.58,40.71-.24,62.62-15.45,38.39-49.95,40.53-51.23,40.6,7.12-11.41,19.34-31.72,26.47-47.17,7.08-15.35,18.41-41.01,25.01-56.05Z" fill="#a9503c" fill-rule="evenodd"/>
            <path id="Path_2921" data-name="Path 2921" d="M1878.45,303.57c-6.59,15.04-17.92,40.7-25.01,56.06-7.13,15.45-19.35,35.76-26.47,47.17h-.04s-10.44-40.35,7.41-65.48c17.43-24.54,44.02-38.13,44.02-38.13l.08.39Z" fill="#bf604b" fill-rule="evenodd"/>
          </g>
          <g id="Group_430" data-name="Group 430">
            <path id="Path_2922" data-name="Path 2922" d="M1581.29,1381.44c-21.57-20.46-45.93-59.31-84.22-77.68s-83.9-6.58-83.9-6.58,18.15,29.21,62.92,49.84c23.7,10.92,71.03,24.82,93.21,31.09l11.99,3.33Z" fill="#bf604b" fill-rule="evenodd"/>
            <path id="Path_2923" data-name="Path 2923" d="M1413.17,1297.18s-13.89,61.11,30.85,84.5c52.46,27.43,137.27-.24,137.27-.24l-11.99-3.33c-22.18-6.27-69.51-20.17-93.21-31.09-44.77-20.63-62.92-49.84-62.92-49.84Z" fill="#a9503c" fill-rule="evenodd"/>
          </g>
          <g id="Group_431" data-name="Group 431">
            <path id="Path_2924" data-name="Path 2924" d="M1919.97,1002.73c-22.88.96-57.44-6.41-88.15,4.92s-48.65,42.88-48.65,42.88,25.89,5.63,61.32-8.07c18.75-7.25,51.83-25.97,67.2-34.88l8.28-4.85Z" fill="#bf604b" fill-rule="evenodd"/>
            <path id="Path_2925" data-name="Path 2925" d="M1783.18,1050.53s26.35,40.46,63.29,28.26c43.31-14.31,73.5-76.06,73.5-76.06l-8.28,4.85c-15.37,8.91-48.45,27.63-67.2,34.88-35.42,13.7-61.32,8.07-61.32,8.07Z" fill="#a9503c" fill-rule="evenodd"/>
          </g>
          <g id="Group_432" data-name="Group 432">
            <path id="Path_2926" data-name="Path 2926" d="M1804.77,1206.93c-23.22-9.25-54.36-31.99-89.99-34.4s-67.57,21.02-67.57,21.02,23.28,17.15,64.67,19.3c21.91,1.14,63.2-2.76,82.48-4.78l10.4-1.14Z" fill="#bf604b" fill-rule="evenodd"/>
            <path id="Path_2927" data-name="Path 2927" d="M1647.22,1193.55s8.21,52.05,50.44,56.36c49.52,5.06,107.12-42.99,107.12-42.99l-10.4,1.14c-19.28,2.02-60.57,5.92-82.48,4.78-41.39-2.15-64.67-19.3-64.67-19.3Z" fill="#a9503c" fill-rule="evenodd"/>
          </g>
          <g id="Group_433" data-name="Group 433">
            <path id="Path_2928" data-name="Path 2928" d="M1647.91,1037.26c6.26,20.41,23.45,48.51,23.02,79.02s-22.61,56.07-22.61,56.07-12.98-21.02-11.93-56.41c.56-18.74,6.76-53.62,9.82-69.9l1.69-8.78Z" fill="#bf604b" fill-rule="evenodd"/>
            <path id="Path_2929" data-name="Path 2929" d="M1648.32,1172.36s-43.75-10.61-44.48-46.88c-.86-42.52,44.07-88.21,44.07-88.21l-1.69,8.78c-3.06,16.27-9.26,51.16-9.82,69.9-1.05,35.39,11.93,56.41,11.93,56.41Z" fill="#a9503c" fill-rule="evenodd"/>
          </g>
          <g id="Group_434" data-name="Group 434">
            <path id="Path_2930" data-name="Path 2930" d="M1514.04,1241.17c12.84-1.77,64.76-12.84,73.94-76.65,5.94-41.35-17.31-76.71-25.72-103.04l-27.97,93.42c-7.82,26.04-23.13,86.59-23.13,86.59l2.87-.32Z" fill="#bf604b" fill-rule="evenodd"/>
            <path id="Path_2931" data-name="Path 2931" d="M1553.45,1067.04c-16.12,10.79-49.56,36.21-59.23,66.93-16.75,53.18,8.79,95.61,15.44,105.39l1.51,2.13s15.31-60.55,23.13-86.59,27.97-93.42,27.97-93.42l-8.82,5.57Z" fill="#a9503c" fill-rule="evenodd"/>
          </g>
          <g id="Group_435" data-name="Group 435">
            <path id="Path_2932" data-name="Path 2932" d="M1861.77,694.75c3.67-9.16,12.96-43.23-25.79-73.38-25.1-19.54-54.27-21.96-74.86-26.34l51.23,53.76c14.27,15,48.54,47.98,48.54,47.98l.87-2.02Z" fill="#bf604b" fill-rule="evenodd"/>
            <path id="Path_2933" data-name="Path 2933" d="M1761.48,602.96c1.05,14.73,5.24,46.44,21.91,64.44,28.85,31.15,66.56,30.27,75.53,29.57l1.98-.2s-34.27-32.98-48.54-47.98-51.23-53.76-51.23-53.76Z" fill="#a9503c" fill-rule="evenodd"/>
          </g>
          <g id="Group_436" data-name="Group 436">
            <path id="Path_2934" data-name="Path 2934" d="M1863.98,870.43c8.97,7.13,47.77,33.6,94.21.5,30.09-21.45,38.51-57.93,50.23-79.39l-76.86,39.17c-21.44,10.9-69.53,38.09-69.53,38.09l1.96,1.64Z" fill="#a9503c" fill-rule="evenodd"/>
            <path id="Path_2935" data-name="Path 2935" d="M1999.47,789.29c-16.75-3.72-53.44-9.59-79,2.97-44.26,21.76-55.81,64.02-58.01,74.25l-.44,2.27s48.1-27.19,69.53-38.09,76.86-39.17,76.86-39.17l-8.95-2.24Z" fill="#bf604b" fill-rule="evenodd"/>
          </g>
          <g id="Group_437" data-name="Group 437">
            <path id="Path_2936" data-name="Path 2936" d="M1851.9,479.67c8.57,1.21,43.94,3.61,61.52-35.69,11.39-25.47,2.92-52.44,2.34-70.89l-35.06,54.88c-9.79,15.29-30.7,51.38-30.7,51.38l1.9.32Z" fill="#a9503c" fill-rule="evenodd"/>
            <path id="Path_2937" data-name="Path 2937" d="M1909.09,375.05c-12.33,3.98-38.46,14.19-50.29,32.14-20.49,31.09-11.85,63.02-9.37,70.52l.58,1.64s20.92-36.09,30.7-51.38,35.06-54.88,35.06-54.88l-6.68,1.96Z" fill="#bf604b" fill-rule="evenodd"/>
          </g>
          <g id="Group_438" data-name="Group 438">
            <path id="Path_2938" data-name="Path 2938" d="M1852.24,806.85c5.88-7.73,15.95-43.07-5.12-77.29-16.42-26.67-45.97-34.12-64.37-43.65l34.59,64.41c9.63,17.96,33.54,58.22,33.54,58.22l1.36-1.69Z" fill="#bf604b" fill-rule="evenodd"/>
            <path id="Path_2939" data-name="Path 2939" d="M1781.02,693.54c-2.85,14.26-7.15,45.45,3.97,66.88,19.25,37.1,55.27,46.12,63.97,47.79l1.93.33s-23.92-40.25-33.54-58.22-34.59-64.41-34.59-64.41l-1.74,7.62Z" fill="#a9503c" fill-rule="evenodd"/>
          </g>
          <g id="Group_439" data-name="Group 439">
            <path id="Path_2940" data-name="Path 2940" d="M1726,1330.83s-27.33-53.32-71.02-72.93c-56-25.13-115.69-.98-129.74,5.45l-3.08,1.47s41.93,9.27,86.9,23.08c22.48,6.9,51.72,17.63,75.33,26.64l41.61,16.29Z" fill="#bf604b" fill-rule="evenodd"/>
            <path id="Path_2941" data-name="Path 2941" d="M1526.68,1275.39c9.1,19.3,32,59.21,69.62,69.63,50.16,13.89,129.7-14.2,129.7-14.2l-41.61-16.29c-23.61-9.01-52.85-19.74-75.33-26.64-44.97-13.81-86.9-23.08-86.9-23.08l4.53,10.58Z" fill="#a9503c" fill-rule="evenodd"/>
          </g>
          <g id="Group_440" data-name="Group 440">
            <path id="Path_2942" data-name="Path 2942" d="M1697.87,384.95s28.2-18.27,54.93-15.58c34.25,3.45,56.51,31.89,61.55,38.95l1.09,1.58s-22.98-7.23-48.7-13.1c-12.86-2.94-30.08-5.9-44.08-8.13l-24.79-3.72Z" fill="#bf604b" fill-rule="evenodd"/>
            <path id="Path_2943" data-name="Path 2943" d="M1810.27,413.78c-9.82,6.84-32.12,19.83-53.33,14.37-28.27-7.28-59.08-43.19-59.08-43.19l24.79,3.72c14,2.23,31.22,5.19,44.08,8.13,25.72,5.87,48.7,13.1,48.7,13.1Z" fill="#a9503c" fill-rule="evenodd"/>
          </g>
          <g id="Group_441" data-name="Group 441">
            <path id="Path_2944" data-name="Path 2944" d="M2012.08,926.65s-39.51-30.12-79.21-29.16c-50.88,1.22-86.9,40.63-95.11,50.47l-1.78,2.21s34.69-8.06,73.26-13.81c19.29-2.88,45-5.3,65.88-7.01l36.95-2.69Z" fill="#bf604b" fill-rule="evenodd"/>
            <path id="Path_2945" data-name="Path 2945" d="M1843.15,956.45c13.71,11.19,45.11,32.85,76.98,27.19,42.5-7.54,91.95-57,91.95-57l-36.95,2.69c-20.89,1.7-46.6,4.13-65.88,7.01-38.58,5.75-73.26,13.81-73.26,13.81l7.17,6.29Z" fill="#a9503c" fill-rule="evenodd"/>
          </g>
          <g id="Group_442" data-name="Group 442">
            <path id="Path_2946" data-name="Path 2946" d="M1731.43,516.53s38.63-12.57,69.01-1.11c38.94,14.69,56.09,54.83,59.77,64.64l.78,2.18s-24.59-15.59-52.81-30.45c-14.11-7.43-33.3-16.24-48.96-23.2Z" fill="#bf604b" fill-rule="evenodd"/>
            <path id="Path_2947" data-name="Path 2947" d="M1853.76,585.16c-13.6,4.93-43.69,13.17-66.75.2-30.76-17.3-55.57-68.82-55.57-68.82l27.79,12.06c15.66,6.96,34.85,15.77,48.96,23.2,28.22,14.86,52.81,30.45,52.81,30.45l-7.24,2.92Z" fill="#a9503c" fill-rule="evenodd"/>
          </g>
          <g id="Group_443" data-name="Group 443">
            <path id="Path_2948" data-name="Path 2948" d="M1768.19,773.12s41.31,19.12,57.53,51.7c20.79,41.75,4.27,87.8-.18,98.66l-1.03,2.38s-8.32-31.55-20.17-65.27c-5.92-16.86-14.96-38.73-22.52-56.38l-13.64-31.09Z" fill="#bf604b" fill-rule="evenodd"/>
            <path id="Path_2949" data-name="Path 2949" d="M1816.35,922.75c-14.93-6.32-45.92-22.49-54.98-50.73-12.08-37.66,6.83-98.9,6.83-98.9l13.64,31.09c7.56,17.65,16.6,39.52,22.52,56.38,11.85,33.72,20.17,65.27,20.17,65.27l-8.17-3.12Z" fill="#a9503c" fill-rule="evenodd"/>
          </g>
          <g id="Group_444" data-name="Group 444">
            <path id="Path_2950" data-name="Path 2950" d="M1988.03,557.56s-45.37,3.76-71.8,28.77c-33.87,32.06-34.19,80.98-33.74,92.71l.14,2.59s18.65-26.77,41.37-54.36c11.36-13.79,27.36-31.22,40.53-45.2l23.49-24.51Z" fill="#bf604b" fill-rule="evenodd"/>
            <path id="Path_2951" data-name="Path 2951" d="M1891.38,681.52c16.19-.8,50.85-5.33,69.07-28.74,24.29-31.21,27.58-95.22,27.58-95.22l-23.49,24.51c-13.17,13.98-29.17,31.41-40.53,45.2-22.72,27.59-41.37,54.36-41.37,54.36l8.74-.12Z" fill="#a9503c" fill-rule="evenodd"/>
          </g>
          <g id="Group_445" data-name="Group 445">
            <path id="Path_2952" data-name="Path 2952" d="M1691.22,925.11s41.14,29.94,51.85,69.18c13.72,50.28-14.39,97.19-21.63,108.13l-1.64,2.39s-2.26-36.4-7.93-75.94c-2.83-19.77-7.99-45.71-12.45-66.71l-8.2-37.05Z" fill="#bf604b" fill-rule="evenodd"/>
            <path id="Path_2953" data-name="Path 2953" d="M1711.51,1099.62c-15-10.17-45.46-34.63-49.26-67.56-5.06-43.91,28.97-106.94,28.97-106.94l8.2,37.05c4.45,21,9.61,46.94,12.45,66.71,5.67,39.54,7.93,75.94,7.93,75.94l-8.28-5.19Z" fill="#a9503c" fill-rule="evenodd"/>
          </g>
        </g>
      </g>
    </g>
    <g id="Stand3">
      <g id="Group_451" data-name="Group 451">
        <rect id="Rectangle_104" data-name="Rectangle 104" width="503.77" height="196.72" transform="translate(1544.66 1241.7)" fill="#193d6d"/>
        <g id="Group_448" data-name="Group 448">
          <path id="Path_2954" data-name="Path 2954" d="M1565.89,1304.56a4.722,4.722,0,0,1-4.72-4.72v-21.51a20.219,20.219,0,0,1,5.96-14.39,20.481,20.481,0,0,1,14.39-5.96h100.69a4.72,4.72,0,0,1,0,9.44H1581.52a10.908,10.908,0,0,0-10.91,10.9v21.51a4.722,4.722,0,0,1-4.72,4.72Z" fill="#fff"/>
          <path id="Path_2955" data-name="Path 2955" d="M1565.89,1360.8a4.722,4.722,0,0,1-4.72-4.72v-27.41a4.72,4.72,0,0,1,9.44,0v27.41A4.722,4.722,0,0,1,1565.89,1360.8Z" fill="#fff"/>
        </g>
        <g id="Group_450" data-name="Group 450">
          <circle id="Ellipse_71" data-name="Ellipse 71" cx="57.27" cy="57.27" r="57.27" transform="translate(1715.556 1340.065) rotate(-45)" fill="#bf755a"/>
          <circle id="Ellipse_72" data-name="Ellipse 72" cx="47.34" cy="47.34" r="47.34" transform="translate(1749.2 1292.73)" fill="#dbb2a3" stroke="#935139" stroke-linecap="round" stroke-linejoin="round" stroke-width="2.34"/>
          <g id="Group_449" data-name="Group 449">
            <path id="Path_2956" data-name="Path 2956" d="M1775.29,1333.77a1.568,1.568,0,0,1,2.98,0c1.07,3.3,2.43,7.5,3.07,9.44a1.57,1.57,0,0,0,1.49,1.08h9.93a1.564,1.564,0,0,1,.92,2.83c-2.8,2.04-6.38,4.63-8.03,5.84a1.561,1.561,0,0,0-.57,1.75c.63,1.95,2,6.14,3.07,9.44a1.566,1.566,0,0,1-2.41,1.75c-2.8-2.04-6.38-4.63-8.03-5.83a1.561,1.561,0,0,0-1.84,0c-1.66,1.2-5.23,3.8-8.03,5.83a1.566,1.566,0,0,1-2.41-1.75c1.07-3.3,2.44-7.5,3.07-9.44a1.566,1.566,0,0,0-.57-1.75c-1.66-1.2-5.23-3.8-8.03-5.84a1.564,1.564,0,0,1,.92-2.83h9.93a1.57,1.57,0,0,0,1.49-1.08c.63-1.94,2-6.14,3.07-9.44Z" fill="#bf755a" fill-rule="evenodd"/>
            <path id="Path_2957" data-name="Path 2957" d="M1814.61,1333.77a1.568,1.568,0,0,1,2.98,0c1.07,3.3,2.43,7.5,3.07,9.44a1.57,1.57,0,0,0,1.49,1.08h9.93a1.564,1.564,0,0,1,.92,2.83c-2.8,2.04-6.38,4.63-8.03,5.84a1.561,1.561,0,0,0-.57,1.75c.63,1.95,2,6.14,3.07,9.44a1.566,1.566,0,0,1-2.41,1.75c-2.8-2.04-6.38-4.63-8.03-5.83a1.561,1.561,0,0,0-1.84,0c-1.66,1.2-5.23,3.8-8.03,5.83a1.566,1.566,0,0,1-2.41-1.75c1.07-3.3,2.44-7.5,3.07-9.44a1.566,1.566,0,0,0-.57-1.75c-1.66-1.2-5.23-3.8-8.03-5.84a1.564,1.564,0,0,1,.92-2.83h9.93a1.57,1.57,0,0,0,1.49-1.08c.63-1.94,2-6.14,3.07-9.44Z" fill="#bf755a" fill-rule="evenodd"/>
            <path id="Path_2958" data-name="Path 2958" d="M1795.05,1305.35a1.568,1.568,0,0,1,2.98,0c1.07,3.3,2.43,7.5,3.07,9.44a1.57,1.57,0,0,0,1.49,1.08h9.93a1.564,1.564,0,0,1,.92,2.83c-2.8,2.04-6.38,4.63-8.03,5.84a1.561,1.561,0,0,0-.57,1.75c.63,1.95,2,6.14,3.07,9.44a1.566,1.566,0,0,1-2.41,1.75c-2.8-2.04-6.38-4.63-8.03-5.83a1.561,1.561,0,0,0-1.84,0c-1.66,1.2-5.23,3.8-8.03,5.83a1.566,1.566,0,0,1-2.41-1.75c1.07-3.3,2.44-7.5,3.07-9.44a1.566,1.566,0,0,0-.57-1.75c-1.66-1.2-5.23-3.8-8.03-5.84a1.564,1.564,0,0,1,.92-2.83h9.93a1.57,1.57,0,0,0,1.49-1.08c.63-1.94,2-6.14,3.07-9.44Z" fill="#bf755a" fill-rule="evenodd"/>
          </g>
        </g>
        <path id="Path_2959" data-name="Path 2959" d="M2068.34,1229.32a12.376,12.376,0,0,0-12.38-12.38h-511.3v24.77h511.3a12.393,12.393,0,0,0,12.38-12.38h0Z" fill="#0a2445" fill-rule="evenodd"/>
      </g>
    </g>
    <g id="Bronze_Trophy" data-name="Bronze Trophy">
      <g id="Group_457" data-name="Group 457">
        <g id="Group_452" data-name="Group 452">
          <path id="Path_2960" data-name="Path 2960" d="M1653.51,1200.72c.94-26.72,86.53-32.33,150.83-75.45,64.71,48.62,149.89,48.79,150.83,75.45h0v16.22H1653.5v-16.22h0Z" fill="#bf755a" fill-rule="evenodd"/>
          <path id="Path_2961" data-name="Path 2961" d="M1932.52,1203.91H1676.16a2.49,2.49,0,1,1,0-4.98h256.36a2.49,2.49,0,0,1,0,4.98Z" fill="#935139"/>
        </g>
        <path id="Path_2962" data-name="Path 2962" d="M1765.41,1042.25s8.62,12.91,15.8,35.74c2.34,7.46,4.73,15.37,4.65,23.83-.08,8.52-2.74,16.31-5.13,23.83-7.19,22.58-15.31,35.74-15.31,35.74,0,21.48,77.85,21.48,77.85,0,0,0-8.11-13.17-15.31-35.74-2.4-7.51-5.05-15.3-5.13-23.83-.08-8.46,2.3-16.37,4.65-23.83,7.17-22.83,15.79-35.74,15.79-35.74a38.92,38.92,0,0,0-77.84,0Z" fill="#935139" fill-rule="evenodd"/>
        <g id="Group_453" data-name="Group 453">
          <path id="Path_2963" data-name="Path 2963" d="M1920,966.04a12.5,12.5,0,0,1-.93-24.97c55.53-4.21,89.94-33.24,92.04-77.66.68-14.33-2.83-24.95-10.74-32.47-17.21-16.38-49.73-13.43-50.06-13.4a12.5,12.5,0,0,1-2.52-24.88c1.79-.18,44.08-4.2,69.7,20.06,13.37,12.66,19.62,30.11,18.59,51.87-1.3,27.54-12.41,51.56-32.11,69.44-20.19,18.33-48.9,29.38-83.02,31.97-.32.02-.64.04-.96.04Z" fill="#935139"/>
          <path id="Path_2964" data-name="Path 2964" d="M1673.08,966.04c-.32,0-.64-.01-.96-.04-34.12-2.58-62.83-13.64-83.02-31.97-19.7-17.88-30.81-41.9-32.11-69.44-1.03-21.76,5.22-39.22,18.59-51.87,25.63-24.26,67.92-20.25,69.7-20.06a12.5,12.5,0,0,1-2.51,24.88c-.56-.05-32.9-2.92-50.05,13.4-7.91,7.52-11.42,18.15-10.74,32.47,2.11,44.42,36.51,73.45,92.04,77.66a12.5,12.5,0,0,1-.93,24.97Z" fill="#935139"/>
        </g>
        <path id="Path_2965" data-name="Path 2965" d="M1639.66,821.32V760.51a15.633,15.633,0,0,1,15.63-15.63h296a15.637,15.637,0,0,1,15.63,15.63V822.1c-.29,132.74-73.5,240.36-163.63,240.36s-163.63-108.05-163.63-241.14Z" fill="#bf755a" fill-rule="evenodd"/>
        <g id="Group_454" data-name="Group 454">
          <path id="Path_2966" data-name="Path 2966" d="M1977.93,762.89a17.993,17.993,0,0,0-18-18H1646.65a17.993,17.993,0,0,0-18,18h0a17.993,17.993,0,0,0,18,18h313.28a17.993,17.993,0,0,0,18-18Z" fill="#dbb2a3" fill-rule="evenodd"/>
          <path id="Path_2967" data-name="Path 2967" d="M1950.7,767.39H1657.66a4.5,4.5,0,0,1,0-9H1950.7a4.5,4.5,0,0,1,0,9Z" fill="#935139"/>
        </g>
        <g id="Group_455" data-name="Group 455">
          <circle id="Ellipse_73" data-name="Ellipse 73" cx="83.62" cy="83.62" r="83.62" transform="translate(1707.599 973.196) rotate(-81.02)" fill="#dbb2a3"/>
          <path id="Path_2968" data-name="Path 2968" d="M1803.29,1001.21a97.53,97.53,0,1,1,97.53-97.53,97.638,97.638,0,0,1-97.53,97.53Zm0-190.7a93.17,93.17,0,1,0,93.17,93.17A93.274,93.274,0,0,0,1803.29,810.51Z" fill="#935139"/>
          <path id="Path_2969" data-name="Path 2969" d="M1799.8,892.92a16.756,16.756,0,0,0,10.81-3.65c3.09-2.53,4.63-6.04,4.63-10.67a12.961,12.961,0,0,0-3.65-9.13c-2.39-2.53-5.76-3.79-9.83-3.79a19.052,19.052,0,0,0-6.88,1.12,12.708,12.708,0,0,0-4.35,3.09,30.221,30.221,0,0,0-2.95,4.91c-.84,2.11-1.83,3.93-2.53,5.76a4.523,4.523,0,0,1-2.53,2.25,9.183,9.183,0,0,1-4.07.84,6.952,6.952,0,0,1-5.06-2.25,7.74,7.74,0,0,1-2.25-5.9,16.262,16.262,0,0,1,2.11-7.58,27.23,27.23,0,0,1,6.32-7.44,30.851,30.851,0,0,1,10.39-5.76,42.372,42.372,0,0,1,13.76-2.11,36.793,36.793,0,0,1,12.08,1.83,27.238,27.238,0,0,1,9.55,5.2,22.831,22.831,0,0,1,6.18,8,24.449,24.449,0,0,1,1.97,9.69,22.617,22.617,0,0,1-2.95,11.8,40.725,40.725,0,0,1-8.57,9.55,34.786,34.786,0,0,1,8.99,6.6,24.414,24.414,0,0,1,5.62,8.14,27.12,27.12,0,0,1,1.83,9.69,30.022,30.022,0,0,1-2.53,12.08,31.016,31.016,0,0,1-7.3,10.39,35.2,35.2,0,0,1-11.65,7.16,41.224,41.224,0,0,1-14.74,2.53,35.832,35.832,0,0,1-14.74-2.95,33.453,33.453,0,0,1-10.67-7.3,34,34,0,0,1-6.46-9.13,20.675,20.675,0,0,1-2.11-7.86,8.663,8.663,0,0,1,2.53-6.46,9.412,9.412,0,0,1,6.46-2.39,6.973,6.973,0,0,1,3.65,1.12,5.353,5.353,0,0,1,2.39,2.67c2.39,6.32,4.91,11.09,7.58,14.18,2.81,3.09,6.6,4.63,11.51,4.63a16.664,16.664,0,0,0,8.14-2.11,17.361,17.361,0,0,0,6.6-6.18,17.931,17.931,0,0,0,2.53-9.55c0-5.34-1.4-9.55-4.35-12.64-2.95-2.95-7.02-4.49-12.22-4.49-.98,0-2.39.14-4.21.28-1.97.14-3.23.28-3.79.28a7.912,7.912,0,0,1-5.76-1.97,6.392,6.392,0,0,1-2.11-5.2,6.522,6.522,0,0,1,2.53-5.34c1.54-1.26,4.07-1.97,7.3-1.97h2.81Z" fill="#bf3d32"/>
        </g>
        <g id="Group_456" data-name="Group 456">
          <path id="Path_2970" data-name="Path 2970" d="M1690.28,945.47a6.554,6.554,0,0,1-6.03-3.99c-28.55-67.18-25.58-130.82-25.44-133.5a6.544,6.544,0,1,1,13.07.69h0c-.03.63-2.91,63.41,24.41,127.69a6.546,6.546,0,0,1-3.46,8.58,6.441,6.441,0,0,1-2.56.52Z" fill="#dbb2a3"/>
          <path id="Path_2971" data-name="Path 2971" d="M1719.67,997.21a6.54,6.54,0,0,1-5.26-2.64,248.68,248.68,0,0,1-18.8-29.51,6.549,6.549,0,1,1,11.51-6.25,235.8,235.8,0,0,0,17.8,27.95,6.544,6.544,0,0,1-5.25,10.45Z" fill="#dbb2a3"/>
        </g>
      </g>
    </g>
    <g id="Stand2">
      <g id="Group_461" data-name="Group 461">
        <rect id="Rectangle_105" data-name="Rectangle 105" width="503.77" height="249.45" transform="translate(451.24 1188.98)" fill="#193d6d"/>
        <g id="Group_458" data-name="Group 458">
          <path id="Path_2972" data-name="Path 2972" d="M483.95,1269.81a4.731,4.731,0,0,1-4.73-4.72v-32.52a20.219,20.219,0,0,1,5.96-14.39,20.481,20.481,0,0,1,14.39-5.96H600.26a4.72,4.72,0,1,1,0,9.44H499.57a10.891,10.891,0,0,0-10.9,10.9v32.52a4.724,4.724,0,0,1-4.73,4.72Z" fill="#fff"/>
          <path id="Path_2973" data-name="Path 2973" d="M483.95,1328.27a4.731,4.731,0,0,1-4.73-4.72v-27.4a4.73,4.73,0,0,1,9.46,0v27.4A4.724,4.724,0,0,1,483.95,1328.27Z" fill="#fff"/>
        </g>
        <g id="Group_460" data-name="Group 460">
          <circle id="Ellipse_74" data-name="Ellipse 74" cx="84.14" cy="84.14" r="84.14" transform="translate(584.131 1313.707) rotate(-45)" fill="#aab9cc"/>
          <circle id="Ellipse_75" data-name="Ellipse 75" cx="69.55" cy="69.55" r="69.55" transform="translate(633.57 1244.15)" fill="#cfd8e2" stroke="#8096b3" stroke-linecap="round" stroke-linejoin="round" stroke-width="3.43"/>
          <g id="Group_459" data-name="Group 459">
            <path id="Path_2974" data-name="Path 2974" d="M669.48,1285.59a1.561,1.561,0,0,1,2.97,0c1.91,5.86,5.09,15.66,6.14,18.91a1.57,1.57,0,0,0,1.49,1.08h19.88a1.563,1.563,0,0,1,.92,2.83c-4.99,3.62-13.32,9.68-16.08,11.68a1.561,1.561,0,0,0-.57,1.75c1.05,3.24,4.24,13.04,6.14,18.91a1.566,1.566,0,0,1-2.41,1.75c-4.99-3.62-13.32-9.68-16.08-11.68a1.561,1.561,0,0,0-1.84,0c-2.76,2-11.1,8.06-16.08,11.68a1.566,1.566,0,0,1-2.41-1.75c1.9-5.86,5.09-15.66,6.14-18.91a1.566,1.566,0,0,0-.57-1.75c-2.76-2-11.1-8.06-16.08-11.68a1.564,1.564,0,0,1,.91-2.83h19.88a1.57,1.57,0,0,0,1.49-1.08c1.05-3.24,4.24-13.04,6.14-18.91Z" fill="#8096b3" fill-rule="evenodd"/>
            <path id="Path_2975" data-name="Path 2975" d="M733.48,1285.59a1.561,1.561,0,0,1,2.97,0c1.91,5.86,5.09,15.66,6.14,18.91a1.57,1.57,0,0,0,1.49,1.08h19.88a1.563,1.563,0,0,1,.92,2.83c-4.99,3.62-13.32,9.68-16.08,11.68a1.561,1.561,0,0,0-.57,1.75c1.05,3.24,4.24,13.04,6.14,18.91a1.566,1.566,0,0,1-2.41,1.75c-4.99-3.62-13.32-9.68-16.08-11.68a1.561,1.561,0,0,0-1.84,0c-2.76,2-11.1,8.06-16.08,11.68a1.566,1.566,0,0,1-2.41-1.75c1.9-5.86,5.09-15.66,6.14-18.91a1.566,1.566,0,0,0-.57-1.75c-2.76-2-11.1-8.06-16.08-11.68a1.564,1.564,0,0,1,.91-2.83h19.88a1.57,1.57,0,0,0,1.49-1.08c1.05-3.24,4.24-13.04,6.14-18.91Z" fill="#8096b3" fill-rule="evenodd"/>
          </g>
        </g>
        <path id="Path_2976" data-name="Path 2976" d="M431.33,1176.6a12.377,12.377,0,0,1,12.38-12.38h511.3v24.77H443.71a12.394,12.394,0,0,1-12.38-12.38h0Z" fill="#0a2445" fill-rule="evenodd"/>
      </g>
    </g>
    <g id="SilverTrophy">
      <g id="Group_467" data-name="Group 467">
        <g id="Group_462" data-name="Group 462">
          <path id="Path_2977" data-name="Path 2977" d="M560.09,1147.99c.94-26.72,86.53-32.33,150.83-75.45,64.71,48.61,149.89,48.79,150.83,75.45h0v16.22H560.08v-16.22h0Z" fill="#aab9cc" fill-rule="evenodd"/>
          <path id="Path_2978" data-name="Path 2978" d="M839.1,1151.19H582.74a2.49,2.49,0,0,1,0-4.98H839.1a2.49,2.49,0,0,1,0,4.98Z" fill="#8096b3"/>
        </g>
        <path id="Path_2979" data-name="Path 2979" d="M671.99,989.53s8.62,12.91,15.79,35.74c2.34,7.46,4.73,15.37,4.65,23.83-.08,8.52-2.74,16.31-5.13,23.83-7.19,22.58-15.31,35.74-15.31,35.74,0,21.48,77.85,21.48,77.85,0,0,0-8.11-13.17-15.31-35.74-2.4-7.51-5.05-15.3-5.13-23.83-.08-8.46,2.3-16.37,4.65-23.83,7.17-22.83,15.79-35.74,15.79-35.74a38.92,38.92,0,0,0-77.84,0Z" fill="#8096b3" fill-rule="evenodd"/>
        <g id="Group_463" data-name="Group 463">
          <path id="Path_2980" data-name="Path 2980" d="M826.58,913.31a12.5,12.5,0,0,1-.94-24.97c55.53-4.21,89.94-33.24,92.04-77.66.68-14.36-2.85-25-10.8-32.53-17.11-16.2-49.64-13.38-49.96-13.35a12.5,12.5,0,1,1-2.54-24.88c1.79-.18,44.08-4.2,69.7,20.06,13.37,12.66,19.62,30.11,18.59,51.87-1.31,27.54-12.41,51.56-32.11,69.44-20.19,18.33-48.9,29.38-83.02,31.97-.32.02-.64.04-.96.04Z" fill="#8096b3"/>
          <path id="Path_2981" data-name="Path 2981" d="M579.66,913.31c-.32,0-.64-.01-.96-.04-34.12-2.58-62.83-13.64-83.02-31.97-19.7-17.88-30.81-41.9-32.11-69.44-1.03-21.76,5.22-39.22,18.59-51.87,25.62-24.26,67.91-20.25,69.7-20.06a12.5,12.5,0,0,1-2.51,24.88h0c-.33-.03-32.84-2.98-50.06,13.4-7.91,7.52-11.42,18.15-10.74,32.47,2.11,44.42,36.51,73.45,92.04,77.66a12.5,12.5,0,0,1-.94,24.97Z" fill="#8096b3"/>
        </g>
        <path id="Path_2982" data-name="Path 2982" d="M546.24,768.6V707.79a15.633,15.633,0,0,1,15.63-15.63h296a15.637,15.637,0,0,1,15.63,15.63v61.59c-.29,132.74-73.5,240.36-163.63,240.36S546.24,901.69,546.24,768.6Z" fill="#aab9cc" fill-rule="evenodd"/>
        <g id="Group_464" data-name="Group 464">
          <path id="Path_2983" data-name="Path 2983" d="M884.5,710.16a17.993,17.993,0,0,0-18-18H553.22a17.993,17.993,0,0,0-18,18h0a17.993,17.993,0,0,0,18,18H866.5a17.993,17.993,0,0,0,18-18Z" fill="#cfd8e2" fill-rule="evenodd"/>
          <path id="Path_2984" data-name="Path 2984" d="M857.27,714.67H564.23a4.5,4.5,0,0,1,0-9H857.27a4.5,4.5,0,0,1,0,9Z" fill="#8096b3"/>
        </g>
        <g id="Group_465" data-name="Group 465">
          <circle id="Ellipse_76" data-name="Ellipse 76" cx="83.62" cy="83.62" r="83.62" transform="translate(626.24 767.33)" fill="#cfd8e2"/>
          <path id="Path_2985" data-name="Path 2985" d="M709.87,948.48a97.53,97.53,0,1,1,97.53-97.53A97.638,97.638,0,0,1,709.87,948.48Zm0-190.7a93.17,93.17,0,1,0,93.17,93.17A93.274,93.274,0,0,0,709.87,757.78Z" fill="#8096b3"/>
          <path id="Path_2986" data-name="Path 2986" d="M698.08,886.17h36.36c3.57,0,6.42.71,8.27,2.14a8.132,8.132,0,0,1,.57,11.83c-1.43,1.57-3.71,2.42-6.85,2.42h-51.2c-3.57,0-6.27-1-8.13-2.85a9.415,9.415,0,0,1-2.99-6.85c0-1.71.71-3.85,1.85-6.7a26.1,26.1,0,0,1,4.14-6.42c6.13-6.42,11.84-11.98,16.69-16.54a107.839,107.839,0,0,1,10.7-8.98,62.646,62.646,0,0,0,9.55-8.13,33.17,33.17,0,0,0,5.7-8.27,18.557,18.557,0,0,0,2-8.41,14.879,14.879,0,0,0-2.14-7.99,13.954,13.954,0,0,0-5.7-5.42,15.415,15.415,0,0,0-7.99-2c-6.13,0-10.84,2.71-14.4,7.99a47.568,47.568,0,0,0-2.28,5.7c-1.14,3.14-2.28,5.56-3.71,7.13a7.375,7.375,0,0,1-5.99,2.57,7.745,7.745,0,0,1-5.85-2.28,9.115,9.115,0,0,1-2.28-6.27,25.6,25.6,0,0,1,2.14-9.98,28.225,28.225,0,0,1,6.42-9.55,31.473,31.473,0,0,1,10.98-6.85,41.469,41.469,0,0,1,15.4-2.57,45.644,45.644,0,0,1,18.11,3.28,28.669,28.669,0,0,1,8.56,6.13,27.244,27.244,0,0,1,5.85,8.98,30.361,30.361,0,0,1,2,10.7,29.852,29.852,0,0,1-4.28,15.69,53.773,53.773,0,0,1-8.7,11.12c-2.99,2.57-7.99,6.85-14.97,12.55s-11.84,10.13-14.4,13.26a31.616,31.616,0,0,0-3.42,4.56Z" fill="#bf3e33"/>
        </g>
        <g id="Group_466" data-name="Group 466">
          <path id="Path_2987" data-name="Path 2987" d="M596.85,892.74a6.555,6.555,0,0,1-6.03-3.99c-28.55-67.18-25.58-130.82-25.44-133.5a6.544,6.544,0,0,1,13.07.69h0c-.03.63-2.91,63.41,24.41,127.69a6.546,6.546,0,0,1-3.46,8.58,6.442,6.442,0,0,1-2.56.52Z" fill="#cfd8e2"/>
          <path id="Path_2988" data-name="Path 2988" d="M626.25,944.49a6.526,6.526,0,0,1-5.26-2.64,248.672,248.672,0,0,1-18.8-29.51,6.549,6.549,0,1,1,11.51-6.25,235.405,235.405,0,0,0,17.81,27.95,6.544,6.544,0,0,1-5.25,10.45Z" fill="#cfd8e2"/>
        </g>
      </g>
    </g>
    <g id="Stand1">
      <g id="Group_470" data-name="Group 470">
        <rect id="Rectangle_106" data-name="Rectangle 106" width="589.66" height="400.33" transform="translate(953.77 1038.1)" fill="#0a2445"/>
        <g id="Group_468" data-name="Group 468">
          <path id="Path_2989" data-name="Path 2989" d="M992.64,1136.74a4.731,4.731,0,0,1-4.73-4.72v-48.49a20.374,20.374,0,0,1,20.35-20.35h138.59a4.72,4.72,0,1,1,0,9.44H1008.26a10.913,10.913,0,0,0-10.9,10.9v48.49a4.724,4.724,0,0,1-4.73,4.72Z" fill="#fff"/>
          <path id="Path_2990" data-name="Path 2990" d="M992.64,1205.01a4.731,4.731,0,0,1-4.73-4.72v-39.02a4.73,4.73,0,0,1,9.46,0v39.02A4.724,4.724,0,0,1,992.64,1205.01Z" fill="#fff"/>
        </g>
        <g id="Group_469" data-name="Group 469">
          <circle id="Ellipse_77" data-name="Ellipse 77" cx="136.15" cy="136.15" r="136.15" transform="translate(1056.061 1234.802) rotate(-45)" fill="#fbcb22"/>
          <circle id="Ellipse_78" data-name="Ellipse 78" cx="112.54" cy="112.54" r="112.54" transform="translate(1136.06 1122.26)" fill="#feedb4" stroke="#eca400" stroke-linecap="round" stroke-linejoin="round" stroke-width="5.56"/>
          <path id="Path_2991" data-name="Path 2991" d="M1245.62,1167.54a3.122,3.122,0,0,1,5.94,0c4.47,13.75,12.65,38.92,15.08,46.41a3.125,3.125,0,0,0,2.97,2.16h48.8a3.125,3.125,0,0,1,1.84,5.65c-11.69,8.5-33.11,24.05-39.48,28.68a3.158,3.158,0,0,0-1.14,3.5c2.44,7.49,10.61,32.66,15.08,46.41a3.126,3.126,0,0,1-4.81,3.49c-11.7-8.49-33.11-24.05-39.48-28.68a3.121,3.121,0,0,0-3.68,0c-6.37,4.63-27.79,20.19-39.48,28.68a3.106,3.106,0,0,1-3.67,0,3.148,3.148,0,0,1-1.14-3.49c4.47-13.74,12.65-38.92,15.08-46.41a3.128,3.128,0,0,0-1.14-3.5c-6.38-4.63-27.79-20.18-39.48-28.68a3.125,3.125,0,0,1,1.84-5.65h48.8a3.116,3.116,0,0,0,2.97-2.16c2.44-7.5,10.61-32.66,15.08-46.41Z" fill="#fbcb22" fill-rule="evenodd"/>
        </g>
        <path id="Path_2992" data-name="Path 2992" d="M936.61,1025.72a12.376,12.376,0,0,1,12.38-12.38h604.16a12.377,12.377,0,0,1,12.38,12.38h0a12.377,12.377,0,0,1-12.38,12.38H948.99a12.377,12.377,0,0,1-12.38-12.38h0Z" fill="#193d6d" fill-rule="evenodd"/>
      </g>
    </g>
    <g id="Gold_Trophy" data-name="Gold Trophy">
      <g id="Group_476" data-name="Group 476">
        <g id="Group_471" data-name="Group 471">
          <path id="Path_2993" data-name="Path 2993" d="M1070.69,993.81c1.13-32.17,104.2-38.94,181.64-90.86,77.93,58.55,180.52,58.76,181.64,90.86h0v19.53h-363.3V993.81h0Z" fill="#fbcb22" fill-rule="evenodd"/>
          <path id="Path_2994" data-name="Path 2994" d="M1406.7,997.14H1097.97a2.49,2.49,0,0,1,0-4.98H1406.7a2.49,2.49,0,0,1,0,4.98Z" fill="#eca400"/>
        </g>
        <path id="Path_2995" data-name="Path 2995" d="M1205.46,802.96s10.38,15.55,19.02,43.04c2.82,8.99,5.69,18.51,5.6,28.7-.1,10.26-3.3,19.65-6.18,28.69-8.66,27.19-18.44,43.04-18.44,43.04,0,25.87,93.75,25.87,93.75,0,0,0-9.77-15.86-18.43-43.04-2.88-9.05-6.08-18.43-6.18-28.69-.1-10.18,2.77-19.71,5.6-28.7,8.64-27.49,19.02-43.04,19.02-43.04a46.87,46.87,0,1,0-93.74,0Z" fill="#eca400" fill-rule="evenodd"/>
        <g id="Group_472" data-name="Group 472">
          <path id="Path_2996" data-name="Path 2996" d="M1069.8,605.46c-105.65-7.33-151.09-38.9-171.37-84.75s-21.23-112.33-6.94-112.78c8.1.14,21.87.59,28.83,0,16.49-.07,3,12.26,26.69,52.19,34.65,58.39,102.9,65.26,102.9,65.26V475.31s-58.93,11.26-84.3-36.04-9.72-67.23-26.21-66.84c-22.99.55-59,.4-77.66,0-21.49-.46-13.35,93.66,6.94,149.45s95.54,127.29,201.12,136.36c.3-9.77.04-42.12,0-52.78Z" fill="#eca400" fill-rule="evenodd"/>
          <path id="Path_2997" data-name="Path 2997" d="M1432.34,605.46c105.65-7.33,151.09-38.9,171.37-84.75s21.23-112.33,6.94-112.78c-8.1.14-21.87.59-28.83,0-16.49-.07-3,12.26-26.69,52.19-34.65,58.39-102.9,65.26-102.9,65.26V475.31s58.93,11.26,84.3-36.04,9.72-67.23,26.21-66.84c22.99.55,59,.4,77.66,0,21.49-.46,13.35,93.66-6.94,149.45s-95.54,127.29-201.12,136.36c-.3-9.77-.04-42.12,0-52.78Z" fill="#eca400" fill-rule="evenodd"/>
        </g>
        <path id="Path_2998" data-name="Path 2998" d="M1016.69,481.9V419.29a46.877,46.877,0,0,1,46.87-46.87h375a46.877,46.877,0,0,1,46.88,46.87v63.72c-.42,190.14-105.28,344.29-234.38,344.29s-234.38-154.77-234.38-345.41Z" fill="#fbcb22" fill-rule="evenodd"/>
        <g id="Group_473" data-name="Group 473">
          <path id="Path_2999" data-name="Path 2999" d="M1501.22,398.2a25.777,25.777,0,0,0-25.78-25.78H1026.7a25.777,25.777,0,0,0-25.78,25.78h0a25.779,25.779,0,0,0,25.78,25.79h448.74a25.777,25.777,0,0,0,25.78-25.78h0Z" fill="#feedb4" fill-rule="evenodd"/>
          <path id="Path_3000" data-name="Path 3000" d="M1462.21,402.7H1042.46a4.5,4.5,0,0,1,0-9h419.75a4.5,4.5,0,0,1,0,9Z" fill="#fbcb22"/>
        </g>
        <g id="Group_474" data-name="Group 474">
          <circle id="Ellipse_79" data-name="Ellipse 79" cx="119.78" cy="119.78" r="119.78" transform="translate(1081.676 599.853) rotate(-45)" fill="#feedb4"/>
          <path id="Path_3001" data-name="Path 3001" d="M1251.07,739.56c-77.03,0-139.7-62.67-139.7-139.7s62.67-139.7,139.7-139.7,139.7,62.67,139.7,139.7S1328.1,739.56,1251.07,739.56Zm0-273.15c-73.59,0-133.45,59.87-133.45,133.45s59.87,133.45,133.45,133.45,133.45-59.87,133.45-133.45-59.87-133.45-133.45-133.45Z" fill="#eca400"/>
          <path id="Path_3002" data-name="Path 3002" d="M1268.91,646.99h19.43q7.89,0,11.93,3.65a12.392,12.392,0,0,1,4.04,9.66q0,12.975-18.31,13.48v.02h-61.46v-.02q-18.315-.5-18.31-13.48a12.392,12.392,0,0,1,4.04-9.66q4.035-3.645,11.93-3.65h19.88V568.12q-25.035,19.23-33.72,19.23a9.948,9.948,0,0,1-7.34-3.3,10.635,10.635,0,0,1-3.21-7.64c0-3.35,1.05-5.82,3.16-7.39a69.18,69.18,0,0,1,11.14-6.11q11.925-5.625,19.07-11.83a80.356,80.356,0,0,0,12.67-13.9q5.52-7.68,7.2-9.46t6.31-1.77a10.124,10.124,0,0,1,8.38,4.04q3.15,4.035,3.16,11.14V647.01Z" fill="#bf3f34"/>
        </g>
        <g id="Group_475" data-name="Group 475">
          <path id="Path_3003" data-name="Path 3003" d="M1089.19,659.72a9.362,9.362,0,0,1-8.63-5.71c-40.9-96.23-36.64-187.39-36.43-191.22a9.373,9.373,0,1,1,18.72.98c-.06,1.12-4.12,90.94,34.97,182.9a9.379,9.379,0,0,1-8.62,13.04Z" fill="#feedb4"/>
          <path id="Path_3004" data-name="Path 3004" d="M1131.3,733.84a9.345,9.345,0,0,1-7.53-3.79,357.625,357.625,0,0,1-26.93-42.27,9.372,9.372,0,1,1,16.47-8.95,338.434,338.434,0,0,0,25.5,40.04,9.38,9.38,0,0,1-7.52,14.97Z" fill="#feedb4"/>
        </g>
      </g>
    </g>
    <g id="Blink">
      <g id="Group_477" data-name="Group 477">
        <path id="Path_3005" data-name="Path 3005" d="M1160.19,196.83c3.4,40.19,18.33,65.39,43.04,77.89-25.71,12.67-38.49,40.47-43.04,77.89-3.88-34.47-15.87-62.36-43.05-77.89,21.73-13.89,36.28-39.52,43.05-77.89Z" fill="#feedb4" fill-rule="evenodd"/>
        <path id="Path_3006" data-name="Path 3006" d="M474.8,618.34c2.76,32.59,14.86,53.02,34.9,63.16-20.85,10.28-31.21,32.82-34.9,63.16-3.15-27.95-12.87-50.56-34.9-63.16C457.52,670.24,469.32,649.46,474.8,618.34Z" fill="#feedb4" fill-rule="evenodd"/>
        <path id="Path_3007" data-name="Path 3007" d="M1257.9,196.83c2.55,30.19,13.77,49.13,32.34,58.52-19.32,9.52-28.92,30.41-32.34,58.52-2.92-25.9-11.92-46.85-32.34-58.52,16.33-10.44,27.26-29.69,32.34-58.52Z" fill="#eca400" fill-rule="evenodd"/>
        <path id="Path_3008" data-name="Path 3008" d="M2028.54,663.45c2.56,30.19,13.77,49.13,32.34,58.52-19.32,9.52-28.92,30.41-32.34,58.52-2.92-25.9-11.92-46.85-32.34-58.52,16.33-10.44,27.26-29.69,32.34-58.52Z" fill="#eca400" fill-rule="evenodd"/>
        <path id="Path_3009" data-name="Path 3009" d="M995.66,799.86c2.56,30.19,13.77,49.13,32.34,58.52-19.32,9.52-28.92,30.41-32.34,58.52-2.92-25.9-11.92-46.85-32.34-58.52C979.65,847.94,990.58,828.69,995.66,799.86Z" fill="#eca400" fill-rule="evenodd"/>
        <path id="Path_3010" data-name="Path 3010" d="M1355.61,83.29c4.25,50.18,22.89,81.66,53.75,97.26-32.11,15.82-48.06,50.54-53.75,97.26-4.85-43.05-19.82-77.86-53.75-97.26,27.14-17.34,45.31-49.35,53.75-97.26Z" fill="#feedb4" fill-rule="evenodd"/>
        <path id="Path_3011" data-name="Path 3011" d="M1953.16,566.19c3.4,40.19,18.33,65.39,43.04,77.89-25.71,12.67-38.49,40.47-43.04,77.89-3.88-34.47-15.87-62.36-43.05-77.89C1931.84,630.19,1946.39,604.56,1953.16,566.19Z" fill="#feedb4" fill-rule="evenodd"/>
        <path id="Path_3012" data-name="Path 3012" d="M1544.13,644.08c3.4,40.19,18.33,65.39,43.04,77.89-25.71,12.67-38.49,40.47-43.04,77.89-3.88-34.47-15.87-62.36-43.05-77.89C1522.81,708.08,1537.36,682.45,1544.13,644.08Z" fill="#feedb4" fill-rule="evenodd"/>
      </g>
    </g>
  </g>
</svg>
