<?xml version="1.0" encoding="UTF-8"?>
<svg id="Layer_2" data-name="Layer 2" xmlns="http://www.w3.org/2000/svg" viewBox="0 0 64.77 71.92">
  <g id="Laag_1" data-name="Laag 1">
    <path d="m0,20.89c.86-3.52,3.26-5.6,6.34-7.31,7.11-3.95,14.13-8.08,21.17-12.16,3.27-1.89,6.49-1.89,9.75,0,7.56,4.38,15.13,8.73,22.71,13.09,3.23,1.86,4.81,4.62,4.8,8.35-.03,8.73-.03,17.46,0,26.19.01,3.79-1.62,6.54-4.89,8.42-7.54,4.32-15.08,8.67-22.6,13.03-3.27,1.89-6.49,1.91-9.75.01-3.96-2.31-7.95-4.58-11.92-6.87-.34-.2-.66-.42-1.01-.64,1.53-1.19,2.35-2.64,2.82-4.48.46-1.79,1.4-3.46,2.14-5.17,1.55-3.57,3.64-6.81,6.02-9.87,1.14-1.47,1.63-1.63,3.03-.45,1.64,1.38,3.15,2.93,4.63,4.48,1.79,1.87,3.56,3.77,5.23,5.75,1.16,1.38,2.36,2.78,2.59,4.73.04.31.62.6,1,.83.59.35,1.22.65,1.85.94.68.31,1.39.79,2.08.79.58,0,1.35-.49,1.66-.99.18-.3-.22-1.2-.6-1.56-.89-.83-1.94-1.49-2.96-2.24.3-.48.49-.82.71-1.14.56-.82.32-1.42-.36-2.08-1.22-1.17-2.39-2.41-3.51-3.67-1.21-1.36-2.17-2.92-3.94-3.75-.58-.27-.93-1.13-1.29-1.77-1.44-2.6-2.68-5.33-4.28-7.83-2.45-3.84-1.61-7.68-.46-11.59.02-.08.03-.18.09-.22,1.5-1.08,2.93-2.29,4.54-3.17,1.22-.68,2.67-.95,4.02-1.39.52-.17,1.04-.44,1.56-.45.91-.02,1.82.14,2.65.21-.05-.16-.15-.48-.25-.81.11-.05.22-.11.33-.16-.25-.16-.49-.32-.76-.5.19-.11.38-.23.82-.48-.63-.13-.98-.2-1.34-.27-.08-.06-.15-.13-.23-.19.33-.1.67-.2,1-.3-.09-.14-.18-.28-.27-.42-.57.09-1.32.45-1.65.21-.38-.27-.39-1.06-.8-1.61-.05.24-.09.48-.14.71-.39,1.88-.92,2.58-2.75,2.35-2.16-.26-3.61,1-5.29,1.77-.81.37-1.5.73-2.47.55-.63-.12-1.36.26-2.04.45-.55.15-1.09.35-1.82.59.04-.71-.1-1.28.12-1.62.87-1.38.21-2.58-.46-3.66-1.01-1.63-3.31-1.42-4.02.36-.51,1.27-.53,2.6.41,3.8.28.35.39.83.67,1.43-.7,0-1.2-.03-1.69,0-.97.08-1.95.32-2.92.28-1.12-.05-2.29-.15-3.31-.55-1.11-.44-2.13-.59-3.24-.19-.04.01-.08.01-.12.03-1.5.5-2.81.38-3.71-1.11-.18-.29-.4-.56-.87-.76.09.47.18.95.29,1.52-.6-.15-1.16-.3-1.72-.44-.08.12-.15.24-.23.36.24.2.48.4.69.57-.16.06-.4.14-.86.3.54.26.87.42,1.3.62-.34.18-.63.33-.91.47.15.35.29.69.45,1.08,1.69-.57,3.41-.54,5.15.11.57.21,1.29.28,1.87.13,1.07-.26,1.93.04,2.84.52.87.45,1.83.72,2.74,1.11.29.13.59.33.78.58,1.63,2.16,1.69,4.7,1.89,7.26.23,3.06-.67,5.85-1.56,8.68-.51,1.62-.89,3.31-1.57,4.86-.48,1.08-1.47,1.91-2.05,2.96-.77,1.38-1.32,2.88-2.03,4.3-.33.67-.72,1.35-1.23,1.88-1.01,1.05-.77,1.96.08,2.91.16.18.3.37.55.68-.52.69-1.06,1.4-1.68,2.22-2.89-1.73-5.74-3.32-8.47-5.11-1.88-1.23-2.69-3.28-3.33-5.36v-30.14Z"/>
  </g>
</svg>