<?xml version="1.0" encoding="UTF-8"?>
<svg xmlns="http://www.w3.org/2000/svg" xmlns:xlink="http://www.w3.org/1999/xlink" viewBox="0 0 189.28 177.89">
  <defs>
    <style>
      .cls-1 {
        fill: url(#_Áåçûìÿííûé_ãðàäèåíò_296);
      }

      .cls-1, .cls-2, .cls-3, .cls-4, .cls-5, .cls-6, .cls-7, .cls-8, .cls-9, .cls-10, .cls-11, .cls-12, .cls-13 {
        mix-blend-mode: screen;
      }

      .cls-1, .cls-8, .cls-10 {
        opacity: .38;
      }

      .cls-2 {
        fill: url(#_Áåçûìÿííûé_ãðàäèåíò_154);
      }

      .cls-2, .cls-6, .cls-11 {
        opacity: .25;
      }

      .cls-14 {
        fill: #fff;
      }

      .cls-15 {
        fill: url(#_Áåçûìÿííûé_ãðàäèåíò_230);
      }

      .cls-16 {
        fill: url(#_Áåçûìÿííûé_ãðàäèåíò_146-2);
      }

      .cls-17 {
        fill: #5d2755;
      }

      .cls-18 {
        fill: url(#_Áåçûìÿííûé_ãðàäèåíò_152);
      }

      .cls-19 {
        fill: url(#_Áåçûìÿííûé_ãðàäèåíò_314);
      }

      .cls-3 {
        fill: url(#_Áåçûìÿííûé_ãðàäèåíò_241);
      }

      .cls-3, .cls-5, .cls-9 {
        opacity: .5;
      }

      .cls-20 {
        opacity: .85;
      }

      .cls-20, .cls-21, .cls-22, .cls-23, .cls-24, .cls-25, .cls-26, .cls-27, .cls-28, .cls-29, .cls-30, .cls-31, .cls-32, .cls-33, .cls-34 {
        mix-blend-mode: multiply;
      }

      .cls-20, .cls-31, .cls-32 {
        fill: #ba92d1;
      }

      .cls-4 {
        opacity: .28;
      }

      .cls-4, .cls-12, .cls-13 {
        fill: #e09ce0;
      }

      .cls-21 {
        fill: url(#_Áåçûìÿííûé_ãðàäèåíò_117);
        opacity: .43;
      }

      .cls-5 {
        fill: url(#_Áåçûìÿííûé_ãðàäèåíò_212);
      }

      .cls-22 {
        fill: url(#_Áåçûìÿííûé_ãðàäèåíò_118);
        opacity: .31;
      }

      .cls-6 {
        fill: url(#_Áåçûìÿííûé_ãðàäèåíò_77);
      }

      .cls-35 {
        isolation: isolate;
      }

      .cls-7 {
        fill: url(#_Áåçûìÿííûé_ãðàäèåíò_144);
        opacity: .32;
      }

      .cls-36 {
        fill: url(#_Áåçûìÿííûé_ãðàäèåíò_220);
      }

      .cls-37 {
        fill: url(#_Áåçûìÿííûé_ãðàäèåíò_197-2);
      }

      .cls-23 {
        fill: url(#_Áåçûìÿííûé_ãðàäèåíò_240);
      }

      .cls-38 {
        fill: url(#_Áåçûìÿííûé_ãðàäèåíò_314-2);
      }

      .cls-24 {
        fill: url(#_Áåçûìÿííûé_ãðàäèåíò_178-2);
      }

      .cls-8 {
        fill: url(#_Áåçûìÿííûé_ãðàäèåíò_173-2);
      }

      .cls-25 {
        fill: url(#_Áåçûìÿííûé_ãðàäèåíò_197);
        opacity: .79;
      }

      .cls-39, .cls-29 {
        opacity: .71;
      }

      .cls-39, .cls-40 {
        fill: #f4e2f1;
      }

      .cls-9 {
        fill: url(#_Áåçûìÿííûé_ãðàäèåíò_338);
      }

      .cls-41 {
        fill: #f46f9f;
        opacity: .36;
      }

      .cls-10 {
        fill: url(#_Áåçûìÿííûé_ãðàäèåíò_173);
      }

      .cls-11 {
        fill: url(#_Áåçûìÿííûé_ãðàäèåíò_77-2);
      }

      .cls-26 {
        fill: url(#_Áåçûìÿííûé_ãðàäèåíò_76);
      }

      .cls-27 {
        fill: #8486ea;
        opacity: .37;
      }

      .cls-42 {
        fill: #932b55;
      }

      .cls-28 {
        opacity: .51;
      }

      .cls-43 {
        fill: url(#_Áåçûìÿííûé_ãðàäèåíò_197-3);
      }

      .cls-44 {
        fill: #2e0043;
      }

      .cls-45 {
        clip-path: url(#clippath);
      }

      .cls-46 {
        fill: none;
      }

      .cls-29 {
        fill: #c960d1;
      }

      .cls-12 {
        opacity: .08;
      }

      .cls-30 {
        fill: url(#_Áåçûìÿííûé_ãðàäèåíò_239);
        opacity: .6;
      }

      .cls-31 {
        opacity: .72;
      }

      .cls-47 {
        fill: url(#_Áåçûìÿííûé_ãðàäèåíò_146);
      }

      .cls-32 {
        opacity: .58;
      }

      .cls-13 {
        opacity: .15;
      }

      .cls-33 {
        fill: url(#_Áåçûìÿííûé_ãðàäèåíò_103);
      }

      .cls-34 {
        fill: url(#_Áåçûìÿííûé_ãðàäèåíò_178);
      }
    </style>
    <linearGradient id="_Áåçûìÿííûé_ãðàäèåíò_220" data-name="Áåçûìÿííûé ãðàäèåíò 220" x1="56.77" y1="153.11" x2="130.99" y2="-1.29" gradientUnits="userSpaceOnUse">
      <stop offset=".07" stop-color="#2e0043"/>
      <stop offset=".24" stop-color="#370846"/>
      <stop offset=".52" stop-color="#521e51"/>
      <stop offset=".88" stop-color="#7c4161"/>
      <stop offset="1" stop-color="#8d4f68"/>
    </linearGradient>
    <linearGradient id="_Áåçûìÿííûé_ãðàäèåíò_314" data-name="Áåçûìÿííûé ãðàäèåíò 314" x1="96.54" y1="231.87" x2="96.54" y2="-40.15" gradientUnits="userSpaceOnUse">
      <stop offset="0" stop-color="#ba92d1"/>
      <stop offset=".32" stop-color="#cea8d7"/>
      <stop offset=".82" stop-color="#f4d3e3"/>
    </linearGradient>
    <linearGradient id="_Áåçûìÿííûé_ãðàäèåíò_314-2" data-name="Áåçûìÿííûé ãðàäèåíò 314" x1="134.62" y1="220.77" x2="134.62" y2="-32.14" xlink:href="#_Áåçûìÿííûé_ãðàäèåíò_314"/>
    <linearGradient id="_Áåçûìÿííûé_ãðàäèåíò_197" data-name="Áåçûìÿííûé ãðàäèåíò 197" x1="146.67" y1="51.58" x2="150.54" y2="51.58" gradientUnits="userSpaceOnUse">
      <stop offset=".33" stop-color="#ba92d1"/>
      <stop offset="1" stop-color="#c960d1"/>
    </linearGradient>
    <linearGradient id="_Áåçûìÿííûé_ãðàäèåíò_230" data-name="Áåçûìÿííûé ãðàäèåíò 230" x1="154.55" y1="56.82" x2="156.38" y2="36.81" gradientUnits="userSpaceOnUse">
      <stop offset="0" stop-color="#ea524b"/>
      <stop offset="1" stop-color="#ffa953"/>
    </linearGradient>
    <linearGradient id="_Áåçûìÿííûé_ãðàäèåíò_118" data-name="Áåçûìÿííûé ãðàäèåíò 118" x1="138.49" y1="33.96" x2="156.15" y2="23.8" gradientUnits="userSpaceOnUse">
      <stop offset=".47" stop-color="#fff"/>
      <stop offset=".55" stop-color="#e3d0e3"/>
      <stop offset=".72" stop-color="#b079b1"/>
      <stop offset=".85" stop-color="#8a3a8c"/>
      <stop offset=".95" stop-color="#731275"/>
      <stop offset="1" stop-color="#6b046d"/>
    </linearGradient>
    <linearGradient id="_Áåçûìÿííûé_ãðàäèåíò_117" data-name="Áåçûìÿííûé ãðàäèåíò 117" x1="145.37" y1="30.06" x2="138.63" y2="36.8" gradientUnits="userSpaceOnUse">
      <stop offset=".19" stop-color="#fff"/>
      <stop offset=".32" stop-color="#e3d0e3"/>
      <stop offset=".57" stop-color="#b079b1"/>
      <stop offset=".77" stop-color="#8a3a8c"/>
      <stop offset=".92" stop-color="#731275"/>
      <stop offset="1" stop-color="#6b046d"/>
    </linearGradient>
    <clipPath id="clippath">
      <path class="cls-46" d="m135.12,29.76s4.82-7.34,14.02-6.33c4.04.44,4.12,12.39-4.01,14.42-.87.22-1.91.44-3.24.11-2.06-.51-5.55-1.62-6.77-8.2Z"/>
    </clipPath>
    <linearGradient id="_Áåçûìÿííûé_ãðàäèåíò_152" data-name="Áåçûìÿííûé ãðàäèåíò 152" x1="184.91" y1="13.53" x2="184.91" y2="-4.22" gradientTransform="translate(-37.12 -10.28) rotate(11.54)" gradientUnits="userSpaceOnUse">
      <stop offset=".12" stop-color="#fff"/>
      <stop offset=".32" stop-color="#fafafc"/>
      <stop offset=".54" stop-color="#edeef6"/>
      <stop offset=".77" stop-color="#d6d9ec"/>
      <stop offset="1" stop-color="#babfdf"/>
    </linearGradient>
    <linearGradient id="_Áåçûìÿííûé_ãðàäèåíò_178" data-name="Áåçûìÿííûé ãðàäèåíò 178" x1="190.39" y1="-30.25" x2="190.39" y2="-42.58" gradientTransform="translate(-28.77 5.23) rotate(20.49) scale(.93 1) skewX(2.27)" gradientUnits="userSpaceOnUse">
      <stop offset="0" stop-color="#bf92ed"/>
      <stop offset="0" stop-color="#bd90eb"/>
      <stop offset=".15" stop-color="#9b69b6"/>
      <stop offset=".29" stop-color="#7e488a"/>
      <stop offset=".42" stop-color="#682f69"/>
      <stop offset=".55" stop-color="#581c50"/>
      <stop offset=".67" stop-color="#4f1142"/>
      <stop offset=".77" stop-color="#4c0e3d"/>
    </linearGradient>
    <linearGradient id="_Áåçûìÿííûé_ãðàäèåíò_178-2" data-name="Áåçûìÿííûé ãðàäèåíò 178" x1="190.62" y1="-32.44" x2="190.62" y2="-40.15" xlink:href="#_Áåçûìÿííûé_ãðàäèåíò_178"/>
    <linearGradient id="_Áåçûìÿííûé_ãðàäèåíò_144" data-name="Áåçûìÿííûé ãðàäèåíò 144" x1="176.5" y1="-9.67" x2="176.5" y2="-19.79" gradientTransform="translate(-31.74 38.6) rotate(4.5)" gradientUnits="userSpaceOnUse">
      <stop offset=".23" stop-color="#000"/>
      <stop offset=".3" stop-color="#080406"/>
      <stop offset=".4" stop-color="#1f0f16"/>
      <stop offset=".53" stop-color="#452231"/>
      <stop offset=".68" stop-color="#793d57"/>
      <stop offset=".85" stop-color="#bb5e87"/>
      <stop offset="1" stop-color="#ff81b8"/>
    </linearGradient>
    <linearGradient id="_Áåçûìÿííûé_ãðàäèåíò_338" data-name="Áåçûìÿííûé ãðàäèåíò 338" x1="204.14" y1="-4.73" x2="204.14" y2="-22.31" gradientTransform="translate(-65.06 -22.88) rotate(22.27)" gradientUnits="userSpaceOnUse">
      <stop offset=".19" stop-color="#000"/>
      <stop offset=".27" stop-color="#050405"/>
      <stop offset=".38" stop-color="#160f16"/>
      <stop offset=".51" stop-color="#312231"/>
      <stop offset=".64" stop-color="#583d58"/>
      <stop offset=".79" stop-color="#895f89"/>
      <stop offset=".94" stop-color="#c488c4"/>
      <stop offset="1" stop-color="#e09ce0"/>
    </linearGradient>
    <linearGradient id="_Áåçûìÿííûé_ãðàäèåíò_103" data-name="Áåçûìÿííûé ãðàäèåíò 103" x1="118.07" y1="65.49" x2="118.07" y2="25.06" gradientUnits="userSpaceOnUse">
      <stop offset="0" stop-color="#fff"/>
      <stop offset=".23" stop-color="#ede2f3"/>
      <stop offset=".75" stop-color="#c8a8da"/>
      <stop offset="1" stop-color="#ba92d1"/>
    </linearGradient>
    <linearGradient id="_Áåçûìÿííûé_ãðàäèåíò_154" data-name="Áåçûìÿííûé ãðàäèåíò 154" x1="214.38" y1="-50.57" x2="190.99" y2="-50.57" gradientTransform="translate(-60.9 .83) rotate(16.17)" gradientUnits="userSpaceOnUse">
      <stop offset="0" stop-color="#e09ce0"/>
      <stop offset=".08" stop-color="#c488c4"/>
      <stop offset=".26" stop-color="#895f89"/>
      <stop offset=".44" stop-color="#583d58"/>
      <stop offset=".61" stop-color="#312231"/>
      <stop offset=".76" stop-color="#160f16"/>
      <stop offset=".9" stop-color="#050405"/>
      <stop offset="1" stop-color="#000"/>
    </linearGradient>
    <linearGradient id="_Áåçûìÿííûé_ãðàäèåíò_239" data-name="Áåçûìÿííûé ãðàäèåíò 239" x1="37.73" y1="119.59" x2="144.83" y2="44.57" gradientUnits="userSpaceOnUse">
      <stop offset=".36" stop-color="#ba92d1"/>
      <stop offset=".52" stop-color="#c8a8da"/>
      <stop offset=".85" stop-color="#ede2f3"/>
      <stop offset="1" stop-color="#fff"/>
    </linearGradient>
    <linearGradient id="_Áåçûìÿííûé_ãðàäèåíò_240" data-name="Áåçûìÿííûé ãðàäèåíò 240" x1="129.94" y1="68.7" x2="189.28" y2="68.7" gradientUnits="userSpaceOnUse">
      <stop offset=".42" stop-color="#ba92d1"/>
      <stop offset=".56" stop-color="#c8a8da"/>
      <stop offset=".86" stop-color="#ede2f3"/>
      <stop offset="1" stop-color="#fff"/>
    </linearGradient>
    <linearGradient id="_Áåçûìÿííûé_ãðàäèåíò_197-2" data-name="Áåçûìÿííûé ãðàäèåíò 197" x1="140.57" y1="55.59" x2="141.09" y2="55.59" xlink:href="#_Áåçûìÿííûé_ãðàäèåíò_197"/>
    <linearGradient id="_Áåçûìÿííûé_ãðàäèåíò_197-3" data-name="Áåçûìÿííûé ãðàäèåíò 197" x1="141.09" y1="46.7" x2="167.95" y2="46.7" xlink:href="#_Áåçûìÿííûé_ãðàäèåíò_197"/>
    <linearGradient id="_Áåçûìÿííûé_ãðàäèåíò_212" data-name="Áåçûìÿííûé ãðàäèåíò 212" x1="157.51" y1="38.48" x2="164.82" y2="38.48" gradientUnits="userSpaceOnUse">
      <stop offset=".19" stop-color="#000"/>
      <stop offset=".27" stop-color="#050502"/>
      <stop offset=".38" stop-color="#16160a"/>
      <stop offset=".5" stop-color="#303117"/>
      <stop offset=".64" stop-color="#565828"/>
      <stop offset=".78" stop-color="#86893f"/>
      <stop offset=".93" stop-color="#c0c45a"/>
      <stop offset="1" stop-color="#e0e56a"/>
    </linearGradient>
    <linearGradient id="_Áåçûìÿííûé_ãðàäèåíò_76" data-name="Áåçûìÿííûé ãðàäèåíò 76" x1="158.29" y1="82.55" x2="158.29" y2="65.76" gradientUnits="userSpaceOnUse">
      <stop offset=".12" stop-color="#fff"/>
      <stop offset=".24" stop-color="#ede2f3"/>
      <stop offset=".48" stop-color="#c8a8da"/>
      <stop offset=".6" stop-color="#ba92d1"/>
    </linearGradient>
    <linearGradient id="_Áåçûìÿííûé_ãðàäèåíò_146" data-name="Áåçûìÿííûé ãðàäèåíò 146" x1="8.25" y1="170.1" x2="8.25" y2="139.76" gradientUnits="userSpaceOnUse">
      <stop offset="0" stop-color="#ffa953"/>
      <stop offset="1" stop-color="#ea524b"/>
    </linearGradient>
    <linearGradient id="_Áåçûìÿííûé_ãðàäèåíò_241" data-name="Áåçûìÿííûé ãðàäèåíò 241" x1="117.28" y1="94.43" x2="102" y2="109.71" gradientUnits="userSpaceOnUse">
      <stop offset=".22" stop-color="#e09ce0"/>
      <stop offset=".54" stop-color="#855d85"/>
      <stop offset="1" stop-color="#000"/>
    </linearGradient>
    <linearGradient id="_Áåçûìÿííûé_ãðàäèåíò_77" data-name="Áåçûìÿííûé ãðàäèåíò 77" x1="101.18" y1="74.1" x2="157.55" y2="74.1" gradientUnits="userSpaceOnUse">
      <stop offset="0" stop-color="#000"/>
      <stop offset=".1" stop-color="#050405"/>
      <stop offset=".24" stop-color="#160f16"/>
      <stop offset=".39" stop-color="#312231"/>
      <stop offset=".56" stop-color="#583d58"/>
      <stop offset=".74" stop-color="#895f89"/>
      <stop offset=".92" stop-color="#c488c4"/>
      <stop offset="1" stop-color="#e09ce0"/>
    </linearGradient>
    <linearGradient id="_Áåçûìÿííûé_ãðàäèåíò_77-2" data-name="Áåçûìÿííûé ãðàäèåíò 77" x1="142.28" y1="65.74" x2="176.92" y2="65.74" xlink:href="#_Áåçûìÿííûé_ãðàäèåíò_77"/>
    <linearGradient id="_Áåçûìÿííûé_ãðàäèåíò_173" data-name="Áåçûìÿííûé ãðàäèåíò 173" x1="127.97" y1="68.28" x2="112.98" y2="83.27" gradientUnits="userSpaceOnUse">
      <stop offset="0" stop-color="#9c3be0"/>
      <stop offset=".08" stop-color="#8833c4"/>
      <stop offset=".26" stop-color="#5f2489"/>
      <stop offset=".44" stop-color="#3d1758"/>
      <stop offset=".61" stop-color="#220d31"/>
      <stop offset=".76" stop-color="#0f0516"/>
      <stop offset=".9" stop-color="#040105"/>
      <stop offset="1" stop-color="#000"/>
    </linearGradient>
    <linearGradient id="_Áåçûìÿííûé_ãðàäèåíò_173-2" data-name="Áåçûìÿííûé ãðàäèåíò 173" x1="164.93" y1="62.93" x2="158.02" y2="69.84" xlink:href="#_Áåçûìÿííûé_ãðàäèåíò_173"/>
    <linearGradient id="_Áåçûìÿííûé_ãðàäèåíò_296" data-name="Áåçûìÿííûé ãðàäèåíò 296" x1="117.08" y1="12.29" x2="148.18" y2="12.29" gradientUnits="userSpaceOnUse">
      <stop offset="0" stop-color="#000"/>
      <stop offset=".1" stop-color="#040105"/>
      <stop offset=".24" stop-color="#0f0516"/>
      <stop offset=".39" stop-color="#220d31"/>
      <stop offset=".56" stop-color="#3d1758"/>
      <stop offset=".74" stop-color="#5f2489"/>
      <stop offset=".92" stop-color="#8833c4"/>
      <stop offset="1" stop-color="#9c3be0"/>
    </linearGradient>
    <linearGradient id="_Áåçûìÿííûé_ãðàäèåíò_146-2" data-name="Áåçûìÿííûé ãðàäèåíò 146" x1="101.89" y1="168.09" x2="67.23" y2="168.09" xlink:href="#_Áåçûìÿííûé_ãðàäèåíò_146"/>
  </defs>
  <g class="cls-35">
    <g id="Layer_2" data-name="Layer 2">
      <g id="_Ñëîé_1" data-name="Ñëîé 1">
        <g>
          <path class="cls-36" d="m158.85,30.58s1.08-5.55,1.24-9.36c.17-3.81-4.86-19.78-24.98-21.14-17.04-1.15-24.73,10.57-27.13,14.55-2.4,3.98-7.04-.5-5.05,4.02,0,0-4.62-.14-1.39,3.18s3.62,2.54,3.62,2.54c0,0-23.53,21.62-33.06,26.84-9.53,5.22-15.82,1.66-13.01,5.14,0,0-2.49,0-.08,2.73,0,0-27.42,12.35-33.31,16.24s-14.42,1.08-21.87-3.89c-7.46-4.97-1.74,16.57-1.74,16.57,0,0-2.82-2.65-1.41,4.23s-1.24,25.19,4.89,33.47c6.13,8.29,1.33,14.69,1.33,14.69l1.66,3.2s9.06.22,12.15,1.33c3.09,1.1,31.26,11.93,47.06,26.4l6.3-2.87v-13.37s28.94-16.33,46.4-60.25c0,0,53.03,2.48,60.32-2.16,7.29-4.64-29.83-12.24-29.83-12.24,0,0,35.35-4.11,38.22-8.31,2.87-4.2-52.58-9.94-57.22-13.26-4.64-3.31,1.66-1.96,6.19-2.98,15.58-3.54,20.71-25.3,20.71-25.3Z"/>
          <path class="cls-19" d="m120.46,94.83c-8.17-.18-30.49-.51-38.33-4.82,0,0-9.39,10.05-9.5,29.05s1.44,24.75,1.44,36.01c0,0,29.61-15.63,46.4-60.25Z"/>
          <path class="cls-38" d="m152.88,14.79c-6.95-.54-16.63,5-20.78,14.97,0,0-7.44-5.63-13.85.37-6.41,6-2.1,17.34,1.33,22.09,0,0-5.19-6.63-8.73-6.19-3.53.44,1.44,17.79,2.43,19.77l17.79,8.06s-1.97-15.54-.68-16.9c.48-.84,4.55.18,7.75-.54,15.58-3.54,20.71-25.3,20.71-25.3,0,0,.28-1.46.58-3.4.48-3.09.07-5.68-.62-7.72-.87-2.57-2.83-4.98-5.93-5.22Z"/>
          <path class="cls-42" d="m151.83,58.52s-.7-6.9.09-10.65,9.51-5.54,9.51-5.54l-9.78-.59-5.48,4.67,1.12,8.87,4.54,3.24Z"/>
          <path class="cls-25" d="m150.54,58.18s-.22-10.59-1.33-12.74c-1.1-2.15-2.54,4.09-2.54,4.09l1.54,5.07,2.33,3.59Z"/>
          <path class="cls-15" d="m167.95,41.78s-3.44-4.81-10.62-6.57c0,0-7.49,6.37-12.22,8.16-.48.18,3.63,8.08-2.4,11.34,0,0,6.83,3.97,9.12,3.8,0,0-3.61-4.64-3.79-9.46s5.64-5.26,19.91-7.27Z"/>
          <g>
            <path class="cls-22" d="m135.12,29.76s2-5.82,13.27-10.15,8.78,11.47,1.41,17.01c-7.37,5.54-14.67-6.86-14.67-6.86Z"/>
            <path class="cls-44" d="m135.12,29.76s3.82-6.68,11.94-7.32c8.12-.64,5.49,6.57,4.28,9.2s-16.22-1.88-16.22-1.88Z"/>
            <path class="cls-21" d="m135.12,29.76s1.91,12.36,12.47,7.82c9.94-4.27-12.47-7.82-12.47-7.82Z"/>
            <g class="cls-45">
              <path class="cls-18" d="m135.12,29.76s4.79-8.15,14.02-6.33c4.47.88,3.24,14.71-4.88,16.74-.87.22-1.79.12-2.59-.28-1.89-.95-5.33-3.54-6.55-10.13Z"/>
              <path class="cls-27" d="m133.8,32.53c2.14-8.11,18.6-8.46,16.86,2.21s6.45-12.52,6.45-12.52l-11.2-6.38-12.55,5.18-1.31,9.11,1.75,2.4Z"/>
              <g>
                <path class="cls-34" d="m152.89,33.75c-1.24,3.19-4.28,5.14-6.8,4.37-2.52-.77-3.56-3.98-2.32-7.17,1.24-3.19,4.28-5.14,6.8-4.37,2.52.77,3.56,3.98,2.32,7.17Z"/>
                <path class="cls-24" d="m151.34,33.41c-.77,1.99-2.68,3.22-4.25,2.73-1.58-.48-2.22-2.49-1.45-4.48.77-1.99,2.68-3.22,4.25-2.73,1.58.48,2.22,2.49,1.45,4.48Z"/>
                <path class="cls-7" d="m150.78,37.94c-.34,2.77-3.03,4.94-6.02,4.84-2.98-.1-5.13-2.43-4.79-5.21s3.03-4.94,6.02-4.84c2.98.1,5.13,2.43,4.79,5.21Z"/>
              </g>
              <g>
                <path class="cls-14" d="m148.04,30.56c-.14.06-.84-.21-1.05-.77-.21-.56.13-1.21.3-1.26.16-.05.84.21,1.05.77s-.11,1.19-.3,1.26Z"/>
                <path class="cls-14" d="m148.47,32.41c-.06.02-.32-.02-.37-.17s.1-.34.17-.37c.07-.02.32.02.37.17.06.15-.1.34-.17.37Z"/>
              </g>
            </g>
            <path class="cls-17" d="m149.07,19.36s4.58-1.2,6.13,1.19c0,0,.88-3.32-6.13-1.19Z"/>
          </g>
          <path class="cls-9" d="m123.09,28.01c7.38-1.97,24.94,16.61,16.87,24.93-3.88,4-10.03,4.08-17.73-1.82-7.15-5.48-10.67-20.03.86-23.11Z"/>
          <path class="cls-41" d="m130.08,31.92c6.92.69,12.1,13.52,6.99,14.62-8.13,1.75-16.21-15.54-6.99-14.62Z"/>
          <path class="cls-33" d="m103.34,30.73c3.2.7,8.17,19.95,15.47,27.8,7.29,7.84,13.48,8.51,15.13,4.75.96-2.19,4.58-2.23,7.44-1.89-4.85-.93-8.39-1.79-9.42-2.53-1.36-.97-1.76-1.53-1.56-1.88.48-.84,4.55.18,7.75-.54,1.64-.37,3.16-.96,4.58-1.69,0-.02-4.63,3.35-15.71-4.62-13.01-9.35-6.99-21.67-6.99-21.67-3.76-4.06-6.55-24.54,8.81-28.2-13.39,2.38-18.79,10.98-20.84,14.37-2.4,3.98-7.04-.5-5.05,4.02,0,0-4.62-.14-1.39,3.18,2.69,2.76,3.41,2.69,3.57,2.58-.44.4-5.48,5.01-11.69,10.37,3.5-2.07,8.05-4.46,9.91-4.05Z"/>
          <path class="cls-31" d="m133.44,56.67s-14.74-1.74-19.16-17.4c-4.42-15.66-9.16-14.87-9.16-14.87l-2.67,2.42s6.47,1.72,9.62,7.35c3.15,5.63,2.21,27.06,17.9,24.8,0,0-.13-1.17.35-1.86.34-.5.67-.64,3.13-.44Z"/>
          <path class="cls-2" d="m156.73,12.11c5.67,9.49-8.66,1.59-17.4-5.72-8.06-6.74,9.59-7.35,17.4,5.72Z"/>
          <path class="cls-40" d="m146.91,12.13c-1.81-.68-2.91-1.16-3.29-2.37-.38-1.21,7.07,3.79,3.29,2.37Z"/>
          <path class="cls-20" d="m113.28,65.82s-10.49-3.37-14.03-15.17c0,0,9.06,6.37,11.05,7.53,1.99,1.16,2.98,7.64,2.98,7.64Z"/>
          <path class="cls-30" d="m180.78,92.66c7.29-4.64-29.83-12.24-29.83-12.24,0,0,26.77,7.63,18.56,7.93-8.21.3-59.7-9.76-66.77-13.19-7.07-3.42-23.37-20.34-15.97-27.52,6.05-5.87,7.82-6.9,8.26-7.09-1.3.39-12.17,3.7-18.72,7.96-.41.29-.81.57-1.2.83-.38.28-.73.5-1.05.69-.7.45-1.36.84-1.95,1.17-9.53,5.22-15.82,1.66-13.01,5.14,0,0-2.49,0-.08,2.73,0,0-27.42,12.35-33.31,16.24-5.88,3.89-14.42,1.08-21.87-3.89-7.46-4.97-1.74,16.57-1.74,16.57,0,0-2.82-2.65-1.41,4.23s-1.24,25.19,4.89,33.47c6.13,8.29,1.33,14.69,1.33,14.69l1.66,3.2s9.06.22,12.15,1.33c3.09,1.1,31.26,11.93,47.06,26.4l6.3-2.87v-4.42c0,5.08-22.98-19.22-25.52-26.95-2.54-7.73-.22-1.22-.22-1.22,0,0-3.31-37.01,6.85-29.05,10.16,7.95,18.89,26.73,18.89,48.28,0,0,21.54-12.69,35.97-38.27-2.04,3.88-6.36,2.78-8.14,2.55-10.37-1.33-23.51-15.45-10.48-19.54,13.01-4.08,28.54-4.5,27.27-.5.61-1.47,1.2-2.96,1.78-4.5,0,0,53.03,2.48,60.32-2.16Z"/>
          <path class="cls-23" d="m131.07,73.88l19.88,6.54s35.35-4.11,38.22-8.31c.55-.8-1.03-1.66-3.98-2.55,10.56,3.3-23.79-2.02-29.87-2.87-8.66-1.21-25.96-7.66-13.3-5.19-5.19-.98-9-1.88-10.08-2.65-1.36-.97-1.76-1.53-1.56-1.88-1.31.97.68,16.9.68,16.9Z"/>
          <g class="cls-28">
            <path class="cls-37" d="m141.09,55.47c-.17.07-.34.16-.51.23.12-.05.31-.13.51-.23Z"/>
            <path class="cls-43" d="m148.55,46.86c.73-1.23,2.3-2.04,4.8-2.7,3.23-.85,8-1.45,14.61-2.38-5.3-.24-11,.7-13.55.54-.77-.05-1.26-.19-1.36-.5-.41-1.35,4.28-6.61,4.28-6.61-1.03.92-2.06,1.73-3.09,2.47-6.25,4.51-11.97,5.86-11.97,5.86,0,0,3.73,4.56,2.9,7.71-.61,2.32-2.91,3.67-4.1,4.22.56-.23,1.12-.46,1.65-.73.21.12,4.39,2.53,7.23,3.44-.45-1.03-1.77-4.21-2.15-7.07-.23-1.71-.12-3.3.71-4.23,0,0,0,0,.01-.01Z"/>
          </g>
          <path class="cls-5" d="m157.51,35.44s3.05,4.79,6.28,5.56c3.22.77,3.48.48,3.48.48,0,0-1.86-3.73-9.76-6.03Z"/>
          <path class="cls-26" d="m183.01,70.44c-1.4-.13-3.04-.32-4.82-.53-11.85-1.33-39.87-4.59-45.64-6.63-.99-.35-1.82-.62-2.54-.83.25,4.95,1.06,11.44,1.06,11.44l16.28,5.36s26.22-1.45,36.74-4.65c3.21-1.82,3.76-3.62-1.07-4.15Z"/>
          <path class="cls-20" d="m130.87,72.24l-.86-9.79s10.48,3.93,47,7.32c0,0,9.92,1.21.4,2.47-9.53,1.26-46.54,0-46.54,0Z"/>
          <path class="cls-20" d="m73.35,142.39c-4.31-15.02-6.82-23.35-15.26-32.97,0,0,10.57,5.11,12.91,7.85,2.35,2.75,2.35,25.12,2.35,25.12Z"/>
          <path class="cls-20" d="m16.84,118.03c-2.14-23.03,7.25-41.84,38.85-57.45-7.48,3.41-25.37,11.67-29.98,14.73-5.88,3.89-14.42,1.08-21.87-3.89-7.46-4.97-1.74,16.57-1.74,16.57,0,0-2.82-2.65-1.41,4.23s-1.24,25.19,4.89,33.47c6.13,8.29,1.33,14.69,1.33,14.69l1.66,3.2s5.06-3.07,8.15-1.97c.67.24,4,3.3,4,3.3,12.54,4.77,34.68,15.06,47.06,26.4l3.85-1.76c-19.52-14.54-53.45-37.28-54.78-51.53Z"/>
          <path class="cls-47" d="m6.9,140.39l-3.65,1.96s1.83,15.24.67,23.53l2.49-1.02v5.25s5.3-2.98,6.63-6.71c1.33-3.73-4.24-16.82-4.65-18.48-.41-1.66,5.91-4.14.09-3.48,0,0,3.47-2.93-1.59-1.05Z"/>
          <path class="cls-29" d="m12.12,161.49c-.54-2.76-5.63-13.84-5.63-13.84,0,0,3.4,11.85,2.71,13.75-.68,1.91-4.12,2.98-4.12,2.98,0,0,3.65-1.99,2.73-4.47-.91-2.49-2.73-15.74-2.73-15.74l4.12-3.43c.65-.73,1.07-1.61-2.3-.36l-3.65,1.96s1.83,15.24.67,23.53l2.49-1.02v5.25s6.25-5.86,5.7-8.62Z"/>
          <path class="cls-13" d="m17.01,108.92c-1.49,11.35,2.87,16.62,5.97,20.06s-5.39-18.7-2.16-33.98c1.7-8.03-2.25,2.05-3.81,13.92Z"/>
          <path class="cls-13" d="m81.47,148.8c-2.81,2.04-5.25,3.6-7.41,4.74l-.18-5.95c5.9-2.15,12.32-4.63,15.87-7.58,4.79-3.97,2.54.94-8.29,8.78Z"/>
          <path class="cls-4" d="m130.52,69.56c.2,1.48.55,3.1.33,4.32l-3.99-1.91c.25-.67.51-1.37.75-2.09.67-1.97,1-6.74,1.36-8.75.8-4.43.39-.2,1.55,8.43Z"/>
          <path class="cls-12" d="m70.49,71.61c-1.94-6.14.74-10.24,3.5-12.48s-2.55,14.11,2.11,23.13c2.45,4.74-1.35,2.86-5.61-10.65Z"/>
          <path class="cls-12" d="m111.36,14.05c.71-3.77,2.78-5.59,4.42-6.37s-4.44,7.45-4.76,13.29c-.17,3.07-1.23,1.37.34-6.92Z"/>
          <path class="cls-3" d="m101.89,97.37c15.94-1.64,18.08-.21,14.86,6.43-3.22,6.64-6.45,15.87-11.84,12.15-5.38-3.72-10.91-17.77-3.03-18.58Z"/>
          <path class="cls-32" d="m74.55,82.13c-1.06-1.82-2.11-4.01-3.03-6.7,0,0-2.16,10.79,2.35,14.42,2.8,4.97,45.93,6.42,45.93,6.42l.66-1.44c6.96.54,36.57.59,36.57.59,0,0-77.06-2.93-82.48-13.29Z"/>
          <path class="cls-20" d="m82.13,90.01s-6.52-2.65-10.61-14.58c0,0-4.09,20.33,10.61,14.58Z"/>
          <path class="cls-6" d="m142.04,84.37c25.76,5.66,17.03-.39-8.6-9.71-25.62-9.32-31.92-17.11-32.25-10.65-.33,6.46,8.44,12.8,18.39,15.76s22.46,4.6,22.46,4.6Z"/>
          <path class="cls-11" d="m160.79,67.62c12.04,2.25,24.2,1.21,9.14-1.34-15.06-2.55-33.26-5.32-26-2.43,7.26,2.89,16.86,3.76,16.86,3.76Z"/>
          <path class="cls-39" d="m133.36,83.15c2.39.93,3.88,1.44,4.94.7,1.06-.74-9.94-2.64-4.94-.7Z"/>
          <path class="cls-10" d="m106.08,76.37c4.46,1.24,30.37.41,20.78-4.4l8.02,3.22s-3.61.27-12.59,1.7c-8.97,1.42-3.76,2.71-3.76,2.71l-12.45-3.22Z"/>
          <path class="cls-8" d="m162.38,67.9c-4.97-1.29,5.57-1.95,5.57-1.95l-7.22-1.22s5.02,1.07,1.65,1.58c-3.37.51-7.39.5-7.39.5l7.39,1.09Z"/>
          <path class="cls-20" d="m6.35,124.55s17.45,21.21,19.22,22.09c0,0-12.81-1.55-19.22-22.09Z"/>
          <path class="cls-20" d="m73.35,142.39s7.13,8.47,5.05,9.79-4.34,2.9-4.34,2.9l-.72-12.69Z"/>
          <path class="cls-1" d="m117.76,23.33c-2.14-7.65,15.37-23.93,30.42-19.54,0,0-2.82-1.43-6.13-2.55,0,0,4.27,1.74-3.07,1.63-7.35-.11-15.16,3.92-17.8,10.33-2.64,6.41-3.87.69-3.87.69,0,0-.16,1.65-.23,4.23-.08,3.04.68,5.22.68,5.22Z"/>
          <path class="cls-16" d="m67.77,171.32l6.24,6.57,23.49-12.32-2.49-1.08,6.88-3.98s-6.38-2.15-10.69-2.24c-4.31-.08-15.03,13.04-15.03,13.04,0,0-2.9-5.03-5.55-5.52-2.65-.5-.58,3.73-.58,3.73,0,0-4.28-1.46-2.26,1.8Z"/>
          <path class="cls-29" d="m67.77,171.32l6.24,6.57,23.49-12.32s-4.84-.61-7.74-.36c-2.9.25-14.75,9.53-14.75,9.53l-6.37-5.53c-1.03-.1-2.06.16-.86,2.1Z"/>
          <path class="cls-29" d="m88.84,160.91c-1.91.83-10.44,10.41-10.44,10.41,0,0,8.12-7.59,10.11-7.59s6.5.77,6.5.77l6.88-3.98s-11.14-.44-13.05.39Z"/>
        </g>
      </g>
    </g>
  </g>
</svg>