<?xml version="1.0" encoding="UTF-8"?>
<svg xmlns="http://www.w3.org/2000/svg" xmlns:xlink="http://www.w3.org/1999/xlink" viewBox="0 0 183.35 186.4">
  <defs>
    <style>
      .cls-1 {
        fill: #724c8d;
        opacity: .29;
      }

      .cls-1, .cls-2, .cls-3, .cls-4, .cls-5, .cls-6, .cls-7, .cls-8, .cls-9, .cls-10, .cls-11, .cls-12, .cls-13, .cls-14, .cls-15, .cls-16, .cls-17, .cls-18, .cls-19, .cls-20, .cls-21, .cls-22, .cls-23, .cls-24, .cls-25, .cls-26, .cls-27, .cls-28, .cls-29 {
        mix-blend-mode: multiply;
      }

      .cls-30 {
        fill: url(#_Áåçûìÿííûé_ãðàäèåíò_170-2);
      }

      .cls-30, .cls-31, .cls-32, .cls-33, .cls-34, .cls-35, .cls-36 {
        mix-blend-mode: color-dodge;
      }

      .cls-30, .cls-33, .cls-34, .cls-35, .cls-36 {
        opacity: .4;
      }

      .cls-2 {
        fill: url(#_Áåçûìÿííûé_ãðàäèåíò_163-3);
      }

      .cls-2, .cls-3, .cls-8, .cls-12, .cls-26, .cls-27 {
        opacity: .51;
      }

      .cls-37 {
        fill: url(#_Áåçûìÿííûé_ãðàäèåíò_111);
        opacity: .26;
      }

      .cls-37, .cls-38, .cls-39, .cls-40, .cls-41, .cls-42, .cls-43, .cls-44, .cls-45, .cls-46, .cls-47, .cls-48, .cls-49, .cls-50, .cls-51, .cls-52 {
        mix-blend-mode: screen;
      }

      .cls-38 {
        fill: url(#_Áåçûìÿííûé_ãðàäèåíò_154);
      }

      .cls-38, .cls-48, .cls-51 {
        opacity: .25;
      }

      .cls-53 {
        fill: #fff;
      }

      .cls-54 {
        fill: url(#_Áåçûìÿííûé_ãðàäèåíò_230);
      }

      .cls-55 {
        fill: url(#_Áåçûìÿííûé_ãðàäèåíò_152-3);
      }

      .cls-3 {
        fill: url(#_Áåçûìÿííûé_ãðàäèåíò_163-2);
      }

      .cls-56 {
        fill: #5d2755;
      }

      .cls-39 {
        fill: url(#_Áåçûìÿííûé_ãðàäèåíò_144-2);
      }

      .cls-39, .cls-43 {
        opacity: .32;
      }

      .cls-57 {
        fill: url(#_Áåçûìÿííûé_ãðàäèåíò_152);
      }

      .cls-4 {
        opacity: .85;
      }

      .cls-4, .cls-24 {
        fill: #ba92d1;
      }

      .cls-40 {
        opacity: .28;
      }

      .cls-40, .cls-49, .cls-50 {
        fill: #e09ce0;
      }

      .cls-5 {
        fill: url(#_Áåçûìÿííûé_ãðàäèåíò_117);
      }

      .cls-5, .cls-11 {
        opacity: .43;
      }

      .cls-41 {
        fill: url(#_Áåçûìÿííûé_ãðàäèåíò_212);
      }

      .cls-41, .cls-42, .cls-45, .cls-52 {
        opacity: .5;
      }

      .cls-42 {
        fill: url(#_Áåçûìÿííûé_ãðàäèåíò_300);
      }

      .cls-6 {
        fill: url(#_Áåçûìÿííûé_ãðàäèåíò_118);
      }

      .cls-6, .cls-18 {
        opacity: .31;
      }

      .cls-7 {
        fill: url(#_Áåçûìÿííûé_ãðàäèåíò_197-2);
        opacity: .79;
      }

      .cls-58 {
        clip-path: url(#clippath-2);
      }

      .cls-59 {
        fill: #ffdbfb;
      }

      .cls-8 {
        fill: url(#_Áåçûìÿííûé_ãðàäèåíò_163);
      }

      .cls-60 {
        isolation: isolate;
      }

      .cls-43 {
        fill: url(#_Áåçûìÿííûé_ãðàäèåíò_144);
      }

      .cls-9 {
        fill: url(#_Áåçûìÿííûé_ãðàäèåíò_301);
      }

      .cls-10 {
        fill: url(#_Áåçûìÿííûé_ãðàäèåíò_304);
      }

      .cls-31 {
        fill: url(#_Áåçûìÿííûé_ãðàäèåíò_115);
      }

      .cls-31, .cls-47 {
        opacity: .18;
      }

      .cls-61 {
        fill: url(#_Áåçûìÿííûé_ãðàäèåíò_230-2);
      }

      .cls-62 {
        fill: url(#_Áåçûìÿííûé_ãðàäèåíò_220);
      }

      .cls-11 {
        fill: url(#_Áåçûìÿííûé_ãðàäèåíò_117-2);
      }

      .cls-63 {
        fill: url(#_Áåçûìÿííûé_ãðàäèåíò_152-2);
      }

      .cls-12 {
        fill: url(#_Áåçûìÿííûé_ãðàäèåíò_177);
      }

      .cls-13 {
        fill: url(#_Áåçûìÿííûé_ãðàäèåíò_178-2);
      }

      .cls-64 {
        clip-path: url(#clippath-1);
      }

      .cls-44 {
        fill: url(#_Áåçûìÿííûé_ãðàäèåíò_173-2);
      }

      .cls-44, .cls-46 {
        opacity: .38;
      }

      .cls-65, .cls-23 {
        opacity: .71;
      }

      .cls-65, .cls-66 {
        fill: #f4e2f1;
      }

      .cls-32 {
        fill: #7483fb;
        opacity: .76;
      }

      .cls-45 {
        fill: url(#_Áåçûìÿííûé_ãðàäèåíò_338);
      }

      .cls-67 {
        fill: #f46f9f;
        opacity: .36;
      }

      .cls-46 {
        fill: url(#_Áåçûìÿííûé_ãðàäèåíò_173);
      }

      .cls-14 {
        fill: url(#_Áåçûìÿííûé_ãðàäèåíò_243);
        opacity: .6;
      }

      .cls-68 {
        fill: url(#_Áåçûìÿííûé_ãðàäèåíò_183);
      }

      .cls-15 {
        fill: #72108d;
        opacity: .42;
      }

      .cls-16 {
        fill: #de60a9;
      }

      .cls-33 {
        fill: url(#_Áåçûìÿííûé_ãðàäèåíò_168);
      }

      .cls-34 {
        fill: url(#_Áåçûìÿííûé_ãðàäèåíò_172);
      }

      .cls-35 {
        fill: url(#_Áåçûìÿííûé_ãðàäèåíò_170);
      }

      .cls-17 {
        fill: #8486ea;
        opacity: .37;
      }

      .cls-18 {
        fill: url(#_Áåçûìÿííûé_ãðàäèåíò_118-2);
      }

      .cls-69 {
        fill: #932b55;
      }

      .cls-47 {
        fill: #ff108d;
      }

      .cls-48 {
        fill: url(#_Áåçûìÿííûé_ãðàäèåíò_154-3);
      }

      .cls-70 {
        fill: url(#_Áåçûìÿííûé_ãðàäèåíò_127);
      }

      .cls-19 {
        fill: url(#_Áåçûìÿííûé_ãðàäèåíò_165);
      }

      .cls-71 {
        fill: #2e0043;
      }

      .cls-36 {
        fill: url(#_Áåçûìÿííûé_ãðàäèåíò_113);
      }

      .cls-20 {
        fill: url(#_Áåçûìÿííûé_ãðàäèåíò_178-4);
      }

      .cls-72 {
        clip-path: url(#clippath);
      }

      .cls-21 {
        fill: url(#_Áåçûìÿííûé_ãðàäèåíò_156);
        opacity: .22;
      }

      .cls-22 {
        fill: url(#_Áåçûìÿííûé_ãðàäèåíò_302);
      }

      .cls-73 {
        fill: none;
      }

      .cls-23 {
        fill: #c960d1;
      }

      .cls-49 {
        opacity: .08;
      }

      .cls-24 {
        opacity: .72;
      }

      .cls-25 {
        fill: #aa2ec5;
      }

      .cls-74 {
        fill: url(#_Áåçûìÿííûé_ãðàäèåíò_146);
      }

      .cls-26 {
        fill: #ef71c3;
      }

      .cls-50 {
        opacity: .15;
      }

      .cls-27 {
        fill: url(#_Áåçûìÿííûé_ãðàäèåíò_197);
      }

      .cls-51 {
        fill: url(#_Áåçûìÿííûé_ãðàäèåíò_154-2);
      }

      .cls-75 {
        fill: url(#_Áåçûìÿííûé_ãðàäèåíò_160);
      }

      .cls-28 {
        fill: url(#_Áåçûìÿííûé_ãðàäèåíò_178);
      }

      .cls-29 {
        fill: url(#_Áåçûìÿííûé_ãðàäèåíò_178-3);
      }

      .cls-52 {
        fill: url(#_Áåçûìÿííûé_ãðàäèåíò_215);
      }
    </style>
    <linearGradient id="_Áåçûìÿííûé_ãðàäèåíò_220" data-name="Áåçûìÿííûé ãðàäèåíò 220" x1="65.24" y1="182.5" x2="65.24" y2="0" gradientUnits="userSpaceOnUse">
      <stop offset=".07" stop-color="#2e0043"/>
      <stop offset=".24" stop-color="#370846"/>
      <stop offset=".52" stop-color="#521e51"/>
      <stop offset=".88" stop-color="#7c4161"/>
      <stop offset="1" stop-color="#8d4f68"/>
    </linearGradient>
    <linearGradient id="_Áåçûìÿííûé_ãðàäèåíò_301" data-name="Áåçûìÿííûé ãðàäèåíò 301" x1="127.02" y1="49.41" x2="93.31" y2="32.9" gradientUnits="userSpaceOnUse">
      <stop offset="0" stop-color="#fff"/>
      <stop offset=".1" stop-color="#ede2f3"/>
      <stop offset=".31" stop-color="#c8a8da"/>
      <stop offset=".41" stop-color="#ba92d1"/>
    </linearGradient>
    <linearGradient id="_Áåçûìÿííûé_ãðàäèåíò_183" data-name="Áåçûìÿííûé ãðàäèåíò 183" x1="75.82" y1="272.34" x2="75.82" y2="46.32" gradientUnits="userSpaceOnUse">
      <stop offset=".18" stop-color="#ba92d1"/>
      <stop offset=".5" stop-color="#cea8d7"/>
      <stop offset="1" stop-color="#f4d3e3"/>
    </linearGradient>
    <linearGradient id="_Áåçûìÿííûé_ãðàäèåíò_243" data-name="Áåçûìÿííûé ãðàäèåíò 243" x1="8.9" y1="139.06" x2="87.89" y2="49.7" gradientUnits="userSpaceOnUse">
      <stop offset=".42" stop-color="#ba92d1"/>
      <stop offset=".56" stop-color="#c8a8da"/>
      <stop offset=".86" stop-color="#ede2f3"/>
      <stop offset="1" stop-color="#fff"/>
    </linearGradient>
    <linearGradient id="_Áåçûìÿííûé_ãðàäèåíò_338" data-name="Áåçûìÿííûé ãðàäèåíò 338" x1="-17.08" y1="49.08" x2="-17.08" y2="35.77" gradientTransform="translate(73.14)" gradientUnits="userSpaceOnUse">
      <stop offset=".19" stop-color="#000"/>
      <stop offset=".27" stop-color="#050405"/>
      <stop offset=".38" stop-color="#160f16"/>
      <stop offset=".51" stop-color="#312231"/>
      <stop offset=".64" stop-color="#583d58"/>
      <stop offset=".79" stop-color="#895f89"/>
      <stop offset=".94" stop-color="#c488c4"/>
      <stop offset="1" stop-color="#e09ce0"/>
    </linearGradient>
    <linearGradient id="_Áåçûìÿííûé_ãðàäèåíò_111" data-name="Áåçûìÿííûé ãðàäèåíò 111" x1="21.58" y1="45.74" x2="21.58" y2="36.19" gradientTransform="translate(71.31 .83) rotate(-2.54) scale(1.01 1.03)" gradientUnits="userSpaceOnUse">
      <stop offset=".2" stop-color="#000"/>
      <stop offset=".28" stop-color="#050405"/>
      <stop offset=".39" stop-color="#160f16"/>
      <stop offset=".51" stop-color="#312231"/>
      <stop offset=".65" stop-color="#583d58"/>
      <stop offset=".79" stop-color="#895f89"/>
      <stop offset=".94" stop-color="#c488c4"/>
      <stop offset="1" stop-color="#e09ce0"/>
    </linearGradient>
    <linearGradient id="_Áåçûìÿííûé_ãðàäèåíò_118" data-name="Áåçûìÿííûé ãðàäèåíò 118" x1="19.66" y1="32.8" x2="19.66" y2="17" gradientTransform="translate(73.14)" gradientUnits="userSpaceOnUse">
      <stop offset=".47" stop-color="#fff"/>
      <stop offset=".55" stop-color="#e3d0e3"/>
      <stop offset=".72" stop-color="#b079b1"/>
      <stop offset=".85" stop-color="#8a3a8c"/>
      <stop offset=".95" stop-color="#731275"/>
      <stop offset="1" stop-color="#6b046d"/>
    </linearGradient>
    <linearGradient id="_Áåçûìÿííûé_ãðàäèåíò_117" data-name="Áåçûìÿííûé ãðàäèåíò 117" x1="23.84" y1="32.89" x2="17.72" y2="39" gradientTransform="translate(73.14)" gradientUnits="userSpaceOnUse">
      <stop offset=".19" stop-color="#fff"/>
      <stop offset=".32" stop-color="#e3d0e3"/>
      <stop offset=".57" stop-color="#b079b1"/>
      <stop offset=".77" stop-color="#8a3a8c"/>
      <stop offset=".92" stop-color="#731275"/>
      <stop offset="1" stop-color="#6b046d"/>
    </linearGradient>
    <linearGradient id="_Áåçûìÿííûé_ãðàäèåíò_152" data-name="Áåçûìÿííûé ãðàäèåíò 152" x1="19.94" y1="38.47" x2="19.94" y2="23.13" gradientTransform="translate(73.14)" gradientUnits="userSpaceOnUse">
      <stop offset=".12" stop-color="#fff"/>
      <stop offset=".32" stop-color="#fafafc"/>
      <stop offset=".54" stop-color="#edeef6"/>
      <stop offset=".77" stop-color="#d6d9ec"/>
      <stop offset="1" stop-color="#babfdf"/>
    </linearGradient>
    <clipPath id="clippath">
      <path class="cls-73" d="m89.76,37.79s-.89-9.52.72-13.29c1.61-3.77,6.16.68,6.16,8.23,0,4.73-6.63,7.2-6.88,5.06Z"/>
    </clipPath>
    <linearGradient id="_Áåçûìÿííûé_ãðàäèåíò_178" data-name="Áåçûìÿííûé ãðàäèåíò 178" x1="49.82" y1="-63.76" x2="49.82" y2="-75.5" gradientTransform="translate(60.95 115.05) rotate(-15.62) scale(1.07 1) skewX(1.95)" gradientUnits="userSpaceOnUse">
      <stop offset="0" stop-color="#bf92ed"/>
      <stop offset="0" stop-color="#bd90eb"/>
      <stop offset=".15" stop-color="#9b69b6"/>
      <stop offset=".29" stop-color="#7e488a"/>
      <stop offset=".42" stop-color="#682f69"/>
      <stop offset=".55" stop-color="#581c50"/>
      <stop offset=".67" stop-color="#4f1142"/>
      <stop offset=".77" stop-color="#4c0e3d"/>
    </linearGradient>
    <linearGradient id="_Áåçûìÿííûé_ãðàäèåíò_178-2" data-name="Áåçûìÿííûé ãðàäèåíò 178" x1="49.84" y1="-65.63" x2="49.84" y2="-73.11" xlink:href="#_Áåçûìÿííûé_ãðàäèåíò_178"/>
    <linearGradient id="_Áåçûìÿííûé_ãðàäèåíò_144" data-name="Áåçûìÿííûé ãðàäèåíò 144" x1="109.72" y1="-123.55" x2="109.72" y2="-132.82" gradientTransform="translate(64.48 204.63) rotate(-31.45)" gradientUnits="userSpaceOnUse">
      <stop offset=".23" stop-color="#000"/>
      <stop offset=".3" stop-color="#080406"/>
      <stop offset=".4" stop-color="#1f0f16"/>
      <stop offset=".53" stop-color="#452231"/>
      <stop offset=".68" stop-color="#793d57"/>
      <stop offset=".85" stop-color="#bb5e87"/>
      <stop offset="1" stop-color="#ff81b8"/>
    </linearGradient>
    <linearGradient id="_Áåçûìÿííûé_ãðàäèåíò_118-2" data-name="Áåçûìÿííûé ãðàäèåíò 118" x1="-.88" y1="38.01" x2="-.88" y2="16.09" xlink:href="#_Áåçûìÿííûé_ãðàäèåíò_118"/>
    <linearGradient id="_Áåçûìÿííûé_ãðàäèåíò_117-2" data-name="Áåçûìÿííûé ãðàäèåíò 117" x1="1" y1="32.21" x2="-7.23" y2="40.44" xlink:href="#_Áåçûìÿííûé_ãðàäèåíò_117"/>
    <linearGradient id="_Áåçûìÿííûé_ãðàäèåíò_152-2" data-name="Áåçûìÿííûé ãðàäèåíò 152" x1="70.98" y1="40.16" x2="70.98" y2="23.19" gradientTransform="matrix(1, 0, 0, 1, 0, 0)" xlink:href="#_Áåçûìÿííûé_ãðàäèåíò_152"/>
    <linearGradient id="_Áåçûìÿííûé_ãðàäèåíò_152-3" data-name="Áåçûìÿííûé ãðàäèåíò 152" x1="70.98" y1="40.16" x2="70.98" y2="23.19" gradientTransform="matrix(1, 0, 0, 1, 0, 0)" xlink:href="#_Áåçûìÿííûé_ãðàäèåíò_152"/>
    <clipPath id="clippath-1">
      <path class="cls-55" d="m79.94,38.01s2.72-13.11-8.33-14.71c-7.94-1.15-10.2,6.77-9.84,10.49.74,7.74,15.75,7.47,18.17,4.22Z"/>
    </clipPath>
    <linearGradient id="_Áåçûìÿííûé_ãðàäèåíò_178-3" data-name="Áåçûìÿííûé ãðàäèåíò 178" x1="33.55" y1="-66.5" x2="33.55" y2="-79.78" xlink:href="#_Áåçûìÿííûé_ãðàäèåíò_178"/>
    <linearGradient id="_Áåçûìÿííûé_ãðàäèåíò_178-4" data-name="Áåçûìÿííûé ãðàäèåíò 178" x1="33.99" y1="-68.67" x2="33.99" y2="-76.97" xlink:href="#_Áåçûìÿííûé_ãðàäèåíò_178"/>
    <linearGradient id="_Áåçûìÿííûé_ãðàäèåíò_144-2" data-name="Áåçûìÿííûé ãðàäèåíò 144" x1="93.41" y1="-130.32" x2="93.41" y2="-141.31" xlink:href="#_Áåçûìÿííûé_ãðàäèåíò_144"/>
    <linearGradient id="_Áåçûìÿííûé_ãðàäèåíò_154" data-name="Áåçûìÿííûé ãðàäèåíò 154" x1="110.57" y1="-26.54" x2="81.39" y2="-26.54" gradientTransform="translate(-20.27 29.15) rotate(2.93)" gradientUnits="userSpaceOnUse">
      <stop offset="0" stop-color="#e09ce0"/>
      <stop offset=".08" stop-color="#c488c4"/>
      <stop offset=".26" stop-color="#895f89"/>
      <stop offset=".44" stop-color="#583d58"/>
      <stop offset=".61" stop-color="#312231"/>
      <stop offset=".76" stop-color="#160f16"/>
      <stop offset=".9" stop-color="#050405"/>
      <stop offset="1" stop-color="#000"/>
    </linearGradient>
    <linearGradient id="_Áåçûìÿííûé_ãðàäèåíò_304" data-name="Áåçûìÿííûé ãðàäèåíò 304" x1="945.95" y1="63.14" x2="945.95" y2="6.87" gradientTransform="translate(1011.84) rotate(-180) scale(1 -1)" gradientUnits="userSpaceOnUse">
      <stop offset="0" stop-color="#fff"/>
      <stop offset=".14" stop-color="#f0e7f5"/>
      <stop offset=".39" stop-color="#d8c2e5"/>
      <stop offset=".63" stop-color="#c7a7da"/>
      <stop offset=".84" stop-color="#bd97d3"/>
      <stop offset="1" stop-color="#ba92d1"/>
    </linearGradient>
    <linearGradient id="_Áåçûìÿííûé_ãðàäèåíò_146" data-name="Áåçûìÿííûé ãðàäèåíò 146" x1="93.21" y1="40.35" x2="82.04" y2="51.53" gradientUnits="userSpaceOnUse">
      <stop offset="0" stop-color="#ffa953"/>
      <stop offset="1" stop-color="#ea524b"/>
    </linearGradient>
    <linearGradient id="_Áåçûìÿííûé_ãðàäèåíò_197" data-name="Áåçûìÿííûé ãðàäèåíò 197" x1="75.75" y1="45.46" x2="92.12" y2="45.46" gradientUnits="userSpaceOnUse">
      <stop offset=".33" stop-color="#ba92d1"/>
      <stop offset="1" stop-color="#c960d1"/>
    </linearGradient>
    <linearGradient id="_Áåçûìÿííûé_ãðàäèåíò_212" data-name="Áåçûìÿííûé ãðàäèåíò 212" x1="87.82" y1="41.5" x2="94.7" y2="41.5" gradientUnits="userSpaceOnUse">
      <stop offset=".19" stop-color="#000"/>
      <stop offset=".27" stop-color="#050502"/>
      <stop offset=".38" stop-color="#16160a"/>
      <stop offset=".5" stop-color="#303117"/>
      <stop offset=".64" stop-color="#565828"/>
      <stop offset=".78" stop-color="#86893f"/>
      <stop offset=".93" stop-color="#c0c45a"/>
      <stop offset="1" stop-color="#e0e56a"/>
    </linearGradient>
    <linearGradient id="_Áåçûìÿííûé_ãðàäèåíò_197-2" data-name="Áåçûìÿííûé ãðàäèåíò 197" x1="77.9" y1="48.07" x2="89.73" y2="48.07" xlink:href="#_Áåçûìÿííûé_ãðàäèåíò_197"/>
    <linearGradient id="_Áåçûìÿííûé_ãðàäèåíò_302" data-name="Áåçûìÿííûé ãðàäèåíò 302" x1="36.14" y1="31.63" x2="6.25" y2="61.53" gradientUnits="userSpaceOnUse">
      <stop offset=".59" stop-color="#ba92d1"/>
      <stop offset=".69" stop-color="#c8a8da"/>
      <stop offset=".9" stop-color="#ede2f3"/>
      <stop offset="1" stop-color="#fff"/>
    </linearGradient>
    <linearGradient id="_Áåçûìÿííûé_ãðàäèåíò_230" data-name="Áåçûìÿííûé ãðàäèåíò 230" x1="925.91" y1="186.4" x2="925.91" y2="159.21" gradientTransform="translate(1011.84) rotate(-180) scale(1 -1)" gradientUnits="userSpaceOnUse">
      <stop offset="0" stop-color="#ea524b"/>
      <stop offset="1" stop-color="#ffa953"/>
    </linearGradient>
    <linearGradient id="_Áåçûìÿííûé_ãðàäèåíò_230-2" data-name="Áåçûìÿííûé ãðàäèåíò 230" x1="888.24" y1="166.4" x2="888.24" y2="143.6" xlink:href="#_Áåçûìÿííûé_ãðàäèåíò_230"/>
    <clipPath id="clippath-2">
      <path class="cls-73" d="m183.34,135.04c-.33,6.35-1.55,26.42-4.33,36.87-.19.71-.68,1.28-1.35,1.58-2.91,1.28-11.8,4.85-25.02,7.26-1.02.19-2.07.17-3.08-.03-4.01-.8-14.81-3.11-21.47-6.09-.73-.33-1.25-1-1.38-1.79-.85-5.08-4.02-24.73-4.48-39.55-.04-1.23.85-2.28,2.07-2.45,4.9-.68,17.42-2.34,28.3-3.05.14,0,.28,0,.42,0,1.9.2,16.25,1.81,28.48,4.79,1.13.28,1.9,1.31,1.85,2.47Z"/>
    </clipPath>
    <linearGradient id="_Áåçûìÿííûé_ãðàäèåíò_127" data-name="Áåçûìÿííûé ãðàäèåíò 127" x1="994.44" y1="180.98" x2="994.44" y2="127.77" gradientTransform="translate(1147.23) rotate(-180) scale(1 -1)" gradientUnits="userSpaceOnUse">
      <stop offset="0" stop-color="#4d3dc6"/>
      <stop offset="1" stop-color="#aa9ad1"/>
    </linearGradient>
    <linearGradient id="_Áåçûìÿííûé_ãðàäèåíò_156" data-name="Áåçûìÿííûé ãðàäèåíò 156" x1="994.42" y1="183.64" x2="994.42" y2="127.58" gradientTransform="translate(1147.23) rotate(-180) scale(1 -1)" gradientUnits="userSpaceOnUse">
      <stop offset="0" stop-color="#4e78f1"/>
      <stop offset="1" stop-color="#8800fc"/>
    </linearGradient>
    <linearGradient id="_Áåçûìÿííûé_ãðàäèåíò_115" data-name="Áåçûìÿííûé ãðàäèåíò 115" x1="994.42" y1="177" x2="994.42" y2="129.28" gradientTransform="translate(1147.23) rotate(-180) scale(1 -1)" gradientUnits="userSpaceOnUse">
      <stop offset=".41" stop-color="#000"/>
      <stop offset=".45" stop-color="#090a14"/>
      <stop offset=".61" stop-color="#2e3465"/>
      <stop offset=".75" stop-color="#4c56a5"/>
      <stop offset=".86" stop-color="#616ed3"/>
      <stop offset=".95" stop-color="#6f7df0"/>
      <stop offset="1" stop-color="#7483fb"/>
    </linearGradient>
    <linearGradient id="_Áåçûìÿííûé_ãðàäèåíò_113" data-name="Áåçûìÿííûé ãðàäèåíò 113" x1="993.51" y1="180.98" x2="993.51" y2="127.77" gradientTransform="translate(1147.23) rotate(-180) scale(1 -1)" gradientUnits="userSpaceOnUse">
      <stop offset=".48" stop-color="#000"/>
      <stop offset=".51" stop-color="#090a14"/>
      <stop offset=".65" stop-color="#2e3465"/>
      <stop offset=".77" stop-color="#4c56a5"/>
      <stop offset=".88" stop-color="#616ed3"/>
      <stop offset=".95" stop-color="#6f7df0"/>
      <stop offset="1" stop-color="#7483fb"/>
    </linearGradient>
    <linearGradient id="_Áåçûìÿííûé_ãðàäèåíò_160" data-name="Áåçûìÿííûé ãðàäèåíò 160" x1="994.02" y1="184.07" x2="994.02" y2="123.19" gradientTransform="translate(1147.23) rotate(-180) scale(1 -1)" gradientUnits="userSpaceOnUse">
      <stop offset=".01" stop-color="#7b00c6"/>
      <stop offset=".18" stop-color="#991dc5"/>
      <stop offset=".42" stop-color="#be41c4"/>
      <stop offset=".65" stop-color="#d95bc3"/>
      <stop offset=".85" stop-color="#e96bc3"/>
      <stop offset="1" stop-color="#ef71c3"/>
    </linearGradient>
    <linearGradient id="_Áåçûìÿííûé_ãðàäèåíò_165" data-name="Áåçûìÿííûé ãðàäèåíò 165" x1="998" y1="185.02" x2="998" y2="124.3" gradientTransform="translate(1147.23) rotate(-180) scale(1 -1)" gradientUnits="userSpaceOnUse">
      <stop offset=".17" stop-color="#7b00c6"/>
      <stop offset=".22" stop-color="#8307c3"/>
      <stop offset=".76" stop-color="#d053ac"/>
      <stop offset="1" stop-color="#ef71a4"/>
    </linearGradient>
    <linearGradient id="_Áåçûìÿííûé_ãðàäèåíò_163" data-name="Áåçûìÿííûé ãðàäèåíò 163" x1="973.84" y1="132.59" x2="973.84" y2="115.08" gradientTransform="translate(1147.23) rotate(-180) scale(1 -1)" gradientUnits="userSpaceOnUse">
      <stop offset=".17" stop-color="#fff"/>
      <stop offset=".35" stop-color="#fbdcf0"/>
      <stop offset=".8" stop-color="#f28fcf"/>
      <stop offset="1" stop-color="#ef71c3"/>
    </linearGradient>
    <linearGradient id="_Áåçûìÿííûé_ãðàäèåíò_168" data-name="Áåçûìÿííûé ãðàäèåíò 168" x1="975.12" y1="171.29" x2="975.12" y2="138.22" gradientTransform="translate(1147.23) rotate(-180) scale(1 -1)" gradientUnits="userSpaceOnUse">
      <stop offset=".48" stop-color="#000"/>
      <stop offset=".51" stop-color="#140a14"/>
      <stop offset=".65" stop-color="#623465"/>
      <stop offset=".77" stop-color="#a156a5"/>
      <stop offset=".88" stop-color="#cd6ed3"/>
      <stop offset=".95" stop-color="#e97df0"/>
      <stop offset="1" stop-color="#f483fb"/>
    </linearGradient>
    <linearGradient id="_Áåçûìÿííûé_ãðàäèåíò_170" data-name="Áåçûìÿííûé ãðàäèåíò 170" x1="1018.56" y1="134.34" x2="1006.89" y2="134.34" gradientTransform="translate(1147.23) rotate(-180) scale(1 -1)" gradientUnits="userSpaceOnUse">
      <stop offset="0" stop-color="#000"/>
      <stop offset=".06" stop-color="#140a14"/>
      <stop offset=".33" stop-color="#623465"/>
      <stop offset=".57" stop-color="#a156a5"/>
      <stop offset=".76" stop-color="#cd6ed3"/>
      <stop offset=".91" stop-color="#e97df0"/>
      <stop offset="1" stop-color="#f483fb"/>
    </linearGradient>
    <linearGradient id="_Áåçûìÿííûé_ãðàäèåíò_172" data-name="Áåçûìÿííûé ãðàäèåíò 172" x1="978.84" y1="116.61" x2="966.74" y2="116.61" gradientTransform="translate(1147.23) rotate(-180) scale(1 -1)" gradientUnits="userSpaceOnUse">
      <stop offset="0" stop-color="#000"/>
      <stop offset=".11" stop-color="#120912"/>
      <stop offset=".32" stop-color="#422344"/>
      <stop offset=".63" stop-color="#8f4d93"/>
      <stop offset="1" stop-color="#f483fb"/>
    </linearGradient>
    <linearGradient id="_Áåçûìÿííûé_ãðàäèåíò_170-2" data-name="Áåçûìÿííûé ãðàäèåíò 170" x1="1021.6" y1="120.05" x2="1002.34" y2="120.05" xlink:href="#_Áåçûìÿííûé_ãðàäèåíò_170"/>
    <linearGradient id="_Áåçûìÿííûé_ãðàäèåíò_177" data-name="Áåçûìÿííûé ãðàäèåíò 177" x1="1007.12" y1="128.13" x2="1007.12" y2="118.16" gradientTransform="translate(1147.23) rotate(-180) scale(1 -1)" gradientUnits="userSpaceOnUse">
      <stop offset="0" stop-color="#ef71c3"/>
      <stop offset=".2" stop-color="#f28fcf"/>
      <stop offset=".65" stop-color="#fbdcf0"/>
      <stop offset=".83" stop-color="#fff"/>
    </linearGradient>
    <linearGradient id="_Áåçûìÿííûé_ãðàäèåíò_163-2" data-name="Áåçûìÿííûé ãðàäèåíò 163" x1="978.43" y1="176.59" x2="978.43" y2="150.87" xlink:href="#_Áåçûìÿííûé_ãðàäèåíò_163"/>
    <linearGradient id="_Áåçûìÿííûé_ãðàäèåíò_163-3" data-name="Áåçûìÿííûé ãðàäèåíò 163" x1="1010.77" y1="176.69" x2="1010.77" y2="146.82" xlink:href="#_Áåçûìÿííûé_ãðàäèåíò_163"/>
    <linearGradient id="_Áåçûìÿííûé_ãðàäèåíò_300" data-name="Áåçûìÿííûé ãðàäèåíò 300" x1="78.15" y1="82.64" x2="78.15" y2="73.4" gradientUnits="userSpaceOnUse">
      <stop offset="0" stop-color="#e09ce0"/>
      <stop offset=".41" stop-color="#855d85"/>
      <stop offset="1" stop-color="#000"/>
    </linearGradient>
    <linearGradient id="_Áåçûìÿííûé_ãðàäèåíò_215" data-name="Áåçûìÿííûé ãðàäèåíò 215" x1="84.02" y1="114.87" x2="84.02" y2="103.59" gradientUnits="userSpaceOnUse">
      <stop offset="0" stop-color="#000"/>
      <stop offset=".59" stop-color="#855d85"/>
      <stop offset="1" stop-color="#e09ce0"/>
    </linearGradient>
    <linearGradient id="_Áåçûìÿííûé_ãðàäèåíò_154-2" data-name="Áåçûìÿííûé ãðàäèåíò 154" x1="25.7" y1="60.83" x2="25.7" y2="22.18" gradientTransform="matrix(1, 0, 0, 1, 0, 0)" xlink:href="#_Áåçûìÿííûé_ãðàäèåíò_154"/>
    <linearGradient id="_Áåçûìÿííûé_ãðàäèåíò_154-3" data-name="Áåçûìÿííûé ãðàäèåíò 154" x1="108.07" y1="57.31" x2="108.07" y2="20.39" gradientTransform="matrix(1, 0, 0, 1, 0, 0)" xlink:href="#_Áåçûìÿííûé_ãðàäèåíò_154"/>
    <linearGradient id="_Áåçûìÿííûé_ãðàäèåíò_173" data-name="Áåçûìÿííûé ãðàäèåíò 173" x1="21.97" y1="50.55" x2="21.97" y2="27.55" gradientUnits="userSpaceOnUse">
      <stop offset="0" stop-color="#9c3be0"/>
      <stop offset=".08" stop-color="#8833c4"/>
      <stop offset=".26" stop-color="#5f2489"/>
      <stop offset=".44" stop-color="#3d1758"/>
      <stop offset=".61" stop-color="#220d31"/>
      <stop offset=".76" stop-color="#0f0516"/>
      <stop offset=".9" stop-color="#040105"/>
      <stop offset="1" stop-color="#000"/>
    </linearGradient>
    <linearGradient id="_Áåçûìÿííûé_ãðàäèåíò_173-2" data-name="Áåçûìÿííûé ãðàäèåíò 173" x1="111.19" y1="48.94" x2="111.19" y2="28.47" xlink:href="#_Áåçûìÿííûé_ãðàäèåíò_173"/>
  </defs>
  <g class="cls-60">
    <g id="Layer_2" data-name="Layer 2">
      <g id="_Ñëîé_1" data-name="Ñëîé 1">
        <g>
          <path class="cls-62" d="m102.12,112.79c-4.03-8.84-5.37-8.87-5.05-11.47.2-1.65.46-13.31.63-21.67.74-.3,1.5-.64,2.33-1.09,18.95-10.32,30.84-46.11,30.43-65.25-.41-19.27-3.12-15.3-8.08-2.66-6.34,16.15-23.58,36.45-31.99,43.85-.38-1.06-.6-1.89-.63-2.33-.08-1.38,8.13-6,9.99-11.33,1.86-5.33-3.16-8.64-3.16-8.64,0,0-.24-8.58-.87-13.53-1.05-8.21-10.58-17.1-26.68-17.18-16.1-.08-24.24,14.6-28.02,15.87-3.79,1.26.32,2.61.32,2.61,0,0-2.21.16.16,2.37,0,0-1.74,13.34-.63,18.55,1.11,5.21,6.55,7.1,6.55,7.1,0,0-1.64,3.22-3.97,7.41-7.71-6.13-26.68-27.92-33.4-45.04C5.08-2.28.82-5.61.41,13.66.02,32.09,8.59,73.83,26.15,86.11c-4.11,7.99-13.36,26.25-16.15,34.03-3.63,10.1-2.05,17.05-2.05,17.05,0,0-4.89,11.05-7.58,13.74s10.42,2.68,10.42,2.68c0,0,6.32,7.42,15.47,11.68,9.16,4.26,33.95,6,50.21,17.21l2.84-5.05-3.32-8.37,18.63-6.32s8.21-2.68,17.84,1.42l3.63-3.16s-2.68-16.89-9.47-29.37c0,0-.47-10.03-4.5-18.87Z"/>
          <path class="cls-9" d="m93.09,62.02s12.12-3.26,21.17-19.5c4.59-8.24,10.56-29.32,12.63-35.64,2.08-6.32,2.95-3.8,3.58,2.73.63,6.53-.13,24.35-11.12,46.44s-24.36,24.82-24.36,24.82l-1.9-18.84Z"/>
          <path class="cls-4" d="m98.21,74.66c-.1-2.66-.36-3.63-.36-3.63,0,0,.35.66.73,2.65,1.6-3.33,7.13-7.46,12.15-12.77,5.53-5.84,8.51-16.33,12.07-30.11,3.56-13.78,5.27-27.8,2.79-19.81-2.68,8.7-7.49,24.61-11.34,31.52-9.05,16.24-21.17,19.5-21.17,19.5l1.35,13.37.19.52,3.58-1.25Z"/>
          <path class="cls-68" d="m106.81,131.66s-.48-10.03-4.51-18.87c-4.04-8.84-4.5-8.35-4.43-10.97.05-2.08.16-2.61.16-2.61,1.19-6.62,1.95-19.33.3-26.71-.09-.48-.2-.98-.33-1.48-.06-.24-.11-.48-.15-.7-.29-1.2-1.08-3.84-3.1-7.11-2.77-4.5-4.79-9.67-4.87-11.05-.08-1.38,8.15-6,10.01-11.33,1.86-5.33-3.17-8.64-3.17-8.64,0,0-1.32-12.53-4.67-16.42-5.92-6.87-6.96,7.26-6.96,7.26,0,0-4.91-10.82-11.87-10.03-6.96.79-15.51,10.26-14.25,21.55,0,0-7.28-2.92-12.27,0s-.56,13.89,14.74,19.16c0,0-3.74,2.95-3.9,6.74s7.39,18,7.39,18c0,0-5.9-5.48-2.53,1.05,3.37,6.53-2.4,18.22-5.57,22.48,0,0-12.04,14.68-10.61,33.24,0,0,21.06,13.1,29.85,33.87l18.69-6.32s.14-.05.41-.12c6.88-3.52,12.5-17.09,11.63-30.99Z"/>
          <path class="cls-14" d="m106.62,131.66s-.26-5.52-2.04-11.98c.82,11.58-24.04,14.62-39.93,4.4-17.34-11.16,28.86-23.55,34.22-18.42-1.21-1.78-1.07-4.58-.93-5.82-.72,5.1-24.62,7.12-29.08,1.12-4.46-6-4.69-25.26,1.52-20.95,6.21,4.32,17.47,11.47,22.01,5.79,4.14-5.19,6.5-9.74,6.88-5.92-.01-.27-.02-.54-.04-.81-.42-6.32-1.35-8.04-1.35-8.04,0,0,.26.97.36,3.63.19,5.42-12.4,9.32-25.84,4.42-13.44-4.89-15.89-10.54-27.06-17.07-8.31-7.58-17.89-2.84-26.73-18C9.74,28.86,6.62,7.29,4.05,5.07,1.49,2.86.55,3.63.51,10.76c-.05,7.13-.22,18.95,5.56,39.79s14.07,32.17,20.08,35.56c-4.1,7.98-13.36,26.24-16.15,34.03-3.63,10.1-2.05,17.05-2.05,17.05,0,0-4.89,11.05-7.58,13.74-2.68,2.68,10.42,2.68,10.42,2.68,0,0,6.32,7.42,15.47,11.68,9.16,4.26,33.95,6,50.21,17.21l2.84-5.05-3.32-8.37,18.63-6.32s8.21-2.68,17.84,1.42l3.63-3.16s-2.68-16.89-9.47-29.37Zm-39.62,26.35c-2.32-.11-21.26.84-31.05-15.26s2.96-10.32,10.95-5.84c14.66,8.23,22.42,21.21,20.1,21.1Z"/>
          <path class="cls-45" d="m47.18,34.72c3.59-2.93,14.59-.92,18.79,9.49,1.99,4.93.87,9.03-8.05,6.61-8.29-2.25-16.34-11.53-10.74-16.1Z"/>
          <path class="cls-37" d="m93.71,39.14c5.25-7.53,6.95-2.16,6.02.41-1.81,5.03-6.22,9.78-8.73,9.37-2.51-.41.18-6.15,2.71-9.78Z"/>
          <path class="cls-67" d="m99.98,37.28c.61,3.74-4.32,7.66-5.65,5.08-2.11-4.1,4.84-10.06,5.65-5.08Z"/>
          <g>
            <path class="cls-6" d="m89.54,30.42c-.13-2.15-1.12-13.05.54-13.38,2.71-.54,5.27,6.94,5.93,9.79,2.53,10.86-6.47,3.59-6.47,3.59Z"/>
            <path class="cls-5" d="m90.17,38.32c1.46,1.09,6.39-.11,6.43-4.9s-6.43,4.9-6.43,4.9Z"/>
            <path class="cls-71" d="m89.87,36.84s-1.17-11.12.85-13.92c2.03-2.8,5.8,1.65,5.91,5.09.11,3.45-1.18,3.95-1.18,3.95l-5.59,4.88Z"/>
            <path class="cls-57" d="m89.76,37.79s-.89-9.52.72-13.29c1.61-3.77,6.16.68,6.16,8.23,0,4.73-6.46,6.97-6.88,5.06Z"/>
            <g class="cls-72">
              <path class="cls-17" d="m89.42,32.44c.43-10.87,7.23-5.21,7.1-1.64-.13,3.56,5.81-3.3,5.81-3.3l-6.49-10.49-9.73,3.75-.28,11.12,3.6.57Z"/>
              <g>
                <path class="cls-28" d="m94.85,32.29c.62,3.19-.57,6.54-2.64,7.48-2.07.94-4.25-.89-4.87-4.08-.62-3.19.57-6.54,2.64-7.48,2.07-.94,4.25.89,4.87,4.08Z"/>
                <path class="cls-13" d="m93.59,33.16c.39,2.03-.36,4.16-1.68,4.76-1.32.6-2.71-.56-3.1-2.6-.39-2.03.36-4.16,1.68-4.76,1.32-.6,2.71.56,3.1,2.6Z"/>
                <path class="cls-43" d="m94.42,35.1c.97,2.36.32,5.57-1.46,7.18-1.78,1.61-4.01,1.01-4.99-1.35-.97-2.36-.32-5.57,1.46-7.18s4.01-1.01,4.99,1.35Z"/>
              </g>
              <g>
                <path class="cls-53" d="m92.74,30.38c-.12-.11-.17-.96.3-1.46.46-.5,1.26-.49,1.38-.35.13.14.17.96-.3,1.46-.46.5-1.23.5-1.38.35Z"/>
                <path class="cls-53" d="m91.16,31.83s-.12-.33,0-.47c.12-.14.39-.08.45-.02.05.05.12.33,0,.47-.12.14-.38.08-.45.02Z"/>
              </g>
            </g>
          </g>
          <path class="cls-67" d="m54.98,36.35c5.28-1.1,12.23,7.09,8.72,9.09-5.59,3.17-15.76-7.62-8.72-9.09Z"/>
          <g>
            <path class="cls-18" d="m62.4,26.88c5.54-8.9,11.27-13,15.11-9.61,4.66,4.12,6.34,20.2,2.43,20.74l-17.54-11.13Z"/>
            <path class="cls-11" d="m79.94,38.01s-1.76,3.44-9.46,2.76c-8.48-.74-8.92-6.02-8.75-7.82.16-1.8,18.21,5.06,18.21,5.06Z"/>
            <path class="cls-71" d="m79.93,36.01s1.63-12-8.23-13.79c-1.43-.26-2.89-.52-5.27.49-4.54,1.92-6.32,9.29-3.9,10.36,1.28.56.6,2.2.6,2.2l16.81.74Z"/>
            <g>
              <path class="cls-63" d="m79.94,38.01s2.72-13.11-8.33-14.71c-7.94-1.15-10.2,6.77-9.84,10.49.74,7.74,15.75,7.47,18.17,4.22Z"/>
              <g class="cls-64">
                <path class="cls-17" d="m61.9,34.57c-.16-8.24,17.55-11.81,18.99-1.25,1.43,10.56,3.31-13.5,3.31-13.5l-14.7-3.25-12.55,8.06,1.42,8.97,3.53.96Z"/>
                <g>
                  <path class="cls-29" d="m79.09,33.44c.96,3.55-.88,7.28-4.12,8.33-3.24,1.05-6.64-.99-7.6-4.54s.88-7.28,4.12-8.33c3.24-1.05,6.64.99,7.6,4.54Z"/>
                  <path class="cls-20" d="m77.45,34.32c.6,2.22-.55,4.55-2.57,5.21-2.02.65-4.15-.62-4.75-2.84-.6-2.22.55-4.55,2.57-5.21,2.02-.65,4.15.62,4.75,2.84Z"/>
                  <path class="cls-39" d="m78.32,36.78c1.52,2.63.5,6.21-2.28,8-2.78,1.79-6.26,1.12-7.78-1.5-1.52-2.63-.5-6.21,2.28-8,2.78-1.79,6.26-1.12,7.78,1.51Z"/>
                </g>
                <g>
                  <path class="cls-53" d="m74.18,32.38c-.11-.12.25-1.26,1.16-2.06.91-.8,2.02-1,2.14-.85.11.15-.25,1.26-1.16,2.06s-1.99,1.01-2.14.85Z"/>
                  <path class="cls-53" d="m72.44,33.55c-.04-.05-.09-.34.04-.46s.39-.03.44.04c.05.06.09.34-.04.46s-.38.03-.44-.04Z"/>
                </g>
              </g>
            </g>
          </g>
          <path class="cls-24" d="m90.17,51.41s-10.55,7.62-29.66,1.78c-12.49-3.81-13.1-5.21-13.1-5.21,0,0-.79,3.58,1.18,4.31,1.97.72,5.7-.91,13.11,2.75,7.41,3.66,12.6,1.62,20.14-.19,7.54-1.81,8.6-.53,8.6-.53,0,0-1.15-2.16-.27-2.91Z"/>
          <path class="cls-4" d="m94.62,162.76l-18.63,6.32,3.32,8.37-2.84,5.05c-16.26-11.21-41.05-12.95-50.21-17.21-9.16-4.26-15.47-11.68-15.47-11.68,0,0-13.1,0-10.42-2.68,2.68-2.68,7.58-13.74,7.58-13.74,0,0-1.58-6.95,2.05-17.05.76-2.13,2.02-5.05,3.51-8.32-9.23,19.05,1.87,44.63,14.96,46.53,13.1,1.89,46.39,17.38,45.47,10.74-.92-6.65-10.89-19.74-10.89-19.74,4.26,3.16,13.46,14.05,13.46,14.05,0,0,14.01-10.58,20.01-9.79,4.93.65,15.41,6.01,19.01,7.91l-3.07,2.67c-9.63-4.11-17.84-1.42-17.84-1.42Z"/>
          <path class="cls-23" d="m130.38,148c-2.05.79-7.58,6.47-7.58,6.47,0,0,3.08-5.76,5.53-7.32,2.45-1.55,9.79-2.79,9.79-2.79-.24.16-3.08,2.84-3.08,2.84,0,0-2.61,0-4.66.79Z"/>
          <path class="cls-38" d="m88.81,7.96c9.77,7.63-10.78,6.15-23,1.43-11.27-4.36,7.66-13.4,23-1.43Z"/>
          <path class="cls-66" d="m82.26,13.76c-2.43.21-3.94.27-4.7-.95-.76-1.22,9.8.51,4.7.95Z"/>
          <path class="cls-10" d="m63.91,58.09c-9.21-6.78-15.84-6.27-21.3-1.2,2.75-4.89,4.8-8.9,4.8-8.9,0,0-5.45-1.89-6.55-7.1-1.11-5.21.63-18.55.63-18.55-2.37-2.21-.16-2.37-.16-2.37,0,0-4.1-1.34-.32-2.61,2.24-.75,6-6.18,12.01-10.48-6.78,4.93-7.92,23.48-2.99,26.48,0,0-6.1,2.89,2.11,11.02s31.11,13.67,40.18,5.17c.01-.01.03-.02.04-.03-1.45,1.23-2.52,2.16-2.49,2.66.04.64.49,2.08,1.23,3.88-4.62,9.38-17.99,8.82-27.2,2.04Z"/>
          <g>
            <path class="cls-74" d="m79.1,44.64s6.12-2.92,8.34-7.66c0,0,9.54,5.13,10.13,8.86,0,0-2.87.91-9.75,1.05,0,0,.33,1.73,1.43,3.2,0,0-3.05,1.95-5.1,2.58-2.56.78-5.05-8.03-5.05-8.03Z"/>
            <path class="cls-27" d="m87.01,37.78c-3.18,4.07-8.71,7.68-6.81,4.19,0,0-4.9.18-4.41,2.71,0,0,.76-.67,2.68,2.2,1.91,2.87,4.22,12.51,9.35,0l2.56-.09c2.66-.02,4.58-.43,7.19-.96,0,0-11.48-.07-11.08-3.56.39-3.49.53-4.49.53-4.49Z"/>
            <path class="cls-41" d="m87.82,37.78s3.48,6.07,6.55,6.8c3.07.73,2.6.64,2.6.64,0,0,.03-3.11-9.14-7.45Z"/>
            <path class="cls-69" d="m81.07,45.58s3.78,6.83,8.18,4.5c0,0-2.11-1.87-2.47-3.32l-5.71-1.18Z"/>
            <path class="cls-7" d="m88.24,50.45c-1.3-1.86-2.8-3.25-4.26-4.26l-2.91-.6s3.22,5.79,7.17,4.87Z"/>
            <path class="cls-71" d="m80.2,41.97s-1.5.63-2.13,1.22c0,0,3.7,3.99,12.31,3.6,0,0-7.12,1.97-12.43-2.92-1.15-1.06-1.81-.09-1.81-.09,0,0-.3-1.46,4.06-1.8Z"/>
          </g>
          <path class="cls-22" d="m43.71,86.11c2.61-3.23,5.6-16.04,1.6-24.09-8.31-7.58-17.89-2.84-26.73-18C9.74,28.86,6.62,7.29,4.05,5.07,1.49,2.86.55,3.63.51,10.76c-.05,7.13-.22,18.95,5.56,39.79s14.07,32.17,20.08,35.56c0,0,14.96,3.22,17.56,0Z"/>
          <path class="cls-56" d="m92.6,18.59s-1.69-2.56-3.1-.85c0,0,1.25-3.48,3.1.85Z"/>
          <path class="cls-56" d="m69.2,18.61s4.03-4.44,8.31-1.33c0,0-3.27-5.38-8.31,1.33Z"/>
          <path class="cls-54" d="m80.2,186.4s-2.9-3.41-5.71-5.02c-2.8-1.61-2.8-3.85.83-2.24,0,0-3.98-5.94,1.68-2.3,0,0-.38-9.08.63-11.87s8.59-4.96,8.59-4.96l-1.82,5.59s4.19-5.52,6.74-6.15c2.55-.63,6.39.24,6.39.24l-3.74,4.71s2.27-1.29,5.59.31c0,0-14.62,10.37-19.18,21.69Z"/>
          <path class="cls-23" d="m80.1,166.4c1.58-2.45,6.12-6.4,6.12-6.4l-1.82,5.59c-2.01,4.87-1.85,9.1-1.85,9.1,0,0,2.45-5.92,5.45-9.71,3-3.79,9.29-4.98,9.29-4.98l-3.49,4.4c-2.49,2.34-4.93,7.76-4.93,7.76,4.03-5.13,10.52-7.45,10.52-7.45,0,0-14.62,10.37-19.18,21.69,0,0-2.9-3.41-5.7-5.02-.5-.29-.91-.59-1.22-.9l5.96,2.34s-.71-13.97.87-16.42Z"/>
          <path class="cls-61" d="m110.62,163.47s4.13,1.9,5.48,2.92c0,0,11.92-12.79,22.03-17.84,0,0-2.05-1.34-3.08-1.34,0,0,2.84-2.68,3.08-2.84.24-.16-5.84-1.66-9.24,0-3.39,1.66-11.45,15.39-11.84,15.55s-1.24-.56-1.24-.56c0,0-4.83-.86-2.86,1.35,0,0-6.85,1.1-2.32,2.76Z"/>
          <path class="cls-23" d="m129.12,150.37c1.89-.87,9-1.82,9-1.82-10.1,5.05-22.03,17.84-22.03,17.84-1.34-1.03-5.48-2.92-5.48-2.92-.62-.23-1.01-.44-1.25-.65l6.73,1.84s11.13-13.42,13.03-14.29Z"/>
          <g>
            <g class="cls-58">
              <path class="cls-70" d="m183.34,135.04c-.33,6.35-1.55,26.42-4.33,36.87-.19.71-.69,1.29-1.36,1.59-3,1.31-12.28,5.04-26.09,7.45-.29.05-.58.05-.87,0-2.49-.47-15.14-2.97-22.6-6.31-.74-.33-1.25-1-1.39-1.8-.86-5.08-4.02-24.73-4.48-39.55-.04-1.23.86-2.29,2.08-2.46,4.9-.68,17.42-2.34,28.3-3.05.14,0,.28,0,.42,0,1.91.2,16.25,1.81,28.48,4.79,1.13.28,1.91,1.31,1.85,2.47Z"/>
              <path class="cls-47" d="m185.65,140.92s-30.62,6-32.86,6.11c-2.24.11-31.66-6.32-31.66-6.32l.53,10.32s28.94,9.42,31,9.03,32.79-7.9,32.79-7.9l-1.57,9.3s-30.15,7.57-31.77,8-31.61-8.32-31.61-8.32l1.47,5.37s28.09,9.25,29.46,9.36c1.38.11,30.83-9.46,30.83-9.46l10.65-2.21-7.26-23.26Z"/>
              <path class="cls-21" d="m122.18,131.13l31,5.62,30.26-3.68s-1.16,27.95-4.74,39.95c0,0-10.32,5.05-27.58,8,0,0-5.19-.94-11.14-2.49-4.57-1.18-9.6-2.72-13.07-4.46,0,0-4.53-25.68-4.74-42.94,0,0,0,0,0,0Z"/>
              <path class="cls-15" d="m122.18,131.13l25.34,4.6c3.25.59,5.57,3.48,5.45,6.78-.33,8.67-1.02,25.41-1.84,38.52,0,0-5.19-.94-11.14-2.49-4.57-1.18-9.6-2.72-13.07-4.46,0,0-4.53-25.68-4.74-42.95h0Z"/>
              <path class="cls-1" d="m124.3,130.83c1.5-.21,3.72-.51,6.39-.85-2.65.34-4.86.64-6.35.85-1.2.17-2.06,1.22-1.99,2.45.79,14.64,4.3,33.69,5.23,38.56.15.76.66,1.4,1.38,1.72,7.28,3.23,19.56,5.71,21.98,6.19.28.05.56.06.84.01,13.44-2.17,22.54-5.67,25.49-6.9.66-.28,1.16-.83,1.35-1.52,2.84-10.11,4.25-29.89,4.64-36.24.07-1.17-.7-2.2-1.83-2.48-12.28-3.02-26.67-4.63-28.57-4.84-.1,0-.2,0-.3,0,.18,0,.32,0,.46,0,1.91.2,16.25,1.81,28.48,4.79,1.13.28,1.91,1.31,1.85,2.47-.33,6.35-1.55,26.42-4.33,36.87-.19.71-.69,1.29-1.36,1.59-3,1.31-12.28,5.04-26.09,7.45-.29.05-.58.05-.87,0-2.49-.47-15.14-2.97-22.6-6.31-.74-.33-1.25-1-1.39-1.8-.86-5.08-4.02-24.73-4.48-39.55-.04-1.23.86-2.29,2.08-2.46Z"/>
              <path class="cls-31" d="m152.01,164.7s.11-15.61-14.25-17.68-11.83,15.5-11.83,15.5l-.94-.86c-1.26-8.92-2.69-21.01-2.8-30.53,0,0,31,5.62,31,5.62l30.26-3.68s-.35,8.46-1.26,18.06c.63-14.42-28.12-7.8-30.17,13.57Z"/>
              <path class="cls-36" d="m156.73,138.44c-2.29,3.19-4.34,17.95-4.34,17.95,0,0,.89-15.68-1.16-18-1.52-1.72-3.22-2.58-8.56-3.55-5.34-.97-18.59-3.37-18.59-3.37,0,0,25.7,4.09,28.71,4.52,3,.44,25.59-2.35,26.68-3,1.05-.62-5.03-1.96-5.48-2.05,2.51.49,5.06,1.03,7.51,1.63,1.13.28,1.91,1.31,1.85,2.47-.1,1.96-.29,5.21-.58,9.09,0-.03-.07-7.98-1.72-9.24-1.53-1.16-22.1.47-24.31,3.55Z"/>
            </g>
            <path class="cls-16" d="m177.15,131.64s.34,1.59-4.13,1.52c-4.47-.08-1.26-1.39-1.26-1.39l5.4-.12Z"/>
            <path class="cls-16" d="m128.91,130.07s-5.49,1.47,5.09,1.75c10.58.28,5.43-1.86,4.54-1.96-.89-.11-9.63.21-9.63.21Z"/>
            <path class="cls-32" d="m158,136.64c-2.79,1.02-4.87.27-7.99-.75-3.12-1.01,2.36-.23,5.3-.27,2.19-.03,7.01-.56,2.68,1.02Z"/>
            <path class="cls-75" d="m133.28,118c2.53-.32,2.53-2.84,7.26-2.37,4.14.41,7.44,9.4,8.2,11.65,2.02.92,3.84.63,5.16.11,1.06-.42,1.98-1.12,2.73-1.96,1.9-2.12,7.88-8.52,12.72-10.74,2.55-1.17,9.39-1.82,11.6-.55s1.74,11.21,0,13.64c-1.74,2.43-3.47,4.51-6.47,4.51-.79,0-1.37.14-1.88.37,2.11.5,3.5.99,3.54,1.44.17,1.81-4.36,35.65-5.23,42.12-.09.64-.55,1.17-1.18,1.33l-6.14,1.55-.99-.55,1.04-.27s3.96-38.98,2.85-42.84c-2.87.42-7.34-1.21-10.82-2.52,0,0-12.68.79-13.31,3.33-.63,2.54-.79,42.54-.79,42.54l1.19.44-1.9.58-6.3-2.05c-.59-.19-1.01-.7-1.08-1.32-.79-6.6-5.15-43.56-3.35-44,1.02-.25,4.09-.64,6.8-.96-5.27-.26-7.56-.83-8.14-.92-.95-.16-4.97-5.45-4.82-9.08.16-3.63,6.79-3.16,9.32-3.47Z"/>
            <path class="cls-19" d="m140.49,178.81c-.05-.9-.68-42.89.42-44.1,1.11-1.21,3.74-1.89,3.74-1.89-1.03-.39-7.54-1.25-9.61-1.11.63-.08,1.27-.15,1.89-.23-5.27-.26-7.56-.83-8.14-.92-.95-.16-4.97-5.45-4.82-9.08,0-.08.01-.16.02-.24.17-.77.95-1.93,4.13-1.68,4.68.37,15.95,10.32,15.95,10.32-.89-2.53,4.68-2.58,4.68-2.58-2.11.2-3.49,1.69-2.64,2.76,1.18,1.47,6.67.93,6.67.93,0,0,6.96-9.58,15.55-15.18,3.2-1.59,3.15,1.3-.21,9.76-3.37,8.47-5.95,8.47-5.95,8.47,1.68.32,9.95-1.4,10.43-1.37.72.17,1.35.34,1.88.51-3.21-.49-9.52,1.12-9.52,1.12,0,0,2.89-.32,3.42.84.53,1.16-3.55,41.88-3.72,42.79-.18.91-1.07,1.18-1.07,1.18l-.99-.55.51-.64s3.95-37.98,2.84-41.84c-2.87.42-10.46-2.29-10.46-2.29,0,0-11.6-.08-12.24,2.46-.63,2.54-1.14,42.19-1.14,42.19l.64.8-1.9.58s-.32-.1-.37-1Z"/>
            <path class="cls-25" d="m154.41,130.55s9.67-11.6,14.03-13.32c3.61-1.43-3.58,13.89-7,15.37-3.42,1.47-7.03-2.05-7.03-2.05Z"/>
            <path class="cls-25" d="m142.86,130.34s-10.87-8.87-14.63-9.42c-3.76-.55-3.63,1.26-1.95,4.71s4.05,3.97,6.21,4.29,10.37.42,10.37.42Z"/>
            <path class="cls-25" d="m144.07,129.86c.22,2.62,9.31,3.25,8.71,1.32,0,0,1.52,1.58,2.89,1.74l-2.26.24s-1.97-.87-4.93-.75c-2.96.12-5.29-.36-5.09-1.3.2-.95.68-1.24.68-1.24Z"/>
            <path class="cls-25" d="m154.41,130.55s9.67-11.6,14.03-13.32c2.8-1.11-.89,7.86-4.29,12.63,2.43-4.02-9.74.69-9.74.69Z"/>
            <path class="cls-25" d="m128.23,120.92c3.76.55,14.63,9.42,14.63,9.42,0,0-8.58-4.89-11.26-4.47-2.37.37-2.96,2.62-1.82,3.36-1.28-.56-2.51-1.57-3.5-3.6-1.68-3.45-1.82-5.26,1.95-4.71Z"/>
            <path class="cls-8" d="m182.26,117.14c-1.22-4.99-11.35.34-12.17,2.85s-3.53,10.45-5.56,12.26c-2.03,1.81,16.35-3.82,17.3-6.67.95-2.85.43-8.44.43-8.44Z"/>
            <path class="cls-33" d="m175.08,133.36c1.07.74-7,1.39-7,1.39,0,0,.47.13.35.77,0,0,5.72-.95,6.61-.87s-3.08,33.8-3.08,33.8c0,0,4.24-32.81,4.18-33.8-.06-.98.01-.71-.48-1.04-.49-.33-.58-.26-.58-.26Z"/>
            <path class="cls-35" d="m142.05,133.85c-1.29.49-11.19-1.41-11.19-1.41,0,0-1.04-.2-1.1,1.16-.06,1.36-.92-.95,4.25.05,5.17,1,6.62,2.59,6.62,2.59,0,0,.23-.96.28-1.54.05-.58,1.13-.85,1.13-.85Z"/>
            <path class="cls-34" d="m179.42,113.63c1.2.5-9.99,1.74-9.99,1.74,0,0,2.13-.67.78,4.22,0,0,4.4-4.21,8.07-4.42,3.66-.22,3.91,1.28,3.99,1.98,0,0-.37-2.54-1.15-2.91-.78-.37-1.69-.59-1.69-.59Z"/>
            <path class="cls-30" d="m147.72,124.54s-4.7-6.68-6.43-6.99c-1.74-.32-.58,2.74-4.68,2.37-4.11-.37-6.53-.09-4.51,1.12,0,0-2.8-1.71-4.81-1.45,0,0,5.53.44,8.89-.98,3.37-1.42,5-2.82,2.21-2.96,0,0,3.51-.83,5.85,2.56,2.34,3.38,3.48,6.35,3.48,6.35Z"/>
            <path class="cls-26" d="m176.44,128.44c-3.09-1.63-11.05,3.57-12.32,4.91s7.95-.46,8.89-.92c.95-.46,3.32-.83,4.32-1.88,1-1.06-.54-1.92-.89-2.11Z"/>
            <path class="cls-26" d="m154.94,126.86s-2.16,3.06-2.16,3.69-8.23,2,2.16-3.69Z"/>
            <path class="cls-12" d="m144.39,128.13s-6.09-7.53-9.99-8.97,5.26-1.33,7.65.43c2.39,1.75,4.73,7.89,4.73,7.89l-2.39.66Z"/>
            <path class="cls-3" d="m173.29,158.11c1.59-12.57-5.28-6.94-6.93,3.08-1.65,10.02-4.21,14.94,0,15.39,4.21.45,5.63-8.21,6.93-18.47Z"/>
            <path class="cls-2" d="m141.02,159.84c-3.8-17.24-11.27-16.91-9.59-1.66,1.69,15.25,2.17,19.22,6.82,18.42,4.66-.81,3.55-13.17,2.76-16.75Z"/>
            <path class="cls-59" d="m174.69,134.34c.6-.69-5.08.58-3.58.76,1.49.18,2.84.09,3.58-.76Z"/>
            <path class="cls-59" d="m178.91,114.92c-2.31-.29-4.24.78-4.43,1.69-.19.91,3.88-1.54,4.91-1.46,1.02.08.39-.12-.48-.23Z"/>
          </g>
          <path class="cls-50" d="m13.81,140.92c-4.25-8.61-2.1-16.19-.12-20.16,1.98-3.98.66,17.41,7.5,30.81,3.6,7.04-2.32-.39-7.37-10.65Z"/>
          <path class="cls-50" d="m104.86,142.14c-1.22,9.52-7.2,14.65-11.04,16.87-3.85,2.22,9.08-14.87,10.79-29.82.9-7.86,1.71,1.61.26,12.95Z"/>
          <path class="cls-40" d="m97.37,68.79c2.79,6.38-.5,9.62-3.72,10.95-2.76,1.14.68-.71,1.15-9.9.1-1.98-.15-3.94-.68-5.81-1.09-3.87-.07-2.85,3.25,4.76Z"/>
          <path class="cls-49" d="m30.26,86.58c-6-.34-8.64-4.09-9.65-7.3-1.01-3.21,11.39,7,20.83,5.88,4.96-.59,2.03,2.16-11.18,1.42Z"/>
          <path class="cls-49" d="m42.14,26.3c.58-4.44,2.54-6.88,4.12-8.06,1.58-1.18-4.11,9.3-4.25,16.04-.07,3.55-1.16,1.78.12-7.98Z"/>
          <path class="cls-4" d="m26.15,86.11s8.17,2.14,16.69,0c0,0-8.76,11.77-16.69,0Z"/>
          <path class="cls-4" d="m43.45,55.39l6.98,4.1s2.78-4.41-6.98-4.1Z"/>
          <path class="cls-4" d="m3.53,17.51c-.53,12.44,7.89,38.35,11.05,41.03,3.16,2.68,9.16,6.95,18.95,9.47,9.79,2.53,11.23,13.47,11.23,13.47,0,0,4.72-15.53.56-19.47-8.31-7.58-17.89-2.84-26.73-18C10.58,30.3,7.27,11.33,4.81,6.21c-.63-.78-.89,2.15-1.28,11.3Z"/>
          <path class="cls-4" d="m32.58,131.51s15.37.82,29.79,17.66c0,0-14.68-19.05-18.66-20.31-3.97-1.26-11.13,2.65-11.13,2.65Z"/>
          <path class="cls-42" d="m59.98,72.64c-6.26-4.58,3.03.43,16.16,2.33,13.13,1.89,19.27-9.81,21.24-6.17,1.97,3.64,1.3,10.92-6,11.72-7.31.8-15.86,3.49-31.39-7.87Z"/>
          <path class="cls-52" d="m72.48,109.07c15.52-6.1,25.67-4.84,26.38-3.41.71,1.43,4.03,7.44,1.92,9.42-2.11,1.98-29.91,1.33-33.38,0-3.48-1.33,5.08-6.02,5.08-6.02Z"/>
          <path class="cls-51" d="m10.55,24.9c-2.22-7.3-.81-10.35,8.94,2.65,9.75,13,12.25,18.29,20.35,25.59,8.1,7.3-11.51,4.34-18.07-4.5-6.56-8.83-9.61-18.44-11.22-23.74Z"/>
          <path class="cls-48" d="m119.83,29c5.17-15.09,1.95-14.61-3.73-6.07-5.68,8.54-15.22,20.85-21.1,27.13-5.89,6.28,10.19,4.13,14.94-1.11,4.75-5.24,9.9-19.94,9.9-19.94Z"/>
          <path class="cls-46" d="m23.48,50.55c-5.5-7.32-1.76-16.14,0-15.16,1.76.97,4.49,3.9,4.49,3.9l-8.48-11.73s2.04,5.02,2.2,6.52c.16,1.5-1.71,7.35-2.76,7.97s-2.96-2.99-2.96-2.99c0,0,1.59,3.07,3.7,6.7s3.82,4.79,3.82,4.79Z"/>
          <path class="cls-44" d="m112.47,28.47l-6.19,8.51s1.89-1.59,3.09-1.54c1.2.05,3.22,7.63,2.48,9.4-.73,1.78-1.93,4.1-1.93,4.1,0,0,4.12-5.82,6.16-10.65,0,0-2.6,4.09-3.62,2.85-1.03-1.25-1.62-7.72-1.28-9.05s1.28-3.62,1.28-3.62Z"/>
          <path class="cls-65" d="m106.42,51.81c-1.5,1.04-2.46,1.64-3.54,1.15-1.08-.49,6.68-3.34,3.54-1.15Z"/>
          <path class="cls-65" d="m27.42,52.76c2.87,1.03,4.62,1.71,5.02,2.94.4,1.23-11.03-5.09-5.02-2.94Z"/>
        </g>
      </g>
    </g>
  </g>
</svg>