<?xml version="1.0" encoding="UTF-8"?>
<svg xmlns="http://www.w3.org/2000/svg" xmlns:xlink="http://www.w3.org/1999/xlink" viewBox="0 0 257.17 110.24">
  <defs>
    <style>
      .cls-1 {
        fill: url(#_Áåçûìÿííûé_ãðàäèåíò_296);
      }

      .cls-1, .cls-2, .cls-3, .cls-4, .cls-5, .cls-6, .cls-7, .cls-8, .cls-9, .cls-10, .cls-11, .cls-12, .cls-13 {
        mix-blend-mode: screen;
      }

      .cls-1, .cls-8, .cls-10 {
        opacity: .38;
      }

      .cls-2 {
        fill: url(#_Áåçûìÿííûé_ãðàäèåíò_154);
      }

      .cls-2, .cls-5, .cls-6 {
        opacity: .25;
      }

      .cls-14 {
        fill: #fff;
      }

      .cls-15 {
        fill: url(#_Áåçûìÿííûé_ãðàäèåíò_83);
      }

      .cls-16 {
        fill: url(#_Áåçûìÿííûé_ãðàäèåíò_230);
      }

      .cls-17 {
        fill: url(#_Áåçûìÿííûé_ãðàäèåíò_146-2);
      }

      .cls-18 {
        fill: url(#_Áåçûìÿííûé_ãðàäèåíò_196);
      }

      .cls-18, .cls-19, .cls-20, .cls-21, .cls-22, .cls-23, .cls-24, .cls-25, .cls-26, .cls-27, .cls-28 {
        mix-blend-mode: multiply;
      }

      .cls-29 {
        fill: #5d2755;
      }

      .cls-30 {
        opacity: .88;
      }

      .cls-30, .cls-31, .cls-32 {
        fill: #f4e2f1;
      }

      .cls-33 {
        fill: url(#_Áåçûìÿííûé_ãðàäèåíò_152);
      }

      .cls-19 {
        opacity: .85;
      }

      .cls-19, .cls-26 {
        fill: #ba92d1;
      }

      .cls-3 {
        opacity: .28;
      }

      .cls-3, .cls-12, .cls-13 {
        fill: #e09ce0;
      }

      .cls-20 {
        fill: url(#_Áåçûìÿííûé_ãðàäèåíò_117);
        opacity: .43;
      }

      .cls-4 {
        fill: url(#_Áåçûìÿííûé_ãðàäèåíò_212);
      }

      .cls-4, .cls-9, .cls-11 {
        opacity: .5;
      }

      .cls-5 {
        fill: url(#_Áåçûìÿííûé_ãðàäèåíò_79);
      }

      .cls-21 {
        fill: url(#_Áåçûìÿííûé_ãðàäèåíò_118);
        opacity: .31;
      }

      .cls-6 {
        fill: url(#_Áåçûìÿííûé_ãðàäèåíò_77);
      }

      .cls-34 {
        isolation: isolate;
      }

      .cls-7 {
        fill: url(#_Áåçûìÿííûé_ãðàäèåíò_144);
        opacity: .32;
      }

      .cls-8 {
        fill: url(#_Áåçûìÿííûé_ãðàäèåíò_296-2);
      }

      .cls-35 {
        fill: url(#_Áåçûìÿííûé_ãðàäèåíò_220);
      }

      .cls-22 {
        fill: url(#_Áåçûìÿííûé_ãðàäèåíò_178-2);
      }

      .cls-23 {
        fill: url(#_Áåçûìÿííûé_ãðàäèåíò_66);
        opacity: .6;
      }

      .cls-31, .cls-25 {
        opacity: .71;
      }

      .cls-9 {
        fill: url(#_Áåçûìÿííûé_ãðàäèåíò_338);
      }

      .cls-36 {
        fill: #f46f9f;
        opacity: .36;
      }

      .cls-10 {
        fill: url(#_Áåçûìÿííûé_ãðàäèåíò_173);
      }

      .cls-37 {
        fill: url(#_Áåçûìÿííûé_ãðàäèåíò_313);
      }

      .cls-24 {
        fill: #8486ea;
        opacity: .37;
      }

      .cls-38 {
        fill: #2e0043;
      }

      .cls-39 {
        clip-path: url(#clippath);
      }

      .cls-40 {
        fill: none;
      }

      .cls-11 {
        fill: url(#_Áåçûìÿííûé_ãðàäèåíò_213);
      }

      .cls-25 {
        fill: #c960d1;
      }

      .cls-12 {
        opacity: .08;
      }

      .cls-26 {
        opacity: .72;
      }

      .cls-41 {
        fill: url(#_Áåçûìÿííûé_ãðàäèåíò_146);
      }

      .cls-13 {
        opacity: .15;
      }

      .cls-27 {
        fill: url(#_Áåçûìÿííûé_ãðàäèåíò_197);
        opacity: .51;
      }

      .cls-28 {
        fill: url(#_Áåçûìÿííûé_ãðàäèåíò_178);
      }
    </style>
    <linearGradient id="_Áåçûìÿííûé_ãðàäèåíò_220" data-name="Áåçûìÿííûé ãðàäèåíò 220" x1="-141.26" y1="108.29" x2="-122.02" y2="14.68" gradientTransform="translate(-15.48) rotate(-180) scale(1 -1)" gradientUnits="userSpaceOnUse">
      <stop offset=".07" stop-color="#2e0043"/>
      <stop offset=".24" stop-color="#370846"/>
      <stop offset=".52" stop-color="#521e51"/>
      <stop offset=".88" stop-color="#7c4161"/>
      <stop offset="1" stop-color="#8d4f68"/>
    </linearGradient>
    <linearGradient id="_Áåçûìÿííûé_ãðàäèåíò_83" data-name="Áåçûìÿííûé ãðàäèåíò 83" x1="-202.94" y1="183.97" x2="-202.94" y2="-19.15" gradientTransform="translate(-15.48) rotate(-180) scale(1 -1)" gradientUnits="userSpaceOnUse">
      <stop offset="0" stop-color="#ba92d1"/>
      <stop offset=".39" stop-color="#cea8d7"/>
      <stop offset="1" stop-color="#f4d3e3"/>
    </linearGradient>
    <linearGradient id="_Áåçûìÿííûé_ãðàäèåíò_313" data-name="Áåçûìÿííûé ãðàäèåíò 313" x1="-97.81" y1="182.56" x2="-97.81" y2="-16.95" gradientTransform="translate(-15.48) rotate(-180) scale(1 -1)" gradientUnits="userSpaceOnUse">
      <stop offset="0" stop-color="#ba92d1"/>
      <stop offset=".3" stop-color="#cea8d7"/>
      <stop offset=".77" stop-color="#f4d3e3"/>
    </linearGradient>
    <linearGradient id="_Áåçûìÿííûé_ãðàäèåíò_118" data-name="Áåçûìÿííûé ãðàäèåíò 118" x1="-12.87" y1="-16.71" x2="3.68" y2="-26.23" gradientTransform="translate(11.95 68.58) rotate(-166.97) scale(1 -1)" gradientUnits="userSpaceOnUse">
      <stop offset=".47" stop-color="#fff"/>
      <stop offset=".55" stop-color="#e3d0e3"/>
      <stop offset=".72" stop-color="#b079b1"/>
      <stop offset=".85" stop-color="#8a3a8c"/>
      <stop offset=".95" stop-color="#731275"/>
      <stop offset="1" stop-color="#6b046d"/>
    </linearGradient>
    <linearGradient id="_Áåçûìÿííûé_ãðàäèåíò_117" data-name="Áåçûìÿííûé ãðàäèåíò 117" x1="-6.32" y1="-20.59" x2="-12.63" y2="-14.27" gradientTransform="translate(11.95 68.58) rotate(-166.97) scale(1 -1)" gradientUnits="userSpaceOnUse">
      <stop offset=".19" stop-color="#fff"/>
      <stop offset=".32" stop-color="#e3d0e3"/>
      <stop offset=".57" stop-color="#b079b1"/>
      <stop offset=".77" stop-color="#8a3a8c"/>
      <stop offset=".92" stop-color="#731275"/>
      <stop offset="1" stop-color="#6b046d"/>
    </linearGradient>
    <clipPath id="clippath">
      <path class="cls-40" d="m32.32,51.97s-2.92-7.49-11.68-8.5c-3.84-.44-6.45,10.1.66,13.57.76.37,1.68.78,2.99.77,2.02-.02,5.5-.28,8.03-5.84Z"/>
    </clipPath>
    <linearGradient id="_Áåçûìÿííûé_ãðàäèåíò_152" data-name="Áåçûìÿííûé ãðàäèåíò 152" x1="-9.28" y1="-12.26" x2="-9.28" y2="-28.38" gradientTransform="translate(14.76 71.7) rotate(-178.5) scale(1 -1)" gradientUnits="userSpaceOnUse">
      <stop offset=".12" stop-color="#fff"/>
      <stop offset=".32" stop-color="#fafafc"/>
      <stop offset=".54" stop-color="#edeef6"/>
      <stop offset=".77" stop-color="#d6d9ec"/>
      <stop offset="1" stop-color="#babfdf"/>
    </linearGradient>
    <linearGradient id="_Áåçûìÿííûé_ãðàäèåíò_178" data-name="Áåçûìÿííûé ãðàäèåíò 178" x1="6.65" y1="-68.82" x2="6.65" y2="-80.02" gradientTransform="translate(16.2 126.03) rotate(-174.66) scale(.93 -1) skewX(2.27)" gradientUnits="userSpaceOnUse">
      <stop offset="0" stop-color="#bf92ed"/>
      <stop offset="0" stop-color="#bd90eb"/>
      <stop offset=".15" stop-color="#9b69b6"/>
      <stop offset=".29" stop-color="#7e488a"/>
      <stop offset=".42" stop-color="#682f69"/>
      <stop offset=".55" stop-color="#581c50"/>
      <stop offset=".67" stop-color="#4f1142"/>
      <stop offset=".77" stop-color="#4c0e3d"/>
    </linearGradient>
    <linearGradient id="_Áåçûìÿííûé_ãðàäèåíò_178-2" data-name="Áåçûìÿííûé ãðàäèåíò 178" x1="6.86" y1="-70.81" x2="6.86" y2="-77.81" xlink:href="#_Áåçûìÿííûé_ãðàäèåíò_178"/>
    <linearGradient id="_Áåçûìÿííûé_ãðàäèåíò_144" data-name="Áåçûìÿííûé ãðàäèåíò 144" x1="56.51" y1="-77.97" x2="56.51" y2="-87.19" gradientTransform="translate(42.64 154.35) rotate(-158.67) scale(1 -1)" gradientUnits="userSpaceOnUse">
      <stop offset=".23" stop-color="#000"/>
      <stop offset=".3" stop-color="#080406"/>
      <stop offset=".4" stop-color="#1f0f16"/>
      <stop offset=".53" stop-color="#452231"/>
      <stop offset=".68" stop-color="#793d57"/>
      <stop offset=".85" stop-color="#bb5e87"/>
      <stop offset="1" stop-color="#ff81b8"/>
    </linearGradient>
    <linearGradient id="_Áåçûìÿííûé_ãðàäèåíò_230" data-name="Áåçûìÿííûé ãðàäèåíò 230" x1="-10.43" y1="25.65" x2="-9.33" y2="13.65" gradientTransform="translate(3.65 39.92) rotate(-172.52) scale(1 -1)" gradientUnits="userSpaceOnUse">
      <stop offset="0" stop-color="#ea524b"/>
      <stop offset="1" stop-color="#ffa953"/>
    </linearGradient>
    <linearGradient id="_Áåçûìÿííûé_ãðàäèåíò_338" data-name="Áåçûìÿííûé ãðàäèåíò 338" x1="16.1" y1="54.66" x2="14.45" y2="40" gradientTransform="translate(38.4 10.06) rotate(161.25) scale(1.14 -1)" gradientUnits="userSpaceOnUse">
      <stop offset=".19" stop-color="#000"/>
      <stop offset=".27" stop-color="#050405"/>
      <stop offset=".38" stop-color="#160f16"/>
      <stop offset=".51" stop-color="#312231"/>
      <stop offset=".64" stop-color="#583d58"/>
      <stop offset=".79" stop-color="#895f89"/>
      <stop offset=".94" stop-color="#c488c4"/>
      <stop offset="1" stop-color="#e09ce0"/>
    </linearGradient>
    <linearGradient id="_Áåçûìÿííûé_ãðàäèåíò_196" data-name="Áåçûìÿííûé ãðàäèåíò 196" x1="-62.05" y1="81.58" x2="-62.05" y2="24.99" gradientTransform="translate(-15.48) rotate(-180) scale(1 -1)" gradientUnits="userSpaceOnUse">
      <stop offset="0" stop-color="#fff"/>
      <stop offset=".18" stop-color="#eadef1"/>
      <stop offset=".41" stop-color="#d5bde3"/>
      <stop offset=".63" stop-color="#c6a5d9"/>
      <stop offset=".83" stop-color="#bd96d3"/>
      <stop offset="1" stop-color="#ba92d1"/>
    </linearGradient>
    <linearGradient id="_Áåçûìÿííûé_ãðàäèåíò_154" data-name="Áåçûìÿííûé ãðàäèåíò 154" x1="1.47" y1="-63.96" x2="-20.8" y2="-63.96" gradientTransform="translate(24.46 95.92) rotate(171.99) scale(1 -1)" gradientUnits="userSpaceOnUse">
      <stop offset="0" stop-color="#e09ce0"/>
      <stop offset=".08" stop-color="#c488c4"/>
      <stop offset=".26" stop-color="#895f89"/>
      <stop offset=".44" stop-color="#583d58"/>
      <stop offset=".61" stop-color="#312231"/>
      <stop offset=".76" stop-color="#160f16"/>
      <stop offset=".9" stop-color="#050405"/>
      <stop offset="1" stop-color="#000"/>
    </linearGradient>
    <linearGradient id="_Áåçûìÿííûé_ãðàäèåíò_66" data-name="Áåçûìÿííûé ãðàäèåíò 66" x1="-231.79" y1="94.62" x2="-91.5" y2="25.38" gradientTransform="translate(-15.48) rotate(-180) scale(1 -1)" gradientUnits="userSpaceOnUse">
      <stop offset=".58" stop-color="#ba92d1"/>
      <stop offset=".68" stop-color="#c8a8da"/>
      <stop offset=".9" stop-color="#ede2f3"/>
      <stop offset="1" stop-color="#fff"/>
    </linearGradient>
    <linearGradient id="_Áåçûìÿííûé_ãðàäèåíò_146" data-name="Áåçûìÿííûé ãðàäèåíò 146" x1="-215.93" y1="36.24" x2="-253.77" y2="36.24" gradientTransform="translate(-15.48) rotate(-180) scale(1 -1)" gradientUnits="userSpaceOnUse">
      <stop offset="0" stop-color="#ffa953"/>
      <stop offset="1" stop-color="#ea524b"/>
    </linearGradient>
    <linearGradient id="_Áåçûìÿííûé_ãðàäèåíò_146-2" data-name="Áåçûìÿííûé ãðàäèåíò 146" x1="-212.38" y1="19.88" x2="-253.13" y2="13.68" gradientTransform="translate(8.98 17.61) rotate(-171.35) scale(1 -1)" xlink:href="#_Áåçûìÿííûé_ãðàäèåíò_146"/>
    <linearGradient id="_Áåçûìÿííûé_ãðàäèåíò_212" data-name="Áåçûìÿííûé ãðàäèåíò 212" x1="-26.39" y1="56.56" x2="-18.7" y2="56.56" gradientTransform="translate(-15.48) rotate(-180) scale(1 -1)" gradientUnits="userSpaceOnUse">
      <stop offset=".19" stop-color="#000"/>
      <stop offset=".27" stop-color="#050502"/>
      <stop offset=".38" stop-color="#16160a"/>
      <stop offset=".5" stop-color="#303117"/>
      <stop offset=".64" stop-color="#565828"/>
      <stop offset=".78" stop-color="#86893f"/>
      <stop offset=".93" stop-color="#c0c45a"/>
      <stop offset="1" stop-color="#e0e56a"/>
    </linearGradient>
    <linearGradient id="_Áåçûìÿííûé_ãðàäèåíò_197" data-name="Áåçûìÿííûé ãðàäèåíò 197" x1="-39.41" y1="61.13" x2="-17.2" y2="61.13" gradientTransform="translate(-15.48) rotate(-180) scale(1 -1)" gradientUnits="userSpaceOnUse">
      <stop offset=".33" stop-color="#ba92d1"/>
      <stop offset="1" stop-color="#c960d1"/>
    </linearGradient>
    <linearGradient id="_Áåçûìÿííûé_ãðàäèåíò_79" data-name="Áåçûìÿííûé ãðàäèåíò 79" x1="-174.2" y1="77.16" x2="-93.56" y2="77.16" gradientTransform="translate(-15.48) rotate(-180) scale(1 -1)" gradientUnits="userSpaceOnUse">
      <stop offset=".25" stop-color="#000"/>
      <stop offset=".32" stop-color="#050405"/>
      <stop offset=".43" stop-color="#160f16"/>
      <stop offset=".54" stop-color="#312231"/>
      <stop offset=".67" stop-color="#583d58"/>
      <stop offset=".8" stop-color="#895f89"/>
      <stop offset=".94" stop-color="#c488c4"/>
      <stop offset="1" stop-color="#e09ce0"/>
    </linearGradient>
    <linearGradient id="_Áåçûìÿííûé_ãðàäèåíò_77" data-name="Áåçûìÿííûé ãðàäèåíò 77" x1="-180.71" y1="32.26" x2="-131.16" y2="32.26" gradientTransform="translate(-15.48) rotate(-180) scale(1 -1)" gradientUnits="userSpaceOnUse">
      <stop offset="0" stop-color="#000"/>
      <stop offset=".1" stop-color="#050405"/>
      <stop offset=".24" stop-color="#160f16"/>
      <stop offset=".39" stop-color="#312231"/>
      <stop offset=".56" stop-color="#583d58"/>
      <stop offset=".74" stop-color="#895f89"/>
      <stop offset=".92" stop-color="#c488c4"/>
      <stop offset="1" stop-color="#e09ce0"/>
    </linearGradient>
    <linearGradient id="_Áåçûìÿííûé_ãðàäèåíò_213" data-name="Áåçûìÿííûé ãðàäèåíò 213" x1="-72.46" y1="86.73" x2="-72.46" y2="77.16" gradientTransform="translate(-15.48) rotate(-180) scale(1 -1)" gradientUnits="userSpaceOnUse">
      <stop offset="0" stop-color="#e09ce0"/>
      <stop offset=".06" stop-color="#c488c4"/>
      <stop offset=".21" stop-color="#895f89"/>
      <stop offset=".36" stop-color="#583d58"/>
      <stop offset=".49" stop-color="#312231"/>
      <stop offset=".62" stop-color="#160f16"/>
      <stop offset=".73" stop-color="#050405"/>
      <stop offset=".81" stop-color="#000"/>
    </linearGradient>
    <linearGradient id="_Áåçûìÿííûé_ãðàäèåíò_173" data-name="Áåçûìÿííûé ãðàäèåíò 173" x1="225.36" y1="484.37" x2="193.37" y2="484.37" gradientTransform="translate(-140.72 -60.41) rotate(148.24) scale(1.22 -.53) skewX(-34.77)" gradientUnits="userSpaceOnUse">
      <stop offset="0" stop-color="#9c3be0"/>
      <stop offset=".08" stop-color="#8833c4"/>
      <stop offset=".26" stop-color="#5f2489"/>
      <stop offset=".44" stop-color="#3d1758"/>
      <stop offset=".61" stop-color="#220d31"/>
      <stop offset=".76" stop-color="#0f0516"/>
      <stop offset=".9" stop-color="#040105"/>
      <stop offset="1" stop-color="#000"/>
    </linearGradient>
    <linearGradient id="_Áåçûìÿííûé_ãðàäèåíò_296" data-name="Áåçûìÿííûé ãðàäèåíò 296" x1="-191.45" y1="36.86" x2="-139.99" y2="36.86" gradientTransform="translate(-15.48) rotate(-180) scale(1 -1)" gradientUnits="userSpaceOnUse">
      <stop offset="0" stop-color="#000"/>
      <stop offset=".1" stop-color="#040105"/>
      <stop offset=".24" stop-color="#0f0516"/>
      <stop offset=".39" stop-color="#220d31"/>
      <stop offset=".56" stop-color="#3d1758"/>
      <stop offset=".74" stop-color="#5f2489"/>
      <stop offset=".92" stop-color="#8833c4"/>
      <stop offset="1" stop-color="#9c3be0"/>
    </linearGradient>
    <linearGradient id="_Áåçûìÿííûé_ãðàäèåíò_296-2" data-name="Áåçûìÿííûé ãðàäèåíò 296" x1="-67.15" y1="34.62" x2="-37.74" y2="34.62" xlink:href="#_Áåçûìÿííûé_ãðàäèåíò_296"/>
  </defs>
  <g class="cls-34">
    <g id="Layer_2" data-name="Layer 2">
      <g id="_Ñëîé_1" data-name="Ñëîé 1">
        <g>
          <path class="cls-35" d="m179.97,8.04s1.21-11.84-3.84-6.79c-5.05,5.05-18.16,15.47-23.37,17.05-5.21,1.58-27,12.16-35.52,18.79,0,0-.21-2.74-3.26,0,0,0-.42-2.11-3.79,1.26-3.37,3.37-39.7,4.09-42.54,3.93-2.84-.16-4.58-2.84-4.58-2.84,0,0,4.26-2.68,1.66-3,0,0,3.71-3.08-.63-2.76-4.34.32-10.23-8.53-23.53-9.63-17.52-1.45-25.74,9.16-28.42,13.89s.42,13.08-1.87,17.82c-2.29,4.74,1.55,9.06,17.34,15.18,26.68,10.34,22,22.63,53.86,30.02,16.21,3.76,21.79,2.61,43.26,3.24,16.26.47,30.39-2.84,30.39-2.84,0,0,23.37,9.63,46.58,8.84,23.21-.79,26.37-3.95,8.05-6.63-18.31-2.68-30.33-14.26-30.33-14.26,0,0,14.22-7.84,27.48-16.05,13.26-8.21,15.95-7.89,15.95-7.89l-2.53-2.05s-27.31-3.47-26.52-17.68c0,0,7.42-7.58,10.1-9.95s-.79-3.79-.79-3.79c0,0-11.68,3.63-13.89.79-2.21-2.84-6.95-10.74-6.95-13.1s1.05-15.32-2.32-11.53Z"/>
          <path class="cls-15" d="m180.39,29.52c-2.21-5.53,1.11-5.05,1.89-9.95,0,2.37,5.01,10.3,7.22,13.14,3.63,4.58,4.23,10.95,4.3,12.91-.12,2.21.44,4.17,1.47,5.89-4.98-8.45-12.68-16.48-14.89-21.99Z"/>
          <path class="cls-37" d="m20.38,36.92c7.49,2.52,9.76,7.54,14.1,14.8,0,0,9.27-5.39,14.05,2.09,4.89,7.65-4.58,14.9-4.58,14.9,0,0,38.07,8.02,30.97,14.81,0,0,4.74-5.05,21.79.79,17.05,5.84,42.99,12.12,58.42,17.05,0,0-13.42,4-29.68,3.53-21.47-.63-27.91.18-44.13-3.58-31.86-7.39-27.73-19.54-54.41-29.89-15.79-6.12-19-11.35-16.71-16.08,1.07-2.22.9-6.56.79-9.09.19-5.58,2.97-11.48,9.39-9.32Z"/>
          <g>
            <path class="cls-21" d="m32.32,51.97s-.62-5.56-10.17-11.73c-9.55-6.17-10.59,8.32-4.91,14.75,5.67,6.43,15.08-3.02,15.08-3.02Z"/>
            <path class="cls-38" d="m32.32,51.97s-2.13-6.69-9.54-8.95-6.49,4.66-5.92,7.25c.57,2.58,15.46,1.7,15.46,1.7Z"/>
            <path class="cls-20" d="m32.32,51.97s-4.39,10.53-13.24,4.33c-8.33-5.84,13.24-4.33,13.24-4.33Z"/>
            <g class="cls-39">
              <path class="cls-33" d="m32.32,51.97s-2.72-8.19-11.68-8.5c-4.34-.15-6.13,12.33.98,15.81.76.37,1.64.47,2.46.29,1.95-.45,5.7-2.03,8.23-7.59Z"/>
              <path class="cls-24" d="m32.95,54.69c-.27-7.62-15.48-11.34-16.13-1.55-.65,9.79-3.33-12.4-3.33-12.4l11.75-3.31,10.56,7.18-.72,8.32-2.13,1.76Z"/>
              <g>
                <path class="cls-28" d="m15.24,50.61c-.25,3.09,1.56,5.9,4.04,6.28,2.48.37,4.7-1.83,4.95-4.92.25-3.09-1.56-5.9-4.04-6.28-2.48-.37-4.7,1.83-4.95,4.92Z"/>
                <path class="cls-22" d="m16.71,50.95c-.16,1.93.97,3.69,2.52,3.92,1.55.23,2.94-1.14,3.09-3.08.16-1.93-.97-3.69-2.52-3.92s-2.94,1.14-3.09,3.08Z"/>
                <path class="cls-7" d="m15.33,54.86c-.85,2.4.57,5.24,3.17,6.35,2.6,1.11,5.41.06,6.26-2.34s-.57-5.24-3.17-6.35c-2.6-1.11-5.41-.06-6.26,2.34Z"/>
              </g>
              <g>
                <path class="cls-14" d="m20.72,49.94c.1.1.81.16,1.22-.21.41-.38.38-1.04.26-1.15-.12-.11-.81-.16-1.22.21-.41.38-.39,1.02-.26,1.15Z"/>
                <path class="cls-14" d="m19.59,51.27s.28.11.39.01c.11-.1.05-.32,0-.37-.05-.05-.28-.11-.39-.01-.11.1-.06.31,0,.37Z"/>
              </g>
            </g>
            <path class="cls-29" d="m21.56,39.88s-4-2.01-5.95-.22c0,0-.11-3.12,5.95.22Z"/>
          </g>
          <path class="cls-16" d="m0,59.78s4.11-4.64,10.73-6.13c0,0,4.13,6.01,11.09,7.14,0,0-5.36,3.65-2.17,7.45,0,0-8.43-2.04-10.92-6.15,0,0-3.22-.19-8.73-2.31Z"/>
          <path class="cls-9" d="m43.04,50.5c-6.45-1.89-22.93,11.68-16.18,18.53,3.25,3.29,8.69,3.65,15.81-.56,6.61-3.9,10.44-15.02.37-17.97Z"/>
          <path class="cls-36" d="m37.72,52.9c-6.08.37-11.52,10.53-7.15,11.55,6.95,1.62,15.25-12.04,7.15-11.55Z"/>
          <path class="cls-38" d="m20.75,59.23s1.93.63.84,1.15c-1.08.51-7.43,1.83-12.86,1.7,0,0,5.96,1.14,13.35-1.22,0,0,1.08-.2.79.64,0,0,1.08-2.09-2.12-2.27Z"/>
          <path class="cls-18" d="m41.07,65.34c8.32-6.21,4.78-14.26,4.78-14.26,0,0,13.84-21.01.08-26.08,9.61,2.56,14.46,8.96,18.16,8.69,4.34-.32.63,2.76.63,2.76,2.61.32-1.66,3-1.66,3,0,0,1.74,2.68,4.58,2.84.53.03,2.38.03,5.06,0-14.84,1.26-6.64,15.32-15.63,21.63-9,6.32-16.74,12.32-11.53,17.05.24.22.45.42.65.62-5.03-3.44-10.85-6.9-19.28-10.17-2.45-.95-4.59-1.88-6.46-2.78.02,0,12.3,2.91,20.62-3.29Z"/>
          <path class="cls-26" d="m63.06,39.44s3.39,6.5-6.08,17.81-15.52,15.3-31.72,13.5l3.73,1.49s1.91-1.25,8.24-.69,11.73-.15,19.99-13.31c8.25-13.16,7.1-15.98,10.42-15.97,0,0-2.66.11-4.58-2.84Z"/>
          <path class="cls-2" d="m16.28,33.25c-6.63,8.18,7.95,2.67,17.19-3.04,8.51-5.27-8.05-8.23-17.19,3.04Z"/>
          <path class="cls-32" d="m25.53,34.59c1.8-.4,2.9-.7,3.43-1.79.52-1.09-7.18,2.62-3.43,1.79Z"/>
          <path class="cls-19" d="m179.44,89.31c-18.83-15.58-43.57-25.36-53.3-28.36,0,0,17.78.78,28.76,5.41,10.98,4.63,24.54,22.95,24.54,22.95Z"/>
          <path class="cls-23" d="m84.08,73.25c10.74,6.79,68.68,24,85.42,27.16,16.74,3.16,22.58,5.84-2.84-12.95-25.42-18.79-48.47-32.05-63.47-35.67-15-3.62-26.84-2.86-26.84-2.86,0,0,8.33-6.62,21.36-7.97.09,0,.17-.02.26-.03.36-.04.72-.08,1.09-.11.02,0,.03,0,.05,0,3.53-.37,6.57-.83,8.61-1.38-11.43,6.14,29.25,21.02,42.2,21.36,12.95.34,26.37-14.39,27.63-31.12,1.26-16.74-9.47-7.58-9.47-7.58,9.63-10.58,11.05-23.37,8.05-20.84,5.05-5.05,3.84,6.79,3.84,6.79,3.37-3.79,2.32,9.16,2.32,11.53s4.74,10.26,6.95,13.1c2.21,2.84,13.89-.79,13.89-.79,0,0,3.47,1.42.79,3.79-2.68,2.37-10.1,9.95-10.1,9.95-.79,14.21,26.52,17.68,26.52,17.68l2.53,2.05s-2.68-.32-15.95,7.89c-13.26,8.21-27.48,16.05-27.48,16.05,0,0,12.01,11.58,30.33,14.26,18.31,2.68,15.16,5.84-8.05,6.63-23.21.79-46.58-8.84-46.58-8.84,0,0-13.42,4-29.68,3.53-21.47-.63-27.91.18-44.13-3.58-19.47-4.52-25.5-10.81-33.34-17.39,14.11,11.14,25.36-17.45,36.1-10.67Z"/>
          <path class="cls-19" d="m207.79,65.36c-10.42-2.92-14.68-15.79-17.53-20.84-2.51-4.46-.47-9.29-1.65-12.69.22.31.44.61.63.85.31.4.81.66,1.43.83,3.27,2.83,4.02,5.8,4.02,5.8l10.11-4.76c-.15.35-.42.72-.88,1.13-2.68,2.37-10.1,9.95-10.1,9.95-.79,14.21,26.52,17.68,26.52,17.68l2.53,2.05s-2.68-.32-15.95,7.89c-13.26,8.21-27.48,16.05-27.48,16.05l-10.44-7.72s49.21-13.31,38.79-16.23Z"/>
          <path class="cls-41" d="m204.71,30.54s22.42,2.92,30.63,0l-.53,2.24h3.47s-2.42,4.63-4.74,5.68c-2.32,1.05-3.68,1.16-3.68,1.16,0,0-3.16,2.11-5.37,2.32s-15.05-6.53-16.84-7.26c-1.79-.74-5.94,1.84-3.89-.79,0,0-8.05,1.26.95-3.34Z"/>
          <path class="cls-17" d="m225,61.25s20.02,7.19,29.35,5.39l-.93,2.33,3.75.57s-3.37,4.6-6.04,5.36-4.16.64-4.16.64c0,0-3.75,1.75-6.17,1.62-2.42-.14-15.17-9.51-16.98-10.6-1.81-1.09-6.71,1.01-4.07-1.49,0,0-7.86-1.37-.91-2.07,1.02-.1,4.57-1.21,6.18-1.74Z"/>
          <path class="cls-25" d="m208.74,34.09c2.13.71,15.79,6,17.05,5.92,1.26-.08,4.34-1.58,4.34-1.58l-17.6-5.4s17.92,2.79,19.74,2.5,4.66-2.23,4.66-2.23l-19.58-.87h16.34c.55,0,1.66-1.89,1.66-1.89l-.53,2.24h3.47s-2.42,4.63-4.74,5.68c-2.32,1.05-3.68,1.16-3.68,1.16,0,0-3.16,2.11-5.37,2.32s-15.05-6.53-16.84-7.26c-1.28-.53-3.77.64-4.33.37.15-.07,3.32-1.65,5.41-.95Z"/>
          <path class="cls-25" d="m257.17,69.53s-3.37,4.6-6.04,5.36-4.16.64-4.16.64c0,0-3.75,1.75-6.17,1.62-2.42-.14-15.17-9.51-16.98-10.6-1.58-.95-5.52.53-4.73-.75,2.67-.8,5.78-1.54,6.48-.84,1.26,1.26,13.03,9.47,15.24,10.5,2.21,1.03,5.21-.34,5.21-.34l-15.71-9.77s17.45,8.13,19.97,7.66c2.53-.47,4.66-3.24,4.66-3.24-3.08-.32-22.26-5.21-22.26-5.21,0,0,14.68,3.24,16.42,3.24s5.28-1.17,5.28-1.17l-.93,2.33,3.75.57Z"/>
          <path class="cls-19" d="m131.29,97.09l-34.4-12.73c17.05,5.83,42.87,12.08,58.25,16.99,0,0-13.42,4-29.68,3.53-21.47-.63-27.91.18-44.13-3.58-1.13-.26-2.2-.53-3.25-.81,27.69,6.36,53.22-3.4,53.22-3.4Z"/>
          <path class="cls-4" d="m10.91,53.65s-2.91,4.56-5.98,5.29c-3.07.73-4.26.51-4.26.51,0,0,2.72-3.6,10.24-5.8Z"/>
          <path class="cls-27" d="m19.65,68.24s-8.43-2.04-10.92-6.15c0,0-3.22-.19-8.73-2.31,4.62.87,12.32.69,12.48-1.04s-1.75-5.09-1.75-5.09c4.59,4.61,10.12,6.91,10.22,6.36s-.67-.91-.67-.91c0,0,2.48.17,3.23,1.18,1.29,1.73-.79,2.53-.79,2.53-1.05-.79-6.43,3.31-2.31,5.8-.25-.12-.52-.25-.77-.37,0,0,0,0,0,0Z"/>
          <path class="cls-5" d="m117.84,60.54c-14.61-2.71-48.66,4.95-37.59,11.24,11.07,6.29,45.24,16.85,66.03,21.68,20.79,4.82,12.48-11.03-2.77-20.65-15.25-9.63-22.28-11.63-25.67-12.26Z"/>
          <path class="cls-6" d="m135.43,47.99c-26.71-2.68-25.16-8.86-2.32-20.34,23.45-11.78,32.26-15.34,32.12-6.03-.15,9.32-5.15,28.84-29.8,26.37Z"/>
          <path class="cls-31" d="m101.78,79.9c-4.55-2.24-7.39-3.53-9.24-2.68-1.85.86,18.76,7.36,9.24,2.68Z"/>
          <path class="cls-30" d="m128.89,46.54c-1.93-.93-3.17-1.43-4.63-.43-1.47,1,8.67,2.37,4.63.43Z"/>
          <path class="cls-13" d="m109.87,101.11c-19.53,2.7-29.8.12-33.93-2.33-4.13-2.46,15.12.47,34.3.28,8.9-.09,28.22-1.9-.37,2.05Z"/>
          <path class="cls-12" d="m57.54,33.28c4.23,4.18,5.6,6.04,5.38,10.41-.14,2.78-2.98-6.91-6.7-10.75-3.41-3.52-3.97-4.88,1.32.35Z"/>
          <path class="cls-12" d="m63.59,51.67c.68-4.47,1.3-6.1,4.8-7.57,2.23-.93-3.54,4.61-4.27,8.61-.67,3.65-1.38,4.55-.53-1.04Z"/>
          <path class="cls-13" d="m185.66,40.88c4.81,5.83,9.21,12.48,3.93,13.11-3.33.39-4.07-8.89-8.9-17.01-3.18-5.36-3.76-6.67,4.97,3.91Z"/>
          <path class="cls-12" d="m159.75,93.97c10.55,2.01,16.98,5.39,20.32,7.91,3.34,2.52-23.19-8.22-38.95-10.24-8.29-1.06-4.58-2.1,18.64,2.33Z"/>
          <path class="cls-11" d="m69.87,77.16c-9.89,6.46-27.59-.21-25.64,2.11,1.95,2.32,8.11,9.94,14.04,6.66,5.93-3.28,11.6-8.77,11.6-8.77Z"/>
          <path class="cls-10" d="m131.58,64.26c.13,6.44-22.35,19.78-23.64,18.36l6.7,2.26s-2.26-1.77,9.47-10.31c10.3-7.49,18.51-3.88,18.51-3.88l-11.04-6.44Z"/>
          <path class="cls-1" d="m170.99,47.99c6.76-8.39-33.93-18.27-38.08-18.17-4.15.1-8.4,2.45-8.4,2.45,0,0,6.98-3.86,12.43-6.53,0,0-5.92,3.79,2.91,5.03,13.16,1.84,20.92,5.45,25.97,8.68,5.05,3.24,10.14-1.64,10.14-1.64,0,0-1.7,5.11-3.04,7.76-1.34,2.65-1.94,2.43-1.94,2.43Z"/>
          <path class="cls-3" d="m60.04,84.88c-4.97,3.2-9.53.98-11.54-1.57-1.65-2.1,4.54.56,10.45-.4,1.99-.32,4.94-1.96,7.3-3.65,2.84-2.04.53,1.29-6.21,5.61Z"/>
          <path class="cls-8" d="m49.49,44.17c3.48-6.23-12.9-20.58-27.23-16.41,0,0,3.25-1.63,6.41-2.7,0,0-4.64,1.93,2.36,1.83,7-.11,14.44,3.74,16.96,9.84,2.52,6.1,3.69.66,3.69.66,0,0-.29,1.94-1.18,4.24-.88,2.3-1,2.55-1,2.55Z"/>
        </g>
      </g>
    </g>
  </g>
</svg>