<?xml version="1.0" encoding="UTF-8"?>
<svg xmlns="http://www.w3.org/2000/svg" xmlns:xlink="http://www.w3.org/1999/xlink" viewBox="0 0 165.94 190.09">
  <defs>
    <style>
      .cls-1 {
        fill: url(#_Áåçûìÿííûé_ãðàäèåíò_154);
      }

      .cls-1, .cls-2, .cls-3, .cls-4, .cls-5, .cls-6, .cls-7, .cls-8, .cls-9, .cls-10, .cls-11, .cls-12, .cls-13, .cls-14, .cls-15, .cls-16, .cls-17 {
        mix-blend-mode: screen;
      }

      .cls-1, .cls-6, .cls-9, .cls-13 {
        opacity: .25;
      }

      .cls-18 {
        fill: url(#_Áåçûìÿííûé_ãðàäèåíò_326-4);
      }

      .cls-18, .cls-19, .cls-20, .cls-21, .cls-22, .cls-23, .cls-24, .cls-25, .cls-26, .cls-27, .cls-28, .cls-29, .cls-30, .cls-31, .cls-32, .cls-33, .cls-34, .cls-35, .cls-36, .cls-37, .cls-38, .cls-39, .cls-40, .cls-41, .cls-42, .cls-43, .cls-44, .cls-45, .cls-46, .cls-47, .cls-48, .cls-49, .cls-50, .cls-51, .cls-52 {
        mix-blend-mode: multiply;
      }

      .cls-18, .cls-19, .cls-40, .cls-41 {
        opacity: .56;
      }

      .cls-19 {
        fill: url(#_Áåçûìÿííûé_ãðàäèåíò_326-5);
      }

      .cls-20 {
        fill: url(#_Áåçûìÿííûé_ãðàäèåíò_326);
      }

      .cls-20, .cls-21, .cls-53, .cls-35, .cls-37, .cls-43, .cls-46, .cls-49 {
        opacity: .36;
      }

      .cls-54 {
        fill: #fff;
      }

      .cls-21 {
        fill: url(#_Áåçûìÿííûé_ãðàäèåíò_320);
      }

      .cls-55 {
        fill: url(#_Áåçûìÿííûé_ãðàäèåíò_83);
      }

      .cls-56 {
        fill: url(#_Áåçûìÿííûé_ãðàäèåíò_230);
      }

      .cls-2 {
        fill: #4a5ebc;
      }

      .cls-2, .cls-23, .cls-26, .cls-29 {
        opacity: .43;
      }

      .cls-3 {
        fill: url(#_Áåçûìÿííûé_ãðàäèåíò_144-3);
      }

      .cls-3, .cls-4, .cls-8 {
        opacity: .32;
      }

      .cls-57 {
        fill: url(#_Áåçûìÿííûé_ãðàäèåíò_152-3);
      }

      .cls-58 {
        fill: url(#_Áåçûìÿííûé_ãðàäèåíò_306);
      }

      .cls-59 {
        fill: #5d2755;
      }

      .cls-4 {
        fill: url(#_Áåçûìÿííûé_ãðàäèåíò_144-2);
      }

      .cls-60 {
        fill: url(#_Áåçûìÿííûé_ãðàäèåíò_152);
      }

      .cls-61 {
        fill: #8984bf;
      }

      .cls-22 {
        opacity: .85;
      }

      .cls-22, .cls-42 {
        fill: #ba92d1;
      }

      .cls-5 {
        opacity: .28;
      }

      .cls-5, .cls-15, .cls-17 {
        fill: #e09ce0;
      }

      .cls-23 {
        fill: url(#_Áåçûìÿííûé_ãðàäèåíò_117);
      }

      .cls-62 {
        fill: #5e5bb8;
      }

      .cls-63 {
        fill: #817aa6;
      }

      .cls-24 {
        fill: url(#_Áåçûìÿííûé_ãðàäèåíò_118);
      }

      .cls-24, .cls-33 {
        opacity: .31;
      }

      .cls-64 {
        clip-path: url(#clippath-2);
      }

      .cls-6 {
        fill: url(#_Áåçûìÿííûé_ãðàäèåíò_77);
      }

      .cls-65 {
        isolation: isolate;
      }

      .cls-7 {
        fill: url(#_Áåçûìÿííûé_ãðàäèåíò_321);
      }

      .cls-8 {
        fill: url(#_Áåçûìÿííûé_ãðàäèåíò_144);
      }

      .cls-25 {
        fill: url(#_Áåçûìÿííûé_ãðàäèåíò_335);
      }

      .cls-9 {
        fill: url(#_Áåçûìÿííûé_ãðàäèåíò_334);
      }

      .cls-66 {
        fill: url(#_Áåçûìÿííûé_ãðàäèåíò_230-3);
      }

      .cls-67 {
        fill: url(#_Áåçûìÿííûé_ãðàäèåíò_230-2);
      }

      .cls-68 {
        fill: url(#_Áåçûìÿííûé_ãðàäèåíò_220);
      }

      .cls-26 {
        fill: url(#_Áåçûìÿííûé_ãðàäèåíò_117-2);
      }

      .cls-69 {
        fill: url(#_Áåçûìÿííûé_ãðàäèåíò_71);
      }

      .cls-70 {
        fill: url(#_Áåçûìÿííûé_ãðàäèåíò_152-2);
      }

      .cls-10 {
        fill: #8b86bc;
      }

      .cls-27 {
        fill: url(#_Áåçûìÿííûé_ãðàäèåíò_178-2);
      }

      .cls-71 {
        clip-path: url(#clippath-1);
      }

      .cls-28 {
        fill: url(#_Áåçûìÿííûé_ãðàäèåíò_327-2);
        opacity: .63;
      }

      .cls-72, .cls-39 {
        opacity: .71;
      }

      .cls-72, .cls-73 {
        fill: #f4e2f1;
      }

      .cls-11 {
        fill: url(#_Áåçûìÿííûé_ãðàäèåíò_338);
      }

      .cls-11, .cls-14, .cls-16 {
        opacity: .5;
      }

      .cls-53 {
        fill: #f46f9f;
      }

      .cls-12 {
        fill: url(#_Áåçûìÿííûé_ãðàäèåíò_173);
        opacity: .38;
      }

      .cls-74, .cls-51 {
        fill: #5e5b92;
      }

      .cls-29 {
        fill: url(#_Áåçûìÿííûé_ãðàäèåíò_32);
      }

      .cls-13 {
        fill: url(#_Áåçûìÿííûé_ãðàäèåíò_77-2);
      }

      .cls-30 {
        opacity: .21;
      }

      .cls-31 {
        opacity: .67;
      }

      .cls-32 {
        fill: #8486ea;
        opacity: .37;
      }

      .cls-33 {
        fill: url(#_Áåçûìÿííûé_ãðàäèåíò_118-2);
      }

      .cls-34 {
        fill: url(#_Áåçûìÿííûé_ãðàäèåíò_59-2);
      }

      .cls-34, .cls-47 {
        opacity: .6;
      }

      .cls-35 {
        fill: url(#_Áåçûìÿííûé_ãðàäèåíò_326-3);
      }

      .cls-75 {
        fill: #2e0043;
      }

      .cls-36 {
        fill: url(#_Áåçûìÿííûé_ãðàäèåíò_178-4);
      }

      .cls-76 {
        clip-path: url(#clippath);
      }

      .cls-14 {
        fill: url(#_Áåçûìÿííûé_ãðàäèåíò_228);
      }

      .cls-77 {
        fill: #6d5e9f;
      }

      .cls-78 {
        fill: none;
      }

      .cls-38 {
        opacity: .69;
      }

      .cls-39 {
        fill: #c960d1;
      }

      .cls-40 {
        fill: url(#_Áåçûìÿííûé_ãðàäèåíò_326-8);
      }

      .cls-41 {
        fill: url(#_Áåçûìÿííûé_ãðàäèåíò_326-7);
      }

      .cls-15 {
        opacity: .08;
      }

      .cls-79 {
        fill: url(#_Áåçûìÿííûé_ãðàäèåíò_332);
      }

      .cls-42 {
        opacity: .72;
      }

      .cls-16 {
        fill: url(#_Áåçûìÿííûé_ãðàäèåíò_229);
      }

      .cls-80 {
        fill: #1d0421;
      }

      .cls-81 {
        fill: url(#_Áåçûìÿííûé_ãðàäèåíò_337);
      }

      .cls-82 {
        fill: url(#_Áåçûìÿííûé_ãðàäèåíò_72);
      }

      .cls-17 {
        opacity: .15;
      }

      .cls-43 {
        fill: url(#_Áåçûìÿííûé_ãðàäèåíò_326-2);
      }

      .cls-44 {
        fill: url(#_Áåçûìÿííûé_ãðàäèåíò_178-5);
      }

      .cls-45 {
        fill: url(#_Áåçûìÿííûé_ãðàäèåíò_197);
        opacity: .51;
      }

      .cls-46 {
        fill: url(#_Áåçûìÿííûé_ãðàäèåíò_326-6);
      }

      .cls-47 {
        fill: url(#_Áåçûìÿííûé_ãðàäèåíò_59);
      }

      .cls-49 {
        fill: url(#_Áåçûìÿííûé_ãðàäèåíò_327);
      }

      .cls-50 {
        fill: url(#_Áåçûìÿííûé_ãðàäèåíò_178);
      }

      .cls-51 {
        opacity: .17;
      }

      .cls-52 {
        fill: url(#_Áåçûìÿííûé_ãðàäèåíò_178-3);
      }
    </style>
    <linearGradient id="_Áåçûìÿííûé_ãðàäèåíò_220" data-name="Áåçûìÿííûé ãðàäèåíò 220" x1="-173.68" y1="181.18" x2="-173.68" y2="0" gradientTransform="translate(-82.11) rotate(-180) scale(1 -1)" gradientUnits="userSpaceOnUse">
      <stop offset=".07" stop-color="#2e0043"/>
      <stop offset=".24" stop-color="#370846"/>
      <stop offset=".52" stop-color="#521e51"/>
      <stop offset=".88" stop-color="#7c4161"/>
      <stop offset="1" stop-color="#8d4f68"/>
    </linearGradient>
    <linearGradient id="_Áåçûìÿííûé_ãðàäèåíò_83" data-name="Áåçûìÿííûé ãðàäèåíò 83" x1="-183.03" y1="238.52" x2="-183.03" y2="18.51" gradientTransform="translate(-82.11) rotate(-180) scale(1 -1)" gradientUnits="userSpaceOnUse">
      <stop offset="0" stop-color="#ba92d1"/>
      <stop offset=".39" stop-color="#cea8d7"/>
      <stop offset="1" stop-color="#f4d3e3"/>
    </linearGradient>
    <linearGradient id="_Áåçûìÿííûé_ãðàäèåíò_230" data-name="Áåçûìÿííûé ãðàäèåíò 230" x1="-205.1" y1="48.63" x2="-203.86" y2="34.96" gradientTransform="translate(-83.97 -.64) rotate(-179.33) scale(1 -1)" gradientUnits="userSpaceOnUse">
      <stop offset="0" stop-color="#ea524b"/>
      <stop offset="1" stop-color="#ffa953"/>
    </linearGradient>
    <linearGradient id="_Áåçûìÿííûé_ãðàäèåíò_334" data-name="Áåçûìÿííûé ãðàäèåíò 334" x1="72.96" y1="80.16" x2="72.96" y2="56.4" gradientUnits="userSpaceOnUse">
      <stop offset="0" stop-color="#e09ce0"/>
      <stop offset=".06" stop-color="#c488c4"/>
      <stop offset=".2" stop-color="#895f89"/>
      <stop offset=".33" stop-color="#583d58"/>
      <stop offset=".46" stop-color="#312231"/>
      <stop offset=".57" stop-color="#160f16"/>
      <stop offset=".68" stop-color="#050405"/>
      <stop offset=".75" stop-color="#000"/>
    </linearGradient>
    <linearGradient id="_Áåçûìÿííûé_ãðàäèåíò_228" data-name="Áåçûìÿííûé ãðàäèåíò 228" x1="-19.16" y1="-41.41" x2="-17.91" y2="-49.68" gradientTransform="translate(99.62 87.78) rotate(46.4) scale(1 1.05)" gradientUnits="userSpaceOnUse">
      <stop offset="0" stop-color="#e0e56a"/>
      <stop offset=".07" stop-color="#c0c45a"/>
      <stop offset=".22" stop-color="#86893f"/>
      <stop offset=".36" stop-color="#565828"/>
      <stop offset=".5" stop-color="#303117"/>
      <stop offset=".62" stop-color="#16160a"/>
      <stop offset=".73" stop-color="#050502"/>
      <stop offset=".81" stop-color="#000"/>
    </linearGradient>
    <linearGradient id="_Áåçûìÿííûé_ãðàäèåíò_59" data-name="Áåçûìÿííûé ãðàäèåíò 59" x1="57.23" y1="94.71" x2="78.57" y2="50.02" gradientUnits="userSpaceOnUse">
      <stop offset=".23" stop-color="#ba92d1"/>
      <stop offset=".42" stop-color="#c8a8da"/>
      <stop offset=".82" stop-color="#ede2f3"/>
      <stop offset="1" stop-color="#fff"/>
    </linearGradient>
    <linearGradient id="_Áåçûìÿííûé_ãðàäèåíò_229" data-name="Áåçûìÿííûé ãðàäèåíò 229" x1="-178.86" y1="35.8" x2="-186.93" y2="22.24" gradientTransform="translate(-82.11) rotate(-180) scale(1 -1)" gradientUnits="userSpaceOnUse">
      <stop offset=".19" stop-color="#000"/>
      <stop offset=".26" stop-color="#050405"/>
      <stop offset=".34" stop-color="#160f16"/>
      <stop offset=".45" stop-color="#312231"/>
      <stop offset=".56" stop-color="#583d58"/>
      <stop offset=".67" stop-color="#895f89"/>
      <stop offset=".79" stop-color="#c488c4"/>
      <stop offset=".85" stop-color="#e09ce0"/>
    </linearGradient>
    <linearGradient id="_Áåçûìÿííûé_ãðàäèåíò_59-2" data-name="Áåçûìÿííûé ãðàäèåíò 59" x1="-91.35" y1="174.23" x2="-132.01" y2="70.49" gradientTransform="translate(-18) rotate(-180) scale(1 -1)" xlink:href="#_Áåçûìÿííûé_ãðàäèåíò_59"/>
    <linearGradient id="_Áåçûìÿííûé_ãðàäèåíò_338" data-name="Áåçûìÿííûé ãðàäèåíò 338" x1="-220.05" y1="79.72" x2="-224.52" y2="67.68" gradientTransform="translate(-95.83 19.25) rotate(168.84) scale(1 -1)" gradientUnits="userSpaceOnUse">
      <stop offset=".19" stop-color="#000"/>
      <stop offset=".27" stop-color="#050405"/>
      <stop offset=".38" stop-color="#160f16"/>
      <stop offset=".51" stop-color="#312231"/>
      <stop offset=".64" stop-color="#583d58"/>
      <stop offset=".79" stop-color="#895f89"/>
      <stop offset=".94" stop-color="#c488c4"/>
      <stop offset="1" stop-color="#e09ce0"/>
    </linearGradient>
    <linearGradient id="_Áåçûìÿííûé_ãðàäèåíò_230-2" data-name="Áåçûìÿííûé ãðàäèåíò 230" x1="-97.22" y1="157.39" x2="-97.22" y2="131.99" gradientTransform="translate(-82.11) rotate(-180) scale(1 -1)" xlink:href="#_Áåçûìÿííûé_ãðàäèåíò_230"/>
    <linearGradient id="_Áåçûìÿííûé_ãðàäèåíò_326" data-name="Áåçûìÿííûé ãðàäèåíò 326" x1="75.9" y1="71.72" x2="105.64" y2="71.72" gradientUnits="userSpaceOnUse">
      <stop offset="0" stop-color="#fff"/>
      <stop offset=".07" stop-color="#efeff4"/>
      <stop offset=".4" stop-color="#b1b0ca"/>
      <stop offset=".67" stop-color="#8482ab"/>
      <stop offset=".88" stop-color="#686599"/>
      <stop offset="1" stop-color="#5e5b92"/>
    </linearGradient>
    <linearGradient id="_Áåçûìÿííûé_ãðàäèåíò_326-2" data-name="Áåçûìÿííûé ãðàäèåíò 326" x1="56.18" y1="82.53" x2="68.36" y2="82.53" xlink:href="#_Áåçûìÿííûé_ãðàäèåíò_326"/>
    <linearGradient id="_Áåçûìÿííûé_ãðàäèåíò_327" data-name="Áåçûìÿííûé ãðàäèåíò 327" x1="41.11" y1="107.08" x2="27.06" y2="121.13" gradientUnits="userSpaceOnUse">
      <stop offset="0" stop-color="#5e5b92"/>
      <stop offset=".12" stop-color="#686599"/>
      <stop offset=".33" stop-color="#8482ab"/>
      <stop offset=".6" stop-color="#b1b0ca"/>
      <stop offset=".93" stop-color="#efeff4"/>
      <stop offset="1" stop-color="#fff"/>
    </linearGradient>
    <linearGradient id="_Áåçûìÿííûé_ãðàäèåíò_326-3" data-name="Áåçûìÿííûé ãðàäèåíò 326" x1="45.77" y1="103.85" x2="54.26" y2="103.85" xlink:href="#_Áåçûìÿííûé_ãðàäèåíò_326"/>
    <linearGradient id="_Áåçûìÿííûé_ãðàäèåíò_326-4" data-name="Áåçûìÿííûé ãðàäèåíò 326" y1="71.31" y2="71.31" xlink:href="#_Áåçûìÿííûé_ãðàäèåíò_326"/>
    <linearGradient id="_Áåçûìÿííûé_ãðàäèåíò_326-5" data-name="Áåçûìÿííûé ãðàäèåíò 326" x1="56.18" y1="82.1" x2="68.36" y2="82.1" xlink:href="#_Áåçûìÿííûé_ãðàäèåíò_326"/>
    <linearGradient id="_Áåçûìÿííûé_ãðàäèåíò_332" data-name="Áåçûìÿííûé ãðàäèåíò 332" x1="103.18" y1="117.04" x2="103.18" y2="69.73" gradientUnits="userSpaceOnUse">
      <stop offset=".16" stop-color="#5e5b92"/>
      <stop offset=".68" stop-color="#8b86bc"/>
    </linearGradient>
    <linearGradient id="_Áåçûìÿííûé_ãðàäèåíò_320" data-name="Áåçûìÿííûé ãðàäèåíò 320" x1="101.01" y1="117.04" x2="101.01" y2="69.73" gradientUnits="userSpaceOnUse">
      <stop offset="0" stop-color="#5e5b92"/>
      <stop offset=".19" stop-color="#68659b"/>
      <stop offset=".53" stop-color="#8281b5"/>
      <stop offset=".76" stop-color="#9a9acc"/>
    </linearGradient>
    <linearGradient id="_Áåçûìÿííûé_ãðàäèåíò_326-6" data-name="Áåçûìÿííûé ãðàäèåíò 326" x1="92.13" y1="124.37" x2="115.59" y2="124.37" xlink:href="#_Áåçûìÿííûé_ãðàäèåíò_326"/>
    <linearGradient id="_Áåçûìÿííûé_ãðàäèåíò_337" data-name="Áåçûìÿííûé ãðàäèåíò 337" x1="132.52" y1="102.84" x2="132.52" y2="80.27" gradientUnits="userSpaceOnUse">
      <stop offset=".19" stop-color="#fff"/>
      <stop offset="1" stop-color="#5e5b92"/>
    </linearGradient>
    <linearGradient id="_Áåçûìÿííûé_ãðàäèåíò_32" data-name="Áåçûìÿííûé ãðàäèåíò 32" x1="-115.06" y1="108.81" x2="-115.06" y2="97.75" gradientTransform="translate(17.49) rotate(-180) scale(1 -1)" gradientUnits="userSpaceOnUse">
      <stop offset="0" stop-color="#6b046d"/>
      <stop offset=".08" stop-color="#731275"/>
      <stop offset=".23" stop-color="#8a3a8c"/>
      <stop offset=".43" stop-color="#b079b1"/>
      <stop offset=".68" stop-color="#e3d0e3"/>
      <stop offset=".81" stop-color="#fff"/>
    </linearGradient>
    <clipPath id="clippath">
      <path class="cls-78" d="m143.1,99.14c-.09-4.23-2.58-10.24-10.02-10.34-7.9-.11-10.84,7.11-10.92,10.11-.12,4.16,3.39,7.99,10.25,8.8,6.86.81,10.79-4.11,10.7-8.58Z"/>
    </clipPath>
    <linearGradient id="_Áåçûìÿííûé_ãðàäèåíò_306" data-name="Áåçûìÿííûé ãðàäèåíò 306" x1="-114.78" y1="107.8" x2="-114.78" y2="88.8" gradientTransform="translate(17.49) rotate(-180) scale(1 -1)" gradientUnits="userSpaceOnUse">
      <stop offset="0" stop-color="#fff"/>
      <stop offset=".16" stop-color="#fafafc"/>
      <stop offset=".35" stop-color="#edeef6"/>
      <stop offset=".54" stop-color="#d6d9ec"/>
      <stop offset=".74" stop-color="#b7bcdd"/>
      <stop offset=".94" stop-color="#8f97cb"/>
      <stop offset="1" stop-color="#838bc5"/>
    </linearGradient>
    <linearGradient id="_Áåçûìÿííûé_ãðàäèåíò_178" data-name="Áåçûìÿííûé ãðàäèåíò 178" x1="-180.86" y1="40.56" x2="-180.86" y2="30.6" gradientTransform="translate(-57.64 14.42) rotate(-166.25) scale(1.14 -.94) skewX(5.21)" gradientUnits="userSpaceOnUse">
      <stop offset="0" stop-color="#bf92ed"/>
      <stop offset="0" stop-color="#bd90eb"/>
      <stop offset=".15" stop-color="#9b69b6"/>
      <stop offset=".29" stop-color="#7e488a"/>
      <stop offset=".42" stop-color="#682f69"/>
      <stop offset=".55" stop-color="#581c50"/>
      <stop offset=".67" stop-color="#4f1142"/>
      <stop offset=".77" stop-color="#4c0e3d"/>
    </linearGradient>
    <linearGradient id="_Áåçûìÿííûé_ãðàäèåíò_144" data-name="Áåçûìÿííûé ãðàäèåíò 144" x1="-211.54" y1="10.86" x2="-211.54" y2="-2.89" gradientTransform="translate(-44.45 -8.93) rotate(-148.55) scale(1 -1)" gradientUnits="userSpaceOnUse">
      <stop offset=".23" stop-color="#000"/>
      <stop offset=".3" stop-color="#080406"/>
      <stop offset=".4" stop-color="#1f0f16"/>
      <stop offset=".53" stop-color="#452231"/>
      <stop offset=".68" stop-color="#793d57"/>
      <stop offset=".85" stop-color="#bb5e87"/>
      <stop offset="1" stop-color="#ff81b8"/>
    </linearGradient>
    <linearGradient id="_Áåçûìÿííûé_ãðàäèåíò_118" data-name="Áåçûìÿííûé ãðàäèåíò 118" x1="70.1" y1="-31.18" x2="70.1" y2="-49" gradientTransform="translate(36.31 15.33) rotate(35.23)" gradientUnits="userSpaceOnUse">
      <stop offset=".47" stop-color="#fff"/>
      <stop offset=".55" stop-color="#e3d0e3"/>
      <stop offset=".72" stop-color="#b079b1"/>
      <stop offset=".85" stop-color="#8a3a8c"/>
      <stop offset=".95" stop-color="#731275"/>
      <stop offset="1" stop-color="#6b046d"/>
    </linearGradient>
    <linearGradient id="_Áåçûìÿííûé_ãðàäèåíò_117" data-name="Áåçûìÿííûé ãðàäèåíò 117" x1="71.61" y1="-36.42" x2="64.16" y2="-28.98" gradientTransform="translate(36.31 15.33) rotate(35.23)" gradientUnits="userSpaceOnUse">
      <stop offset=".19" stop-color="#fff"/>
      <stop offset=".32" stop-color="#e3d0e3"/>
      <stop offset=".57" stop-color="#b079b1"/>
      <stop offset=".77" stop-color="#8a3a8c"/>
      <stop offset=".92" stop-color="#731275"/>
      <stop offset="1" stop-color="#6b046d"/>
    </linearGradient>
    <linearGradient id="_Áåçûìÿííûé_ãðàäèåíò_152" data-name="Áåçûìÿííûé ãðàäèåíò 152" x1="113.34" y1="34.31" x2="113.34" y2="16.78" gradientUnits="userSpaceOnUse">
      <stop offset=".12" stop-color="#fff"/>
      <stop offset=".32" stop-color="#fafafc"/>
      <stop offset=".54" stop-color="#edeef6"/>
      <stop offset=".77" stop-color="#d6d9ec"/>
      <stop offset="1" stop-color="#babfdf"/>
    </linearGradient>
    <clipPath id="clippath-1">
      <path class="cls-60" d="m117.08,34.19s8.85-8.27,1.52-15.22c-5.27-4.99-11.07-.31-12.75,2.62-3.5,6.11,7.74,13.74,11.23,12.6Z"/>
    </clipPath>
    <linearGradient id="_Áåçûìÿííûé_ãðàäèåíò_178-2" data-name="Áåçûìÿííûé ãðàäèåíò 178" x1="12.73" y1="-31.74" x2="12.73" y2="-43.76" gradientTransform="translate(89.81 60.03) rotate(19.61) scale(1.07 1) skewX(1.95)" xlink:href="#_Áåçûìÿííûé_ãðàäèåíò_178"/>
    <linearGradient id="_Áåçûìÿííûé_ãðàäèåíò_178-3" data-name="Áåçûìÿííûé ãðàäèåíò 178" x1="12.73" y1="-34.93" x2="12.73" y2="-40.56" gradientTransform="translate(89.81 60.03) rotate(19.61) scale(1.07 1) skewX(1.95)" xlink:href="#_Áåçûìÿííûé_ãðàäèåíò_178"/>
    <linearGradient id="_Áåçûìÿííûé_ãðàäèåíò_144-2" data-name="Áåçûìÿííûé ãðàäèåíò 144" x1="18.49" y1="-5.54" x2="18.49" y2="-15.49" gradientTransform="translate(91.47 42.77) rotate(3.77)" xlink:href="#_Áåçûìÿííûé_ãðàäèåíò_144"/>
    <linearGradient id="_Áåçûìÿííûé_ãðàäèåíò_118-2" data-name="Áåçûìÿííûé ãðàäèåíò 118" x1="-87.64" y1="-18.07" x2="-87.64" y2="-35.24" gradientTransform="translate(45.79 21.59) rotate(-155.67) scale(1 -1)" xlink:href="#_Áåçûìÿííûé_ãðàäèåíò_118"/>
    <linearGradient id="_Áåçûìÿííûé_ãðàäèåíò_117-2" data-name="Áåçûìÿííûé ãðàäèåíò 117" x1="-86.46" y1="-22.65" x2="-92.44" y2="-16.67" gradientTransform="translate(45.79 21.59) rotate(-155.67) scale(1 -1)" xlink:href="#_Áåçûìÿííûé_ãðàäèåíò_117"/>
    <linearGradient id="_Áåçûìÿííûé_ãðàäèåíò_152-2" data-name="Áåçûìÿííûé ãðàäèåíò 152" x1="135.62" y1="43.62" x2="135.62" y2="29.56" xlink:href="#_Áåçûìÿííûé_ãðàäèåíò_152"/>
    <linearGradient id="_Áåçûìÿííûé_ãðàäèåíò_152-3" data-name="Áåçûìÿííûé ãðàäèåíò 152" x1="135.62" y1="43.62" x2="135.62" y2="29.56" xlink:href="#_Áåçûìÿííûé_ãðàäèåíò_152"/>
    <clipPath id="clippath-2">
      <path class="cls-57" d="m127.84,38.86s3.09-11.01,11.3-9.06c5.89,1.4,4.45,8.23,2.8,11.02-3.44,5.82-13.66,1.28-14.1-1.96Z"/>
    </clipPath>
    <linearGradient id="_Áåçûìÿííûé_ãðàäèåíò_178-4" data-name="Áåçûìÿííûé ãðàäèåíò 178" x1="-136.35" y1="-58.89" x2="-136.35" y2="-70.53" gradientTransform="translate(-23.02 -1.23) rotate(-142.06) scale(1.07 -1) skewX(1.95)" xlink:href="#_Áåçûìÿííûé_ãðàäèåíò_178"/>
    <linearGradient id="_Áåçûìÿííûé_ãðàäèåíò_178-5" data-name="Áåçûìÿííûé ãðàäèåíò 178" x1="-136.35" y1="-62.01" x2="-136.35" y2="-67.41" gradientTransform="translate(-23.02 -1.23) rotate(-142.06) scale(1.07 -1) skewX(1.95)" xlink:href="#_Áåçûìÿííûé_ãðàäèåíò_178"/>
    <linearGradient id="_Áåçûìÿííûé_ãðàäèåíò_144-3" data-name="Áåçûìÿííûé ãðàäèåíò 144" x1="-129.53" y1="-75.05" x2="-129.53" y2="-84.79" gradientTransform="translate(-9.39 -13.12) rotate(-126.21) scale(1 -1)" xlink:href="#_Áåçûìÿííûé_ãðàäèåíò_144"/>
    <linearGradient id="_Áåçûìÿííûé_ãðàäèåíò_154" data-name="Áåçûìÿííûé ãðàäèåíò 154" x1="139.5" y1="-83.58" x2="106.97" y2="-83.58" gradientTransform="translate(-14.22 21.94) rotate(29.37)" gradientUnits="userSpaceOnUse">
      <stop offset="0" stop-color="#e09ce0"/>
      <stop offset=".08" stop-color="#c488c4"/>
      <stop offset=".26" stop-color="#895f89"/>
      <stop offset=".44" stop-color="#583d58"/>
      <stop offset=".61" stop-color="#312231"/>
      <stop offset=".76" stop-color="#160f16"/>
      <stop offset=".9" stop-color="#050405"/>
      <stop offset="1" stop-color="#000"/>
    </linearGradient>
    <linearGradient id="_Áåçûìÿííûé_ãðàäèåíò_335" data-name="Áåçûìÿííûé ãðàäèåíò 335" x1="114.98" y1="65.92" x2="114.98" y2="0" gradientUnits="userSpaceOnUse">
      <stop offset="0" stop-color="#fff"/>
      <stop offset=".21" stop-color="#e6d8ee"/>
      <stop offset=".42" stop-color="#d3b9e1"/>
      <stop offset=".63" stop-color="#c5a3d8"/>
      <stop offset=".82" stop-color="#bc96d2"/>
      <stop offset="1" stop-color="#ba92d1"/>
    </linearGradient>
    <linearGradient id="_Áåçûìÿííûé_ãðàäèåíò_230-3" data-name="Áåçûìÿííûé ãðàäèåíò 230" x1="-181.18" y1="183.39" x2="-208.69" y2="183.39" gradientTransform="translate(-82.11) rotate(-180) scale(1 -1)" xlink:href="#_Áåçûìÿííûé_ãðàäèåíò_230"/>
    <linearGradient id="_Áåçûìÿííûé_ãðàäèåíò_197" data-name="Áåçûìÿííûé ãðàäèåíò 197" x1="111.12" y1="53.72" x2="121.51" y2="40.44" gradientUnits="userSpaceOnUse">
      <stop offset=".33" stop-color="#ba92d1"/>
      <stop offset="1" stop-color="#c960d1"/>
    </linearGradient>
    <linearGradient id="_Áåçûìÿííûé_ãðàäèåíò_72" data-name="Áåçûìÿííûé ãðàäèåíò 72" x1="-154.09" y1="181.28" x2="-154.09" y2="-.17" gradientTransform="translate(-82.11) rotate(-180) scale(1 -1)" gradientUnits="userSpaceOnUse">
      <stop offset=".07" stop-color="#2e0043"/>
      <stop offset=".42" stop-color="#541f52"/>
      <stop offset=".46" stop-color="#672f59"/>
      <stop offset=".52" stop-color="#783d60"/>
      <stop offset=".6" stop-color="#844764"/>
      <stop offset=".71" stop-color="#8b4d67"/>
      <stop offset="1" stop-color="#8d4f68"/>
    </linearGradient>
    <linearGradient id="_Áåçûìÿííûé_ãðàäèåíò_71" data-name="Áåçûìÿííûé ãðàäèåíò 71" x1="-214.03" y1="181.18" x2="-214.03" y2="0" gradientTransform="translate(-82.11) rotate(-180) scale(1 -1)" gradientUnits="userSpaceOnUse">
      <stop offset=".07" stop-color="#2e0043"/>
      <stop offset=".24" stop-color="#370846"/>
      <stop offset=".35" stop-color="#41104a"/>
      <stop offset=".37" stop-color="#4b184e"/>
      <stop offset=".44" stop-color="#632c57"/>
      <stop offset=".53" stop-color="#753b5e"/>
      <stop offset=".62" stop-color="#834664"/>
      <stop offset=".75" stop-color="#8a4d67"/>
      <stop offset="1" stop-color="#8d4f68"/>
    </linearGradient>
    <linearGradient id="_Áåçûìÿííûé_ãðàäèåíò_77" data-name="Áåçûìÿííûé ãðàäèåíò 77" x1="80.04" y1="108.67" x2="80.04" y2="96.08" gradientUnits="userSpaceOnUse">
      <stop offset="0" stop-color="#000"/>
      <stop offset=".1" stop-color="#050405"/>
      <stop offset=".24" stop-color="#160f16"/>
      <stop offset=".39" stop-color="#312231"/>
      <stop offset=".56" stop-color="#583d58"/>
      <stop offset=".74" stop-color="#895f89"/>
      <stop offset=".92" stop-color="#c488c4"/>
      <stop offset="1" stop-color="#e09ce0"/>
    </linearGradient>
    <linearGradient id="_Áåçûìÿííûé_ãðàäèåíò_77-2" data-name="Áåçûìÿííûé ãðàäèåíò 77" x1="119.68" y1="116.02" x2="119.68" y2="105.02" xlink:href="#_Áåçûìÿííûé_ãðàäèåíò_77"/>
    <linearGradient id="_Áåçûìÿííûé_ãðàäèåíò_321" data-name="Áåçûìÿííûé ãðàäèåíò 321" x1="103.41" y1="83.64" x2="102.15" y2="71.26" gradientUnits="userSpaceOnUse">
      <stop offset=".02" stop-color="#000"/>
      <stop offset=".13" stop-color="#09090c"/>
      <stop offset=".34" stop-color="#22212e"/>
      <stop offset=".62" stop-color="#4b4865"/>
      <stop offset=".95" stop-color="#827eb1"/>
      <stop offset="1" stop-color="#8b86bc"/>
    </linearGradient>
    <linearGradient id="_Áåçûìÿííûé_ãðàäèåíò_327-2" data-name="Áåçûìÿííûé ãðàäèåíò 327" x1="41.69" y1="107.65" x2="27.63" y2="121.71" xlink:href="#_Áåçûìÿííûé_ãðàäèåíò_327"/>
    <linearGradient id="_Áåçûìÿííûé_ãðàäèåíò_326-7" data-name="Áåçûìÿííûé ãðàäèåíò 326" x1="45.77" y1="104.24" x2="54.26" y2="104.24" xlink:href="#_Áåçûìÿííûé_ãðàäèåíò_326"/>
    <linearGradient id="_Áåçûìÿííûé_ãðàäèåíò_326-8" data-name="Áåçûìÿííûé ãðàäèåíò 326" x1="92.13" y1="124.47" x2="115.59" y2="124.47" xlink:href="#_Áåçûìÿííûé_ãðàäèåíò_326"/>
    <linearGradient id="_Áåçûìÿííûé_ãðàäèåíò_173" data-name="Áåçûìÿííûé ãðàäèåíò 173" x1="73.07" y1="77.81" x2="73.07" y2="60.44" gradientUnits="userSpaceOnUse">
      <stop offset="0" stop-color="#9c3be0"/>
      <stop offset=".08" stop-color="#8833c4"/>
      <stop offset=".26" stop-color="#5f2489"/>
      <stop offset=".44" stop-color="#3d1758"/>
      <stop offset=".61" stop-color="#220d31"/>
      <stop offset=".76" stop-color="#0f0516"/>
      <stop offset=".9" stop-color="#040105"/>
      <stop offset="1" stop-color="#000"/>
    </linearGradient>
  </defs>
  <g class="cls-65">
    <g id="Layer_2" data-name="Layer 2">
      <g id="_Ñëîé_1" data-name="Ñëîé 1">
        <g>
          <path class="cls-63" d="m114.79,77.18s-15.81-9.16-22.54-10.58c-6.73-1.42-16.07-.76-14.58.53.94.81,1.27,2.63,1.53,5.16.26,2.53-11.12,8.21-13.48,8.68-2.36.47-7.29-2.05-9.81-2.05s1.01.95-1.85,5.85c-2.86,4.89-.72,4.3-3.38,7.12-.71.75,63.22-9.19,63.22-9.19l.9-5.52Z"/>
          <g class="cls-37">
            <path class="cls-74" d="m114.79,77.18s-5.19-3.01-10.9-5.84c2.15,1.05-4.81,1.46-5.84,1.15-1.03-.32-4.26-3.13-7.26-4.08-3-.95-9.55-.71-13.13-1.28.94.81,1.27,2.63,1.53,5.16.26,2.53-11.12,8.21-13.48,8.68-.64.13-1.48.03-2.41-.17.02,0,.03.03.06.03.67.11-2.31,1.06-3.45.37-1.14-.68-4.42-1.18-4.87-1.39.22.81.55,2.3-1,4.95-2.23,3.82-1.42,4.3-2.22,5.67l5.96.56,1.35-.06c17.24-2.39,54.75-8.22,54.75-8.22l.9-5.52Z"/>
          </g>
          <path class="cls-61" d="m41.38,103.3s-6.22-.07-11.53,2.56c-3.76,1.86-9.89,8.34-9.32,8.75.58.41,9.74.88,13.47,3.83,3.74,2.95,3.53,6.89,4.26,7.16.74.26,4.24-6.18,4.99-8.21,2.52-6.84-.88-10.78.44-12.47s-2.31-1.61-2.31-1.61Z"/>
          <path class="cls-61" d="m75.65,105.97s-8.46,9.41-10.67,9.49c-2.21.08-.47-.55-.87-3.71-.39-3.16-2.76-7.66-5.13-8.68-1.9-.82-1.48-.64-1.48-.64,0,0-1.99-.93-3.89,1.4-1.89,2.33-2.37,2.88-2.84,2.56-.47-.32-.95-3.55-4.18-2.92-3.24.63,3.86-1.22,9.29-1.47,4.58-.21,11.32,1.95,13.76,1.83,2.45-.12,7.45-.23,6.01,2.15Z"/>
          <path class="cls-68" d="m137.41,116.65s9.66,1.73,17.32-3.25c7.66-4.97.69-16.1-4.29-29.6-4.98-13.5-14.23-20.88-14.23-20.88l-1.32-5.63s9.58-2.53,5.79-11.16c0,0,5.89-8.74,8.6-11.55,2.46-2.55,2.45-24.45-14.71-31.4s-23.95.13-25.41-1.53c-3.67-4.15-3.03.79-3.03.79,0,0-.45-1.45-1.5.55-1.05,2-1.95,4.6-3.74,7.76-1.79,3.16-15.68,12.63-7.47,26.95,0,0-2.9,12.93-8.31,15.78-4.34,2.29-19.24,9.34-26.76,17.05-9.39,9.63-10.66,15.43-6.08,22,4.58,6.58,16.88-7.05,16.88-7.05,0,0-16.05,21.58-20.78,33.68-4.74,12.1-14.84,25.26-23.37,29.68l3.58,4.84s19.68-2.21,29.89,0c0,0-1.89,9.26,1.68,8.53,0,0-1.47,5.16,8.1,3.37,9.58-1.79,20.74-2.74,23.79-1.26s8,6.95,8,10.84-.32,6-.32,6l6.32-2.32s9.89-9.37,15.79-18.21c5.89-8.84,17.27-16.25,15.37-43.83l.21-.17Z"/>
          <path class="cls-55" d="m73.05,157.97c-19-6.37-21.47-27.63-11.37-44.05,10.1-16.42,20.42-24.82,20.58-25.85.16-1.03,2.08-14.34,5.71-16.63,3.63-2.29,7.26,5.37,7.26,5.37,0,0-4.7-21.63-1.11-24.31,1.85-1.38,3.55-.16,3.55-.16-.11-3.58-.68-9.79-2.68-13.26-1.07-1.87-3.92-7.64-1.58-12.74,3.34-7.26,8.69-4.48,8.69-4.48,2.95-6.21,14.47-11.64,22.68-9.62,9.15,2.25,5.32,12.64,5.32,12.64,0,0,9.68-10.39,14.89.2,3.42,6.95-2.84,19.05-2.84,19.05,3.79,10.32-7.15,13.13-7.15,13.13,0,0,3.22,13.32,3.26,18.15.05,7.49-2.42,9.14-4.63,14.27-.92,2.14-4.01,5.24-1.58,10.03,3.89,7.68,13.47,32.31-4.31,53.3-15.89,15.09-35.69,11.33-54.69,4.96Z"/>
          <path class="cls-42" d="m135.62,57.06c-7.62,1.81-26.16,3.22-34.3-7.71-8.13-10.94-7.9-11.63-7.9-11.63,0,0,7.34,17.2,17.55,20.88,10.21,3.68,24.65-1.54,24.65-1.54Z"/>
          <path class="cls-56" d="m122.63,35.36c-2.44.56-6.2,1.64-9.39,3.85l.08.54s-.08,10.86,2.8,12.09c3.15,1.34,9.92-5.54,9.92-5.54l.38-.15s.5-4.2-.9-9.05c-.46-1.6-1.27-2.1-2.89-1.73Z"/>
          <path class="cls-9" d="m58.42,77.8s2.5-7.15,8.76-12.26c6.27-5.11,23.35-13.32,19.83-6.63-3.52,6.68-14.07,21.25-14.07,21.25,0,0-6.34-2.47-14.53-2.36Z"/>
          <path class="cls-14" d="m124,36.23c-1.72-1.18-4.38,3.08-5.25,8.64-.57,3.65,1.79,1.99,4.57-1.64,2.71-3.53,2.28-5.9.68-7Z"/>
          <path class="cls-47" d="m87.02,59.91l-14.07,20.25c-5.21-1.59-14.53-2.36-14.53-2.36,1.82-7.5,12.54-16.67,23.3-22.58-6.22,3.19-17.25,9.03-23.38,15.31-9.39,9.63-10.66,15.43-6.08,22,4.58,6.58,16.88-7.05,16.88-7.05,0,0-1.66,2.23-4.06,5.65l11.38-9.79,10.55-21.45Z"/>
          <path class="cls-16" d="m105.25,36.73c2.13-3.77-.37-14.99-6.6-14.67-6.22.32-7.5,10.56-4.2,13.94,3.3,3.38,8.39,4.99,10.8.73Z"/>
          <path class="cls-34" d="m68.58,91.28s-8.22,1.53-20.22,27.9c-5.38,11.83-14.84,25.26-23.37,29.68l3.58,4.84s19.68-2.21,29.89,0c0,0-1.89,9.26,1.68,8.53,0,0-1.47,5.16,8.1,3.37,9.58-1.79,20.74-2.74,23.79-1.26,3.05,1.47,8,6.95,8,10.84s-.32,6-.32,6l6.32-2.32s9.89-9.37,15.79-18.21c1.66-2.49,3.77-4.88,5.9-7.64,10.36-12.23,11.43-25.69,9.74-36.32.06.02,5.62.79,10.62-.51,1.6-.42,14.53-3.36,7.54-12.12-6.62-8.3-20.03-18.32-20.03-18.32-.64,1.17-1.33,2.4-1.99,3.94-.47,1.09-1.5,2.44-2.08,4.12-.15.47-2.01,2.54-6.08,2.75-9.48.5-29.21-7.42-33.31-9.24-4.1-1.82-6-11.76-4.1-16.82,1.89-5.05-14.9-15.38-29.7.04-23.13,24.09,10.24,20.73,10.24,20.73Z"/>
          <path class="cls-22" d="m111.03,129.08s2.15,2.19,2.81,3.69,5.83-.79,5.83-.79l-5.43-5.51-4.77,1.66,1.56,1.33v-.38Z"/>
          <path class="cls-11" d="m131.42,53.23c-3.96-4.37,1.13-8.85,6.79-8.32,5.65.53,5.25,6.37,2.34,8.92s-7.54,1.16-9.13-.6Z"/>
          <path class="cls-53" d="m103.48,35.58c3.95-2.79-1.67-12.69-5.65-11.48-6.34,1.94.39,15.2,5.65,11.48Z"/>
          <path class="cls-53" d="m141.43,47.14c-1.58-3.94-9-1.31-8.81,2.52.3,6.09,10.92,2.74,8.81-2.52Z"/>
          <path class="cls-67" d="m28.58,153.7s-4,1.16-6.74,3.68c0,0-11.53-10.63-21.21-14.89,0,0,2.26-1.37,3.79-1.47,1.53-.11,2.26.37,2.26.37,0,0-4-5.84-6.68-7.95,0,0,4.74-.58,8.05,0,3.32.58,3.95,1.47,3.95,1.47l-2.84-2.84s5.32-.47,7.37.84c2.05,1.32,6.79,16.47,6.79,16.47,0,0,2.32-1.05,4.16-1.11s-.37,2.79-.37,2.79c0,0,5.89,1.26,1.47,2.63Z"/>
          <path class="cls-39" d="m21.84,157.39s-11.53-10.63-21.21-14.89c0,0,2.08-1.03,5.32.63,3.23,1.66,6.63,4.34,6.63,4.34l-5.89-6.08s-4-5.84-6.68-7.95c0,0,7.06-.13,9.5,1.95,2.44,2.08,9,10.5,9,10.5,0,0-4.5-9.39-6.5-10.97,0,0-.04-.05-.13-.13l-2.72-2.72s6.22.36,8.08,4.82,5.84,17.29,5.84,17.29c1.84-.27,4.3-.45,5.68-.54-.06.02-.11.04-.18.06,0,0-4,1.16-6.74,3.68Z"/>
          <path class="cls-77" d="m122.92,104c-1.64-.39.53,4.16.53,4.16,0,0-2.58,2.55-6.29,2.55,0,0,1.58,3.24-1.18,7.5-2.76,4.26-5.6,7.1-5.6,7.1,0,0,5.81,6.47,6.54,8.13.72,1.66,8.22-1.42,11.86-4.18,3.63-2.76,6.55-9.95,6.24-12.32s-10.1-12.48-12.08-12.95Z"/>
          <path class="cls-51" d="m128.32,112.69c-.34.59-3.15,5-10.69,3-.15-.04-.27-.08-.41-.11-.1.32-.22.65-.36.99,1.47.48,8.49,2.39,11.46-3.88Z"/>
          <path class="cls-51" d="m121.67,123.22s-4.3,1.25-8.93-.6c-.32.39-.6.73-.87,1.04,1.37.49,4.92,1.36,9.8-.44Z"/>
          <path class="cls-51" d="m131.26,121.82s-6.07,8.57-16.64,7.98c-.14,0-.26-.02-.4-.02.52.63,1.03,1.26,1.46,1.83,1.05-.39,11.04-1.79,15.58-9.78Z"/>
          <path class="cls-51" d="m124.55,118.17c-.48.34-3.73,2.45-9.15.88-.21.31-.41.61-.62.9,2.32.56,6.41.96,9.77-1.78Z"/>
          <path class="cls-51" d="m114.44,128.81s5.95.28,11.41-6c0,0-6.69,5.69-12.81,4.31-.58-.13-1.03-.27-1.44-.41.53.61,1.18,1.35,1.84,2.14.58-.03.99-.05.99-.05Z"/>
          <polygon class="cls-22" points="74.58 81.01 87.02 59.91 76.47 81.36 74.58 81.01"/>
          <path class="cls-22" d="m109.42,105.47l-44.05-7.85-1.08,6.21-5.79-2.59-1.9,2.73s9.63,8.4,17.98,12.04c11.18,4.87,20.29,6.73,20.29,6.73,0,0-5.31,5.34-4.99,5.66.32.32,3.63,5.35,4.5,7.18.87,1.82,16.42-3.94,17.7-5.83,1.28-1.89,2.7-5.21,2.7-5.21,0,0,10.82-.52,13.97-1.11,6.79-1.26,9.12-3.08,9.12-3.08v-2.01l-28.46-12.87Z"/>
          <path class="cls-61" d="m82,62.08c-.2-.59.31-1.18.93-1.06,4.33.9,17.4,4.21,25.86,12.67,10.26,10.26-32.89,6.77-32.89,6.77,0,0,9.64-7.98,6.09-18.39Z"/>
          <path class="cls-61" d="m70.89,80.92s-5.97-3.41-11.07-4.14c-.51-.07-.98.33-.95.85.09,1.56-.05,4.78-2.27,7.68-3.07,4.02,11.76,0,11.76,0l2.53-4.39Z"/>
          <path class="cls-20" d="m105.64,79.83l-1.78-5.86s-3.15-4.27-10.15-8.06c-4.43-2.39-7.98-3.07-9.97-3.52,13.42,3.39,16.6,10.2,16.6,10.2-1.11.32-11.58,5.84-12.74,6.27-1.16.43-11.48,1.41-11.48,1.41-.14.13-.22.19-.22.19,0,0,20.3,1.64,29.74-.64Z"/>
          <path class="cls-5" d="m137.53,69.6c1.48,6.88-2.66,9.26-6.29,9.81-3.11.47.86-.54,3.38-9.38.54-1.91.72-3.88.59-5.83-.28-4.03.56-2.79,2.32,5.4Z"/>
          <path class="cls-43" d="m66.66,85.74l1.7-3.8s-3.74-3.15-6.91-3.82c-.23-.05-.43-.1-.62-.14,3.44,1,4.88,3.01,4.88,3.01,0,0-1.58.16-3.45.65-1.86.49-5.36,3.26-5.36,3.26-.12.14-.2.28-.31.42-2.42,3.17,6.26,1.35,10.06.43Z"/>
          <path class="cls-49" d="m37.61,108.19c.63,2.29-2.33,8.05-1.3,7.58s5.68-8.6,5.96-3.08c.14,2.74-.7,5.42-1.58,7.43.93-1.75,1.83-3.55,2.13-4.82.79-3.36.08-7.93-1.18-7.1s-4.22,6.51-4.54,5.96c-.32-.55,2.33-4.66,2.57-6.08.24-1.42-1.93-4.1-8.72-1.11-3.88,1.72-6.38,4.05-8.01,5.68,7.58-6.31,14.05-6.75,14.68-4.46Z"/>
          <path class="cls-35" d="m52.85,102.66l-1.8,2.94c.53-.8,1.46-1.94,1.91-2.54.67-.88.99-.88.99-.88l.31-.08c-5.09.47-10.6,1.93-7.68,1.36.91-.18,1.59-.04,2.12.24-.52-.36,4.14-1.04,4.14-1.04Z"/>
          <path class="cls-18" d="m103.87,73.98s-3.15-4.27-10.15-8.06c-6.95-3.76-11.76-3.28-11.71-4.34-.05.16-.07.33,0,.51,3.54,10.41-6.09,18.39-6.09,18.39,0,0,20.3,1.64,29.74-.64l-1.78-5.86Z"/>
          <path class="cls-19" d="m56.6,85.31c-2.42,3.17,6.26,1.35,10.06.43l1.7-3.8s-3.74-3.15-6.91-3.82c-1.78-.38-2.29-.75-2.4-1.01-.12.15-.2.32-.19.53.09,1.56-.05,4.78-2.27,7.68Z"/>
          <path class="cls-79" d="m162.79,94.86s-4-6.73-18.63-19.89c-11.05-9.95-40.29-3.89-53.63,3.15-1.62.85-3.39,1.36-5.22,1.52-6.44.56-21.27,1.87-22.63,2.11-1.74.32-20.05,11.05-22.26,25.26,0,0-.32,2.21,2.84-1.42,3.16-3.63,15.79-4.1,20.05-2.53,4.26,1.58,11.21,1.89,11.21,1.89,0,0,12.63,13.26,39.31,8.68,0,0,5.68,5.84,23.84,2.21,18.16-3.63,21.16-7.74,23.53-9.95s4.74-11.53,4.74-11.53l-3.16.47Z"/>
          <g class="cls-30">
            <path class="cls-62" d="m52.28,102.44c-4.61.48-9.07-4.47-3.43-10.51-1.27,1.32-2.49,2.74-3.6,4.25-.15.24-4.84,8.29.95,7.58,1.83-.68,4.07-1.12,6.38-1.35-.11.01-.19.02-.31.03Z"/>
          </g>
          <g class="cls-30">
            <path class="cls-62" d="m79.21,80.17c-3.49.31-7.4.66-10.54.96-10.76,2.85-6.93,15.25-4.61,19.99.74,1.51,2,2.44,3.36,3.01,2.55.48,5.07.69,6.32.78-12.95-3.26-3.47-22.53,5.48-24.74Z"/>
          </g>
          <g class="cls-30">
            <path class="cls-62" d="m61.46,82.28c-1.59.82-4.41,2.56-7.49,5.02-8.38,7.95-1.91,13.4,2.3,14.92,2.89-.01,5.51.28,7.05.85-7.37-2.89-9.12-15.96-1.86-20.79Z"/>
          </g>
          <g class="cls-30">
            <path class="cls-62" d="m105.94,72.45c-4.88,2.66-12,9.2-8.94,22.88,2.49,11.12,29.58,22.74,17.58,14.95-11.94-7.75-11.68-37.7,13.34-40.5-7-.29-14.85.83-21.97,2.67Z"/>
          </g>
          <g class="cls-30">
            <path class="cls-62" d="m93,103.86c-11.15-10.73-5.17-25.44,10.65-30.79-5.05,1.44-9.64,3.21-13.12,5.05-.48.25-.97.46-1.47.65-8.54,4.64-19.95,21.19-2.45,33.19,6.42,2.25,15.46,3.71,27.23,1.69,0,0-9.68.95-20.84-9.79Z"/>
          </g>
          <path class="cls-21" d="m146.89,111.54c-8.95,1.45-22,.32-23.37-2.73-1.37-3.04-.84-3.72-.84-3.72,0,0-6.62,7.3-11.89-.61-5.28-7.91-1.81-21.47-1.81-21.47-8.34,8.52-4.92,20-4.92,20-11.58,5.63-18.19-2.17-19.03-4.99-.84-2.82-3.6-1.32-3.6-1.32-3.47,1.79-6.1-.74-10.32-2.11-4.21-1.37-4.84-1.89-11.79.95-6.95,2.84-11.24,5.71-11.4,3.79-.12-1.4.67-5.06,3.96-9.26,4.71-5.38,9.32-7.86,13.41-7.75,4.43-.43,12.54-.67,19.55-1.67,7.55-1.08,7.12-3.38,19.02-6.68,11.71-3.25,25.7-4.75,35.52-.89.02,0,.05.02.07.03.04.02.07.03.11.05.35.14.69.3,1.04.47.26.12.53.22.79.35,1.31.66,2.06,1.14,2.38,1.48,2.85,1.89,5.26,4.05,5.73,4.48-1.61-1.54-3.37-3.2-5.35-4.98-11.05-9.95-40.29-3.89-53.63,3.15-1.62.85-3.39,1.36-5.22,1.52-6.44.56-21.27,1.87-22.63,2.11-.58.11-3.02,1.39-6.09,3.57-.07.04-.15.11-.23.16-.19.14-.39.28-.58.43-.17.12-.33.24-.5.37-.22.16-.43.33-.65.5-.29.22-.58.45-.87.69-.18.15-.36.29-.54.44-.2.17-.4.34-.6.51-.17.14-.34.29-.51.44-.21.18-.41.36-.62.54-.04.03-.07.06-.11.09-4.95,4.47-9.87,10.58-10.95,17.52,0,0-.32,2.21,2.84-1.42,3.16-3.63,15.79-4.1,20.05-2.53,4.26,1.58,11.21,1.89,11.21,1.89,0,0,12.63,13.26,39.31,8.68,0,0,5.68,5.84,23.84,2.21,18.16-3.63,21.16-7.74,23.53-9.95.14-.13.27-.28.41-.45-2.84,2.54-5.78,4.63-14.72,6.08Z"/>
          <g class="cls-37">
            <path class="cls-74" d="m153.26,98.02c3.79-1.58,9.52-3.16,9.52-3.16,0,0-.12-.2-.38-.58,0,0-.8,0-3.62.52-2.59.48-5.52,3.22-5.52,3.22Z"/>
          </g>
          <g class="cls-31">
            <path class="cls-74" d="m108.97,83.02s-7.03,17.1,5.81,27.52c0,0-16.89-6.99-5.81-27.52Z"/>
          </g>
          <path class="cls-61" d="m104.68,107.8c-1.64-.39.53,4.16.53,4.16,0,0-2.58,2.55-6.29,2.55,0,0,1.58,3.24-1.18,7.5-2.76,4.26-5.61,7.1-5.61,7.1,0,0,5.81,6.47,6.54,8.13.72,1.66,8.22-1.42,11.86-4.18,3.63-2.76,6.55-9.95,6.24-12.32-.32-2.37-10.1-12.48-12.08-12.95Z"/>
          <path class="cls-46" d="m105.07,111.65c.08.18.14.3.14.3,0,0-2.58,2.55-6.29,2.55,0,0,1.09,2.25-.15,5.47,0,.01,4.28-5.68,6.93-5.6,0,0,5.57,4.85,7.89,6.95,2.33,2.09-1.33,8.21-3.55,10.27-2.21,2.06-9.07,5.46-9.12,5.48,3.25-.87,8.33-4.26,9.68-5.33,1.79-1.42,6.26-8.95,4.63-10.63-1.63-1.68-9.37-7.68-10.17-9.47Z"/>
          <g class="cls-48">
            <path class="cls-74" d="m153.26,98.02l9.52-3.16s-.39-1.47-9.52,3.16Z"/>
          </g>
          <g class="cls-48">
            <path class="cls-74" d="m130.1,83.41s2.61-2.68,4.18-2.68,3.47,2.29,3.47,2.29c0,0-2.05-2.61-3.39-2.84-1.34-.24-4.26,3.23-4.26,3.23Z"/>
          </g>
          <g class="cls-38">
            <path class="cls-81" d="m122.3,100.03c-2.99-7.96,7.24-17.25,10.91-19.5s11.26,10.83,9.89,18.6-20.8.9-20.8.9Z"/>
          </g>
          <g>
            <path class="cls-80" d="m142.8,96.7s-.9-7.83-9.51-8.67c-8.61-.84-12.25,8.61-11.04,9.16,2.67,1.22,20.54-.49,20.54-.49Z"/>
            <path class="cls-29" d="m142.94,100.9c-1.92,7.1-6.16,8.43-11.61,7.77-5.46-.66-9.06-6.26-9.16-9.75-.11-3.49,20.78,1.99,20.78,1.99Z"/>
            <g class="cls-76">
              <path class="cls-58" d="m143.1,99.14c-.09-4.23-2.58-10.24-10.02-10.34-7.9-.11-11.55,6.95-11.63,9.96-.12,4.37,4.1,8.15,10.96,8.96,6.86.81,10.79-4.11,10.7-8.58Z"/>
              <g>
                <g>
                  <path class="cls-50" d="m126.62,93.67c-.8,2.45.78,5.04,3.52,5.77,2.75.74,5.63-.66,6.43-3.11.8-2.45-.78-5.04-3.52-5.77-2.75-.74-5.63.66-6.43,3.11Z"/>
                  <path class="cls-8" d="m127.38,100.84c-1.98,3.24-.65,7.66,2.97,9.88,3.62,2.21,8.16,1.38,10.14-1.86,1.98-3.24.65-7.66-2.97-9.88-3.62-2.21-8.16-1.38-10.14,1.86Z"/>
                </g>
                <path class="cls-32" d="m121.28,100.71c1.23-12.64,22.59-11.41,22.09.37-1.01,23.93,3.22,5.66,3.22,5.66l-2.88-13.39-13.87-10.14s-9.68.2-10.51,1.82-1.54,9.85-1.54,9.85l3.49,5.83Z"/>
                <g>
                  <path class="cls-54" d="m129.15,94.98c.18-.14.31-1.31-.33-2.07-.64-.76-1.79-.86-1.98-.69-.19.17-.31,1.31.33,2.07.64.76,1.75.87,1.98.69Z"/>
                  <path class="cls-54" d="m130.42,96.52c.07-.06.21-.43.06-.61-.15-.18-.53-.12-.61-.05-.08.07-.21.43-.06.61.15.18.52.12.61.05Z"/>
                </g>
              </g>
            </g>
          </g>
          <g>
            <path class="cls-24" d="m109.92,16.81c5.96-3.5,20.79-1.5,15.04,9.33-1.25,2.35-4.71,9.7-7.88,8.06l-7.15-17.38Z"/>
            <path class="cls-23" d="m117.08,34.19s-3.09,1.62-8.43-2.89c-5.88-4.97-3.45-9.1-2.39-10.35,1.06-1.24,10.82,13.24,10.82,13.24Z"/>
            <path class="cls-75" d="m118.11,32.71s7.47-8.02,1.11-14.49c-.92-.94-1.87-1.89-4.15-2.39-4.36-.95-9.52,3.57-8.29,5.62.65,1.08-.7,1.94-.7,1.94l12.04,9.32Z"/>
            <g>
              <path class="cls-60" d="m117.08,34.19s8.85-8.27,1.52-15.22c-5.27-4.99-11.07-.31-12.75,2.62-3.5,6.11,7.74,13.74,11.23,12.6Z"/>
              <g class="cls-71">
                <path class="cls-32" d="m105.54,22.23c4.18-6.17,19.14.43,14.69,8.99-4.45,8.56,9.49-8.25,9.49-8.25l-9.17-10.07-13.48-.59-3.63,7.37,2.11,2.55Z"/>
                <g>
                  <path class="cls-27" d="m119.41,30.09c-1.14,3.13-4.45,4.92-7.39,4.01-2.94-.92-4.39-4.19-3.25-7.32s4.45-4.92,7.39-4.01c2.94.92,4.39,4.19,3.25,7.32Z"/>
                  <path class="cls-52" d="m116.58,29.21c-.54,1.46-2.09,2.3-3.46,1.88-1.38-.43-2.06-1.96-1.52-3.43.54-1.46,2.09-2.3,3.46-1.88s2.06,1.96,1.52,3.43Z"/>
                  <path class="cls-4" d="m116.02,33.72c-.25,2.73-2.87,4.85-5.86,4.73-2.99-.12-5.21-2.44-4.97-5.17s2.87-4.85,5.86-4.73c2.99.12,5.21,2.44,4.97,5.17Z"/>
                </g>
                <g>
                  <path class="cls-54" d="m114.19,25.08c-.13.07-1.05-.49-1.55-1.47-.51-.97-.44-2-.28-2.06.16-.06,1.05.49,1.55,1.47.51.97.45,1.97.28,2.06Z"/>
                  <path class="cls-54" d="m114.85,26.86c-.05.03-.32,0-.39-.13-.07-.14.06-.35.13-.38.06-.03.32,0,.39.13.07.14-.06.34-.13.38Z"/>
                </g>
              </g>
            </g>
            <path class="cls-59" d="m121.83,16.2s5.17,1.63,4.24,6.33c0,0,3.18-4.73-4.24-6.33Z"/>
          </g>
          <g>
            <path class="cls-33" d="m144.12,35.24c.47-6.33-6.73-16.54-12.99-6.55-1.36,2.17-5.78,8.61-3.29,10.16l16.28-3.61Z"/>
            <path class="cls-26" d="m127.84,38.86s-.09,3.19,5.46,4.88c6.11,1.87,8.41-2.12,8.98-3.57.57-1.45-14.44-1.32-14.44-1.32Z"/>
            <path class="cls-75" d="m128.6,37.3s3.42-9.83,10.88-8.37c1.08.21,2.18.43,3.44,1.91,2.4,2.81.83,9.07-1.23,9.21-1.09.07-1.25,1.54-1.25,1.54l-11.84-4.28Z"/>
            <g>
              <path class="cls-70" d="m127.84,38.86s3.09-11.01,11.3-9.06c5.89,1.4,4.45,8.23,2.8,11.02-3.44,5.82-13.66,1.28-14.1-1.96Z"/>
              <g class="cls-64">
                <path class="cls-32" d="m141.56,41.38c3.23-6.38-7.61-14.28-12.59-6.46-4.98,7.82,2.83-11.48,2.83-11.48l11.34,1.71,5.59,9.91-4.37,6.59-2.79-.27Z"/>
                <g>
                  <path class="cls-36" d="m129.94,35.49c-2.03,2.51-1.83,6.04.45,7.88,2.27,1.84,5.76,1.29,7.79-1.22,2.03-2.51,1.82-6.04-.45-7.88-2.27-1.84-5.76-1.29-7.79,1.22Z"/>
                  <path class="cls-44" d="m132.15,37.27c-.94,1.17-.85,2.8.21,3.65,1.05.85,2.67.6,3.61-.57.94-1.17.85-2.8-.21-3.65-1.05-.85-2.67-.6-3.61.57Z"/>
                  <path class="cls-3" d="m128.65,40.02c-2.16,1.6-2.58,4.76-.94,7.05,1.64,2.29,4.72,2.84,6.88,1.24,2.16-1.6,2.58-4.76.94-7.05s-4.72-2.84-6.88-1.24Z"/>
                </g>
                <g>
                  <path class="cls-54" d="m133.53,35.3c.13-.03.4-.71.13-1.39-.27-.68-.95-1.11-1.1-1.06-.15.05-.4.71-.13,1.39.27.68.93,1.1,1.1,1.06Z"/>
                  <path class="cls-54" d="m134.16,36.98c.05-.01.21-.17.16-.3-.05-.13-.28-.19-.34-.17-.06.02-.21.17-.16.3.05.13.27.19.34.17Z"/>
                </g>
              </g>
            </g>
            <path class="cls-59" d="m140.07,25.9s-3.24-3.07-6.55.07c0,0,2.48-4.87,6.55-.07Z"/>
          </g>
          <path class="cls-1" d="m147.17,17.34c1.61,9.15-14.34-.66-25.64-11.19-10.43-9.72,22.45-6.92,25.64,11.19Z"/>
          <path class="cls-73" d="m129.18,13.09c-2.23-1.01-3.58-1.7-3.78-3.1-.2-1.41,8.45,5.22,3.78,3.1Z"/>
          <path class="cls-25" d="m109.16,1.66c-3.67-4.15-3.03.79-3.03.79,0,0-.45-1.45-1.5.55s-1.95,4.61-3.74,7.76-15.68,12.63-7.47,26.95c0,0-2.22,9.89-6.39,14.28,1.13-1.07,6.77-5.54,13.4,4.19,7.42,10.89,25.89,12.87,35.44,4.83-.49-2.21-.86-3.75-.86-3.75,0,0,8.88-2.29,7.86-10.29.77,9.01-17.03,11.81-28.35,9.52-11.33-2.29-16.31-13.58-19.26-24.08-2.96-10.5,4.79-11.06,4.79-11.06-.06-2.87,3.61-17.39,13.89-20.48-2.7.68-4.18,1.46-4.77.78Z"/>
          <path class="cls-22" d="m105.21,160.22c-5.79-3.47-27.84-.79-34.88-3.32-7.04-2.53-6.81-6.84-31.02-4.01,6.27-.29,13.95-.32,19.16.81,0,0-1.89,9.26,1.68,8.53,0,0-1.47,5.16,8.1,3.37,9.58-1.79,20.74-2.74,23.79-1.26s8,6.95,8,10.84-.32,6-.32,6l3.11-1.14c2.8-7.09,6.12-17.56,2.37-19.82Z"/>
          <path class="cls-51" d="m128.76,129.26c3.63-2.76,6.55-9.95,6.24-12.32-.01-.08-.06-.19-.09-.29l-17.83-.64-.02.05c-.11.3-.25.61-.4.93l-.02.05c2.79,3.4,14.63,3.31,14.63,3.31,0,0,1.53,2.14-1.84,6.36-3.37,4.22-11.84,7.16-12.51,6.73.72,1.66,8.22-1.42,11.86-4.18Z"/>
          <path class="cls-66" d="m118.13,190.09s-15.69-5.71-19.06-6.23c0,0,0-1.26.84-4.42.79-2.95,2.09,0,2.09,0,0,0,3.51-6.32,4.21.21,0,0,7.32-1.16,11.21-1.42,3.89-.26,8.21,6,8.21,6l-1.53.16,2.47,3.37-8.84.11.4,2.23Z"/>
          <path class="cls-39" d="m125.63,184.23l-1.53.16,2.47,3.37-8.84.11.4,2.23s-15.69-5.71-19.06-6.23c0,0,0-1.26.84-4.42-.51,3.79.3,4.21.3,4.21,5.58.79,16.79,4,16.79,4,0,0-2.3-5.34-4.42-5.63-2.12-.29-9.58,0-9.58,0,0,0,12.58-1.37,14.42-.53,1.84.84,7.74,4.84,7.74,4.84,0,0-5.16-6.37-7.47-6.42-2.32-.05-11.47-.26-11.47-.26,0,0,7.32-1.16,11.21-1.42,3.89-.26,8.21,6,8.21,6Z"/>
          <path class="cls-75" d="m111.92,38.87s1.89.26,2.43.79,3.34,6.83,4.38,7.91c.63.66,5.84-1.7,6.63-1.96.79-.26,2.05,1.42,1.89,2.05-.16.63-.9.05-1.16-.63-.26-.68-.07-1.63-1-.79-.93.84-5.83,3.81-7.52,3.81s-2.72-7.57-2.76-8.6c-.04-1.03-1.61-1.21-2.14-1.26-.53-.05-1.34-1.42-.75-1.32Z"/>
          <path class="cls-45" d="m121.5,35.63c1.73.1-.83-.12-2.61,8.44-.87,4.19.37,3.32,5.39,1.54,2.31-.82,3.13,1.6,3.27,2.25s-.95.82-1.42.61c-.47-.21-.51-1.06-.87-1.08-.36-.01-5.77,6.79-9.87,6.08-2.93-.51-2.33-12.13-2.34-12.68-.02-.55-.95.5-1.68-.37s-1.24-2.08.35-1.78c1.59.3,8.2-3.09,9.78-3Z"/>
          <path class="cls-82" d="m71.29,102.87c-5.28.26-12.52-.59-12.52-.59,0,0,14.34,7.8,19.79,8.32,5.45.52,8.45-11.72,5.45-14.87-3-3.16-7.43,6.89-12.71,7.15Z"/>
          <path class="cls-69" d="m130.1,115.7c-3.32-.24-6-4.11-6.47-7.9-.47-3.79-1.11-4.18-4.26-2.45-3.16,1.74-7.58,6.55-3.47,10.41,4.1,3.86,18.63,4.59,33.7,0,0,0-8.37-.52-11.91.09-1.53.26-4.26.08-7.58-.16Z"/>
          <path class="cls-6" d="m78.5,98.6c-4.74,4.92-3.97,9.54,0,10.02,3.97.48,6.43-2.77,6.35-7.87-.08-5.1-2.32-6.34-6.35-2.15Z"/>
          <path class="cls-13" d="m114.96,109.91c1.73-3.35,8.17-7.55,8.33-2.64.15,4.91,3.94,9.26-.56,8.7-4.5-.56-10.05-1.64-7.77-6.06Z"/>
          <path class="cls-7" d="m103.87,73.98c12.54-3.48,27.69-4.96,37.53,0,9.66,4.86-10.22.21-19.36,2.07s-25.48,10.95-37.19,11.26c-11.71.32-21.97-2.74-22.81-4.06-.84-1.31,12.23-1.08,22.81-2.6,7.55-1.08,7.12-3.38,19.02-6.68Z"/>
          <path class="cls-28" d="m42.82,115.29c.79-3.36.08-7.93-1.18-7.1s-4.22,6.51-4.54,5.96c-.32-.55,2.33-4.66,2.57-6.08.24-1.42-1.93-4.1-8.72-1.11-6.79,3-9.36,7.88-10.41,7.64.58.41,9.74.88,13.47,3.83,3.42,2.7,3.53,6.23,4.1,7.01-.14-.98,4-7.1,4.72-10.15Z"/>
          <path class="cls-41" d="m46.58,103.46c3.24-.63,3.71,2.61,4.18,2.92-.23-.34,1.53-2.44,2.2-3.32.67-.88.99-.88.99-.88l.31-.08c-5.09.47-10.6,1.93-7.68,1.36Z"/>
          <path class="cls-40" d="m110.61,131.75c1.79-1.42,6.26-8.95,4.63-10.63-1.63-1.68-9.37-7.68-10.17-9.47.08.18.14.3.14.3,0,0-2.58,2.55-6.29,2.55,0,0,1.58,3.24-1.18,7.5-2.76,4.26-5.61,7.1-5.61,7.1,0,0,5.24,5.83,6.38,7.84,1.92,1.74,10.3-3.78,12.09-5.2Z"/>
          <path class="cls-2" d="m153.26,98.3v-.28c1.97-.77,9.52-3.16,9.52-3.16l3.16-.47s.24,1.95-12.68,3.92Z"/>
          <path class="cls-51" d="m91.17,75.35s-3.69-2.2-10.13-1.57c-.18.37-.38.73-.58,1.08,2.12-.49,6.17-1.02,10.71.49Z"/>
          <path class="cls-51" d="m90.77,76.77s-5.33-2.03-11.3-.34c-.23.33-.45.64-.68.93,3.73-.61,8.7-1.18,11.98-.58Z"/>
          <path class="cls-51" d="m95.28,74.2s-3.06-3.25-12.79-4.61c-.08.39-.17.78-.28,1.15,3.25.09,8.76.69,13.07,3.45Z"/>
          <path class="cls-51" d="m91.57,70.33s-3.16-2.46-8.8-3.36c0,.26-.01.51-.03.76,2.05.14,5.64.68,8.83,2.6Z"/>
          <path class="cls-51" d="m96.98,69.39s-6.17-4.65-14.49-5.5c.06.27.1.54.14.81,2.95.39,7.96,1.51,14.35,4.69Z"/>
          <path class="cls-51" d="m65.06,80.56c-2.51-1.31-4.94-1.87-6.18-2.08,0,.21,0,.42-.02.65,2.54-.05,6.2,1.43,6.2,1.43Z"/>
          <path class="cls-51" d="m58.28,82.12c-.06.17-.13.35-.2.52,1.44-.81,3.27-1.01,3.27-1.01-1.28-.02-2.36.25-3.07.49Z"/>
          <path class="cls-51" d="m64.14,81.13c-2.04-.63-4.15-.62-5.47-.53-.04.23-.09.45-.15.69,2.23-.55,5.62-.16,5.62-.16Z"/>
          <path class="cls-51" d="m41.08,111.11c-.3,5.99-3.44,9.7-4.36,10.67.16.32.3.63.41.93,4.87-5.03,3.94-11.59,3.94-11.59Z"/>
          <path class="cls-51" d="m35.53,119.93c3.41-2.97,4.05-7.48,4.05-7.48-1.49,3.48-3.99,5.63-5.06,6.43.38.34.71.7,1.01,1.05Z"/>
          <path class="cls-51" d="m34.53,110.08c-4.26,1.63-6.69,4.18-7.79,5.62.61.13,1.23.27,1.86.43,1.85-3.73,5.94-6.04,5.94-6.04Z"/>
          <path class="cls-51" d="m31.84,108.19c-4.27,1.35-8.29,5.31-9.65,6.75.51.08,1.11.16,1.77.27,2.56-4.22,7.88-7.02,7.88-7.02Z"/>
          <path class="cls-51" d="m36.78,113.99l-4.54,3.39c.36.17.71.35,1.03.55l3.51-3.94Z"/>
          <path class="cls-51" d="m51.88,103.24c-1.59-.12-2.74.28-3.18.46.17.09.32.19.46.3.87-.66,2.71-.76,2.71-.76Z"/>
          <path class="cls-51" d="m50.33,105.62c.04.08.08.16.12.24.22-.63.61-1.06.61-1.06-.34.24-.57.54-.72.82Z"/>
          <path class="cls-51" d="m51.8,103.81c-.86.15-1.52.59-1.95.96.08.12.16.25.23.37.6-.78,1.73-1.33,1.73-1.33Z"/>
          <path class="cls-51" d="m111.03,124.96s-4.12,8.57-13.59,10.44c.4.53.73.99.96,1.36,2.83-1.22,10.02-4.56,12.63-11.8Z"/>
          <path class="cls-51" d="m93.06,130.16c1.77.15,4.95,0,8.76-2.2,0,0-4.29,2.09-9.36.82-.19.2-.32.34-.32.34,0,0,.37.41.93,1.05Z"/>
          <path class="cls-51" d="m105.87,126.86s-4.66,5.56-10.22,6.33c.36.43.71.85,1.04,1.27,1.89-.56,5.97-2.32,9.18-7.6Z"/>
          <path class="cls-51" d="m97.51,122.35c2.71.07,7.59-.58,9.07-5.89-.22.59-1.98,4.77-8.41,4.83-.13.24-.27.48-.43.73-.08.12-.15.22-.23.34Z"/>
          <path class="cls-51" d="m103.8,122.5c-.4.4-3.02,2.82-8.15,2.48-.26.34-.5.65-.74.95,2.43.09,6.22-.35,8.89-3.43Z"/>
          <path class="cls-10" d="m113.15,78.87c2.61-4.09,6.79-2.85,8.88-2.82s-9.61,3.95-8.88,2.82Z"/>
          <path class="cls-12" d="m72.96,60.8c-4.45,2.86,2.86,10.89,3.97,10.93,1.11.03,3.27-1.99,3.27-1.99l-5.61,8.08s2.28-3.05,1.32-5.38c-.96-2.33-4.71-7.26-5.92-7.53-1.21-.26-4.04,1.72-4.04,1.72,0,0,4.62-4.48,6.09-5.63s.93-.21.93-.21Z"/>
          <path class="cls-72" d="m61.06,71.5c.25-1.21,2.52-2.95,3.16-3.12.64-.17-2.45,4.23-2.98,4.23-.2,0-.36-.28-.19-1.11Z"/>
          <path class="cls-17" d="m49.34,134.71c-2.52-9.26,1.04-16.29,3.74-19.81,2.7-3.52-2.69,17.22,1.46,31.67,2.18,7.6-2.2-.83-5.2-11.86Z"/>
          <path class="cls-17" d="m127.98,148.79c-4.96,8.22-12.5,10.49-16.92,10.97-4.42.48,14.32-9.94,21.91-22.92,3.99-6.82.92,2.16-4.99,11.95Z"/>
          <path class="cls-15" d="m100.91,11.47c1.25-3.45,3.11-5.18,4.46-5.95,1.35-.77-4.68,6.93-6.05,12.25-.72,2.8-1.16,1.29,1.59-6.3Z"/>
          <path class="cls-22" d="m114.31,113.07s.47,7.22,19.67,5.68c19.2-1.53-16.73.33-19.67-5.68Z"/>
          <path class="cls-22" d="m82.97,107.8s-2.12,3.27-4.42,2.8c-2.3-.48-11.08-3.44-14.22-5.46-3.14-2.02,8.33,3.04,12.12,3.25,3.79.21,6.52-.58,6.52-.58Z"/>
        </g>
      </g>
    </g>
  </g>
</svg>