<?xml version="1.0" encoding="UTF-8"?>
<svg xmlns="http://www.w3.org/2000/svg" xmlns:xlink="http://www.w3.org/1999/xlink" viewBox="0 0 254.88 228.91">
  <defs>
    <style>
      .cls-1 {
        fill: url(#_Áåçûìÿííûé_ãðàäèåíò_296);
      }

      .cls-1, .cls-2, .cls-3, .cls-4, .cls-5, .cls-6, .cls-7, .cls-8, .cls-9, .cls-10, .cls-11, .cls-12, .cls-13, .cls-14, .cls-15, .cls-16, .cls-17, .cls-18, .cls-19 {
        mix-blend-mode: screen;
      }

      .cls-1, .cls-8, .cls-11 {
        opacity: .38;
      }

      .cls-2 {
        fill: url(#_Áåçûìÿííûé_ãðàäèåíò_154);
      }

      .cls-2, .cls-7, .cls-18 {
        opacity: .25;
      }

      .cls-20 {
        fill: url(#_Áåçûìÿííûé_ãðàäèåíò_395);
      }

      .cls-20, .cls-21, .cls-22, .cls-23, .cls-24, .cls-25, .cls-26, .cls-27, .cls-28, .cls-29, .cls-30, .cls-31, .cls-32, .cls-33, .cls-34, .cls-35, .cls-36, .cls-37, .cls-38, .cls-39, .cls-40, .cls-41 {
        mix-blend-mode: multiply;
      }

      .cls-21 {
        fill: url(#_Áåçûìÿííûé_ãðàäèåíò_202);
        opacity: .6;
      }

      .cls-42 {
        fill: url(#_Áåçûìÿííûé_ãðàäèåíò_83);
      }

      .cls-43 {
        fill: url(#_Áåçûìÿííûé_ãðàäèåíò_146-2);
      }

      .cls-22 {
        fill: url(#_Áåçûìÿííûé_ãðàäèåíò_395-2);
      }

      .cls-22, .cls-38 {
        opacity: .65;
      }

      .cls-3 {
        fill: url(#_Áåçûìÿííûé_ãðàäèåíò_316);
      }

      .cls-3, .cls-5, .cls-6, .cls-10, .cls-19 {
        opacity: .5;
      }

      .cls-44 {
        fill: #5d2755;
      }

      .cls-45 {
        fill: url(#_Áåçûìÿííûé_ãðàäèåíò_4);
      }

      .cls-46 {
        fill: url(#_Áåçûìÿííûé_ãðàäèåíò_391);
      }

      .cls-23 {
        opacity: .85;
      }

      .cls-23, .cls-35 {
        fill: #ba92d1;
      }

      .cls-4 {
        opacity: .28;
      }

      .cls-4, .cls-12, .cls-15 {
        fill: #e09ce0;
      }

      .cls-5 {
        fill: url(#_Áåçûìÿííûé_ãðàäèåíò_212);
      }

      .cls-47 {
        fill: #390947;
      }

      .cls-6 {
        fill: url(#_Áåçûìÿííûé_ãðàäèåíò_300);
      }

      .cls-48 {
        clip-path: url(#clippath-2);
      }

      .cls-7 {
        fill: url(#_Áåçûìÿííûé_ãðàäèåíò_77);
      }

      .cls-49 {
        isolation: isolate;
      }

      .cls-8 {
        fill: url(#_Áåçûìÿííûé_ãðàäèåíò_296-2);
      }

      .cls-24 {
        fill: url(#_Áåçûìÿííûé_ãðàäèåíò_28);
      }

      .cls-24, .cls-27, .cls-50, .cls-34 {
        opacity: .71;
      }

      .cls-25 {
        fill: #4c75d9;
      }

      .cls-51 {
        fill: url(#_Áåçûìÿííûé_ãðàäèåíò_220);
      }

      .cls-9 {
        fill: url(#_Áåçûìÿííûé_ãðàäèåíò_402-2);
      }

      .cls-9, .cls-16 {
        opacity: .69;
      }

      .cls-52 {
        fill: #89a2c1;
      }

      .cls-26 {
        fill: url(#_Áåçûìÿííûé_ãðàäèåíò_32-2);
      }

      .cls-26, .cls-29 {
        opacity: .43;
      }

      .cls-53 {
        clip-path: url(#clippath-1);
      }

      .cls-27 {
        fill: #5b81b6;
      }

      .cls-50, .cls-54 {
        fill: #f4e2f1;
      }

      .cls-10 {
        fill: url(#_Áåçûìÿííûé_ãðàäèåíò_338);
      }

      .cls-55 {
        fill: #f46f9f;
        opacity: .36;
      }

      .cls-56 {
        fill: url(#_Áåçûìÿííûé_ãðàäèåíò_16);
      }

      .cls-11 {
        fill: url(#_Áåçûìÿííûé_ãðàäèåíò_173);
      }

      .cls-28, .cls-57 {
        fill: #892f49;
      }

      .cls-28, .cls-39, .cls-40 {
        opacity: .51;
      }

      .cls-29 {
        fill: url(#_Áåçûìÿííûé_ãðàäèåíò_32);
      }

      .cls-30 {
        opacity: .42;
      }

      .cls-30, .cls-58 {
        fill: #b4bad8;
      }

      .cls-31 {
        fill: url(#_Áåçûìÿííûé_ãðàäèåíò_47);
        opacity: .35;
      }

      .cls-32 {
        fill: url(#_Áåçûìÿííûé_ãðàäèåíò_76);
      }

      .cls-59 {
        fill: #2e0043;
      }

      .cls-60 {
        clip-path: url(#clippath);
      }

      .cls-33 {
        fill: url(#_Áåçûìÿííûé_ãðàäèåíò_310);
      }

      .cls-33, .cls-41 {
        opacity: .31;
      }

      .cls-61 {
        fill: none;
      }

      .cls-34 {
        fill: #c960d1;
      }

      .cls-12 {
        opacity: .08;
      }

      .cls-35 {
        opacity: .72;
      }

      .cls-36 {
        fill: url(#_Áåçûìÿííûé_ãðàäèåíò_199);
      }

      .cls-13 {
        fill: url(#_Áåçûìÿííûé_ãðàäèåíò_10);
      }

      .cls-14 {
        fill: url(#_Áåçûìÿííûé_ãðàäèåíò_41);
        opacity: .74;
      }

      .cls-62 {
        fill: url(#_Áåçûìÿííûé_ãðàäèåíò_146);
      }

      .cls-37 {
        fill: #609ad9;
      }

      .cls-63 {
        opacity: .46;
      }

      .cls-38 {
        fill: url(#_Áåçûìÿííûé_ãðàäèåíò_395-3);
      }

      .cls-64 {
        fill: url(#_Áåçûìÿííûé_ãðàäèåíò_146-3);
      }

      .cls-15 {
        opacity: .15;
      }

      .cls-65 {
        fill: #0f2670;
      }

      .cls-16 {
        fill: url(#_Áåçûìÿííûé_ãðàäèåíò_402);
      }

      .cls-39 {
        fill: url(#_Áåçûìÿííûé_ãðàäèåíò_197);
      }

      .cls-40 {
        fill: url(#_Áåçûìÿííûé_ãðàäèåíò_16-2);
      }

      .cls-66 {
        opacity: .61;
      }

      .cls-17 {
        fill: #3b7eca;
        opacity: .47;
      }

      .cls-18 {
        fill: url(#_Áåçûìÿííûé_ãðàäèåíò_154-2);
      }

      .cls-19 {
        fill: url(#_Áåçûìÿííûé_ãðàäèåíò_215);
      }

      .cls-67 {
        opacity: .56;
      }

      .cls-41 {
        fill: url(#_Áåçûìÿííûé_ãðàäèåíò_309);
      }
    </style>
    <clipPath id="clippath">
      <polygon class="cls-61" points=".17 163.81 11.84 205.76 27.78 213.94 32.64 218.02 36.76 223.67 86.64 222.45 91.06 220.14 93.28 223.67 96.56 221.08 99 228.91 152.7 228.91 160.77 221.08 163.31 223.67 186.95 220.54 189.45 216.79 192.1 218.52 207.97 222.7 212.04 221.08 215.15 215.6 226.03 215.39 238.36 210.6 253.69 175.23 254.43 162.07 .17 163.81"/>
    </clipPath>
    <linearGradient id="_Áåçûìÿííûé_ãðàäèåíò_391" data-name="Áåçûìÿííûé ãðàäèåíò 391" x1="-176.68" y1="231.37" x2="-176.68" y2="148.96" gradientTransform="translate(-25.47 3.82) scale(1 .97) skewX(10.85)" gradientUnits="userSpaceOnUse">
      <stop offset=".45" stop-color="#bbc8fd"/>
      <stop offset=".63" stop-color="#ccd6fd"/>
      <stop offset=".85" stop-color="#e6ebff"/>
    </linearGradient>
    <linearGradient id="_Áåçûìÿííûé_ãðàäèåíò_402" data-name="Áåçûìÿííûé ãðàäèåíò 402" x1="-184.2" y1="231.37" x2="-184.2" y2="180.72" gradientTransform="translate(-25.47 3.82) scale(1 .97) skewX(10.85)" gradientUnits="userSpaceOnUse">
      <stop offset="0" stop-color="#000"/>
      <stop offset=".2" stop-color="#15414b"/>
      <stop offset=".45" stop-color="#3090a5"/>
      <stop offset=".56" stop-color="#3bb0ca"/>
      <stop offset=".58" stop-color="#37a5be"/>
      <stop offset=".69" stop-color="#246b7b"/>
      <stop offset=".8" stop-color="#143d46"/>
      <stop offset=".88" stop-color="#091b20"/>
      <stop offset=".96" stop-color="#020708"/>
      <stop offset="1" stop-color="#000"/>
    </linearGradient>
    <linearGradient id="_Áåçûìÿííûé_ãðàäèåíò_395" data-name="Áåçûìÿííûé ãðàäèåíò 395" x1="-176.68" y1="249.56" x2="-176.68" y2="121.56" gradientTransform="translate(-25.47 3.82) scale(1 .97) skewX(10.85)" gradientUnits="userSpaceOnUse">
      <stop offset="0" stop-color="#fff"/>
      <stop offset=".41" stop-color="#9ea9d6"/>
      <stop offset=".81" stop-color="#4459b0"/>
      <stop offset="1" stop-color="#2039a1"/>
    </linearGradient>
    <linearGradient id="_Áåçûìÿííûé_ãðàäèåíò_395-2" data-name="Áåçûìÿííûé ãðàäèåíò 395" x1="-176.69" y1="246.93" x2="-176.69" y2="137.43" xlink:href="#_Áåçûìÿííûé_ãðàäèåíò_395"/>
    <linearGradient id="_Áåçûìÿííûé_ãðàäèåíò_4" data-name="Áåçûìÿííûé ãðàäèåíò 4" x1="118.65" y1="186.19" x2="137.37" y2="135.78" gradientUnits="userSpaceOnUse">
      <stop offset="0" stop-color="#bbc8fd"/>
      <stop offset=".46" stop-color="#ccd6fd"/>
      <stop offset="1" stop-color="#e6ebff"/>
    </linearGradient>
    <clipPath id="clippath-1">
      <path class="cls-25" d="m240.36,158.91c0,2.2-13.32,3.99-29.75,3.99s-29.75-1.79-29.75-3.99,13.32-5.36,29.75-5.36,29.75,3.15,29.75,5.36Z"/>
    </clipPath>
    <linearGradient id="_Áåçûìÿííûé_ãðàäèåíò_402-2" data-name="Áåçûìÿííûé ãðàäèåíò 402" x1="212.12" y1="163.17" x2="212.12" y2="153.28" gradientTransform="matrix(1, 0, 0, 1, 0, 0)" xlink:href="#_Áåçûìÿííûé_ãðàäèåíò_402"/>
    <linearGradient id="_Áåçûìÿííûé_ãðàäèåíò_10" data-name="Áåçûìÿííûé ãðàäèåíò 10" x1="178.92" y1="168.32" x2="241.06" y2="150.4" gradientUnits="userSpaceOnUse">
      <stop offset=".05" stop-color="#000"/>
      <stop offset=".11" stop-color="#04090e"/>
      <stop offset=".21" stop-color="#0f2136"/>
      <stop offset=".35" stop-color="#224975"/>
      <stop offset=".51" stop-color="#3b7eca"/>
      <stop offset="1" stop-color="#000"/>
    </linearGradient>
    <linearGradient id="_Áåçûìÿííûé_ãðàäèåíò_395-3" data-name="Áåçûìÿííûé ãðàäèåíò 395" x1="210.61" y1="162.9" x2="210.61" y2="153.55" gradientTransform="matrix(1, 0, 0, 1, 0, 0)" xlink:href="#_Áåçûìÿííûé_ãðàäèåíò_395"/>
    <linearGradient id="_Áåçûìÿííûé_ãðàäèåíò_41" data-name="Áåçûìÿííûé ãðàäèåíò 41" x1="0" y1="174.79" x2="251.17" y2="174.79" gradientUnits="userSpaceOnUse">
      <stop offset="0" stop-color="#000"/>
      <stop offset=".42" stop-color="#5ea6fb"/>
      <stop offset=".51" stop-color="#4c86cb"/>
      <stop offset=".69" stop-color="#2b4d75"/>
      <stop offset=".84" stop-color="#142336"/>
      <stop offset=".94" stop-color="#05090e"/>
      <stop offset="1" stop-color="#000"/>
    </linearGradient>
    <linearGradient id="_Áåçûìÿííûé_ãðàäèåíò_47" data-name="Áåçûìÿííûé ãðàäèåíò 47" x1="46.41" y1="176.76" x2="228.35" y2="176.76" gradientUnits="userSpaceOnUse">
      <stop offset="0" stop-color="#fff"/>
      <stop offset=".14" stop-color="#ccdbf5"/>
      <stop offset=".25" stop-color="#abc3ef"/>
      <stop offset=".31" stop-color="#9fbbed"/>
      <stop offset=".65" stop-color="#fff"/>
      <stop offset=".81" stop-color="#ccdbf5"/>
      <stop offset=".93" stop-color="#abc3ef"/>
      <stop offset="1" stop-color="#9fbbed"/>
    </linearGradient>
    <linearGradient id="_Áåçûìÿííûé_ãðàäèåíò_28" data-name="Áåçûìÿííûé ãðàäèåíò 28" x1="179.36" y1="155.35" x2="27.79" y2="155.35" gradientUnits="userSpaceOnUse">
      <stop offset=".12" stop-color="#5b81b6"/>
      <stop offset=".23" stop-color="#678abb"/>
      <stop offset=".43" stop-color="#88a4ca"/>
      <stop offset=".71" stop-color="#becde2"/>
      <stop offset="1" stop-color="#fff"/>
    </linearGradient>
    <linearGradient id="_Áåçûìÿííûé_ãðàäèåíò_220" data-name="Áåçûìÿííûé ãðàäèåíò 220" x1="72.35" y1="161.17" x2="151.85" y2="9.75" gradientUnits="userSpaceOnUse">
      <stop offset=".07" stop-color="#2e0043"/>
      <stop offset=".24" stop-color="#370846"/>
      <stop offset=".52" stop-color="#521e51"/>
      <stop offset=".88" stop-color="#7c4161"/>
      <stop offset="1" stop-color="#8d4f68"/>
    </linearGradient>
    <linearGradient id="_Áåçûìÿííûé_ãðàäèåíò_76" data-name="Áåçûìÿííûé ãðàäèåíò 76" x1="114.55" y1="111.27" x2="141.65" y2="95.32" gradientUnits="userSpaceOnUse">
      <stop offset=".12" stop-color="#fff"/>
      <stop offset=".24" stop-color="#ede2f3"/>
      <stop offset=".48" stop-color="#c8a8da"/>
      <stop offset=".6" stop-color="#ba92d1"/>
    </linearGradient>
    <linearGradient id="_Áåçûìÿííûé_ãðàäèåíò_83" data-name="Áåçûìÿííûé ãðàäèåíò 83" x1="106.22" y1="198.75" x2="106.22" y2="29.44" gradientUnits="userSpaceOnUse">
      <stop offset="0" stop-color="#ba92d1"/>
      <stop offset=".39" stop-color="#cea8d7"/>
      <stop offset="1" stop-color="#f4d3e3"/>
    </linearGradient>
    <linearGradient id="_Áåçûìÿííûé_ãðàäèåíò_199" data-name="Áåçûìÿííûé ãðàäèåíò 199" x1="106.5" y1="66.41" x2="106.5" y2="4.42" gradientUnits="userSpaceOnUse">
      <stop offset="0" stop-color="#fff"/>
      <stop offset=".04" stop-color="#f9f7fb"/>
      <stop offset=".23" stop-color="#e3d2ec"/>
      <stop offset=".42" stop-color="#d1b6e0"/>
      <stop offset=".62" stop-color="#c4a2d7"/>
      <stop offset=".81" stop-color="#bc96d2"/>
      <stop offset="1" stop-color="#ba92d1"/>
    </linearGradient>
    <linearGradient id="_Áåçûìÿííûé_ãðàäèåíò_310" data-name="Áåçûìÿííûé ãðàäèåíò 310" x1="124.67" y1="33.5" x2="115.51" y2="50.03" gradientUnits="userSpaceOnUse">
      <stop offset="0" stop-color="#6b046d"/>
      <stop offset=".25" stop-color="#9d599f"/>
      <stop offset=".48" stop-color="#c7a0c8"/>
      <stop offset=".66" stop-color="#e5d3e5"/>
      <stop offset=".8" stop-color="#f8f3f8"/>
      <stop offset=".88" stop-color="#fff"/>
    </linearGradient>
    <linearGradient id="_Áåçûìÿííûé_ãðàäèåíò_32" data-name="Áåçûìÿííûé ãðàäèåíò 32" x1="116.59" y1="52.22" x2="116.59" y2="40.96" gradientUnits="userSpaceOnUse">
      <stop offset="0" stop-color="#6b046d"/>
      <stop offset=".08" stop-color="#731275"/>
      <stop offset=".23" stop-color="#8a3a8c"/>
      <stop offset=".43" stop-color="#b079b1"/>
      <stop offset=".68" stop-color="#e3d0e3"/>
      <stop offset=".81" stop-color="#fff"/>
    </linearGradient>
    <linearGradient id="_Áåçûìÿííûé_ãðàäèåíò_309" data-name="Áåçûìÿííûé ãðàäèåíò 309" x1="140.39" y1="41.73" x2="133.78" y2="54.01" gradientUnits="userSpaceOnUse">
      <stop offset="0" stop-color="#6b046d"/>
      <stop offset=".16" stop-color="#88368a"/>
      <stop offset=".52" stop-color="#c7a1c8"/>
      <stop offset=".76" stop-color="#efe4ef"/>
      <stop offset=".88" stop-color="#fff"/>
    </linearGradient>
    <linearGradient id="_Áåçûìÿííûé_ãðàäèåíò_32-2" data-name="Áåçûìÿííûé ãðàäèåíò 32" x1="134.41" y1="55.37" x2="134.41" y2="51.67" xlink:href="#_Áåçûìÿííûé_ãðàäèåíò_32"/>
    <linearGradient id="_Áåçûìÿííûé_ãðàäèåíò_338" data-name="Áåçûìÿííûé ãðàäèåíò 338" x1="194.14" y1="121.24" x2="194.14" y2="105.47" gradientTransform="translate(.86 -162.14) rotate(32.44)" gradientUnits="userSpaceOnUse">
      <stop offset=".19" stop-color="#000"/>
      <stop offset=".27" stop-color="#050405"/>
      <stop offset=".38" stop-color="#160f16"/>
      <stop offset=".51" stop-color="#312231"/>
      <stop offset=".64" stop-color="#583d58"/>
      <stop offset=".79" stop-color="#895f89"/>
      <stop offset=".94" stop-color="#c488c4"/>
      <stop offset="1" stop-color="#e09ce0"/>
    </linearGradient>
    <linearGradient id="_Áåçûìÿííûé_ãðàäèåíò_146" data-name="Áåçûìÿííûé ãðàäèåíò 146" x1="131.05" y1="37.4" x2="122.3" y2="46.16" gradientTransform="translate(-9.6 47.71) rotate(-14.21)" gradientUnits="userSpaceOnUse">
      <stop offset="0" stop-color="#ffa953"/>
      <stop offset="1" stop-color="#ea524b"/>
    </linearGradient>
    <clipPath id="clippath-2">
      <path class="cls-61" d="m132.85,121.84c-4.23-14.49-15.86-29.66-15.86-29.66,0,0,3.22-3.95,3.63-8.37.29-3.08-3.82-24.84-3.82-24.84,0,0,20.31,7.71,21.81-5.16,0,0,6.63-8.5,5.05-12.08-2.15-4.87-10.58,2.76-10.58,2.76,0,0,8.05-9.08-2.37-10.34-12.46-1.51-20.82,5.82-20.82,5.82,0,0-1.68-13.87-7.13-15.92-5.45-2.05-11.47,13.71.74,29.29,0,0-7.68-3.89-10.21,2.95-2.53,6.84,1.68,28,1.68,28,0,0-1.9-6.42-4.05-6-2.16.42-.32,40.1,15.95,61.42,0,0-.58-2.79,4.47-.95,5.05,1.84,8.21,7.95.42,8.68-7.79.74-31.89-7.74-43.26-31.89,0,0,.16,9,6.95,18.31,0,0,9.99,4.84,16.58,10.1,12,9.58,9.36,30.54,19.7,23.48,0,0,.67-.36,1.41-.75,1.24-.66,2.43-1.44,3.52-2.33.15-.12.27-.22.37-.29,2.75-2.02,5.57-4.58,8.15-7.8.92-1.15,1.82-2.17,2.69-3.09,3.84-5.66,6.3-12.65,6.47-21.54.06-3.07-.51-6.38-1.48-9.73l-.03-.09Z"/>
    </clipPath>
    <linearGradient id="_Áåçûìÿííûé_ãðàäèåíò_316" data-name="Áåçûìÿííûé ãðàäèåíò 316" x1="133.5" y1="65.37" x2="136.78" y2="54.71" gradientTransform="translate(2.99 -9.1) rotate(2.7)" gradientUnits="userSpaceOnUse">
      <stop offset=".19" stop-color="#000"/>
      <stop offset=".33" stop-color="#2c1e2c"/>
      <stop offset=".66" stop-color="#8c618c"/>
      <stop offset=".89" stop-color="#c88bc8"/>
      <stop offset="1" stop-color="#e09ce0"/>
    </linearGradient>
    <linearGradient id="_Áåçûìÿííûé_ãðàäèåíò_202" data-name="Áåçûìÿííûé ãðàäèåíò 202" x1="127.05" y1="76.55" x2="44.73" y2="158.87" gradientUnits="userSpaceOnUse">
      <stop offset=".09" stop-color="#fff"/>
      <stop offset=".25" stop-color="#ede2f3"/>
      <stop offset=".6" stop-color="#c8a8da"/>
      <stop offset=".77" stop-color="#ba92d1"/>
    </linearGradient>
    <linearGradient id="_Áåçûìÿííûé_ãðàäèåíò_16" data-name="Áåçûìÿííûé ãðàäèåíò 16" x1="106.89" y1="127.09" x2="209.86" y2="127.09" gradientUnits="userSpaceOnUse">
      <stop offset="0" stop-color="#892f49"/>
      <stop offset=".45" stop-color="#973b4c"/>
      <stop offset="1" stop-color="#b05052"/>
    </linearGradient>
    <linearGradient id="_Áåçûìÿííûé_ãðàäèåíò_16-2" data-name="Áåçûìÿííûé ãðàäèåíò 16" y1="129.62" x2="209.86" y2="129.62" xlink:href="#_Áåçûìÿííûé_ãðàäèåíò_16"/>
    <linearGradient id="_Áåçûìÿííûé_ãðàäèåíò_146-2" data-name="Áåçûìÿííûé ãðàäèåíò 146" x1="108.18" y1="174.83" x2="108.18" y2="144.83" gradientTransform="translate(21.76 -2.12) scale(1 1.02) skewX(-9.37)" xlink:href="#_Áåçûìÿííûé_ãðàäèåíò_146"/>
    <linearGradient id="_Áåçûìÿííûé_ãðàäèåíò_146-3" data-name="Áåçûìÿííûé ãðàäèåíò 146" x1="164.17" y1="148.81" x2="164.17" y2="128.18" gradientTransform="matrix(1, 0, 0, 1, 0, 0)" xlink:href="#_Áåçûìÿííûé_ãðàäèåíò_146"/>
    <linearGradient id="_Áåçûìÿííûé_ãðàäèåíò_154" data-name="Áåçûìÿííûé ãðàäèåíò 154" x1="907.52" y1="-18.44" x2="876.88" y2="-18.44" gradientTransform="translate(-633.78 -424.48) rotate(31.35)" gradientUnits="userSpaceOnUse">
      <stop offset="0" stop-color="#e09ce0"/>
      <stop offset=".08" stop-color="#c488c4"/>
      <stop offset=".26" stop-color="#895f89"/>
      <stop offset=".44" stop-color="#583d58"/>
      <stop offset=".61" stop-color="#312231"/>
      <stop offset=".76" stop-color="#160f16"/>
      <stop offset=".9" stop-color="#050405"/>
      <stop offset="1" stop-color="#000"/>
    </linearGradient>
    <linearGradient id="_Áåçûìÿííûé_ãðàäèåíò_197" data-name="Áåçûìÿííûé ãðàäèåíò 197" x1="113.05" y1="59.73" x2="127.26" y2="59.73" gradientUnits="userSpaceOnUse">
      <stop offset=".33" stop-color="#ba92d1"/>
      <stop offset="1" stop-color="#c960d1"/>
    </linearGradient>
    <linearGradient id="_Áåçûìÿííûé_ãðàäèåíò_212" data-name="Áåçûìÿííûé ãðàäèåíò 212" x1="169.6" y1="116.67" x2="176.47" y2="116.67" gradientTransform="translate(141.05 -150.95) rotate(59.82)" gradientUnits="userSpaceOnUse">
      <stop offset=".19" stop-color="#000"/>
      <stop offset=".27" stop-color="#050502"/>
      <stop offset=".38" stop-color="#16160a"/>
      <stop offset=".5" stop-color="#303117"/>
      <stop offset=".64" stop-color="#565828"/>
      <stop offset=".78" stop-color="#86893f"/>
      <stop offset=".93" stop-color="#c0c45a"/>
      <stop offset="1" stop-color="#e0e56a"/>
    </linearGradient>
    <linearGradient id="_Áåçûìÿííûé_ãðàäèåíò_154-2" data-name="Áåçûìÿííûé ãðàäèåíò 154" x1="81.76" y1="129.1" x2="81.76" y2="80.68" gradientTransform="translate(2.16 2.85) rotate(-1.32)" xlink:href="#_Áåçûìÿííûé_ãðàäèåíò_154"/>
    <linearGradient id="_Áåçûìÿííûé_ãðàäèåíò_173" data-name="Áåçûìÿííûé ãðàäèåíò 173" x1="92.21" y1="97.4" x2="71.93" y2="97.4" gradientUnits="userSpaceOnUse">
      <stop offset="0" stop-color="#9c3be0"/>
      <stop offset=".08" stop-color="#8833c4"/>
      <stop offset=".26" stop-color="#5f2489"/>
      <stop offset=".44" stop-color="#3d1758"/>
      <stop offset=".61" stop-color="#220d31"/>
      <stop offset=".76" stop-color="#0f0516"/>
      <stop offset=".9" stop-color="#040105"/>
      <stop offset="1" stop-color="#000"/>
    </linearGradient>
    <linearGradient id="_Áåçûìÿííûé_ãðàäèåíò_300" data-name="Áåçûìÿííûé ãðàäèåíò 300" x1="106.27" y1="87.82" x2="106.27" y2="78.4" gradientUnits="userSpaceOnUse">
      <stop offset="0" stop-color="#e09ce0"/>
      <stop offset=".41" stop-color="#855d85"/>
      <stop offset="1" stop-color="#000"/>
    </linearGradient>
    <linearGradient id="_Áåçûìÿííûé_ãðàäèåíò_215" data-name="Áåçûìÿííûé ãðàäèåíò 215" x1="108.83" y1="104.63" x2="108.83" y2="91.02" gradientUnits="userSpaceOnUse">
      <stop offset="0" stop-color="#000"/>
      <stop offset=".59" stop-color="#855d85"/>
      <stop offset="1" stop-color="#e09ce0"/>
    </linearGradient>
    <linearGradient id="_Áåçûìÿííûé_ãðàäèåíò_77" data-name="Áåçûìÿííûé ãðàäèåíò 77" x1="125.57" y1="100.91" x2="142.05" y2="100.91" gradientUnits="userSpaceOnUse">
      <stop offset="0" stop-color="#000"/>
      <stop offset=".1" stop-color="#050405"/>
      <stop offset=".24" stop-color="#160f16"/>
      <stop offset=".39" stop-color="#312231"/>
      <stop offset=".56" stop-color="#583d58"/>
      <stop offset=".74" stop-color="#895f89"/>
      <stop offset=".92" stop-color="#c488c4"/>
      <stop offset="1" stop-color="#e09ce0"/>
    </linearGradient>
    <linearGradient id="_Áåçûìÿííûé_ãðàäèåíò_296" data-name="Áåçûìÿííûé ãðàäèåíò 296" x1="123.71" y1="88.52" x2="129.23" y2="88.52" gradientUnits="userSpaceOnUse">
      <stop offset="0" stop-color="#000"/>
      <stop offset=".1" stop-color="#040105"/>
      <stop offset=".24" stop-color="#0f0516"/>
      <stop offset=".39" stop-color="#220d31"/>
      <stop offset=".56" stop-color="#3d1758"/>
      <stop offset=".74" stop-color="#5f2489"/>
      <stop offset=".92" stop-color="#8833c4"/>
      <stop offset="1" stop-color="#9c3be0"/>
    </linearGradient>
    <linearGradient id="_Áåçûìÿííûé_ãðàäèåíò_296-2" data-name="Áåçûìÿííûé ãðàäèåíò 296" x1="101.71" y1="17.98" x2="149.97" y2="17.98" xlink:href="#_Áåçûìÿííûé_ãðàäèåíò_296"/>
  </defs>
  <g class="cls-49">
    <g id="Layer_2" data-name="Layer 2">
      <g id="_Ñëîé_1" data-name="Ñëîé 1">
        <g>
          <g>
            <g class="cls-60">
              <path class="cls-46" d="m-688.34,168.34s30.09,8.49,93.35-4.92c63.26-13.41,174.79-15.12,174.79-15.12l2.33,2.9c2.33,2.91,7.8.45,7.8.45,0,0,85.53,8.64,129.59,11.55,44.06,2.9,76.6,6.63,139.29-.22s99.84-5.79,99.84-5.79l3.25,2.22s65.83,6.55,82.9,7.75c0,0-8.11,3.87,48.81,3.28,56.92-.6,161.94-6.26,192.8-6.26l5.21,2.68s47.88-.52,57.34,1.49l11.9,59.89H-676.44l-11.9-59.89Z"/>
              <path class="cls-37" d="m-685.91,180.55s32.31,6.11,69.96,13.26l-4.07-2.83s125.22-12.22,187.64-13.41c62.42-1.19,133.26,0,133.26,0l7.03,4.77s90.31,2.68,107.72,3.28l-71.99-16.39,89.99,15.79s121.5-39.38,145.7-39.98c24.2-.6,72.13,30.83,114.94,41.55l-37.57-11.41,47.49,13.11s64.43-14.9,86.87-17.28c22.44-2.38,34.58-1,34.58-1,0,0,1.01-23.62,31.42-16.47,0,0,72.41,22.54,94.34,27l9.47,47.67H-676.44l-9.47-47.67Z"/>
              <g class="cls-67">
                <path class="cls-16" d="m341.75,227.61c.19-1.85,1.76-7.28,1.76-7.28-2.17-.49-28.55-13.09-32.04-14.75l23.29,2.89-32.88-5.38-.27,1.93c-.01.08-.08.14-.19.16-.11.03-.24,0-.34-.04l-13.44-6.67-2.43,1.91s-.09.05-.16.06l-14.05,2.23c-.12.02-.26,0-.35-.07l-19.21-12.28-6.85.73c-.11,0-.23-.01-.32-.07l-7.2-4.36,7.28,6.33,6.61-1.86c.13-.04.29-.01.4.06l19,12.07c.06.04.1.08.11.13l.77,2.68c.02.08-.03.16-.13.2-.1.04-.24.04-.35,0l-20.56-7.24-12.76,3.83c-.12.04-.28.02-.4-.05l-19.32-11.32c-.08-.05-.13-.11-.13-.18,0-.07.04-.12.12-.16l8.51-3.9-11.73,3.69-10.92,2.01,10.92-1.55c.1-.02.23,0,.32.06l5.79,3.14c1.47.8-5.63,12.76-5.63,12.76l-9.77,4.03-19.96-5.74s-13.31,12.74-15.44,12.43c0,0-41.36-6.11-41.36-6.11-.1-.02-.2-.06-.25-.12l-8.85-9.24c-.1-.1-.07-.23.08-.28l20.55-8.34c.05-.02.13-.02.18-.03l15.52.39c-7.37-.41-15.84-.9-20.69-1.18.81.19,1.41.35,1.47.36.12.03.22.11.24.19.03.08-.02.16-.12.2l-22.6,9.41,8.33,6.51c.1.08.12.18.04.25-.07.08-.22.11-.36.08l-16.53-3.2c-.09-.02-.17-.06-.22-.11l-13.32-13.01-5.66-.35s-.09-.01-.13-.02l-7.42-2.37,8.55,3.24c1.35.8-1.5,6.46-1.5,6.46,0,0,.04,3.47-1.06,4.19l-6.05-3.57-24.31,4.88s-.09.01-.12,0l-17.69-.89h-11.63c-.07,0-.13-.01-.19-.03l-11.2-4.25-63.77-5.05,1.33,1.26c.07.07.09.15.04.22-.05.07-.13.09-.28.11l-12.42-.15s-.06,0-.09,0l-4.23-.72s-39.23-6.68-39.23-6.68l20.64,5.5,16.22,1.68c.1.03.21.05.35.08,2.56.52-30.77.45-30.77.45,0,0-9.84,5.87-19.66,8.49l-8.09-17.01c-.03-.07,0-.15.07-.2.08-.05.2-.07.31-.05l14.37,2.44-24.37-5.29,8.69,3.93c.08.04.14.09.16.15l6.95,19.76,14.02,10.83c.11.09.12.2.02.28-.1.08-.27.09-.42.03l-14.82-5.44-1.26-.65c-.1.08-.27.09-.42.04l-43.51-15.97-.22,2.22c0,.07-.06.12-.14.15-.08.03-.19.04-.29,0l-1.36-.34c-.11-.03-.2-.09-.24-.16l-4.2-8.24c-.04-.08-.01-.15.06-.2.08-.05.2-.07.32-.05l6.72,1.18s.1.02.14.04l34.51,16.84-34.55-17.95-26.53-3.58,17.64,3.1c.12.02.23.08.27.16l4.73,8.22c.05.08.02.16-.07.22-.09.05-.22.07-.35.03l-6.79-1.7-.23,1.97c-.01.09-.11.16-.26.17l-11.48,1.04c-.11,0-.22-.01-.31-.07l-24.79-14.62-26.88-1.91,24.29,3.11c.06,0,.12.03.17.05l5.09,2.57c.88.44.78,1.28-19.18,8.04l-35.34-5.81,34.86,6.03s-15.48,6.09-29.8,8.94l-21.79-20.93-7.74-2.87s-.06-.03-.08-.04l-8.83-5.62-.5,6.26c0,.08-.08.14-.2.17-.12.02-.25,0-.35-.05l-5.52-3.03,12.23,10.19s.04.04.06.06l3.41,5.74-2.56-7.14-1.77-1.06c-3.64-2.15-5.37-3.44-5.14-3.82.21-.36,1.55-4.08,2.05-5.49.03-.08.12-.13.24-.14.16,0,.27.03.34.09l8.5,6.33,5.39,4.36,7.65,8.1s4.06,8.49,1.42,7.17c0,0-8.31-5.05-8.31-5.05l1.91,4.52c.03.06.01.12-.04.17-.05.05-.14.08-.24.08l-10.96.15c-.1,0-.25-.04-.32-.11l-5.75-5.16-10.81,5.23c-.07.03-.16.05-.25.04l-70.42-7.96,9.07,1.88c.16.03.27.13.28.23,0,.1-.1.18-.25.2l-12.86,1.19c-.11,0-.22-.01-.31-.06l-12.61-7.26-8.01,2.69c-.11.03-.24.03-.35-.02-.11-.04-.18-.12-.19-.2l-.28-4.18-1.3,2.35c-.03.06-.1.1-.19.12-.09.02-.2,0-.29-.03l-8.88-3.38-8.64,1.03c-.07,0-.16,0-.23-.02l-32.02-10.58,26.42,11.65,13.89-1.18c.11,0,.24.02.33.08l9.87,6.88,11.7-2.34c.12-.02.26,0,.36.06l7.7,4.62c.07.04.12.1.12.16,0,.06-.02.11-.08.15l-15.35,9.83c-.12.08-.34.07-.49-.02l-9.94-6.14-31.47,8.73c-.09.02-.18.02-.28,0-.09-.03-.17-.07-.21-.13l-3.55-5.16-25.87,9.9c-.11.04-.26.04-.38-.02l-8.88-4.03,3.64,2.37c.09.06.13.14.11.21-.02.07-.1.13-.21.15l-30.09,5.07c-.06,0-.13,0-.2,0l-6.56-1.38c-2.66-1.26-5.56-7.65-5.56-7.65-5.23-6.66-5.93-8.98-6.02-9.5,8.33-1.08,18.26-2.27,18.26-2.27h-2.63l6.73-5.85-1.56-2.83s.76,2.21.85,2.79-5.03,5.46-8.7,6.22c-3.67.76-25.98,3.39-25.98,3.39,0,0,.62.48-1.59,3.46-2.21,2.98-3.63,5.54-4.88,4.97,0,0-11.1-5.05-11.1-5.05l-.34,1.05c-.03.09-.15.17-.32.15l-50.25-2,6.87,1.73c.16.04.27.14.25.25-.01.1-.14.18-.3.18,0,0-43.05-.15-43.05-.15l-23.98-1.84-10.06,5.87,8.18-3.84c.05-.02.12-.03.17-.03l76.1.6,29.22,4.29-19.16-3.71c-.17-.03-.29-.14-.28-.24,0-.11.13-.18.3-.18,0,0,25.51.15,25.51.15.05,0,.11,0,.15.02l9.94,2.98,32.17,12.09-16.86-7.26c-.14-.07-.19-.18-.13-.27.06-.09.22-.14.38-.1l25.03,4.77s.09.02.14.05l1.7.87-.14-.71c-.02-.1.07-.19.22-.21l28.98-4.77c.08-.01.18,0,.26.02l3.37,1.14,27.19-5.54c.1-.02.22,0,.31.03l2.74,1.18,27.57-7.4c.09-.02.2-.02.29.01l13.38,4.31,7.11-2.43c4.71-.74,17.84,1.29,17.84,1.29l2.31,1.9s29.12-10.91,32.21-10.57l22.82,2.54c3.25.95-20.63,8.44-20.63,8.44,2.34,1.19,14.72,13.78,14.72,13.78h3.55c-7.78-2.09-16.45-13.46-16.45-13.46,0,0,20.11-8.61,22.42-8.36l7.29.81,11.47-2.89c.13-.03.28,0,.39.06l5.62,3.48,11.31-.43c.09,0,.18.02.25.05l10.29,4.93c2.8,1.34,10.8,15.8,10.8,15.8h.82s-2.55-3.43-3.15-6.74c0,0-4.17-4.18-6.59-8.16l21.68,10.39-23.7-14.4c-2.91-2.3-5.22-9.8-5.22-9.8,0,0-4.94-4.78-6.24-6.58l27.02,21.83-5.01-4.82c-.61-.59,29.2-10.05,29.2-10.05,0,0,36.15.61,38.54,1.43l3.5,1.77,14.51-2.06s.05,0,.07,0c.04,0,.09,0,.13.01l5.82,1.37,18.11,5.76c1.8.57,5.76,8.79,5.76,8.79l-23.56,7.9s23.93-7.82,26.76-7.67l-2.7-.67s-6.06-8.28-3.31-7.41l43.39,13.81-1.09-1.07c-.65-.64,21.74-6.76,21.74-6.76,0,0,22.7,6.59,26.06,9.39,0,0,32.98-15.81,35.46-15.25.53.12.78.13.89.09l33.74,9.27,13.07-5.6c.11-.04.25-.04.38,0l9.71,3.86,25.85,3.07-25.79-4.3s-.09-.02-.12-.04l-10.36-4.53-5.63,3.21c-.11.06-.28.07-.42,0l-31.22-13.68c-.13-.06-.2-.16-.17-.25.04-.09.16-.16.32-.14l24.32,1.03c.07,0,.15.02.21.05l11.68,5.71,11-.59,18.08.15,25.37-2.6c.09,0,.19,0,.27.04l9.34,4.04s.06.03.09.05l11.95,9.56,11.76-2.88c.06-.02.14-.02.21,0l9.99,1.74-11.78-3.23-9.97,3.23c-.14.05-.32.02-.44-.07l-12.11-8.84-3.57-2.1c-1.33-1.33,3.17-10.62,3.8-10.38l2.29.87s.09.04.12.07l12.73,11.21,20.01,4.36,63.67,9.8,5.98-4.53c.08-.07.23-.09.37-.05l9.22,2.33-13.32-4.22-3.2,5.46c-.05.09-.21.14-.36.12l-13.67-2.02c-1.62-.85,11.17-12.21,12.06-12.37.89-.17,20.17,5.61,20.17,5.61,9.68-4.84,9.48-3.05,9.48-3.05,0,0,5.75-13.24,8.05-12.85l13.88,7.52,12.68-2.16c.08-.01.18,0,.26.02l38.82,13.34,3.68-1c.11-.03.24-.02.35.03l6.99,3.29,40.92,11.33h5.15l-4.03-.62Zm-885.56-11.39s-.07-.02-.11-.03l-1.42-.65s5.12-8.28,6.98-8.91c.7-.24,4.98-.85,10.07-1.51,0,0,11.79,16.86,10.74,16.64l-26.27-5.53Zm169.62-2.89c-1.94-.04-1.74-1.68-1.74-1.68,0,0-18-.93-16.31-1.79.06-.03.08-.05.13-.08l25.94-8.87c.06-.02.14-.03.21-.02l5.01.56,4.34,5.62s-15.64,6.29-17.58,6.26Zm18.07-6.44c-1.61-1.19-3.87-4.92-4.13-5.35l13.95,1.55c2.63.59-9.82,3.8-9.82,3.8Zm127.14-7.37s17.78-7.25,19.35-7.25l16.84,8.51s-27.87-.87-36.19-1.26Zm176.83,22.07c-1.7,2.46-4.85,2.07-4.85,2.07,0,0-19.38-7.99-25.94-9.22,0,0-9.6,4.33-22.47,6.33l-11.39-11.2s-.04-.04-.05-.06l-.62-1.3c-.91-1.92,19.98-10.06,19.98-10.06,0,0,32.04-.51,35.78-.22.03,0,.06,0,.09.02l18.78,5.16-9.1,4.13-.47,8.21s1.96,3.69.26,6.15Zm1.22-.5s-2.45-12.79.11-14.02c2.03-.98,6.73-3.01,8.57-3.8l18.24,5.01c.99.64-14.18,8.12-26.92,12.81Zm70.73-6.43c.03.07,0,.15-.09.19l-5.5,3.13c-.06.03-.13.05-.21.05-.05,0-.1,0-.16-.02l-64.34-19.07c-.16-.05-.25-.15-.23-.25.02-.1.13-.19.32-.16l21.15.9s.09,0,.14.02l48.69,15.04c.11.03.19.1.22.17Zm-6.11-2.83c.15.07.21.2.13.29-.05.06-.15.1-.27.1-.06,0-.11,0-.17-.03l-38-12.16c-.15-.05-.24-.15-.22-.25.03-.1.15-.17.32-.16l12.3.52c.07,0,.14.02.2.05l25.7,11.63Zm298.3-5.41c.89-.05,30.53,14.23,30.53,14.23,0,3.43-1.82,5.84-2.42,6.54l-9-2.35s-20-18.36-19.11-18.42Zm-12.42,10.17c-.06-.02-.12-.04-.16-.08l-7.01-5.38-3.57,2.03c-.09.06-.24.06-.37.02l-16.37-5.01c-.17-.05-.27-.17-.22-.28l2.3-4.92c.03-.06.1-.11.2-.13l14.46-2.53c.1-.02.21,0,.3.04l12.01,5.31,3.5-.89c.06-.01.13-.02.19-.01l5.15.64s20.36,19.23,19.34,18.96c0,0-29.75-7.78-29.75-7.78Z"/>
              </g>
              <path class="cls-20" d="m351.38,180.55c-21.93-4.47-98.29-24.27-98.29-24.27-30.41-7.15-27.16,11.37-27.16,11.37,0,0-7.56,11.35-30,13.74-22.44,2.38-91.76,6.91-91.76,6.91l-47.49-13.11,39.92,13.85c-42.81-10.73-92.94-44.59-117.13-44-24.19.6-145.85,39.98-145.85,39.98l-89.99-15.79,71.99,16.39c-17.42-.6-107.72-3.28-107.72-3.28l-7.03-4.77s-70.84-1.19-133.26,0c-62.42,1.19-187.64,13.41-187.64,13.41l4.07,2.83c-37.66-7.15-69.96-13.26-69.96-13.26l9.47,47.67h13.04l19.2-34.26h4.68l20.05,2.09,6.39,32.18h45.96l32.13-39.96,15.43-2.35,107.07-2.38-59.53,44.69h8.42l59.53-44.69h23.38l-50.23,36.65,18.76.3,50.47-35.46,49.97-.3,3.98,3.54-2.72,39.96h21.55l-5.38-38.14,5.53-2.76,95.81,2.16,13.22,38.73h7.19l7.17-38.14,81.75-5.66,20.24,5.36,7.64,38.43H13.73l-4.89-50.66,11.63,10.69,10.28,39.96h6.08l-.64-40.89,56.37,3.65-7,37.24h12.99l10.15-36.05,60.55-1.19,13.45,1.79,7.04,35.46h25.72l-.93-39.96,21.84-8.61,5.37,3.47-6,45.1h9.77l6.78-42.9,24.89-1.79,9.64,3.8,2.82,40.89h8.36l6.29-44.69h35.77l6.01,3.8,2.83,40.89h11.96l-9.47-47.67Z"/>
              <polygon class="cls-17" points="241.73 183.13 236.36 179.65 221.19 185.63 228.57 228.23 235.88 227.02 241.73 183.13"/>
              <path class="cls-22" d="m254.51,162.42c-30.41-7.15-27.79,7.76-27.79,7.76,0,0-8.35,8.83-30.79,11.21-22.44,2.38-91.76,6.91-91.76,6.91l-47.49-13.11,39.92,13.85c-42.81-10.73-102.41-32.57-126.61-31.97-24.2.6-136.38,27.95-136.38,27.95l-89.99-15.79,71.99,16.39c-17.42-.6-107.72-3.28-107.72-3.28l-7.03-4.77s-70.84-1.19-133.26,0c-62.42,1.19-187.64,13.41-187.64,13.41l4.07,2.83c-37.66-7.15-69.96-13.26-69.96-13.26l3.45,17.36,19.21-5.66-2.71,35.98h2.55l19.2-34.26h4.68l20.05,2.09,6.39,32.18h4.31l4.82-31.4,41.28-3.13-14.21,34.52h1.02l17.18-34.75,2.67.22-15.4,34.52h4.29l32.13-39.96,15.43-2.35,107.07-2.38-59.53,44.69h8.42l59.53-44.69h23.38l-50.23,36.65,5.61.09,45.37-32.94-34.46,33.11,2.24.04,50.47-35.46,49.97-.3,3.98,3.54-2.72,39.96h3.32l2.97-38.77,5.68.34,6.97,38.43h2.62l-5.38-38.14,5.53-2.76,95.81,2.16,13.22,38.73h1.73l-9.08-36.98,10.66-.34,3.14,37.32h.75l7.17-38.14,81.75-5.66,20.24,5.36,7.64,38.43h4.43l-1.29-38.95,39.36-3.96-3.24,42.9h3.31l6.07-42.9,8.4.78,2.07,42.12h10.37l-4.89-50.66,11.63,10.69,10.28,39.96h6.08l-.64-40.89,56.37,3.65-7,37.24h2.93l8.79-27.6-.96,27.6h2.23l10.15-36.05,60.55-1.19,13.45,1.79,7.04,35.46h3l-2.33-36.35,9.12-.89,15.5,37.24h.43l-.93-39.96,21.84-8.61,5.37,3.47-6,45.1h9.77l6.78-42.9,24.89-1.79,9.64,3.8,2.82,40.89h2.36l1.32-33.74,2.73,33.74h1.95l6.29-44.69h35.77l6.01,3.8,2.83,40.89h4.16l1.69-30.72-3.37-16.96c-21.93-4.47-96.87-18.13-96.87-18.13Z"/>
              <polygon class="cls-17" points="207.97 222.7 195.16 191.41 199.51 190.98 212.04 221.08 207.97 222.7"/>
              <polygon class="cls-17" points="170.64 222.7 169.89 190.98 182.68 192.77 186.95 220.54 170.64 222.7"/>
              <polygon class="cls-17" points="160.77 221.08 157.41 190.98 149.34 191.37 152.23 228.91 160.77 221.08"/>
              <polygon class="cls-17" points="86.64 222.45 86.64 190.6 72.15 189.66 66.63 222.94 86.64 222.45"/>
            </g>
            <g>
              <path class="cls-45" d="m254.88,162.63c0,14.84-57.34,27.08-127.63,27.08S0,177.27,0,162.42s56.97-26.88,127.26-26.88,127.63,12.24,127.63,27.08Z"/>
              <g class="cls-63">
                <path class="cls-25" d="m240.36,158.91c0,2.2-13.32,3.99-29.75,3.99s-29.75-1.79-29.75-3.99,13.32-5.36,29.75-5.36,29.75,3.15,29.75,5.36Z"/>
                <g class="cls-53">
                  <path class="cls-9" d="m314.65,163.04c.11-.37.65-1.47.65-1.47-.42-.1-5.25-2.63-5.88-2.97l4.59.58-6.43-1.08-.13.39s-.02.03-.05.03c-.02,0-.05,0-.07,0l-2.45-1.34-.57.38s-2.96.46-2.96.46c-.03,0-.05,0-.07-.01l-3.39-2.47-1.41.15s-.05,0-.06-.01l-1.28-.88,1.22,1.27,1.41-.38s.06,0,.08.01l3.36,2.43s.06.57.06.57c0,.02-.01.03-.03.04-.02,0-.05,0-.07,0l-3.87-1.46-2.73.77s-.06,0-.08,0l-3.45-2.28c.01-.07,1.89-.85,1.89-.85l-2.52.74-2.29.4,2.27-.31s.05,0,.06.01l1.04.63c.26.16-1.65,2.57-1.65,2.57l-2.14.81-3.8-1.15s-3.2,2.57-3.62,2.5c0,0-8.12-1.23-8.12-1.23-.02,0-.04-.01-.05-.02l-1.42-1.86s0-.05.03-.06l4.49-1.68s3.16.07,3.16.07c-1.47-.08-3.17-.18-4.14-.24.16.04.27.07.28.07.02,0,.04.02.04.04,0,.02-.01.03-.03.04l-4.95,1.9,1.42,1.31s.02.04,0,.05c-.02.02-.05.02-.08.02l-3.21-.65s-2.21-2.64-2.21-2.64l-1.13-.07s-1.43-.48-1.43-.48l1.6.65c.24.16-.56,1.3-.56,1.3,0,0-.13.7-.38.84l-1.08-.72-5.11.98s-3.57-.18-3.57-.18h-2.35s-2.13-.86-2.13-.86l-12.69-1.02.22.25c-.01.06-.03.06-.06.07l-2.5-.03s-.84-.15-.84-.15c0,0-7.66-1.34-7.66-1.34l3.95,1.11,3.21.34s.04.01.07.02c.5.1-6.24.09-6.24.09,0,0-2.23,1.18-4.31,1.71l-.95-3.43c.04-.05.06-.05.09-.05l2.81.49-4.71-1.07,1.6.79s.64,4.01.64,4.01l2.4,2.18s.02.04,0,.06c-.02.02-.06.02-.09,0l-2.78-1.09-.23-.13s-.06.02-.09,0l-8.15-3.22-.13.45c-.05.04-.08.04-.09.03l-.26-.07s-.04-.02-.04-.03l-.52-1.66c.04-.05.07-.05.09-.05l1.31.24s6.33,3.4,6.33,3.4l-6.26-3.61-5.22-.72,3.44.62s.04.02.05.03l.63,1.66s0,.03-.02.04c-.02.01-.05.01-.07,0l-1.3-.34-.13.4s-.03.03-.06.04l-2.36.21s-.04,0-.06-.01l-4.42-2.94-5.36-.38,4.79.63s.96.53.96.53c.16.09.11.26-4.2,1.62l-6.91-1.17,6.81,1.21s-3.37,1.23-6.38,1.8l-3.56-4.21-1.45-.58s-1.57-1.14-1.57-1.14l-.35,1.26s-.02.03-.05.03c-.02,0-.05,0-.07-.01l-.99-.61,2.06,2.05s.47,1.17.47,1.17l-.23-1.44-.31-.21c-.65-.43-.95-.69-.89-.77.06-.07.48-.82.63-1.1,0-.02.03-.03.06-.03.03,0,.05,0,.07.02l1.46,1.27.91.88,1.22,1.63s.48,1.71,0,1.44c0,0-1.48-1.02-1.48-1.02l.2.91s-.05.05-.07.05l-2.22.03s-.05,0-.06-.02l-.95-1.04-2.4,1.05s-.03,0-.05,0l-13.92-1.6,1.76.38s.05.03.05.05-.03.04-.06.04l-2.65.24s-.04,0-.06-.01l-2.26-1.46-1.73.54s-.05,0-.07,0c-.02,0-.03-.02-.03-.04l.11-.84-.36.47s-.02.02-.04.02c-.02,0-.04,0-.06,0l-1.66-.68-1.79.21s-6.09-2.13-6.09-2.13l4.87,2.35,2.85-.24s.05,0,.06.02l1.72,1.39,2.46-.47s.05,0,.07.01l1.37.93c0,.06-3.5,2.04-3.5,2.04-.03.02-.07.01-.1,0l-1.76-1.24-6.71,1.76s-.04,0-.06,0c-.04-.03-.55-1.07-.55-1.07l-5.63,1.99s-.05,0-.08,0l-1.63-.81.64.48c0,.06-.01.07-.04.07l-6.29,1.02s-1.31-.28-1.31-.28c-.49-.25-.82-1.54-.82-1.54-.79-1.34-.84-1.81-.84-1.91,1.73-.22,3.78-.46,3.78-.46h-.53l1.6-1.18-.2-.57s.07.45.06.56c0,.12-1.24,1.1-2.01,1.25s-5.39.68-5.39.68c0,0,.11.1-.46.7-.57.6-.96,1.11-1.19,1,0,0-2.04-1.02-2.04-1.02l-.11.21s-.04.03-.07.03l-10.08-.4,1.32.35s.05.03.04.05c0,.02-.03.04-.07.04,0,0-8.7-.03-8.7-.03l-4.77-.37-2.27,1.18,1.81-.77s15.4.11,15.4.11l5.73.86-3.72-.75s-.05-.03-.05-.05c0-.02.03-.04.07-.04,0,0,5.15.03,5.15.03.03,0,1.92.6,1.92.6l6.02,2.44-3.12-1.46s-.03-.04-.02-.05c.02-.02.05-.03.08-.02l4.87.96s.34.18.34.18v-.14s.02-.04.05-.04l6.05-.96s.04,0,.05,0l.64.23,5.72-1.12s.04,0,.06,0l.51.24,5.87-1.49s.04,0,.06,0l2.53.87,1.54-.49c.98-.15,3.55.26,3.55.26l.39.38s6.33-2.2,6.94-2.13l4.51.51c.62.19-4.51,1.7-4.51,1.7.43.24,2.42,2.77,2.42,2.77h.72c-1.49-.42-2.79-2.71-2.79-2.71,0,0,4.41-1.73,4.87-1.68l1.44.16,2.43-.58s.06,0,.08.01l1,.7,2.3-.09s.04,0,.05.01l1.88.99c.51.27,1.55,3.18,1.55,3.18h.17s-.38-.69-.37-1.36c0,0-.67-.84-1-1.64l3.97,2.09-4.21-2.9c-.5-.46-.66-1.97-.66-1.97,0,0-.81-.96-1-1.32l4.58,4.4-.82-.97c-.1-.12,6.31-2.02,6.31-2.02,0,0,7.28.12,7.73.29l.64.36,3.02-.41s1.16.28,1.16.28l3.43,1.16c.34.12.81,1.77.81,1.77l-5.08,1.59s5.15-1.57,5.72-1.54l-.52-.14s-.89-1.67-.37-1.49l8.22,2.78-.18-.22c-.11-.13,4.67-1.36,4.67-1.36,0,0,4.32,1.33,4.89,1.89,0,0,7.3-3.18,7.78-3.07.1.02.15.03.18.02l6.45,1.87,2.87-1.13s.05,0,.08,0l1.81.78,5.1.62-5.04-.87s-1.94-.92-1.94-.92l-1.27.65s-.06.01-.09,0l-5.76-2.76s-.03-.03-.02-.05c.01-.02.04-.03.07-.03l4.87.21s2.17,1.16,2.17,1.16l2.25-.12,3.65.03,5.23-.52s.04,0,.05,0l1.73.81s2.05,1.94,2.05,1.94l2.49-.58s1.99.35,1.99.35l-2.25-.65-2.14.65s-.07,0-.09-.01l-2.09-1.78-.64-.42c-.22-.27,1.07-2.14,1.18-2.09l.43.18s2.15,2.27,2.15,2.27l3.87.88,12.48,1.97,1.39-.91s.05-.02.08-.01l1.77.47-2.52-.85-.87,1.1s-.05.03-.08.02l-2.68-.41c-.29-.17,2.75-2.46,2.94-2.49.19-.03,3.85,1.13,3.85,1.13,2.15-.97,2.04-.61,2.04-.61,0,0,1.69-2.67,2.14-2.59l2.5,1.51,2.65-.44s.04,0,.05,0l7.31,2.69.78-.2s.05,0,.07,0l1.28.66,7.82,2.28h1.04l-.79-.12Zm-178.56-2.29s-.28-.14-.28-.14c0,0,1.37-1.67,1.77-1.79.15-.05,1.04-.17,2.1-.3,0,0,1.71,3.39,1.5,3.35l-5.09-1.11Zm34.4-.58c-.39,0-.28-.34-.28-.34,0,0-3.6-.19-3.23-.36.03-.02,5.63-1.8,5.63-1.8.04,0,1.03.11,1.03.11l.65,1.13s-3.41,1.27-3.8,1.26Zm3.91-1.3c-.28-.24-.58-.99-.62-1.08l2.76.31c.51.12-2.14.77-2.14.77Zm26-1.48s3.88-1.46,4.2-1.46l3.06,1.71s-5.6-.17-7.26-.25Zm34.86,4.44c-.44.49-1.06.42-1.06.42,0,0-3.6-1.61-4.87-1.86,0,0-2.11.87-4.8,1.27l-1.85-2.25s-.08-.28-.08-.28c-.11-.39,4.44-2.02,4.44-2.02,0,0,6.5-.1,7.24-.04.02,0,3.61,1.04,3.61,1.04l-2,.83-.43,1.65s.25.74-.2,1.24Zm.27-.1s.02-2.58.58-2.82c.45-.2,1.48-.61,1.89-.77l3.49,1.01c.18.13-3.19,1.64-5.96,2.58Zm14.56-1.29s-1.26.67-1.26.67c-.07,0-12.31-3.83-12.31-3.83-.03,0-.04-.03-.04-.05,0-.02.03-.04.07-.03l4.24.18s9.27,3.03,9.27,3.03c.02,0,.03.02.04.03Zm-1.12-.57s.03.04.02.06c-.01.01-.04.02-.06.02-.03,0-7.23-2.45-7.23-2.45-.03,0-.04-.03-.03-.05,0-.02.04-.03.07-.03l2.47.11s4.77,2.35,4.77,2.35Zm60.52-1.09c.18-.01,5.6,2.86,5.6,2.86-.14.69-.6,1.18-.75,1.32l-1.72-.47s-3.3-3.7-3.12-3.71Zm-2.92,2.05s-1.23-1.1-1.23-1.1l-.8.41s-.05.01-.08,0l-3.11-1.01s-.05-.04-.03-.06l.66-.99s.03-.02.05-.03l3.02-.51s.04,0,.06,0l2.22,1.07.74-.18s1.05.13,1.05.13c0,0,3.34,3.87,3.15,3.82l-5.7-1.57Z"/>
                </g>
              </g>
              <path class="cls-65" d="m186.1,161.17c5.36,1.04,14.34,1.73,24.51,1.73s18.34-.63,23.77-1.59c-5.38-1.43-14.3-2.63-24.4-2.63s-18.46,1.12-23.88,2.49Z"/>
              <path class="cls-13" d="m210.61,152.4c-19.06,0-34.51,4.14-34.51,7.03s15.45,5.23,34.51,5.23,34.51-2.34,34.51-5.23-15.45-7.03-34.51-7.03Zm0,10.49c-16.43,0-29.75-1.79-29.75-3.99s13.32-5.36,29.75-5.36,29.75,3.15,29.75,5.36-13.32,3.99-29.75,3.99Z"/>
              <path class="cls-38" d="m240.36,158.91c0,2.2-13.32,3.99-29.75,3.99s-29.75-1.79-29.75-3.99,13.32-5.36,29.75-5.36,29.75,3.15,29.75,5.36Z"/>
              <path class="cls-14" d="m127.26,189.3c60.28,0,110.76-8.85,123.92-20.73-2.13,1.43-5.68,2.36-10.82,2.45-7.73.14-4.63,4.37-23.58,9.27s-32.21,1.26-46.89,3.63c-14.68,2.37-44.37,7.1-59.52,2.68-15.16-4.42-24.95-4.74-43.73-3.16-18.79,1.58-26.05-7.1-36.47-8.84-10.42-1.74-32.37-5.84-29.76-14.32-.26.71-.4,1.42-.4,2.14,0,14.84,56.97,26.88,127.26,26.88Z"/>
              <path class="cls-31" d="m66.63,183.44c18.79-1.58,28.58-1.26,43.73,3.16,15.16,4.42,44.84-.32,59.52-2.68,14.68-2.37,27.95,1.26,46.89-3.63,5.39-1.39,8.99-2.73,11.57-3.94-34.63,11.64-68.73-15.01-66.2-10.8,2.53,4.21,26.74,12.63,9.89,16.21-16.84,3.58-24.21,1.26-37.65-4.19-13.44-5.45-29.03-4.85-17.04-2.05,11.99,2.8,13.02,12.85,0,11.5-13.02-1.35-27.62-8.63-42.78-13.47-15.16-4.84.42,5.26-4.84,6.74-4.18,1.17-13.78,3.11-23.32.42,5.23,1.98,11.47,3.47,20.22,2.74Z"/>
            </g>
          </g>
          <path class="cls-27" d="m50.26,148.04c-16.84-2.26-31.74,6.07,10.01,19.19,36.97,11.62,53.14,3.99,61.52-6.63,8.38-10.62-71.53-12.56-71.53-12.56Z"/>
          <path class="cls-24" d="m145.64,146.08c20.11,3.05,15.56,3.31-6.06,4.56-20.18,1.17-12.4,19.33-32.4,22.95,0,0,15.95,2.36-12.25,3.75-42.68,2.11-95.3-10.55-87.16-21.2,8.51-11.12,108.81-23.01,108.81-23.01l29.05,12.95Z"/>
          <path class="cls-51" d="m138.63,53.82s6.58-7.88,8.05-9.57c1.47-1.68,6.74-13.04,0-25.8-5.95-11.26-9.24-9.63-13.96-15.32-5.52-6.65-4.3-.66-4.3-.66,0,0-2.26-1.89-2.89,1.05,0,0-8.44-2.04-18,3.71-7.79,4.68-11.26,11.16-12.74,12.84-1.47,1.68-25.58,19.89-28.63,21.37-3.05,1.47-9.05,3.37-3.58,3.68,0,0-3.37,1.47-.21,1.47,0,0-17.89,17.05-25.74,41-7.42,22.66-3.25,37.5-5.21,44.05-.69,2.31-7.42,1.42-4.1,7.74,0,0-3.63,0,3.32,4.58,6.95,4.58,16.42,10.26,16.42,10.26,0,0,15.75,16.79,56.01,16.79,0,0,12.51-2.73,22.14-14.73,9.63-12,16.26-10.89,30.31-9.32l.35-4.1s-5.08-10.27-23.61-21.32c0,0,13.89,6.74,16.31,7.58,2.42.84,6.95-2,6.95-2,0,0-19.58-24.63-25.58-35.89s-12.79-26.05-12.79-26.05l-.63-6.32s20.63,7.05,22.1-5.05Z"/>
          <path class="cls-32" d="m118.15,75.13s7.73,18.31,13.49,26.84c5.77,8.53,20.53,22.21,17.1,23.16s-4.22,2.84-18.25-5.47c-14.03-8.32-22.24-27.89-22.24-27.89l9.89-16.63Z"/>
          <path class="cls-42" d="m132.85,121.84c-4.23-14.49-15.86-29.66-15.86-29.66,0,0,3.22-3.95,3.63-8.37.29-3.08-3.82-24.84-3.82-24.84,0,0,20.31,7.71,21.81-5.16,0,0,6.63-8.5,5.05-12.08-2.15-4.87-10.58,2.76-10.58,2.76,0,0,8.05-9.08-2.37-10.34-12.46-1.51-20.82,5.82-20.82,5.82,0,0-1.68-13.87-7.13-15.92-5.45-2.05-11.47,13.71.74,29.29,0,0-7.68-3.89-10.21,2.95-2.53,6.84,1.68,28,1.68,28,0,0-1.9-6.42-4.05-6-2.16.42-.32,40.1,15.95,61.42,0,0-.58-2.79,4.47-.95,5.05,1.84,8.21,7.95.42,8.68-7.79.74-31.89-7.74-43.26-31.89,0,0,.16,9,6.95,18.31,0,0,9.99,4.84,16.58,10.1,12,9.58,9.4,30.61,19.75,23.55,0,0,9.5-4.37,16.1-14.33,3.84-5.66,6.3-12.65,6.47-21.54.06-3.07-.51-6.38-1.48-9.73l-.03-.09Z"/>
          <path class="cls-36" d="m94.79,20.08c-.83.95-8.81,7.12-16.19,12.6,9.07-6.11,13.31,9.38,17.97,25.4,4.84,16.63,19.89,2.21,21.76,7.99-.82-4.01-1.52-7.1-1.52-7.1,0,0,11.2,4.25,17.58,1.16-7.34,3.08-32.14-8.51-35.5-20.27-3.37-11.77,1.17-15.4,1.17-15.4,0,0-.19-13.91,13.73-20.05-1.97.62-4.09,1.51-6.27,2.82-7.79,4.68-11.26,11.16-12.74,12.84Z"/>
          <g>
            <path class="cls-33" d="m108.78,41.54s9.48-6.24,19.29-4.32c9.81,1.92-3,14.21-9.45,13.07s-9.84-8.76-9.84-8.76Z"/>
            <path class="cls-59" d="m109.83,40.75s5.32,10.17,13.44,8.89c0,0-2.03,1.82-3.67,1.87-1.64.05-6.87-2.25-9.77-10.76Z"/>
            <path class="cls-44" d="m122.68,36.9s10.06.13,8.82,3.84c0,0,3.01-4.67-8.82-3.84Z"/>
            <path class="cls-29" d="m109.91,40.96s1.78,8.19,6.36,10.55c4.58,2.36,7-1.88,7-1.88,0,0-1.95,1.83-5.49.06s-6.36-5.57-7.87-8.73Z"/>
          </g>
          <g>
            <path class="cls-41" d="m130.49,51.45s1.18-5.45,6.95-7.97,7.32,3.08.55,10.34c0,0-6.67,1.03-7.5-2.37Z"/>
            <path class="cls-59" d="m130.7,51.5s-.16,1.48.74,2.39,5.09.75,6.7.22c0,0-5.4-.09-7.44-2.6Z"/>
            <path class="cls-44" d="m137.44,43.48s5.6-1.85,4.74,2.31c0,0,2.05-4.91-4.74-2.31Z"/>
            <path class="cls-26" d="m130.69,51.67s-.15,2.69,1.11,3.43c1.25.74,5.25-.22,6.34-1,0,0-6.17,1.48-7.45-2.43Z"/>
          </g>
          <path class="cls-35" d="m116.81,58.98s-14.96-3.02-19.02-16.11c-4.06-13.09-2.27-23.62-2.27-23.62,0,0-1.27,1.67-3.27,2.99,0,0,2.11,1.58,3.64,15.16,1.53,13.58,5.72,18.97,12.89,20.16,7.18,1.18,7.82,1.7,8.57,3.87l-.54-2.45Z"/>
          <path class="cls-10" d="m101.84,24.35c5.05-.47,11.21,19.32,6.59,25.25-2.22,2.85-5.27,1.93-8.64-4.42-3.13-5.9-3.92-20.27,2.04-20.82Z"/>
          <path class="cls-55" d="m104.55,34.65c3.84-.38,6.99,12.57,4.5,13.96-5.13,2.88-12.22-13.21-4.5-13.96Z"/>
          <path class="cls-23" d="m68.52,115.55s-6.95-13.1-7.26-35.37c0,0-10.26,28.89,7.26,35.37Z"/>
          <path class="cls-62" d="m128.81,51.7s-6.48,4.41-13.03,3.87c0,0,8.3,10.47,9.85,11.27,0,0,4.69-2.04,3.17-15.14Z"/>
          <g class="cls-48">
            <path class="cls-3" d="m130.2,60.67c-3.8-.75,5.19-5.76,8.99-6.51,3.8-.75.06,8.3-8.99,6.51Z"/>
            <path class="cls-55" d="m132.87,58.69c-.34-2.15,6.6-5.04,7.45-3.74,1.75,2.67-6.76,8.07-7.45,3.74Z"/>
          </g>
          <path class="cls-21" d="m62.58,45.13s-3.37,1.47-.21,1.47c0,0-17.89,17.05-25.74,41-7.42,22.66-3.25,37.5-5.21,44.05-.69,2.31-7.42,1.42-4.11,7.74,0,0-3.63,0,3.32,4.58,6.95,4.58,16.42,10.26,16.42,10.26,0,0,15.75,16.79,56.01,16.79,0,0,2.49-.55,6.1-2.21.78-.2,1.64-.61,2.63-1.28,0,0,9.5-4.37,16.1-14.33,8.28-8.69,14.92-7.65,27.62-6.22l.35-4.1s-.57-1.15-2.03-3.1c2.77,3.71-3.62,3.16-8.27.64-4.64-2.52-12.15-18.19-4.43-12.92-2.39-1.8-5.12-3.67-8.26-5.57,0,0-.03-.09-.03-.09,2.68,1.3,13.6,6.55,15.72,7.29,2.42.84,6.95-2,6.95-2,0,0-1.69-2.13-4.23-5.41,4.83,8.06-17.24-5.64-21.46-14.37-4.21-8.74-10.1-33.89-6.8-29.76-1.9-3.91-3.55-7.39-4.61-9.65,0,0,2.15,14.29,2.15,14.29-4.31,11.2-24.11-.46-28.32-7.72-4.21-7.26-13.78-7.26,2.24,7.06,16.03,14.33,26.08,2.67,26.08,2.67-.63,4.79-3.58,7.95-3.58,7.95-6.1-5.89-15.16,3.32-19.61.47-4.45-2.84-7.16-7.75-7.16-7.75-.24,25.57,13.97,52.9,2.02,43.5-11.95-9.41-26.73-47.73-22.63-70.13,4.11-22.39,11.79-20.55,11.79-20.55,0,0-6.85-.98-14.9,3.52-.14.08-.26.15-.36.19-3.05,1.47-9.05,3.37-3.58,3.68Zm35.53,50.05c9.92-4.64,19.68-2.21,23.63,3.95,3.95,6.16,12.16,16.66-8.84,14.01-21-2.65-22.81-14.21-14.79-17.96Zm-23.93,38.25s12.12,5.17,18,11.68c9.38,10.38-29.52-3.95-39.16-10-9.63-6.06,8.05-7.21,21.16-1.68Z"/>
          <path class="cls-15" d="m131.68,139.84c-1.22,9.52-7.2,14.65-11.04,16.87-3.85,2.22,9.08-14.87,10.79-29.82.9-7.86,1.71,1.61.26,12.95Z"/>
          <g>
            <path class="cls-56" d="m128.45,133.23c-7.42,2.14-13.82,4.11-21.56,6.48.79,1.07,1.22,1.58,2.1,2.48,5.56-1.98,12.11-4.25,19.34-6.64,22.04-7.29,55.89-17.69,81.53-22.39l-.26-1.16s-39.27,9.18-81.15,21.23Z"/>
            <path class="cls-57" d="m92.9,144.7s.03.03.04.04c.52.47,1.01.96,1.47,1.47.51.55,1.06,1.18,1.48,1.78.01.02.03.04.04.06,0,0,2.18-.86,6.05-2.31-1.72-.58-3.55-1.32-5.45-2.21-1.22.39-2.43.78-3.64,1.17Z"/>
          </g>
          <path class="cls-52" d="m208.55,113.4v49.49h.65s-.49-38.57-.33-44.42.98-5.32.98-5.32l-1.31.24Z"/>
          <path class="cls-40" d="m108.99,142.19c5.56-1.98,12.11-4.25,19.34-6.64,17.15-5.68,41.44-13.22,63.46-18.51-18.85,4.41-35.63,9.3-35.63,9.3l-.91-.56c-1.91.51-3.84,1.04-5.8,1.57l-1.19,1.57-38.84,11.89-1.5-1.42c-.34.11-.68.21-1.03.31.79,1.07,1.22,1.58,2.1,2.48Z"/>
          <path class="cls-28" d="m92.94,144.74c.52.47,1.01.96,1.47,1.47.51.55,1.06,1.18,1.48,1.78.01.02.03.04.04.06,0,0,2.18-.86,6.05-2.31-1.72-.58-3.55-1.32-5.45-2.21-.2.06-.4.13-.6.19l2.26,2.86h-1.42l-3.1-2.13c-.26.08-.52.17-.79.25,0,0,.03.03.04.04Z"/>
          <path class="cls-47" d="m149.07,128.97c2.42-2.57,5.29-2.69,6.79-2.02,1.51.67,1.71,5.25-7.12,2.23l.33-.21Z"/>
          <path class="cls-23" d="m31.42,131.66c-.69,2.31-7.42,1.42-4.11,7.74,0,0-3.63,0,3.32,4.58,6.95,4.58,16.42,10.26,16.42,10.26,0,0,15.75,16.79,56.01,16.79,0,0,2.49-.55,6.1-2.21.78-.2,1.64-.61,2.63-1.28,0,0,9.5-4.37,16.1-14.33,8.28-8.69,14.92-7.65,27.62-6.22l.06-.67c-3.29-2.68-8.62-6.71-12.23-7.8-5.55-1.68-11.51,7.53-16.67,15.05s-7.15,7-10.89,6.74c-3.74-.26-4.31,3.17-19.23,3.58-14.92.41-40.34-14.68-41.92-15.7-1.58-1.02-17.68-9.09-19.27-18.55-1.58-9.46.2-38.53,6.45-54.47-1.95,3.88-3.74,8.05-5.18,12.46-7.42,22.66-3.25,37.5-5.21,44.05Z"/>
          <path class="cls-43" d="m114.28,174.63s-4.67-16.77-5.5-26.46c0,0-1.9.91-2.83,3.22-.94,2.31-.83,5.13-.83,5.13,0,0-4.35-7.14-7.01-11.47,0,0-2.55,4.13-2.2,7.45.35,3.32,2.22,6.44,2.22,6.44,0,0-3.88-2.31-6.02-5.03,0,0-2.62,4.09.27,7.48,3.59,4.21,14.24,12.94,17.26,13.85,3.02.91,4.65-.6,4.65-.6Z"/>
          <path class="cls-64" d="m157.84,148.81s6.32-8.84,15.47-15.05h-1.47s2.42-2.42,4.74-4.53c0,0-4.42-1.05-7.05,0-2.63,1.05-4.53,3.16-4.53,3.16l3.05-4.21s-5.05.32-7.16,2.42-2.63,12.1-3.05,13.16c-.42,1.05-4.95-4.21-2.95,0,0,0-5.37.95-2,2.32,3.37,1.37,4.95,2.74,4.95,2.74Z"/>
          <path class="cls-34" d="m154.89,143.76s-5.37.95-2,2.32c3.37,1.37,4.95,2.74,4.95,2.74,0,0,6.32-8.84,15.47-15.05h-1.47c-2.56,2.5-8.97,6.74-8.97,6.74,0,0,5.03-11.46,7.74-11.57-.38.07-.75.17-1.08.31-2.63,1.05-4.53,3.16-4.53,3.16-1.82,4-5.01,9.8-5.01,9.8,0,0-.47-8.44.27-10.62-1.58,3.24-2.04,11.25-2.42,12.19-.42,1.05-4.95-4.21-2.95,0Z"/>
          <path class="cls-34" d="m105,165.92s-5.53-8.29-6.24-10.57c-.71-2.28-1.89-6.4-.67-10.3,0,0-2.55,4.13-2.2,7.45.35,3.32,2.22,6.44,2.22,6.44,2.75,1.91,6.89,6.98,6.89,6.98Z"/>
          <path class="cls-34" d="m110.92,174.6c-2.47-.55-14.53-10.89-16.74-13.26s-2.09-7.44-2.09-7.44c0,0-2.62,4.09.27,7.48,3.59,4.21,14.24,12.94,17.26,13.85,3.02.91,4.65-.6,4.65-.6,0,0-.88.52-3.36-.03Z"/>
          <path class="cls-34" d="m106.89,154.79c-.24-4.18,1.88-6.62,1.88-6.62,0,0-1.9.91-2.83,3.22-.94,2.31-.83,5.13-.83,5.13.67,1.1,3.37,7.35,3.37,7.35,0,0-1.34-4.89-1.58-9.08Z"/>
          <path class="cls-2" d="m149.37,30.01c.44,17.51-18.75,5.48-25.06-7.47-5.82-11.94,24.37-20.03,25.06,7.47Z"/>
          <path class="cls-54" d="m128.63,29.87c-2.14-1.57-3.38-2.58-2.49-3.66.9-1.08,6.97,6.96,2.49,3.66Z"/>
          <path class="cls-39" d="m125.63,66.83s.67-.3,1.43-1.38c-1.69,1.64-6.43-8.63-4.94-9.4,3.08-1.58,5.14-3.43,5.14-3.43-7.03,3.77-14.21,1.35-14.21,1.35l4.76,5.3.03.07c.36.12.81.26,1.32.41,2.49,3.02,5.58,6.64,6.47,7.09Z"/>
          <path class="cls-5" d="m128.37,52.62s-2.9,5.71-1.99,8.73.75,2.57.75,2.57c0,0,2.97-.86,1.25-11.3Z"/>
          <path class="cls-18" d="m83.12,81.73c4.83-1.54,12.1,35.63,13.04,41.09,2.76,16.06-9.59,1.68-17.55-14.05-6.88-13.6,4.52-27.04,4.52-27.04Z"/>
          <path class="cls-11" d="m71.93,90.46c3.55,6.34,19.84,4.11,18.49.53l1.78,11.62s-2.1-10.07-8.21-7.5c-6.11,2.57-7.03,9.23-7.03,9.23l-5.03-13.87Z"/>
          <path class="cls-50" d="m83.09,117.28c-1.43-1.98-2.26-3.23-1.84-4.39s4.83,8.53,1.84,4.39Z"/>
          <path class="cls-15" d="m36.6,133.13c-2.82-5.1-1.64-15.38.45-18.74s.27,13.21,6.68,24.13c3.37,5.75-3.27,1.6-7.13-5.39Z"/>
          <path class="cls-12" d="m61.42,82.41c-.54-8.86,2.84-14.2,5.91-16.95,3.07-2.75-5.36,19.36-2.85,32.63,1.32,6.97-1.87,3.81-3.06-15.68Z"/>
          <path class="cls-12" d="m96.73,21.63c.58-4.44,2.54-6.88,4.12-8.06s-4.11,9.3-4.25,16.04c-.07,3.55-1.16,1.78.12-7.98Z"/>
          <path class="cls-59" d="m114.39,54.77s2.25.87,3.39,1.3c1.14.43,7.85,10.76,7.85,10.76,0,0-6.7-9.03-8.52-10.21-1.82-1.18-2.72-1.86-2.72-1.86Z"/>
          <path class="cls-6" d="m95.85,78.67c8.04,7.59,19.39,9.9,22.68,6.54,3.29-3.37,1.15-9.52.44-11.18-.71-1.66,1.82,4.72-5.37,6.34-7.18,1.63-15.63-1.26-19.9-5.24-4.27-3.98,2.15,3.54,2.15,3.54Z"/>
          <path class="cls-19" d="m93.81,100.16c1.16-5.06,10.33-8.17,17.11-7.24,6.78.92,10.14,4.82,12.33,8.55,2.19,3.73-.73-2.49-11.62-1.7-10.89.79-13.03,8.84-15.79,6-2.76-2.84-2.03-5.6-2.03-5.6Z"/>
          <path class="cls-23" d="m57.21,129.84s12.87,1.12,18.26,4.03c0,0-5.63-5.05-9.63-5.68-4-.63-8.63,1.66-8.63,1.66Z"/>
          <path class="cls-7" d="m138.14,110.1c6.04,6.91,5.64,2.16-5.12-13.69-10.76-15.85-7.65-3.37-4.26,1.46,3.4,4.83,9.38,12.23,9.38,12.23Z"/>
          <path class="cls-1" d="m123.71,87.53c1.88,2.38,3.44-1.68,3.44-1.68l2.09,4.05s-2.05-3.13-3.03-1.27c-.98,1.86-.63,2.57-.63,2.57l-1.86-3.67Z"/>
          <path class="cls-23" d="m90.24,89.13c-.35-6.94-4.21-26.11-2.29-20.79,1.92,5.33,5.86,9.44,5.34,11.84-.52,2.4-3.04,8.95-3.04,8.95Z"/>
          <path class="cls-23" d="m118.94,89.13s12.85,18.04,20.27,24.43c7.41,6.39-3.01-5.14-6.73-10.42-3.72-5.28-12.17-22.73-12.17-22.73,0,0,1.58,4.45-1.37,8.71Z"/>
          <path class="cls-8" d="m101.71,16.74c3.74-6.22,41.24-6.86,46.11,4.45,4.87,11.31,0,.34,0,.34,0,0-2.51-6.8-5.36-9.67,0,0,3.6,5.64-5.4,1.61-9-4.02-19.73-3.53-27.13-1.02-7.41,2.5-3.69-2.8-3.69-2.8,0,0-1.98,2.11-2.9,3.82-.92,1.71-1.61,3.26-1.61,3.26Z"/>
          <path class="cls-4" d="m119.76,76.04c1.41,6.82.17,10.68-6.85,10.81-2.98.06,1.76-1.43,4.11-10.32.51-1.92.49-6.47.7-8.4.46-4.26.36-.22,2.04,7.91Z"/>
          <g class="cls-66">
            <path class="cls-58" d="m151.81,46.03l-.33,2.99s1.88.24,3.06.84c0,0-2.88.3-3.61,1.36l.02,1.73s2.76.81,5.22,2.54l1.74-2.18-.44-.73c-.92-.48-2.51-1.17-3.66-1.28,0,0,2.14-.91,3.96-.46l1.73-2.02-.32-.75c-1.15-.65-3.66-1.79-7.37-2.04Z"/>
            <path class="cls-30" d="m151.15,52.77l-.22-1.54.02,1.73s2.76.81,5.22,2.54l1.74-2.18-.44-.73-1.18,1.95c-1.47-1.25-5.14-1.77-5.14-1.77Z"/>
            <path class="cls-30" d="m154.54,49.86c2.02-.42,2.92-.29,2.92-.29-3.97-1.06-5.69-1.08-5.69-1.08l.04-2.47-.33,2.99s1.88.24,3.06.84Z"/>
            <path class="cls-30" d="m152.92,51.23l.88.07s2.14-.91,3.96-.46l1.73-2.02-.32-.75-1.53,1.77c-3.51.21-4.72,1.39-4.72,1.39Z"/>
          </g>
          <g class="cls-66">
            <path class="cls-58" d="m167.23,37.37l-1.89,3.36s2.1,1.23,3.18,2.53c0,0-3.55-1.09-4.94-.21l-.84,2.06s2.85,2.34,4.89,5.62l3.15-1.7-.16-1.09c-.84-1.02-2.37-2.65-3.68-3.35,0,0,2.99,0,4.91,1.45l3.05-1.52v-1.04c-1.03-1.35-3.42-3.95-7.67-6.11Z"/>
            <path class="cls-30" d="m163.06,44.99l.52-1.93-.84,2.06s2.85,2.34,4.89,5.62l3.15-1.7-.16-1.09-2.37,1.71c-1.11-2.22-5.18-4.67-5.18-4.67Z"/>
            <path class="cls-30" d="m168.52,43.27c2.6.52,3.59,1.13,3.59,1.13-4.16-3.25-6.17-4.13-6.17-4.13l1.28-2.89-1.89,3.36s2.1,1.23,3.18,2.53Z"/>
            <path class="cls-30" d="m165.92,44.07l1.01.53s2.99,0,4.91,1.45l3.05-1.52v-1.04s-2.7,1.32-2.7,1.32c-4.25-1.51-6.27-.74-6.27-.74Z"/>
          </g>
          <g class="cls-66">
            <path class="cls-58" d="m159.24,15.34l-1.34,5.08s3.19.91,5.06,2.25c0,0-5.05-.23-6.59,1.41l-.41,3s4.56,2.11,8.36,5.74l3.57-3.31-.58-1.38c-1.46-1.06-4.03-2.68-6-3.16,0,0,3.93-1.02,6.96.23l3.5-3.04-.35-1.38c-1.81-1.42-5.85-4.04-12.19-5.44Z"/>
            <path class="cls-30" d="m156.35,26.8l.03-2.72-.41,3s4.56,2.11,8.36,5.74l3.57-3.31-.58-1.38-2.54,3.06c-2.22-2.55-8.42-4.39-8.42-4.39Z"/>
            <path class="cls-30" d="m162.96,22.67c3.6-.21,5.12.26,5.12.26-6.59-2.87-9.54-3.34-9.54-3.34l.7-4.25-1.34,5.08s3.19.91,5.06,2.25Z"/>
            <path class="cls-30" d="m159.81,24.62l1.51.35s3.93-1.02,6.96.23l3.5-3.04-.35-1.38-3.11,2.67c-6.12-.54-8.52,1.17-8.52,1.17Z"/>
          </g>
        </g>
      </g>
    </g>
  </g>
</svg>