<?xml version="1.0" encoding="UTF-8"?>
<svg xmlns="http://www.w3.org/2000/svg" xmlns:xlink="http://www.w3.org/1999/xlink" viewBox="0 0 112.34 104">
  <defs>
    <style>
      .cls-1 {
        fill: url(#_Áåçûìÿííûé_ãðàäèåíò_14);
      }

      .cls-1, .cls-2, .cls-3, .cls-4, .cls-5, .cls-6, .cls-7, .cls-8, .cls-9, .cls-10, .cls-11, .cls-12, .cls-13, .cls-14, .cls-15, .cls-16, .cls-17, .cls-18, .cls-19, .cls-20, .cls-21, .cls-22, .cls-23 {
        mix-blend-mode: multiply;
      }

      .cls-1, .cls-2, .cls-4, .cls-5, .cls-9, .cls-10, .cls-11, .cls-12, .cls-13, .cls-15, .cls-16, .cls-19, .cls-21 {
        opacity: .74;
      }

      .cls-24 {
        fill: url(#_Áåçûìÿííûé_ãðàäèåíò_43);
      }

      .cls-24, .cls-25, .cls-26, .cls-27, .cls-28, .cls-29, .cls-30, .cls-31, .cls-32, .cls-33, .cls-4, .cls-34, .cls-35, .cls-36, .cls-37, .cls-38, .cls-6, .cls-39, .cls-7, .cls-40, .cls-41, .cls-42, .cls-43, .cls-44, .cls-45, .cls-46, .cls-47, .cls-11, .cls-48, .cls-49, .cls-50, .cls-51, .cls-52, .cls-53, .cls-54, .cls-55, .cls-56, .cls-14, .cls-57, .cls-58, .cls-15, .cls-59, .cls-60, .cls-17, .cls-61, .cls-62, .cls-63, .cls-64, .cls-65, .cls-66, .cls-20, .cls-21, .cls-67, .cls-68 {
        fill-rule: evenodd;
      }

      .cls-25 {
        fill: url(#_Áåçûìÿííûé_ãðàäèåíò_109-3);
      }

      .cls-2 {
        fill: url(#_Áåçûìÿííûé_ãðàäèåíò_14-4);
      }

      .cls-26 {
        fill: url(#_Áåçûìÿííûé_ãðàäèåíò_106-2);
      }

      .cls-27 {
        fill: url(#_Áåçûìÿííûé_ãðàäèåíò_43-4);
      }

      .cls-28 {
        fill: url(#_Áåçûìÿííûé_ãðàäèåíò_43-2);
      }

      .cls-29 {
        fill: #fff;
      }

      .cls-69 {
        fill: url(#_Áåçûìÿííûé_ãðàäèåíò_9-5);
      }

      .cls-30 {
        fill: url(#_Áåçûìÿííûé_ãðàäèåíò_13);
      }

      .cls-70 {
        fill: url(#_Áåçûìÿííûé_ãðàäèåíò_257-13);
      }

      .cls-70, .cls-35, .cls-36, .cls-37, .cls-39, .cls-71, .cls-43, .cls-72, .cls-44, .cls-49, .cls-51, .cls-73, .cls-74, .cls-75, .cls-61, .cls-76, .cls-77, .cls-66, .cls-78, .cls-79 {
        mix-blend-mode: soft-light;
      }

      .cls-31 {
        fill: #420056;
      }

      .cls-32 {
        fill: url(#_Áåçûìÿííûé_ãðàäèåíò_99-2);
      }

      .cls-33 {
        fill: url(#_Áåçûìÿííûé_ãðàäèåíò_62);
      }

      .cls-3 {
        fill: url(#_Áåçûìÿííûé_ãðàäèåíò_60);
      }

      .cls-3, .cls-8, .cls-17, .cls-18 {
        opacity: .5;
      }

      .cls-4 {
        fill: url(#_Áåçûìÿííûé_ãðàäèåíò_146-2);
      }

      .cls-5 {
        fill: url(#_Áåçûìÿííûé_ãðàäèåíò_14-8);
      }

      .cls-34 {
        fill: url(#_Áåçûìÿííûé_ãðàäèåíò_13-2);
      }

      .cls-80 {
        isolation: isolate;
      }

      .cls-35 {
        fill: url(#_Áåçûìÿííûé_ãðàäèåíò_257-5);
      }

      .cls-35, .cls-36, .cls-43, .cls-49, .cls-51 {
        opacity: .69;
      }

      .cls-36 {
        fill: url(#_Áåçûìÿííûé_ãðàäèåíò_257-9);
      }

      .cls-37 {
        fill: url(#_Áåçûìÿííûé_ãðàäèåíò_257-4);
      }

      .cls-38 {
        fill: url(#_Áåçûìÿííûé_ãðàäèåíò_99-3);
      }

      .cls-81 {
        fill: url(#_Áåçûìÿííûé_ãðàäèåíò_9-3);
      }

      .cls-6 {
        fill: url(#_Áåçûìÿííûé_ãðàäèåíò_190);
      }

      .cls-6, .cls-7, .cls-14, .cls-20 {
        opacity: .9;
      }

      .cls-39 {
        fill: url(#_Áåçûìÿííûé_ãðàäèåíò_257-7);
      }

      .cls-82 {
        fill: url(#_Áåçûìÿííûé_ãðàäèåíò_257-19);
      }

      .cls-83 {
        fill: url(#_Áåçûìÿííûé_ãðàäèåíò_9-2);
      }

      .cls-84 {
        fill: url(#_Áåçûìÿííûé_ãðàäèåíò_272);
      }

      .cls-85 {
        fill: url(#_Áåçûìÿííûé_ãðàäèåíò_288-3);
      }

      .cls-71 {
        fill: url(#_Áåçûìÿííûé_ãðàäèåíò_257-11);
      }

      .cls-86 {
        fill: url(#_Áåçûìÿííûé_ãðàäèåíò_9-4);
      }

      .cls-7 {
        fill: url(#_Áåçûìÿííûé_ãðàäèåíò_190-2);
      }

      .cls-40 {
        fill: url(#_Áåçûìÿííûé_ãðàäèåíò_106);
      }

      .cls-8 {
        fill: url(#_Áåçûìÿííûé_ãðàäèåíò_60-2);
      }

      .cls-87 {
        fill: url(#_Áåçûìÿííûé_ãðàäèåíò_9);
      }

      .cls-9 {
        fill: url(#_Áåçûìÿííûé_ãðàäèåíò_14-3);
      }

      .cls-41 {
        fill: url(#_Áåçûìÿííûé_ãðàäèåíò_36-4);
      }

      .cls-42 {
        fill: url(#_Áåçûìÿííûé_ãðàäèåíò_43-3);
      }

      .cls-43 {
        fill: url(#_Áåçûìÿííûé_ãðàäèåíò_257-2);
      }

      .cls-72 {
        fill: url(#_Áåçûìÿííûé_ãðàäèåíò_257-17);
      }

      .cls-44 {
        fill: url(#_Áåçûìÿííûé_ãðàäèåíò_257-8);
      }

      .cls-45 {
        fill: url(#_Áåçûìÿííûé_ãðàäèåíò_126-2);
      }

      .cls-46 {
        fill: url(#_Áåçûìÿííûé_ãðàäèåíò_109-4);
      }

      .cls-10 {
        fill: url(#_Áåçûìÿííûé_ãðàäèåíò_14-10);
      }

      .cls-47 {
        fill: url(#_Áåçûìÿííûé_ãðàäèåíò_36-5);
      }

      .cls-11 {
        fill: url(#_Áåçûìÿííûé_ãðàäèåíò_146-4);
      }

      .cls-48 {
        fill: url(#_Áåçûìÿííûé_ãðàäèåíò_109-2);
      }

      .cls-49 {
        fill: url(#_Áåçûìÿííûé_ãðàäèåíò_257-10);
      }

      .cls-50 {
        fill: url(#_Áåçûìÿííûé_ãðàäèåíò_196-2);
      }

      .cls-50, .cls-57, .cls-65, .cls-67 {
        mix-blend-mode: screen;
      }

      .cls-50, .cls-57, .cls-65, .cls-67, .cls-22, .cls-23 {
        opacity: .4;
      }

      .cls-51 {
        fill: url(#_Áåçûìÿííûé_ãðàäèåíò_257-6);
      }

      .cls-12 {
        fill: url(#_Áåçûìÿííûé_ãðàäèåíò_14-6);
      }

      .cls-13 {
        fill: url(#_Áåçûìÿííûé_ãðàäèåíò_14-9);
      }

      .cls-52 {
        fill: url(#_Áåçûìÿííûé_ãðàäèåíò_36-3);
      }

      .cls-53 {
        fill: url(#_Áåçûìÿííûé_ãðàäèåíò_12);
      }

      .cls-88 {
        fill: url(#_Áåçûìÿííûé_ãðàäèåíò_288);
      }

      .cls-54 {
        fill: #d26faa;
      }

      .cls-55 {
        fill: url(#_Áåçûìÿííûé_ãðàäèåíò_36-2);
      }

      .cls-56 {
        fill: url(#_Áåçûìÿííûé_ãðàäèåíò_91);
      }

      .cls-14 {
        fill: url(#_Áåçûìÿííûé_ãðàäèåíò_190-4);
      }

      .cls-57 {
        fill: url(#_Áåçûìÿííûé_ãðàäèåíò_196-3);
      }

      .cls-58 {
        fill: url(#_Áåçûìÿííûé_ãðàäèåíò_36-6);
      }

      .cls-15 {
        fill: url(#_Áåçûìÿííûé_ãðàäèåíò_146-5);
      }

      .cls-73 {
        fill: url(#_Áåçûìÿííûé_ãðàäèåíò_287-2);
      }

      .cls-74 {
        fill: url(#_Áåçûìÿííûé_ãðàäèåíò_257-14);
      }

      .cls-16 {
        fill: url(#_Áåçûìÿííûé_ãðàäèåíò_14-11);
      }

      .cls-89 {
        fill: url(#_Áåçûìÿííûé_ãðàäèåíò_272-3);
      }

      .cls-75 {
        fill: url(#_Áåçûìÿííûé_ãðàäèåíò_287);
      }

      .cls-59 {
        fill: url(#_Áåçûìÿííûé_ãðàäèåíò_109);
      }

      .cls-60 {
        fill: url(#_Áåçûìÿííûé_ãðàäèåíò_99);
      }

      .cls-17 {
        fill: url(#_Áåçûìÿííûé_ãðàäèåíò_146-3);
      }

      .cls-61 {
        fill: url(#_Áåçûìÿííûé_ãðàäèåíò_257-3);
        opacity: .33;
      }

      .cls-62 {
        fill: url(#_Áåçûìÿííûé_ãðàäèåíò_126);
      }

      .cls-63 {
        fill: url(#_Áåçûìÿííûé_ãðàäèåíò_91-2);
      }

      .cls-64 {
        fill: url(#_Áåçûìÿííûé_ãðàäèåíò_43-5);
      }

      .cls-76 {
        fill: url(#_Áåçûìÿííûé_ãðàäèåíò_257-15);
      }

      .cls-18 {
        fill: url(#_Áåçûìÿííûé_ãðàäèåíò_60-3);
      }

      .cls-77 {
        fill: url(#_Áåçûìÿííûé_ãðàäèåíò_257-16);
      }

      .cls-65 {
        fill: url(#_Áåçûìÿííûé_ãðàäèåíò_196-4);
      }

      .cls-90 {
        fill: url(#_Áåçûìÿííûé_ãðàäèåíò_272-2);
      }

      .cls-66 {
        fill: url(#_Áåçûìÿííûé_ãðàäèåíò_257);
      }

      .cls-19 {
        fill: url(#_Áåçûìÿííûé_ãðàäèåíò_14-7);
      }

      .cls-78 {
        fill: url(#_Áåçûìÿííûé_ãðàäèåíò_257-18);
      }

      .cls-20 {
        fill: url(#_Áåçûìÿííûé_ãðàäèåíò_190-3);
      }

      .cls-21 {
        fill: url(#_Áåçûìÿííûé_ãðàäèåíò_146);
      }

      .cls-67 {
        fill: url(#_Áåçûìÿííûé_ãðàäèåíò_196);
      }

      .cls-22 {
        fill: url(#_Áåçûìÿííûé_ãðàäèåíò_14-5);
      }

      .cls-79 {
        fill: url(#_Áåçûìÿííûé_ãðàäèåíò_257-12);
      }

      .cls-91 {
        fill: url(#_Áåçûìÿííûé_ãðàäèåíò_288-2);
      }

      .cls-68 {
        fill: url(#_Áåçûìÿííûé_ãðàäèåíò_36);
      }

      .cls-23 {
        fill: url(#_Áåçûìÿííûé_ãðàäèåíò_14-2);
      }
    </style>
    <radialGradient id="_Áåçûìÿííûé_ãðàäèåíò_99" data-name="Áåçûìÿííûé ãðàäèåíò 99" cx="60.71" cy="94.34" fx="60.71" fy="94.34" r="2.78" gradientUnits="userSpaceOnUse">
      <stop offset="0" stop-color="#874962"/>
      <stop offset=".25" stop-color="#844561"/>
      <stop offset=".44" stop-color="#7a3c5f"/>
      <stop offset=".61" stop-color="#6b2b5d"/>
      <stop offset=".76" stop-color="#551459"/>
      <stop offset=".87" stop-color="#420056"/>
    </radialGradient>
    <linearGradient id="_Áåçûìÿííûé_ãðàäèåíò_109" data-name="Áåçûìÿííûé ãðàäèåíò 109" x1="103.1" y1="34.46" x2="51.05" y2="35.07" gradientUnits="userSpaceOnUse">
      <stop offset="0" stop-color="#874962"/>
      <stop offset=".25" stop-color="#844561"/>
      <stop offset=".44" stop-color="#7a3c5f"/>
      <stop offset=".61" stop-color="#6b2b5d"/>
      <stop offset=".76" stop-color="#551459"/>
      <stop offset=".87" stop-color="#420056"/>
    </linearGradient>
    <linearGradient id="_Áåçûìÿííûé_ãðàäèåíò_43" data-name="Áåçûìÿííûé ãðàäèåíò 43" x1="68.02" y1="32.3" x2="52.86" y2="45.69" gradientUnits="userSpaceOnUse">
      <stop offset="0" stop-color="#874962"/>
      <stop offset=".08" stop-color="#7a3b5f"/>
      <stop offset=".29" stop-color="#5b1b5a"/>
      <stop offset=".47" stop-color="#480757"/>
      <stop offset=".59" stop-color="#420056"/>
    </linearGradient>
    <radialGradient id="_Áåçûìÿííûé_ãðàäèåíò_99-2" data-name="Áåçûìÿííûé ãðàäèåíò 99" cx="36.53" cy="-9.97" fx="36.53" fy="-9.97" r="46.59" xlink:href="#_Áåçûìÿííûé_ãðàäèåíò_99"/>
    <radialGradient id="_Áåçûìÿííûé_ãðàäèåíò_12" data-name="Áåçûìÿííûé ãðàäèåíò 12" cx="48.3" cy="28.76" fx="48.3" fy="28.76" r="57.88" gradientUnits="userSpaceOnUse">
      <stop offset="0" stop-color="#e6d2df"/>
      <stop offset=".66" stop-color="#c5adea"/>
      <stop offset="1" stop-color="#8e9aef"/>
    </radialGradient>
    <linearGradient id="_Áåçûìÿííûé_ãðàäèåíò_43-2" data-name="Áåçûìÿííûé ãðàäèåíò 43" x1="51.14" y1="15.19" x2="36.71" y2="23.62" xlink:href="#_Áåçûìÿííûé_ãðàäèåíò_43"/>
    <linearGradient id="_Áåçûìÿííûé_ãðàäèåíò_146" data-name="Áåçûìÿííûé ãðàäèåíò 146" x1="35.03" y1="18.08" x2="31.69" y2="5.23" gradientUnits="userSpaceOnUse">
      <stop offset="0" stop-color="#f4eff0"/>
      <stop offset="1" stop-color="#875387"/>
    </linearGradient>
    <linearGradient id="_Áåçûìÿííûé_ãðàäèåíò_43-3" data-name="Áåçûìÿííûé ãðàäèåíò 43" x1="42.45" y1="19.88" x2="47.15" y2="9" xlink:href="#_Áåçûìÿííûé_ãðàäèåíò_43"/>
    <radialGradient id="_Áåçûìÿííûé_ãðàäèåíò_126" data-name="Áåçûìÿííûé ãðàäèåíò 126" cx="44.81" cy="15.28" fx="44.81" fy="15.28" r="4.69" gradientUnits="userSpaceOnUse">
      <stop offset="0" stop-color="#e7eafd"/>
      <stop offset=".99" stop-color="#c5afe6"/>
    </radialGradient>
    <linearGradient id="_Áåçûìÿííûé_ãðàäèåíò_106" data-name="Áåçûìÿííûé ãðàäèåíò 106" x1="43.79" y1="22.45" x2="43.6" y2="14.29" gradientUnits="userSpaceOnUse">
      <stop offset="0" stop-color="#b71311"/>
      <stop offset=".12" stop-color="#b21417"/>
      <stop offset=".3" stop-color="#a5172b"/>
      <stop offset=".51" stop-color="#911d4a"/>
      <stop offset=".75" stop-color="#742576"/>
      <stop offset="1" stop-color="#522fac"/>
    </linearGradient>
    <radialGradient id="_Áåçûìÿííûé_ãðàäèåíò_91" data-name="Áåçûìÿííûé ãðàäèåíò 91" cx="-2065.43" cy="162.38" fx="-2065.43" fy="162.38" r="1.54" gradientTransform="translate(-1767.59 150.9) rotate(170.68) scale(.88 -1)" gradientUnits="userSpaceOnUse">
      <stop offset="0" stop-color="#361b06"/>
      <stop offset=".38" stop-color="#341809"/>
      <stop offset=".68" stop-color="#2f1012"/>
      <stop offset=".94" stop-color="#270323"/>
      <stop offset="1" stop-color="#250028"/>
    </radialGradient>
    <linearGradient id="_Áåçûìÿííûé_ãðàäèåíò_257" data-name="Áåçûìÿííûé ãðàäèåíò 257" x1="42.9" y1="13.84" x2="48.85" y2="13.84" gradientUnits="userSpaceOnUse">
      <stop offset="0" stop-color="#e7eafd"/>
      <stop offset=".99" stop-color="#c5afe6"/>
    </linearGradient>
    <linearGradient id="_Áåçûìÿííûé_ãðàäèåíò_43-4" data-name="Áåçûìÿííûé ãðàäèåíò 43" x1="41.18" y1="21.9" x2="29.89" y2="9.82" xlink:href="#_Áåçûìÿííûé_ãðàäèåíò_43"/>
    <radialGradient id="_Áåçûìÿííûé_ãðàäèåíò_126-2" data-name="Áåçûìÿííûé ãðàäèåíò 126" cx="-13.81" cy="912.05" fx="-13.81" fy="912.05" r="3.9" gradientTransform="translate(46.92 -806.08) scale(.9)" xlink:href="#_Áåçûìÿííûé_ãðàäèåíò_126"/>
    <linearGradient id="_Áåçûìÿííûé_ãðàäèåíò_106-2" data-name="Áåçûìÿííûé ãðàäèåíò 106" x1="34.75" y1="22.19" x2="34.56" y2="14.28" xlink:href="#_Áåçûìÿííûé_ãðàäèåíò_106"/>
    <radialGradient id="_Áåçûìÿííûé_ãðàäèåíò_91-2" data-name="Áåçûìÿííûé ãðàäèåíò 91" cx="90.63" cy="25.23" fx="90.63" fy="25.23" r="1.28" gradientTransform="translate(-36.9 -6.74) rotate(-.38) scale(.79 1) skewX(-.09)" xlink:href="#_Áåçûìÿííûé_ãðàäèåíò_91"/>
    <linearGradient id="_Áåçûìÿííûé_ãðàäèåíò_43-5" data-name="Áåçûìÿííûé ãðàäèåíò 43" x1="34.58" y1="17.21" x2="35.05" y2="20.62" xlink:href="#_Áåçûìÿííûé_ãðàäèåíò_43"/>
    <linearGradient id="_Áåçûìÿííûé_ãðàäèåíò_146-2" data-name="Áåçûìÿííûé ãðàäèåíò 146" x1="48.76" y1="12.13" x2="39.83" y2="28.3" xlink:href="#_Áåçûìÿííûé_ãðàäèåíò_146"/>
    <linearGradient id="_Áåçûìÿííûé_ãðàäèåíò_36" data-name="Áåçûìÿííûé ãðàäèåíò 36" x1="41.37" y1="31.47" x2="39.19" y2="18.97" gradientUnits="userSpaceOnUse">
      <stop offset="0" stop-color="#f6df69"/>
      <stop offset=".17" stop-color="#f4db68"/>
      <stop offset=".31" stop-color="#f0d165"/>
      <stop offset=".44" stop-color="#eabf60"/>
      <stop offset=".57" stop-color="#e1a659"/>
      <stop offset=".69" stop-color="#d58650"/>
      <stop offset=".81" stop-color="#c66045"/>
      <stop offset=".82" stop-color="#c65e45"/>
    </linearGradient>
    <linearGradient id="_Áåçûìÿííûé_ãðàäèåíò_36-2" data-name="Áåçûìÿííûé ãðàäèåíò 36" x1="32.86" y1="13.22" x2="34.18" y2="26.99" xlink:href="#_Áåçûìÿííûé_ãðàäèåíò_36"/>
    <linearGradient id="_Áåçûìÿííûé_ãðàäèåíò_62" data-name="Áåçûìÿííûé ãðàäèåíò 62" x1="32.34" y1="33.01" x2="37.55" y2="23.32" gradientUnits="userSpaceOnUse">
      <stop offset="0" stop-color="#9f444c"/>
      <stop offset="1" stop-color="#601e79"/>
    </linearGradient>
    <linearGradient id="_Áåçûìÿííûé_ãðàäèåíò_36-3" data-name="Áåçûìÿííûé ãðàäèåíò 36" x1="37.79" y1="12.74" x2="39.11" y2="26.51" xlink:href="#_Áåçûìÿííûé_ãðàäèåíò_36"/>
    <linearGradient id="_Áåçûìÿííûé_ãðàäèåíò_36-4" data-name="Áåçûìÿííûé ãðàäèåíò 36" x1="37.92" y1="25.7" x2="40.78" y2="32.61" xlink:href="#_Áåçûìÿííûé_ãðàäèåíò_36"/>
    <linearGradient id="_Áåçûìÿííûé_ãðàäèåíò_109-2" data-name="Áåçûìÿííûé ãðàäèåíò 109" x1="-517.82" y1="299.65" x2="-518.43" y2="295.32" gradientTransform="translate(419.3 -445.14) rotate(-20.18)" xlink:href="#_Áåçûìÿííûé_ãðàäèåíò_109"/>
    <linearGradient id="_Áåçûìÿííûé_ãðàäèåíò_109-3" data-name="Áåçûìÿííûé ãðàäèåíò 109" x1="-2122.06" y1="-102.82" x2="-2122.63" y2="-106.89" gradientTransform="translate(-2077.38 -113.98) rotate(-173.77) scale(1 -1)" xlink:href="#_Áåçûìÿííûé_ãðàäèåíò_109"/>
    <linearGradient id="_Áåçûìÿííûé_ãðàäèåíò_146-3" data-name="Áåçûìÿííûé ãðàäèåíò 146" x1="32.05" y1="29.85" x2="43.5" y2="69.37" xlink:href="#_Áåçûìÿííûé_ãðàäèåíò_146"/>
    <radialGradient id="_Áåçûìÿííûé_ãðàäèåíò_13" data-name="Áåçûìÿííûé ãðàäèåíò 13" cx="32.52" cy="87.62" fx="32.52" fy="87.62" r="16.86" gradientUnits="userSpaceOnUse">
      <stop offset="0" stop-color="#ecd35a"/>
      <stop offset=".21" stop-color="#e3bb53"/>
      <stop offset=".65" stop-color="#cc7d44"/>
      <stop offset=".94" stop-color="#bc5139"/>
    </radialGradient>
    <linearGradient id="_Áåçûìÿííûé_ãðàäèåíò_146-4" data-name="Áåçûìÿííûé ãðàäèåíò 146" x1="53.92" y1="70.37" x2="56.73" y2="77.4" xlink:href="#_Áåçûìÿííûé_ãðàäèåíò_146"/>
    <radialGradient id="_Áåçûìÿííûé_ãðàäèåíò_13-2" data-name="Áåçûìÿííûé ãðàäèåíò 13" cx="80.78" cy="91.3" fx="80.78" fy="91.3" r="19.81" xlink:href="#_Áåçûìÿííûé_ãðàäèåíò_13"/>
    <linearGradient id="_Áåçûìÿííûé_ãðàäèåíò_257-2" data-name="Áåçûìÿííûé ãðàäèåíò 257" x1="69.99" y1="35.02" x2="69.91" y2="35.08" xlink:href="#_Áåçûìÿííûé_ãðàäèåíò_257"/>
    <linearGradient id="_Áåçûìÿííûé_ãðàäèåíò_257-3" data-name="Áåçûìÿííûé ãðàäèåíò 257" x1="74.97" y1="46.78" x2="71.48" y2="42.7" xlink:href="#_Áåçûìÿííûé_ãðàäèåíò_257"/>
    <linearGradient id="_Áåçûìÿííûé_ãðàäèåíò_257-4" data-name="Áåçûìÿííûé ãðàäèåíò 257" x1="49.77" y1="17.55" x2="54.93" y2="17.55" xlink:href="#_Áåçûìÿííûé_ãðàäèåíò_257"/>
    <linearGradient id="_Áåçûìÿííûé_ãðàäèåíò_109-4" data-name="Áåçûìÿííûé ãðàäèåíò 109" x1="39.33" y1="23.39" x2="39.39" y2="17.94" xlink:href="#_Áåçûìÿííûé_ãðàäèåíò_109"/>
    <linearGradient id="_Áåçûìÿííûé_ãðàäèåíò_257-5" data-name="Áåçûìÿííûé ãðàäèåíò 257" x1="92.32" y1="25.1" x2="75.65" y2="25.29" xlink:href="#_Áåçûìÿííûé_ãðàäèåíò_257"/>
    <linearGradient id="_Áåçûìÿííûé_ãðàäèåíò_36-5" data-name="Áåçûìÿííûé ãðàäèåíò 36" x1="54.77" y1="82.96" x2="54.74" y2="82.95" xlink:href="#_Áåçûìÿííûé_ãðàäèåíò_36"/>
    <linearGradient id="_Áåçûìÿííûé_ãðàäèåíò_190" data-name="Áåçûìÿííûé ãðàäèåíò 190" x1="69.54" y1="87.88" x2="52.84" y2="93.6" gradientUnits="userSpaceOnUse">
      <stop offset="0" stop-color="#f4eff0"/>
      <stop offset="1" stop-color="#b40053"/>
    </linearGradient>
    <linearGradient id="_Áåçûìÿííûé_ãðàäèåíò_36-6" data-name="Áåçûìÿííûé ãðàäèåíò 36" x1="75.99" y1="78.78" x2="75.85" y2="78.74" xlink:href="#_Áåçûìÿííûé_ãðàäèåíò_36"/>
    <linearGradient id="_Áåçûìÿííûé_ãðàäèåíò_190-2" data-name="Áåçûìÿííûé ãðàäèåíò 190" x1="40.22" y1="88.64" x2="52.83" y2="106.57" xlink:href="#_Áåçûìÿííûé_ãðàäèåíò_190"/>
    <linearGradient id="_Áåçûìÿííûé_ãðàäèåíò_196" data-name="Áåçûìÿííûé ãðàäèåíò 196" x1="72.31" y1="97.54" x2="78.4" y2="92.48" gradientUnits="userSpaceOnUse">
      <stop offset="0" stop-color="#000"/>
      <stop offset=".99" stop-color="#c5afe6"/>
    </linearGradient>
    <linearGradient id="_Áåçûìÿííûé_ãðàäèåíò_190-3" data-name="Áåçûìÿííûé ãðàäèåíò 190" x1="43.26" y1="91.98" x2="29.73" y2="89.41" xlink:href="#_Áåçûìÿííûé_ãðàäèåíò_190"/>
    <linearGradient id="_Áåçûìÿííûé_ãðàäèåíò_190-4" data-name="Áåçûìÿííûé ãðàäèåíò 190" x1="73.95" y1="87.95" x2="54.59" y2="96.74" xlink:href="#_Áåçûìÿííûé_ãðàäèåíò_190"/>
    <linearGradient id="_Áåçûìÿííûé_ãðàäèåíò_196-2" data-name="Áåçûìÿííûé ãðàäèåíò 196" x1="67.99" y1="88.7" x2="76.31" y2="80.5" xlink:href="#_Áåçûìÿííûé_ãðàäèåíò_196"/>
    <linearGradient id="_Áåçûìÿííûé_ãðàäèåíò_196-3" data-name="Áåçûìÿííûé ãðàäèåíò 196" x1="43.65" y1="89.25" x2="28.88" y2="82.54" xlink:href="#_Áåçûìÿííûé_ãðàäèåíò_196"/>
    <linearGradient id="_Áåçûìÿííûé_ãðàäèåíò_196-4" data-name="Áåçûìÿííûé ãðàäèåíò 196" x1="33.41" y1="97.5" x2="32.43" y2="93.18" xlink:href="#_Áåçûìÿííûé_ãðàäèåíò_196"/>
    <linearGradient id="_Áåçûìÿííûé_ãðàäèåíò_257-6" data-name="Áåçûìÿííûé ãðàäèåíò 257" x1="67.47" y1="59.81" x2="69.68" y2="67.43" xlink:href="#_Áåçûìÿííûé_ãðàäèåíò_257"/>
    <linearGradient id="_Áåçûìÿííûé_ãðàäèåíò_146-5" data-name="Áåçûìÿííûé ãðàäèåíò 146" x1="42.55" y1="6.06" x2="38.02" y2="4" xlink:href="#_Áåçûìÿííûé_ãðàäèåíò_146"/>
    <linearGradient id="_Áåçûìÿííûé_ãðàäèåíò_257-7" data-name="Áåçûìÿííûé ãðàäèåíò 257" x1="30.67" y1="19.16" x2="29.06" y2="18.43" xlink:href="#_Áåçûìÿííûé_ãðàäèåíò_257"/>
    <linearGradient id="_Áåçûìÿííûé_ãðàäèåíò_257-8" data-name="Áåçûìÿííûé ãðàäèåíò 257" x1="-93.37" y1="127.69" x2="-93.77" y2="124.81" gradientTransform="translate(126.62 -107.76) rotate(-6.04)" xlink:href="#_Áåçûìÿííûé_ãðàäèåíò_257"/>
    <linearGradient id="_Áåçûìÿííûé_ãðàäèåíò_257-9" data-name="Áåçûìÿííûé ãðàäèåíò 257" x1="35.3" y1="71.95" x2="32.13" y2="49.37" xlink:href="#_Áåçûìÿííûé_ãðàäèåíò_257"/>
    <radialGradient id="_Áåçûìÿííûé_ãðàäèåíò_99-3" data-name="Áåçûìÿííûé ãðàäèåíò 99" cx="12.66" cy="33.62" fx="12.66" fy="33.62" r="27.91" xlink:href="#_Áåçûìÿííûé_ãðàäèåíò_99"/>
    <linearGradient id="_Áåçûìÿííûé_ãðàäèåíò_257-10" data-name="Áåçûìÿííûé ãðàäèåíò 257" x1="23.62" y1="46.67" x2="25.31" y2="52.49" xlink:href="#_Áåçûìÿííûé_ãðàäèåíò_257"/>
    <linearGradient id="_Áåçûìÿííûé_ãðàäèåíò_272" data-name="Áåçûìÿííûé ãðàäèåíò 272" x1="52.59" y1="266.01" x2="57.98" y2="280.56" gradientTransform="translate(36.45 -192.89) rotate(-1.25)" gradientUnits="userSpaceOnUse">
      <stop offset="0" stop-color="#d6b6d6"/>
      <stop offset=".46" stop-color="#6b5594"/>
      <stop offset=".62" stop-color="#6d5795"/>
      <stop offset=".73" stop-color="#77609b"/>
      <stop offset=".84" stop-color="#8770a4"/>
      <stop offset=".93" stop-color="#9e85b1"/>
      <stop offset="1" stop-color="#b399bd"/>
    </linearGradient>
    <linearGradient id="_Áåçûìÿííûé_ãðàäèåíò_272-2" data-name="Áåçûìÿííûé ãðàäèåíò 272" x1="46.29" y1="283.32" x2="73.02" y2="283.93" xlink:href="#_Áåçûìÿííûé_ãðàäèåíò_272"/>
    <linearGradient id="_Áåçûìÿííûé_ãðàäèåíò_60" data-name="Áåçûìÿííûé ãðàäèåíò 60" x1="55.71" y1="280.52" x2="50.67" y2="260.76" gradientTransform="translate(36.45 -192.89) rotate(-1.25)" gradientUnits="userSpaceOnUse">
      <stop offset="0" stop-color="#4a2a98"/>
      <stop offset="1" stop-color="#fff"/>
    </linearGradient>
    <linearGradient id="_Áåçûìÿííûé_ãðàäèåíò_60-2" data-name="Áåçûìÿííûé ãðàäèåíò 60" x1="55.37" y1="282.98" x2="50.63" y2="264.38" xlink:href="#_Áåçûìÿííûé_ãðàäèåíò_60"/>
    <linearGradient id="_Áåçûìÿííûé_ãðàäèåíò_257-11" data-name="Áåçûìÿííûé ãðàäèåíò 257" x1="63.81" y1="275.52" x2="65.41" y2="269.26" gradientTransform="translate(36.45 -192.89) rotate(-1.25)" xlink:href="#_Áåçûìÿííûé_ãðàäèåíò_257"/>
    <linearGradient id="_Áåçûìÿííûé_ãðàäèåíò_257-12" data-name="Áåçûìÿííûé ãðàäèåíò 257" x1="63.96" y1="278.35" x2="64.45" y2="276.41" gradientTransform="translate(36.45 -192.89) rotate(-1.25)" xlink:href="#_Áåçûìÿííûé_ãðàäèåíò_257"/>
    <linearGradient id="_Áåçûìÿííûé_ãðàäèåíò_257-13" data-name="Áåçûìÿííûé ãðàäèåíò 257" x1="60.51" y1="296.69" x2="65.02" y2="278.98" gradientTransform="translate(36.45 -192.89) rotate(-1.25)" xlink:href="#_Áåçûìÿííûé_ãðàäèåíò_257"/>
    <linearGradient id="_Áåçûìÿííûé_ãðàäèåíò_257-14" data-name="Áåçûìÿííûé ãðàäèåíò 257" x1="45.54" y1="275.99" x2="47.24" y2="269.3" gradientTransform="translate(36.45 -192.89) rotate(-1.25)" xlink:href="#_Áåçûìÿííûé_ãðàäèåíò_257"/>
    <linearGradient id="_Áåçûìÿííûé_ãðàäèåíò_257-15" data-name="Áåçûìÿííûé ãðàäèåíò 257" x1="45.75" y1="278.64" x2="46.47" y2="275.81" gradientTransform="translate(36.45 -192.89) rotate(-1.25)" xlink:href="#_Áåçûìÿííûé_ãðàäèåíò_257"/>
    <linearGradient id="_Áåçûìÿííûé_ãðàäèåíò_257-16" data-name="Áåçûìÿííûé ãðàäèåíò 257" x1="44.77" y1="296.23" x2="49.1" y2="279.22" gradientTransform="translate(36.45 -192.89) rotate(-1.25)" xlink:href="#_Áåçûìÿííûé_ãðàäèåíò_257"/>
    <linearGradient id="_Áåçûìÿííûé_ãðàäèåíò_9" data-name="Áåçûìÿííûé ãðàäèåíò 9" x1="61.1" y1="274.83" x2="54.13" y2="264.32" gradientTransform="translate(36.45 -192.89) rotate(-1.25)" gradientUnits="userSpaceOnUse">
      <stop offset="0" stop-color="#1d103c"/>
      <stop offset="1" stop-color="#534560"/>
    </linearGradient>
    <linearGradient id="_Áåçûìÿííûé_ãðàäèåíò_9-2" data-name="Áåçûìÿííûé ãðàäèåíò 9" x1="45.99" y1="273.98" x2="42.42" y2="268.6" xlink:href="#_Áåçûìÿííûé_ãðàäèåíò_9"/>
    <linearGradient id="_Áåçûìÿííûé_ãðàäèåíò_9-3" data-name="Áåçûìÿííûé ãðàäèåíò 9" x1="-86.36" y1="294.75" x2="-67.48" y2="365.74" gradientTransform="translate(115.07 -269.32) rotate(-7.78)" xlink:href="#_Áåçûìÿííûé_ãðàäèåíò_9"/>
    <linearGradient id="_Áåçûìÿííûé_ãðàäèåíò_288" data-name="Áåçûìÿííûé ãðàäèåíò 288" x1="55.84" y1="239.65" x2="42.46" y2="272.85" gradientTransform="translate(34 -184.58) rotate(-.61)" gradientUnits="userSpaceOnUse">
      <stop offset="0" stop-color="#c3afd8"/>
      <stop offset=".46" stop-color="#55518d"/>
      <stop offset=".61" stop-color="#57538e"/>
      <stop offset=".73" stop-color="#615c94"/>
      <stop offset=".83" stop-color="#716a9d"/>
      <stop offset=".93" stop-color="#887fa9"/>
      <stop offset="1" stop-color="#9e93b6"/>
    </linearGradient>
    <linearGradient id="_Áåçûìÿííûé_ãðàäèåíò_288-2" data-name="Áåçûìÿííûé ãðàäèåíò 288" x1="47.5" y1="264.6" x2="57.01" y2="256.09" xlink:href="#_Áåçûìÿííûé_ãðàäèåíò_288"/>
    <linearGradient id="_Áåçûìÿííûé_ãðàäèåíò_14" data-name="Áåçûìÿííûé ãðàäèåíò 14" x1="47.47" y1="241.25" x2="44.07" y2="262.22" gradientTransform="translate(34 -184.58) rotate(-.61)" gradientUnits="userSpaceOnUse">
      <stop offset="0" stop-color="#ece7ed"/>
      <stop offset="1" stop-color="#69498e"/>
    </linearGradient>
    <linearGradient id="_Áåçûìÿííûé_ãðàäèåíò_14-2" data-name="Áåçûìÿííûé ãðàäèåíò 14" x1="52.49" y1="257.93" x2="54.3" y2="254.56" xlink:href="#_Áåçûìÿííûé_ãðàäèåíò_14"/>
    <linearGradient id="_Áåçûìÿííûé_ãðàäèåíò_9-4" data-name="Áåçûìÿííûé ãðàäèåíò 9" x1="55.57" y1="256.2" x2="56.73" y2="259.79" gradientTransform="translate(34 -184.58) rotate(-.61)" xlink:href="#_Áåçûìÿííûé_ãðàäèåíò_9"/>
    <linearGradient id="_Áåçûìÿííûé_ãðàäèåíò_14-3" data-name="Áåçûìÿííûé ãðàäèåíò 14" x1="55.67" y1="253.24" x2="54.68" y2="259.36" xlink:href="#_Áåçûìÿííûé_ãðàäèåíò_14"/>
    <linearGradient id="_Áåçûìÿííûé_ãðàäèåíò_287" data-name="Áåçûìÿííûé ãðàäèåíò 287" x1="53.12" y1="256.33" x2="57.56" y2="256.33" gradientTransform="translate(34 -184.58) rotate(-.61)" gradientUnits="userSpaceOnUse">
      <stop offset="0" stop-color="#e5f3f7"/>
      <stop offset=".99" stop-color="#b0aadf"/>
    </linearGradient>
    <linearGradient id="_Áåçûìÿííûé_ãðàäèåíò_14-4" data-name="Áåçûìÿííûé ãðàäèåíò 14" x1="50.89" y1="253.98" x2="52.18" y2="251.59" xlink:href="#_Áåçûìÿííûé_ãðàäèåíò_14"/>
    <linearGradient id="_Áåçûìÿííûé_ãðàäèåíò_288-3" data-name="Áåçûìÿííûé ãðàäèåíò 288" x1="53.01" y1="265.03" x2="65.31" y2="254.01" xlink:href="#_Áåçûìÿííûé_ãðàäèåíò_288"/>
    <linearGradient id="_Áåçûìÿííûé_ãðàäèåíò_14-5" data-name="Áåçûìÿííûé ãðàäèåíò 14" x1="152.93" y1="28.79" x2="154.74" y2="25.43" gradientTransform="translate(-53.29 23.75) rotate(2.97) scale(1 1.42)" xlink:href="#_Áåçûìÿííûé_ãðàäèåíò_14"/>
    <linearGradient id="_Áåçûìÿííûé_ãðàäèåíò_9-5" data-name="Áåçûìÿííûé ãðàäèåíò 9" x1="64.15" y1="254.99" x2="65.35" y2="258.42" gradientTransform="translate(34 -184.58) rotate(-.61)" xlink:href="#_Áåçûìÿííûé_ãðàäèåíò_9"/>
    <linearGradient id="_Áåçûìÿííûé_ãðàäèåíò_14-6" data-name="Áåçûìÿííûé ãðàäèåíò 14" x1="156.11" y1="24.09" x2="155.11" y2="30.23" gradientTransform="translate(-53.29 23.75) rotate(2.97) scale(1 1.42)" xlink:href="#_Áåçûìÿííûé_ãðàäèåíò_14"/>
    <linearGradient id="_Áåçûìÿííûé_ãðàäèåíò_287-2" data-name="Áåçûìÿííûé ãðàäèåíò 287" x1="153.56" y1="27.19" x2="157.99" y2="27.19" gradientTransform="translate(-53.29 23.75) rotate(2.97) scale(1 1.42)" xlink:href="#_Áåçûìÿííûé_ãðàäèåíò_287"/>
    <linearGradient id="_Áåçûìÿííûé_ãðàäèåíò_14-7" data-name="Áåçûìÿííûé ãðàäèåíò 14" x1="151.35" y1="24.84" x2="152.63" y2="22.47" gradientTransform="translate(-53.29 23.75) rotate(2.97) scale(1 1.42)" xlink:href="#_Áåçûìÿííûé_ãðàäèåíò_14"/>
    <linearGradient id="_Áåçûìÿííûé_ãðàäèåíò_14-8" data-name="Áåçûìÿííûé ãðàäèåíò 14" x1="53.78" y1="253.42" x2="53.89" y2="263" xlink:href="#_Áåçûìÿííûé_ãðàäèåíò_14"/>
    <linearGradient id="_Áåçûìÿííûé_ãðàäèåíò_14-9" data-name="Áåçûìÿííûé ãðàäèåíò 14" x1="52.39" y1="256.39" x2="52.47" y2="262.65" xlink:href="#_Áåçûìÿííûé_ãðàäèåíò_14"/>
    <linearGradient id="_Áåçûìÿííûé_ãðàäèåíò_257-17" data-name="Áåçûìÿííûé ãðàäèåíò 257" x1="45.83" y1="242.49" x2="45.85" y2="244.38" gradientTransform="translate(34 -184.58) rotate(-.61)" xlink:href="#_Áåçûìÿííûé_ãðàäèåíò_257"/>
    <linearGradient id="_Áåçûìÿííûé_ãðàäèåíò_14-10" data-name="Áåçûìÿííûé ãðàäèåíò 14" x1="48.67" y1="248.57" x2="48.55" y2="263.57" xlink:href="#_Áåçûìÿííûé_ãðàäèåíò_14"/>
    <linearGradient id="_Áåçûìÿííûé_ãðàäèåíò_14-11" data-name="Áåçûìÿííûé ãðàäèåíò 14" x1="65.45" y1="252.1" x2="58.9" y2="265" xlink:href="#_Áåçûìÿííûé_ãðàäèåíò_14"/>
    <linearGradient id="_Áåçûìÿííûé_ãðàäèåíò_257-18" data-name="Áåçûìÿííûé ãðàäèåíò 257" x1="66.18" y1="248.41" x2="62.65" y2="273.91" gradientTransform="translate(34 -184.58) rotate(-.61)" xlink:href="#_Áåçûìÿííûé_ãðàäèåíò_257"/>
    <linearGradient id="_Áåçûìÿííûé_ãðàäèåíò_257-19" data-name="Áåçûìÿííûé ãðàäèåíò 257" x1="-34.54" y1="410.48" x2="-25.21" y2="417.12" gradientTransform="translate(32.25 -343.89) rotate(-12.49)" xlink:href="#_Áåçûìÿííûé_ãðàäèåíò_257"/>
    <linearGradient id="_Áåçûìÿííûé_ãðàäèåíò_60-3" data-name="Áåçûìÿííûé ãðàäèåíò 60" x1="55.32" y1="280.08" x2="53.54" y2="266.1" xlink:href="#_Áåçûìÿííûé_ãðàäèåíò_60"/>
    <linearGradient id="_Áåçûìÿííûé_ãðàäèåíò_272-3" data-name="Áåçûìÿííûé ãðàäèåíò 272" x1="349" y1="-44.97" x2="358.34" y2="-9.84" gradientTransform="translate(-255.9 -18.49) rotate(19.23)" xlink:href="#_Áåçûìÿííûé_ãðàäèåíò_272"/>
  </defs>
  <g class="cls-80">
    <g id="Layer_2" data-name="Layer 2">
      <g id="_Ñëîé_1" data-name="Ñëîé 1">
        <g>
          <g>
            <path class="cls-31" d="m81.36,100.98s-12.53.5-14.93.39c-.05,0-.1,0-.15,0-1.97-.14-5.2-1.92-5.2-1.92,0,0,.02-.46.03-1.19.47.25,3.33,1.75,5.14,1.88.04,0,.09,0,.15,0,2.4.11,14.93-.39,14.93-.39,0,0,.09-.51.11-1.29.12,1.45-.08,2.52-.08,2.52Z"/>
            <path class="cls-60" d="m61.11,98.26s-.07-.04-.07-.04c0,0-.07-5.01-.75-7.79.08.22.15.44.21.64.59,1.86.63,5.35.6,7.18Z"/>
            <path class="cls-59" d="m87.12,23.87c-1,3.35-6.76,14.92-12.09,20.14-1.83,1.79-3.6,2.83-5.12,2.54-1.09-.21-2.25-.53-3.43-.92-1.49-.48-3-1.08-4.44-1.69h0c-2.97-5.72-3.98-7.38-3.98-7.38,0,0,1.01-.14,2.42-.3,1.85-.2,4.42-.52,6.25-.47.12.02.23.04.32.05.13.03.28.02.45,0,2.05-.33,6.48-4.47,8.75-6.87h0s0,0,0,0c.43-.45,1.02-.95,1.7-1.46,3.22-2.41,8.54-5.1,9.28-4.54.09.07.05.39-.11.91Z"/>
            <path class="cls-24" d="m60.48,36.26c-1.41.15-2.42.3-2.42.3,0,0,1.01,1.66,3.98,7.38-3.13-1.33-5.9-2.77-7.19-3.47-.3-.16-.52-.28-.65-.35-.09-.05-.14-.08-.14-.08l.33-.46,1.27-1.77h0s1.78-2.48,1.78-2.48l.1-.13s6.96.28,9.19.59c-1.83-.05-4.4.27-6.25.47Z"/>
            <path class="cls-32" d="m60.48,36.26c-1.41.15-2.42.3-2.42.3,0,0,1.01,1.66,3.98,7.38h0c2.15,4.15,5.34,10.43,9.93,19.75,1.7,3.45,1.52,11.91.99,19.03-.46,6.18-1.21,12.38-1.21,12.38l-7.99-7.52s-.54-1.59-1.42-3.5c-.8-1.72-1.88-3.7-3.08-4.98,0,0,0,0,0,0-.02-.03-.04-.05-.07-.07,0,0,0,0,0,0-2-2.07-5.55-3.4-7.59-3.29,0,0,0,0,0,0-.57.03-1.03.17-1.29.44-.38.38-.78,1.56-1.15,2.99-.59,2.32-1.1,5.33-1.34,6.79-.09.55-.14.88-.14.88l-7.87.92s-1.34-1.93-3-4.66c-2.4-3.96-5.47-9.61-6.04-13.44-.01-.09-.02-.17-.03-.26,0-.08-.02-.15-.03-.23-.35-3.1.07-7.44.91-11.86.15-.8.48-2.6.84-4.61,0,0,0-.02,0-.03h0s.01-.08.02-.12c.45-2.48.64-3.33.91-4.82.04-.23.08-.44.11-.6-1.24,3.07-4.2,4.99-5.98,5.91-6.31,3.29-16.02,5.52-16.32,5.59,0,0,0,0,0,0,0,0,.75.2,1.61.44.42.12-5.75-.35-5.75-.51,0-.46,12.93-6.53,17.02-10.62.03-.03.07-.07.1-.1.15-.16.3-.32.42-.47.11-.14.23-.28.34-.42,4.18-5.14,8.47-11.43,8.63-16.1.03-.75-.06-1.46-.26-2.12-1.66-2.24-4.25-4.82-5.15-6.38-.25-.44-.37-.81-.29-1.06.12-.38.28-.73.46-1.05,1.04-1.84,2.84-2.78,2.84-2.78,0,0,0-.1.03-.28.12-1.15.62-5.49,1.44-7.79.07-.21.15-.4.23-.57.28-.6.59-.94.94-.86.29.07.58.08.86.06,1.23-.12,2.42-1.14,3.27-2.07.75-.82,1.23-1.57,1.23-1.57l-.27-1.75c.02.11.11.5.38.83,0,0,0,0,0,0,.23.27.59.5,1.15.5.24,0,.18-.34.11-.93-.07-.58-.14-1.41.05-2.42.04-.21.09-.43.16-.66.1.52.64,3,2.42,4.08,2,1.21,2.64.72,5.24,3.98,1.25,1.57,2.81,4.85,4.15,8.03.22.51,2.63.76,2.74,1.29.25,1.19.28,2.34.14,3.45-.14,1.15-.47,2.24-.94,3.28.02.94.42,1.83,1.08,2.66,3.01,3.79,11.39,6.27,13.35,5.94,1.84-.31,5.57-2.61,7.31-3.74-2.27,2.4-6.7,6.54-8.75,6.87-.24-.03-.49-.04-.77-.05-1.83-.05-4.4.27-6.25.47Z"/>
            <path class="cls-53" d="m65.51,65.12c-.61,6.48-6.81,12.75-6.81,12.75l.95,1.5s-.16-.11-.4-.27c-.57-.38-1.71-1.09-3.09-1.78-1.39-.68-3.01-1.34-4.57-1.59h-.01c-.55-.09-1.09-.13-1.61-.11-4.09.21-4.84,2.12-4.84,2.12l-1.5-.62,1.16,1.57c-.15-.05-9.84-3.25-12.54-9.54-1.88-4.36.25-14.36,1.7-20.52.67-2.81,1.2-4.82,1.16-5.15-.11-.83-.98-2.24-1.34-3.12-.1-.25-.16-.46-.16-.59.09-1.79.49-3.37,1.18-4.65.34-.65.76-1.21,1.24-1.69.79,1.26,1.46,1.74,1.5,1.77-.02-.04-.88-1.75-.24-2.59.13-.17.4-.34.75-.51.45-.18.93-.31,1.44-.38,0,0,4.11-.72,8.07.79,2.27,1.02,3.45,2.63,3.59,2.83l-.42-1.26-.41-.86.96.79c1.39,1.32,1.67,2.69,3.12,5.57.03.07.07.13.1.2.11.22.23.45.36.69.87,1.65,2.08,3.74,3.92,6.45,3.75,5.55,5.69,8.74,6.46,11.94l-3.78-4c.52.58,3.17,3.65,4.2,7.57,0,.84-.04,1.73-.14,2.69Z"/>
            <path class="cls-28" d="m41.2,18.4s1.75,2.43,4.27,2.04c2.52-.38,3.16-2.43,3.16-2.43,0,0-.89,2.68-3.54,2.86s-3.89-2.48-3.89-2.48Z"/>
            <path class="cls-21" d="m36.11,19.38c-3.39,2.2-4.95-1.89-4.95-1.89,0,0,.51-5.41,1.47-8.07.07-.21.15-.4.23-.57.67-.24,1.5-.31,2.39.12,2.23,1.07,3.41,7.7.86,10.41Z"/>
            <g>
              <path class="cls-42" d="m47.62,18.58s-.8.93-2.39,1.01c-.71.04-1.58-.09-2.61-.56-.84-.38-1.39-1.19-1.7-2.18-.78-2.49-.03-6.18,1.38-7.28.24-.18.5-.3.77-.32,2.64-.2,5.51,2.42,5.82,5.37.01.13.02.25.02.38.07,2.64-1.29,3.57-1.29,3.57Z"/>
              <path class="cls-62" d="m47.66,19.43s-.8.93-2.39,1.01c-.71.04-1.58-.09-2.61-.56-.84-.38-1.39-1.19-1.7-2.18-.78-2.49-.03-6.18,1.38-7.28.24-.18.5-.3.77-.32,2.64-.2,5.51,2.42,5.82,5.37.01.13.02.25.02.38.07,2.64-1.29,3.57-1.29,3.57Z"/>
              <path class="cls-40" d="m45.45,20.5c-.75.04-1.67-.1-2.75-.59-.88-.4-1.46-1.25-1.79-2.29,0-1.54.9-2.85,2.21-3.07,1.49-.25,2.96,1.01,3.26,2.82.21,1.25-.18,2.43-.94,3.13Z"/>
              <path class="cls-56" d="m42.37,18.22c.13.8.8,1.35,1.5,1.23s1.16-.85,1.03-1.65-.8-1.35-1.5-1.23c-.7.11-1.16.85-1.03,1.65Z"/>
              <path class="cls-29" d="m45.3,15.75c.18.23.51.27.74.09.23-.18.28-.51.1-.74-.18-.23-.51-.27-.74-.08-.23.18-.28.51-.1.74Z"/>
            </g>
            <path class="cls-66" d="m48.85,15.57l-.14.14s-2.4,2.31-4.25.71c-1.33-1.15-1.54-3.93-1.56-5.41.22-.17.45-.27.69-.29,2.38-.18,4.98,2.19,5.26,4.85Z"/>
            <g>
              <path class="cls-27" d="m37.39,14.84c0,1.25-.36,2.2-.77,2.87-.53.86-1.13,1.26-1.13,1.26,0,0-1.27.28-2.35-.09-.82-.28-1.53-.93-1.52-2.35.03-3.29,2.6-6.61,3.93-6.43.62.09,1.84,1.87,1.84,4.74Z"/>
              <path class="cls-45" d="m37.36,15.49c0,1.25-.36,2.2-.77,2.87-.53.86-1.13,1.26-1.13,1.26,0,0-1.27.28-2.35-.09-.82-.28-1.53-.93-1.52-2.35.03-3.29,2.6-6.61,3.93-6.43.62.09,1.84,1.87,1.84,4.74Z"/>
              <path class="cls-26" d="m36.8,17.66c0,.21-.02.41-.05.6-.57.94-1.22,1.37-1.22,1.37,0,0-1.37.3-2.55-.1-.32-.5-.51-1.16-.51-1.87,0-1.6.97-2.9,2.16-2.9s2.16,1.3,2.16,2.9Z"/>
              <path class="cls-63" d="m35.72,18c0,.71-.44,1.28-1,1.28-.56,0-1.01-.57-1.01-1.27,0-.71.44-1.28,1-1.28.56,0,1.01.57,1.01,1.27Z"/>
              <path class="cls-29" d="m33.16,16.13c-.08.16-.25.21-.4.13-.14-.09-.2-.28-.12-.44.08-.16.25-.21.4-.13.14.09.2.28.12.44Z"/>
              <path class="cls-64" d="m32.48,19.27c1.22.58,3.05.36,3.05.36,0,0,1.02-.68,1.48-2.1,0,.38-.88,2.07-1.4,2.34s-2.38-.16-3.13-.6Z"/>
            </g>
            <path class="cls-4" d="m55.58,26.77l-.02.11s-1.55-1.32-4.89.12c-3.34,1.43-7.66,8.32-11,9-2.78.57-5.2-2.63-6.11-5.11.03-.75-.06-1.46-.26-2.12-1.66-2.24-4.25-4.82-5.15-6.38,1.63,2.09,7.26,8.77,12.21,8.31.58-.05,1.14-.15,1.69-.29,3.13-.76,5.71-2.64,7.21-3.95.81-.71,1.3-1.25,1.38-1.34,0,0,0,0,.01-.01l-.25.65-.36.92s4.28-1.95,5.4-5.85c-.14,1.15-.47,2.24-.94,3.28.02.94.42,1.83,1.08,2.66Z"/>
            <g>
              <path class="cls-68" d="m34.05,21.81c1.9.58-.2,7.82.98,8.1,2.3.56,5.46-4.8,7.32-6.62,1.87-1.82,3.59-1.7,3.59-1.7l-11.9.22Z"/>
              <g>
                <path class="cls-55" d="m35.37,20.32c-.17.12-.34.23-.52.31-.33.16-.82.3-1.4.42-.84-.51-1.66-.64-1.75-.89-.09-.25,2.57.86,3.67.16Z"/>
                <path class="cls-33" d="m43.27,22.32c-.26.08-.54.24-.83.47-.33.25-.67.58-1.03.95-1.63,1.71-3.54,4.39-5.08,5.13-.36.17-.7.24-1.01.16-.04,0-.07-.02-.1-.03-.29-.1-.24-.87-.14-1.87.15-1.52.41-3.59-.2-4.67-.07-.12-.13-.22-.21-.32-.35-.49-.79-.83-1.22-1.08.61-.12,1.13-.25,1.47-.41.18-.09.36-.19.54-.31,3.91.52,9.21,1.57,7.81,1.99Z"/>
                <path class="cls-52" d="m46.38,21.59c-1.58.49-3.21.94-4.36,1.18-.75.16-1.43.25-1.95.24-1.9-.03-3.68-.6-5.46-.88-.68-.11-1.36-.17-2.05-.15-2.49.08-6.64.84-6.64.84,0,0,.44-.93,1.18-1.05.08-.01.21-.03.38-.04.42-.04,1.1-.09,1.88-.15.02,0,.05,0,.07,0,.41-.04.85-.08,1.3-.12,0,0,.02,0,.03,0,.93-.1,1.89-.22,2.69-.38.58-.12,1.08-.26,1.4-.42.18-.09.35-.19.52-.31,1.33-.95,2.79-2.61,3.4-2.53,1.01.13,3.25,2.57,4.91,3.02,4.65,1.28,6.58-2.45,7.6-1.2.19.23-2.28,1.15-4.9,1.97Z"/>
                <path class="cls-54" d="m40.57,24.19c-1.35,1.49-2.91,3.74-4.24,4.68-.36.17-.7.24-1.01.16-.04,0-.07-.02-.1-.03-.29-.1-.24-.87-.14-1.87.39-1.55,1.68-3.2,5.5-2.94Z"/>
              </g>
              <path class="cls-41" d="m46.94,21.39l-.56.2c-1.58.49-3.21.94-4.36,1.18-.75.16-1.43.25-1.95.24-1.9-.03-3.68-.6-5.46-.88-.68-.11-1.36-.17-2.05-.15-2.49.08-6.64.84-6.64.84,0,0,.44-.93,1.18-1.05.08-.01.21-.03.38-.04.62-.04,1.26-.09,1.88-.15.02,0,.05,0,.07,0,.45-.04.88-.09,1.3-.12,0,0,.02,0,.03,0,.95-.09,1.76-.13,2.23-.05,1.05.18,4.48,1.16,7.14,1.2,2.58.04,6.56-1.13,6.81-1.2Z"/>
            </g>
            <path class="cls-48" d="m35.9,9.39c-.09-.09-2.13-1.8-4.1.26,0-.78.32-1.41.68-1.45.22-.1.43-.17.65-.19,1.45-.17,2.72,1.31,2.78,1.38Z"/>
            <path class="cls-25" d="m47.38,10.23s-1.09-2.13-2.48-2.93c-1.32-.76-2.88.16-2.88.16l1.76.33s2.76,1.04,3.6,2.44Z"/>
            <path class="cls-17" d="m71.97,63.69c-4.58-9.32-7.77-15.6-9.93-19.75,1.44.61,6.71,2.2,8.2,2.69-3.74-1.82-11.77-8.18-9.76-10.36.08-.09-1.5.03-2.37-.32-1.79-.71-3.06-2.91-3.29-3.2.23.3,1.35,2.57,1.29,3.27-.02.25-.1.93-.45,1.8h0c-.24.6-.6,1.28-1.17,1.97-.09.11-.19.22-.29.34-1.05,1.15-2.67,2.29-5.18,3.06-6.48,1.98-8.59.89-8.59.89l2.93-.61s-7.3-.33-9.59-3.09c-.03-.04-.06-.07-.09-.11,0,0-.3,1.58-.81,3.46-.74,2.7-3.02,5.14-4.41,5.26-1.03.09-1.18-.13-2.29-1.05-.44-.37-.87-.71-1.24-.93-.11.14-.23.28-.34.42-.12.15-.26.3-.42.46,0,0,0,0,0,0-.03.03-.06.07-.1.1-.01.01-.03.03-.05.04-4.14,4.08-16.98,10.12-16.98,10.57,0,.16,7.16.99,6.84.93-1.09-.2-2.4-.42-2.4-.42,0,0,.26,0,.73,0,.17,0,.37,0,.59,0-.86-.24-1.61-.44-1.61-.44,0,0,0,0,0,0,.3-.07,10.01-2.3,16.32-5.59,1.78-.93,4.74-2.84,5.98-5.91-.03.16-.07.36-.11.6-.27,1.48-.46,2.34-.91,4.82,0,.04-.01.08-.02.12h0s0,.02,0,.03c-.36,2-.68,3.81-.84,4.61-.84,4.43-1.27,8.77-.91,11.86,0,.08.02.15.03.23.01.09.02.17.03.26.57,3.84,3.63,9.48,6.04,13.44l7.59,3.29,3.42-.44c.23-1.46.75-4.47,1.34-6.79.37-1.44.77-2.61,1.15-2.99.27-.27.72-.41,1.29-.44,0,0,0,0,0,0,3.11.51,6.52,2.62,7.67,3.37,0,0,0,0,0,0,1.2,1.28,2.28,3.26,3.08,4.98l10.62-1.36c.53-7.12.71-15.58-.99-19.03Z"/>
            <path class="cls-30" d="m50.52,97.84s0,0,0,0c-.13.06-4.5,1.91-13.32,2.28-.67.03-1.96-.11-3.37-.3-2.67-.36-5.77-.92-5.99-.96,0,0-.01,0-.01,0,0,0,.24-4.26,2.66-5.83.9-.58,3.07-.51,4.1-.44.35.02.56.05.56.05,0,0-.25-.33-.39-.72-.13-.37-.16-.8.22-1.05.02-.01.04-.03.06-.04.04-.02.08-.04.12-.06.03-.01.07-.03.1-.04.25-.08.29-.34.17-.73-.05-.16-.13-.35-.22-.55,0,0,0,0,0,0-1.05-2.14-4.66-6.32-6-7.84-.2-.23-.36-.4-.44-.49-.04-.05-.07-.08-.07-.08,0,0,.22-.16.63-.4,1.13-.66,3.69-1.94,6.97-2.21.84-.07,1.73-.07,2.66.02,5.84.58,11.25,2.99,11.25,2.99,0,0,.45,3.91.73,8.59.16,2.72-.42,7.78-.42,7.78Z"/>
            <path class="cls-31" d="m50.51,97.85c-.06.59-.13,1.8-.13,1.8,0,0-4.33,1.06-13.29,1.43-.67.03-1.96-.11-3.37-.3-2.76-.37-6-.96-6-.96,0,0,.02-.38.11-.95.21.04,3.32.6,5.99.96,1.41.19,2.71.33,3.37.3,8.82-.37,13.19-2.22,13.32-2.28Z"/>
            <path class="cls-11" d="m60.06,80.39c-.55-3.07-14.59-7.29-14.59-7.29,0,0,13.57-1.02,20.52,6,6.95,7.02-5.93,1.3-5.93,1.3Z"/>
            <path class="cls-34" d="m81.44,98.46c-.02.79-.11,1.29-.11,1.29,0,0-12.53.5-14.93.39-.05,0-.1,0-.15,0-1.8-.13-4.67-1.63-5.14-1.88-.04-.02-.07-.04-.07-.04,0,0-.07-5.01-.75-7.79-.05-.2-.1-.39-.16-.57-.6-1.9-1.48-4.35-1.91-5.53-.16-.43-.25-.69-.25-.69,0,0,.07-.22.24-.58,0,0,0,0,0,0,.66-1.42,2.72-4.97,7.3-5.89,2.03-.41,4.17-.41,6.07-.25,2.19.19,4.08.6,5.19.88.65.17,1.03.29,1.03.29,0,0-.19.4-.44,1.09-.51,1.41-1.48,6.22-1.27,8.93.16,2.07,1.1,3.05,2.9,4.77,2.17,2.07,2.47,3.94,2.43,5.59Z"/>
            <path class="cls-43" d="m69.94,35.06s-.03.03-.06.05c.03-.02.05-.04.06-.05Z"/>
            <path class="cls-61" d="m75.03,44.01c-1.83,1.79-3.6,2.83-5.12,2.54,0,0,.69-.24.97-1.01.27-.77-4.77-9.51-3.73-9.09.59.24,2.29-1,2.72-1.33-.38.32-1.69,1.55-1.05,3.29,2.11,5.69,5.51,5.5,5.83,5.59.09.03.23.03.38.02Z"/>
            <path class="cls-37" d="m50.69,18.49c1.82.14,4.42-1.01,4.23-1.26-.2-.25-1.57-.62-2.27-.64-.7-.03-2.88,1.87-2.88,1.87l.92.03Z"/>
            <path class="cls-46" d="m38.88,19.78s.34-.71.73-.65c.38.06.48.3.48.3,0,0-1.45.77-1.43.71.02-.06.22-.36.22-.36Z"/>
            <path class="cls-35" d="m87.12,23.87c-4.51.27-9.2,3.67-9.2,3.67l.03-.04c3.22-2.41,8.54-5.1,9.28-4.54.09.07.05.39-.11.91Z"/>
            <path class="cls-47" d="m54.74,82.94s0,0,0,.02c0,0,0-.01,0-.02Z"/>
            <path class="cls-6" d="m71.9,91.87c-1.81.3-4.68,1.13-5.45,3.42-.8,2.39-.37,3.68-.05,4.85-.05,0-.1,0-.15,0-1.97-.14-5.2-1.92-5.2-1.92,0,0,.28-5.79-.54-8.38-.82-2.59-2.16-6.23-2.16-6.23,0,0-.29-.19-.12-.55,0,0,0,0,0,0,.75-1.28,2.68-3.8,6.42-4.61,2.21-.47,4.62-.48,6.64-.33,2.35.17,4.18.55,4.56.63-.4-.07-2.37-.23-4.62-.23-2.49,0-5.33.2-6.76.98-2.86,1.54-2,8.73-.5,10.5,1.09,1.28,5.55,2.11,7.93,1.89Z"/>
            <path class="cls-58" d="m75.92,78.76s-.02,0-.05-.01c.03,0,.05,0,.05.01Z"/>
            <path class="cls-7" d="m49.7,97.39s-3.54,2.36-12.51,2.73c-.67.03-1.96-.11-3.37-.3.21,0,.46.02.75.06,4.77.75,11.01-.55,9.72-3.76-.89-2.23-5.83-2.97-6.86-3.02,1.09.03,8.55.41,9.45-1.03,1.02-1.64.18-11.26-3.82-12.18-7.98-1.84-11.22-.77-14.29,1.26-.04-.05-.07-.08-.07-.08,0,0,4.42-3.17,10.26-2.59,5.84.58,10.55,3.08,10.55,3.08,0,0,.89,3.83,1.17,8.51.16,2.72-.99,7.32-.99,7.32Z"/>
            <path class="cls-67" d="m70.6,93.25c.18-.09,5.68-1.68,7.59-.59,1.91,1.09,2.73,3.27,2.59,3.54-.14.27-6.73.68-8.54-.36-1.82-1.05-1.64-2.59-1.64-2.59Z"/>
            <path class="cls-20" d="m40.65,91.8c-.1-.04-3.97-1.41-5.67-.91.02-.01.04-.03.06-.04.04-.02.08-.04.12-.06.03-.01.07-.03.1-.04.25-.08.29-.34.17-.73,2.52.29,5.13,1.7,5.22,1.77Z"/>
            <path class="cls-14" d="m66.4,89.82c3.25.43,8.11-.57,8.11-.57,0,0-3.82-.59-5.11-.39-1.3.2-3,.95-3,.95Z"/>
            <path class="cls-29" d="m76.97,92.95c.51.75,1.45.57,1.29.25-.16-.32-1.55-.63-1.29-.25Z"/>
            <path class="cls-50" d="m75.83,88.8s-1.86.09-3.04-.41c-1.64-.69-2.02-6.57-1.56-9.88,2.25,0,4.22.17,4.62.23-.38-.08-2.21-.46-4.56-.63.08-.48.08-.38.2-.69,2.19.19,4.08.6,5.19.88-.22,1.03-1.04,5.05-1.08,6.82-.05,2,.23,3.68.23,3.68Z"/>
            <path class="cls-57" d="m36.85,89.8c-.31.14-.31.24-1.02-.31-.6-.45-4.61-6.31-6.07-8.38.75-.44,1.3-.72,2.54-.94,2.26,3.17,5.25,7.86,4.55,9.63Z"/>
            <path class="cls-65" d="m29.14,96.16s-.52-1.71,1.52-2.53,5.79.27,5.9.41c.1.14.66,2.19-1.93,2.77s-5.49-.65-5.49-.65Z"/>
            <path class="cls-29" d="m32.31,93.57c-.37-.48-1.95.21-1.85.39.1.18,2.05-.13,1.85-.39Z"/>
            <path class="cls-51" d="m67.97,72.15c3.2-3.48,4.91-1.84,4.91-1.84,0,0,.07-2.25-.55-4.36-.61-2.11-2.52-4.98-2.52-4.98,0,0,1.3,3.75,1.36,4.91.07,1.16-3.14-.48-3.14-.48,1.43,3.14-.07,6.75-.07,6.75Z"/>
            <path class="cls-15" d="m42.93,5.25c-1.08-.26-3.45-.61-4.99.77l-.02-.03c.75-.82,1.23-1.57,1.23-1.57l-.27-1.75c.02.11.11.5.38.83,0,0,0,0,0,0,.23.27.59.5,1.15.5.24,0,.18-.34.11-.93.61,1.33,1.71,1.93,2.39,2.17Z"/>
            <path class="cls-39" d="m31.19,17.22v.84s-1.62.48-2.87,2.22c1.04-1.84,2.84-2.78,2.84-2.78,0,0,0-.1.03-.28Z"/>
            <path class="cls-44" d="m50.28,25.29c-1.35,1.46-3.71,3.61-6.75,4.69h-.08c3.85-2.13,4.67-3.84,4.72-3.95l-.51,1.4s1.39-.92,2.62-2.14Z"/>
            <path class="cls-36" d="m34.5,49.04s-2.52,10.91-2.52,15.75,3.73,7.11,3.73,7.11c0,0-2.25-3.25-2.45-9.32-.2-6.07,1.25-13.54,1.25-13.54Z"/>
            <g>
              <path class="cls-38" d="m35.11,42.42c.04.32-.47,2.31-1.14,5.19-1.35,3.16-3.07,6.69-4.58,8.4-3.46,3.91-27.42,9.23-29.38,5.41,0,0,12.26-5,21.13-12.6,7.72-6.61,13.03-16.41,13.03-16.41l.66,2.34c-.63,1.14-1.01,2.57-1.11,4.21,0,.12.05.31.15.55.33.82,1.15,2.12,1.26,2.92Z"/>
              <path class="cls-49" d="m28.37,53.66l-1.55,1.62s-3.03-4.45-4.57-5.94c-.15-.14-.45-.34-.74-.52.02-.02.04-.03.05-.05.04-.04.08-.08.12-.11,0,0,0,0,0-.01l.49.27,6.18,4.76Z"/>
            </g>
          </g>
          <g>
            <path class="cls-84" d="m80.72,76.28s5.86.77,15.95.26c10.09-.51,15.07-1.9,15.07-1.9,0,0-9.9-.21-16.86-.07-6.96.14-14.16,1.71-14.16,1.71Z"/>
            <path class="cls-90" d="m110.33,82.69l.59.76-.11.08-.7.47-.06.36-3.09,18.42s-5.29,1.23-11.29,1.23-8.74-.7-8.74-.7l-3.58-18.37-.06-.3h-.05s-.9-.64-.9-.64l.05-.06.63-.7-.45-.97h0s-1.4-.96-1.4-.96h0s1-1.11,1-1.11l-.58-1.7-.74-2.18h0s0-.02,0-.02l5.47-.37,4.9-.23,14.52-.67,2.2-.1,3.95-.18-.05.28-.36,2.16-.35,2.11,1.22,1.23-1.55,1.15h-.08s-.39,1-.39,1Z"/>
            <path class="cls-3" d="m112.34,80.54l-1.55,1.15s-.03,0-.08,0c-.37.02-2.01.11-4.45.22h0c-.33.01-.67.03-1.02.04h0c-3.75.16-8.96.33-14.22.38-1.19.01-2.39.01-3.57,0-1.67,0-3.31-.03-4.88-.08h0s-1.4-.96-1.4-.96c.07.01,1.21.18,4.72.25,1.17.02,2.61.04,4.36.04,1.66,0,3.61-.02,5.88-.07,4.23-.09,7.49-.23,9.94-.39.75-.05,1.42-.09,2.03-.14h0c3.03-.24,4.24-.46,4.24-.46Z"/>
            <path class="cls-8" d="m110.81,83.53l-.7.47-.06.36c-.71.03-1.77.08-3.08.14-.38.02-.78.03-1.2.05-3.96.16-9.65.35-15.3.4-1.25.01-2.5.02-3.72.02-1.16,0-2.3-.01-3.4-.03l-.06-.3h-.05s-.9-.64-.9-.64l.05-.06c1.01.1,2.27.21,3.79.29,1.1.06,2.33.11,3.7.14,1.94.04,4.16.05,6.67,0,4.43-.09,7.57-.23,9.76-.38.73-.05,1.36-.1,1.89-.14,1.46-.13,2.24-.25,2.6-.31Z"/>
            <path class="cls-71" d="m108.28,80.91l-.18.09h0c-.6.05-1.28.09-2.03.14l.14-.12-1.17-1.42.69-4.55,2.2-.1-1.53,4.76,1.88,1.21Z"/>
            <path class="cls-79" d="m106.32,83.98l.13-.13-1.21-1.89c.36-.01.7-.03,1.02-.04h0l1.94,1.93c-.53.05-1.16.1-1.89.14Z"/>
            <path class="cls-70" d="m106.97,84.49l-1.85,18.33.65-18.28c.42-.02.82-.03,1.2-.05Z"/>
            <path class="cls-74" d="m90.05,81.44l.2.17c-1.75,0-3.19-.01-4.36-.04l1.82-1.24-1.4-4.39,4.9-.23.35,4.36-1.51,1.37Z"/>
            <path class="cls-76" d="m89.8,84.28l.09.08c-1.37-.03-2.61-.08-3.7-.14l1.66-1.7-.39-.18c1.18,0,2.38,0,3.57,0l-1.22,1.94Z"/>
            <path class="cls-77" d="m92.41,103.15l-1.74-.15-3.56-17.88-.35-.16c1.23,0,2.47,0,3.72-.02l1.93,18.21Z"/>
            <path class="cls-87" d="m111.88,74.76s-1.07.3-3.21.67c-.1.02-.19.03-.3.05-.58.1-1.24.2-1.98.31-1,.14-2.14.28-3.42.41-1.04.11-2.18.21-3.4.3-.09,0-.19.01-.28.02-.35.02-.71.05-1.07.07-.46.03-.93.05-1.41.08-.19.01-.39.02-.58.03-.46.02-.91.04-1.34.05-.96.03-1.86.05-2.71.07-.16,0-.33,0-.48,0-.28,0-.55,0-.81,0-.29,0-.58,0-.85,0-.43,0-.83,0-1.23-.02-.08,0-.16,0-.24,0h.08c.13-.46.27-.98.44-1.54.01,0,.02,0,.03,0,.38-.04.76-.08,1.15-.12.07,0,.14-.01.21-.02h0c.15-.01.31-.03.47-.04.1,0,.19-.02.29-.02.74-.06,1.49-.12,2.25-.16.24-.02.48-.03.72-.04.57-.03,1.15-.05,1.73-.06.64-.01,1.3-.02,1.97-.03.35,0,.71,0,1.07-.01.09,0,.18,0,.28,0,1.03,0,2.06-.02,3.07-.02,1.28,0,2.53,0,3.67,0,.79,0,1.54,0,2.21,0,.1,0,.2,0,.29,0,2.06.01,3.4.03,3.4.03Z"/>
            <path class="cls-83" d="m89.06,75.25c-.16.56-.31,1.08-.44,1.54h-.08c-.13,0-.26,0-.39,0-.15,0-.31,0-.46-.01-.38-.01-.73-.03-1.07-.04-3.23-.15-4.82-.44-4.82-.44,0,0,1.56-.3,3.93-.62.33-.05.68-.09,1.04-.14.56-.07,1.16-.15,1.79-.22.16-.02.32-.04.49-.05Z"/>
            <path class="cls-81" d="m88.65,79.07c.07.7-.13,1.31-.46,1.35-.32.04-.64-.49-.71-1.2-.07-.7.13-1.3.46-1.34.32-.04.64.49.71,1.19Z"/>
            <g>
              <path class="cls-88" d="m93.35,76.78c-1.07.03-2.09.04-3.04.04-.18,0-.36,0-.54,0-.31,0-.62,0-.91,0-.33,0-.65,0-.96-.01-.48,0-.93-.02-1.37-.03-.09,0-.18,0-.27,0-.15,0-.29-.01-.43-.02-.17,0-.34-.01-.51-.02-.42-.02-.82-.04-1.2-.06-.36-.4-.69-.81-.98-1.21-1.62-2.25-2.13-4.42-2.13-6.27h0c.18-2.18,1.41-5.23,1.47-5.37,0,0,0,0,0,0,0,0-1.7-.44-1.49-3.9,0-.08.01-.17.02-.26.3-3.59,3.38-5.58,3.47-5.65-.02.05-.62,1.35-.77,3.1-.04.48-.05.99,0,1.51.02.17.03.34.05.49.2,2.06.46,2.22.46,2.22l3.45-5.67c-.13.28-2.21,4.82-2.74,7.15-.08.36.06.94.38,1.68.44,1.04,1.21,2.39,2.12,3.84.26.41.53.83.81,1.26.42.64.86,1.28,1.3,1.92h0s.02.03.03.05h0c.76,1.11,1.53,2.18,2.23,3.13.59.81,1.13,1.53,1.56,2.1Z"/>
              <path class="cls-91" d="m98.6,76.55c-.1,0-.21.01-.31.02-.39.02-.8.05-1.21.07-.51.03-1.04.05-1.58.07-.22,0-.44.02-.65.02-.51.02-1.02.03-1.5.05-1.07.03-2.09.04-3.04.04-.18,0-.36,0-.54,0-.34-.61-.61-1.28-.82-1.97-.32-1.05-.51-2.15-.62-3.23-.07-.7-.09-1.39-.09-2.04,0-1.14.09-2.17.21-2.93.03-.24.07-.45.11-.63.07-.35.15-.6.23-.72.03-.05.05-.07.08-.08.26-.06,2.56,1.77,4.92,4.08.07.07.14.14.21.2.09.09.18.18.27.27.14.14.28.28.41.42.66.68,1.3,1.37,1.88,2.07.49.58.93,1.15,1.31,1.7h0c.14.21.27.41.4.61.09.14.17.28.24.42.37.67.36,1.17.11,1.55Z"/>
              <path class="cls-1" d="m85.29,64.49c-.26.05-1.31.27-2.31,1.03-.31.24-.62.52-.89.87-.53.67-.96,1.58-1.1,2.79.18-2.18,1.41-5.23,1.47-5.37,0,0,0,0,0,0,0,0-1.7-.44-1.49-3.9,1.6,3.81,3.94,2.91,3.94,2.91-.08.36.07.94.38,1.68Z"/>
              <path class="cls-23" d="m92.2,68.9c0,.35-.3.64-.7.73-.08.02-.16.03-.25.03-.51,0-.92-.33-.91-.75.01-.42.43-.76.95-.76.37,0,.68.17.83.42.06.1.09.21.09.33Z"/>
              <path class="cls-86" d="m92.19,69.08c0,.26-.22.48-.52.54-.29-.02-.51-.21-.5-.45,0-.25.26-.46.57-.46.15,0,.29.05.38.12.04.07.07.15.06.24Z"/>
              <path class="cls-9" d="m94.67,70.2c-2.57,1.95-5.15,1.35-5.42,1.28.2.02,1.61.15,2.97-.47.65-.3,1.28-.77,1.76-1.5.09.09.18.18.27.27.14.14.28.28.41.42Z"/>
              <path class="cls-75" d="m91.71,71.74c1.74-.22,2.58-1.27,2.58-1.27,0,0-1.36.88-2.7,1.07-1.34.19-1.72.04-1.72.04,0,0,.69.31,1.84.16Z"/>
              <path class="cls-2" d="m89.3,66.88s-.5-.44-.75-.85c.07-.35.15-.6.23-.72.02.01.02.02.02.02.16.95.48,1.51.5,1.55Z"/>
              <path class="cls-85" d="m106.26,75.83c-1.13.15-2.41.29-3.84.42-1.17.11-2.44.21-3.82.29-.1,0-.21.01-.31.02-.39.02-.8.05-1.21.07-.14-.66-.26-1.36-.34-2.06-.09-.76-.16-1.54-.19-2.31-.07-1.52-.04-3.03.04-4.41.1-1.61.27-3.04.46-4.11.05-.33.11-.62.17-.87.1-.49.2-.83.29-.99.03-.06.06-.1.08-.1.26-.06,2.39,2.64,4.55,6.04.06.1.13.2.19.3.08.13.16.27.25.4.13.21.25.41.38.62,1.09,1.82,2.13,3.75,2.86,5.5.17.41.32.81.46,1.2Z"/>
              <path class="cls-22" d="m100.59,67.13c-.04.49-.35.89-.76.99-.08.02-.17.03-.25.03-.51-.02-.89-.52-.84-1.11.05-.58.5-1.04,1-1.01.37.02.66.28.79.64.05.14.07.3.06.46Z"/>
              <path class="cls-69" d="m100.57,67.4c-.03.36-.26.65-.56.73-.28-.04-.48-.32-.46-.66.03-.35.3-.62.6-.61.15,0,.28.08.37.2.04.1.05.22.04.34Z"/>
              <path class="cls-12" d="m102.94,69.13c-2.72,2.6-5.24,1.58-5.51,1.47.2.04,1.59.32,3-.47.67-.38,1.34-1,1.88-2.01.08.13.16.26.25.4.13.21.25.41.38.62Z"/>
              <path class="cls-73" d="m99.87,71.12c1.76-.2,2.68-1.63,2.68-1.63,0,0-1.42,1.16-2.78,1.34-1.35.18-1.72-.05-1.72-.05,0,0,.66.48,1.82.35Z"/>
              <path class="cls-19" d="m97.89,64.11c-.04-.05-.46-.65-.68-1.25.1-.49.2-.83.29-.99.01.02.02.03.02.03.07,1.34.35,2.15.37,2.21Z"/>
              <path class="cls-5" d="m94.85,76.73c-.51.02-1.02.03-1.5.05-1.07.03-2.09.04-3.04.04-.18,0-.36,0-.54,0-.31,0-.62,0-.91,0-.33,0-.65,0-.96-.01-.48,0-.93-.02-1.37-.03.13-.55.25-1.13.37-1.74.07-.36.14-.72.2-1.09.32-1.9.51-3.92.34-5.61.26.41.53.83.81,1.26,0-1.14.09-2.17.21-2.93.19,1.77.85,3.4,1.73,4.85.02.04.05.08.07.12,0,0,0,0,0,0h0s.02.03.03.05c0,0,0,.02.02.03h0c.69,1.1,1.49,2.08,2.3,2.94.78.83,1.57,1.53,2.26,2.09Z"/>
              <path class="cls-13" d="m90.3,76.82c-.18,0-.36,0-.54,0-.31,0-.62,0-.91,0-.1-.36-.19-.72-.27-1.07-.05-.21-.09-.42-.12-.62-.02-.08-.03-.16-.04-.23h0c-.48-2.73-.27-4.71-.27-4.71,0,0,.03.57.18,1.44.15.85.43,2,.94,3.21.27.66.62,1.34,1.04,1.99Z"/>
              <path class="cls-72" d="m83.37,59.06c-.3-.34-.92-.89-1.85-1.13l.29-.85,1.53-.02c-.04.48-.05.99,0,1.51.02.17.03.34.05.49Z"/>
              <path class="cls-10" d="m88.82,75.37l-.24.37-.69,1.06c-.48,0-.93-.02-1.37-.03-.09,0-.18,0-.27,0-.15,0-.29-.01-.43-.02-.17,0-.34-.01-.51-.02-.32-.41-.67-.89-1.01-1.41-1.5-2.3-2.98-5.58-2.2-8.92.16-.68.41-1.36.77-2.04.03.4.07.79.13,1.17.6,4.2,2.6,6.93,4.1,8.42.42.42.8.74,1.09.97.11.08.2.15.28.21.23.17.37.25.37.25Z"/>
              <path class="cls-16" d="m102.42,76.26c-1.17.11-2.44.21-3.82.29-.1,0-.21.01-.31.02-.12-.61-.24-1.28-.35-1.99-.03-.2-.06-.4-.08-.61h0c-.14-1.03-.24-2.15-.29-3.32,0,0,0-.02,0-.03-.06-1.57-.02-3.24.19-4.95l2.09,4.73.17.38h0l.13.3,1.55,3.51.73,1.67Z"/>
              <path class="cls-78" d="m98.21,62.82c4.09,5.76,5.94,13.02,5.94,13.02l1.77-.36c-5.05-10.56-7.3-12.06-7.71-12.67Z"/>
            </g>
            <path class="cls-82" d="m106.62,74.49c-.09,0-.17.02-.26.03-.97-5.04-4.79-17.39-9.39-16.69-4.27.65-6.2,11.37-7.02,17.32-.08.58-.15,1.11-.21,1.58h-.07s-.35.05-.35.05c0,0,0,0,0-.01.06-.44.12-.95.19-1.51.72-5.86,2.14-17.09,7.2-18.02,5.33-.99,8.86,12.95,9.91,17.25Z"/>
            <path class="cls-18" d="m111.83,75.04l-.36,2.16c-3.39.19-9.22.51-13.54.65-5.03.17-13.04.51-16.34.65l-.74-2.18c.82.27,5.67,1.67,17.26.92,6.3-.41,10.79-1.35,13.72-2.2Z"/>
            <path class="cls-89" d="m87.67,78.08c.23.1.36.25.44.4-.05.07-.09.11-.1.12-.28.17-2.75-.44-2.75-.44,0,0-.31-.56,0-.95,0,0,1.43.88,2.37.87.01,0,.03,0,.04,0Z"/>
          </g>
        </g>
      </g>
    </g>
  </g>
</svg>