<?xml version="1.0" encoding="UTF-8"?>
<svg xmlns="http://www.w3.org/2000/svg" xmlns:xlink="http://www.w3.org/1999/xlink" viewBox="0 0 190.41 170.54">
  <defs>
    <style>
      .cls-1 {
        fill: url(#_Áåçûìÿííûé_ãðàäèåíò_154);
      }

      .cls-1, .cls-2, .cls-3, .cls-4, .cls-5, .cls-6, .cls-7, .cls-8, .cls-9, .cls-10, .cls-11 {
        mix-blend-mode: screen;
      }

      .cls-1, .cls-5 {
        opacity: .25;
      }

      .cls-12 {
        fill: url(#_Áåçûìÿííûé_ãðàäèåíò_395);
      }

      .cls-12, .cls-13, .cls-14, .cls-15, .cls-16, .cls-17, .cls-18, .cls-19, .cls-20, .cls-21, .cls-22 {
        mix-blend-mode: multiply;
      }

      .cls-23 {
        fill: url(#_Áåçûìÿííûé_ãðàäèåíò_83);
      }

      .cls-24 {
        fill: url(#_Áåçûìÿííûé_ãðàäèåíò_230);
      }

      .cls-13 {
        fill: url(#_Áåçûìÿííûé_ãðàäèåíò_538-3);
      }

      .cls-13, .cls-17, .cls-18, .cls-20 {
        opacity: .35;
      }

      .cls-2 {
        fill: url(#_Áåçûìÿííûé_ãðàäèåíò_546);
      }

      .cls-14 {
        fill: url(#_Áåçûìÿííûé_ãðàäèåíò_395-2);
      }

      .cls-14, .cls-22 {
        opacity: .65;
      }

      .cls-25 {
        fill: url(#_Áåçûìÿííûé_ãðàäèåíò_4);
      }

      .cls-26 {
        fill: url(#_Áåçûìÿííûé_ãðàäèåíò_391);
      }

      .cls-3 {
        fill: url(#_Áåçûìÿííûé_ãðàäèåíò_50);
        opacity: .5;
      }

      .cls-15 {
        fill: #ba92d1;
        opacity: .85;
      }

      .cls-4 {
        opacity: .28;
      }

      .cls-4, .cls-7, .cls-9 {
        fill: #e09ce0;
      }

      .cls-16 {
        fill: url(#_Áåçûìÿííûé_ãðàäèåíò_49);
        opacity: .6;
      }

      .cls-27 {
        isolation: isolate;
      }

      .cls-17 {
        fill: url(#_Áåçûìÿííûé_ãðàäèåíò_538-2);
      }

      .cls-28 {
        fill: url(#_Áåçûìÿííûé_ãðàäèåíò_230-2);
      }

      .cls-29 {
        fill: url(#_Áåçûìÿííûé_ãðàäèåíò_220);
      }

      .cls-5 {
        fill: url(#_Áåçûìÿííûé_ãðàäèåíò_52);
      }

      .cls-30, .cls-19 {
        opacity: .71;
      }

      .cls-30, .cls-31 {
        fill: #f4e2f1;
      }

      .cls-6 {
        fill: url(#_Áåçûìÿííûé_ãðàäèåíò_41-2);
      }

      .cls-6, .cls-8 {
        opacity: .74;
      }

      .cls-32 {
        clip-path: url(#clippath);
      }

      .cls-18 {
        fill: url(#_Áåçûìÿííûé_ãðàäèåíò_538);
      }

      .cls-33 {
        fill: none;
      }

      .cls-19 {
        fill: #c960d1;
      }

      .cls-7 {
        opacity: .08;
      }

      .cls-20 {
        fill: url(#_Áåçûìÿííûé_ãðàäèåíò_538-4);
      }

      .cls-8 {
        fill: url(#_Áåçûìÿííûé_ãðàäèåíò_41);
      }

      .cls-21 {
        fill: #609ad9;
      }

      .cls-22 {
        fill: #2039a1;
      }

      .cls-9 {
        opacity: .15;
      }

      .cls-10 {
        fill: url(#_Áåçûìÿííûé_ãðàäèåíò_402);
        opacity: .69;
      }

      .cls-11 {
        fill: #3b7eca;
        opacity: .47;
      }

      .cls-34 {
        opacity: .56;
      }
    </style>
    <linearGradient id="_Áåçûìÿííûé_ãðàäèåíò_220" data-name="Áåçûìÿííûé ãðàäèåíò 220" x1="99.34" y1="116.66" x2="99.34" y2="27.97" gradientUnits="userSpaceOnUse">
      <stop offset=".07" stop-color="#2e0043"/>
      <stop offset=".24" stop-color="#370846"/>
      <stop offset=".52" stop-color="#521e51"/>
      <stop offset=".88" stop-color="#7c4161"/>
      <stop offset="1" stop-color="#8d4f68"/>
    </linearGradient>
    <linearGradient id="_Áåçûìÿííûé_ãðàäèåíò_83" data-name="Áåçûìÿííûé ãðàäèåíò 83" x1="118.88" y1="133.86" x2="118.88" y2="40.98" gradientUnits="userSpaceOnUse">
      <stop offset="0" stop-color="#ba92d1"/>
      <stop offset=".39" stop-color="#cea8d7"/>
      <stop offset="1" stop-color="#f4d3e3"/>
    </linearGradient>
    <linearGradient id="_Áåçûìÿííûé_ãðàäèåíò_230" data-name="Áåçûìÿííûé ãðàäèåíò 230" x1="77.41" y1="39.63" x2="77.41" y2="1.61" gradientUnits="userSpaceOnUse">
      <stop offset="0" stop-color="#ea524b"/>
      <stop offset="1" stop-color="#ffa953"/>
    </linearGradient>
    <linearGradient id="_Áåçûìÿííûé_ãðàäèåíò_230-2" data-name="Áåçûìÿííûé ãðàäèåíò 230" x1="167.23" y1="49.98" x2="167.23" y2="30.09" xlink:href="#_Áåçûìÿííûé_ãðàäèåíò_230"/>
    <linearGradient id="_Áåçûìÿííûé_ãðàäèåíò_49" data-name="Áåçûìÿííûé ãðàäèåíò 49" x1="98.04" y1="105.86" x2="98.04" y2="21.65" gradientUnits="userSpaceOnUse">
      <stop offset=".16" stop-color="#fff"/>
      <stop offset=".31" stop-color="#ede2f3"/>
      <stop offset=".62" stop-color="#c8a8da"/>
      <stop offset=".77" stop-color="#ba92d1"/>
    </linearGradient>
    <linearGradient id="_Áåçûìÿííûé_ãðàäèåíò_50" data-name="Áåçûìÿííûé ãðàäèåíò 50" x1="121.76" y1="77.59" x2="121.76" y2="54.96" gradientUnits="userSpaceOnUse">
      <stop offset="0" stop-color="#e09ce0"/>
      <stop offset=".05" stop-color="#c488c4"/>
      <stop offset=".16" stop-color="#895f89"/>
      <stop offset=".26" stop-color="#583d58"/>
      <stop offset=".36" stop-color="#312231"/>
      <stop offset=".46" stop-color="#160f16"/>
      <stop offset=".54" stop-color="#050405"/>
      <stop offset=".6" stop-color="#000"/>
    </linearGradient>
    <linearGradient id="_Áåçûìÿííûé_ãðàäèåíò_52" data-name="Áåçûìÿííûé ãðàäèåíò 52" x1="119.83" y1="49.43" x2="119.83" y2="39.99" gradientUnits="userSpaceOnUse">
      <stop offset="0" stop-color="#000"/>
      <stop offset=".09" stop-color="#080608"/>
      <stop offset=".24" stop-color="#201620"/>
      <stop offset=".43" stop-color="#463146"/>
      <stop offset=".65" stop-color="#7c567c"/>
      <stop offset=".89" stop-color="#c085c0"/>
      <stop offset="1" stop-color="#e09ce0"/>
    </linearGradient>
    <linearGradient id="_Áåçûìÿííûé_ãðàäèåíò_154" data-name="Áåçûìÿííûé ãðàäèåíò 154" x1="-452.88" y1="-413.9" x2="-472.98" y2="-430.62" gradientTransform="translate(-386.86 -374.21) rotate(-96.1) scale(1 -1)" gradientUnits="userSpaceOnUse">
      <stop offset="0" stop-color="#e09ce0"/>
      <stop offset=".08" stop-color="#c488c4"/>
      <stop offset=".26" stop-color="#895f89"/>
      <stop offset=".44" stop-color="#583d58"/>
      <stop offset=".61" stop-color="#312231"/>
      <stop offset=".76" stop-color="#160f16"/>
      <stop offset=".9" stop-color="#050405"/>
      <stop offset="1" stop-color="#000"/>
    </linearGradient>
    <clipPath id="clippath">
      <polygon class="cls-33" points=".11 113.73 12.14 137.18 15.26 137.71 31.36 159.24 36.84 154.67 40.24 158.8 50.44 165.85 52.59 169.98 74.45 170.54 96.36 164.38 101.78 168.65 108.92 170.54 112.86 168.76 147.59 170.54 159.44 164.75 161.57 166.64 167.73 146.2 171.52 145.11 190.41 109.84 141.04 120.51 .11 113.73"/>
    </clipPath>
    <linearGradient id="_Áåçûìÿííûé_ãðàäèåíò_391" data-name="Áåçûìÿííûé ãðàäèåíò 391" x1="108.5" y1="172.48" x2="108.5" y2="107.26" gradientUnits="userSpaceOnUse">
      <stop offset=".45" stop-color="#bbc8fd"/>
      <stop offset=".63" stop-color="#ccd6fd"/>
      <stop offset=".85" stop-color="#e6ebff"/>
    </linearGradient>
    <linearGradient id="_Áåçûìÿííûé_ãðàäèåíò_402" data-name="Áåçûìÿííûé ãðàäèåíò 402" x1="104.58" y1="172.48" x2="104.58" y2="132.39" gradientUnits="userSpaceOnUse">
      <stop offset="0" stop-color="#000"/>
      <stop offset=".2" stop-color="#15414b"/>
      <stop offset=".45" stop-color="#3090a5"/>
      <stop offset=".56" stop-color="#3bb0ca"/>
      <stop offset=".58" stop-color="#37a5be"/>
      <stop offset=".69" stop-color="#246b7b"/>
      <stop offset=".8" stop-color="#143d46"/>
      <stop offset=".88" stop-color="#091b20"/>
      <stop offset=".96" stop-color="#020708"/>
      <stop offset="1" stop-color="#000"/>
    </linearGradient>
    <linearGradient id="_Áåçûìÿííûé_ãðàäèåíò_395" data-name="Áåçûìÿííûé ãðàäèåíò 395" x1="108.5" y1="187.67" x2="108.5" y2="80.81" gradientUnits="userSpaceOnUse">
      <stop offset="0" stop-color="#fff"/>
      <stop offset=".41" stop-color="#9ea9d6"/>
      <stop offset=".81" stop-color="#4459b0"/>
      <stop offset="1" stop-color="#2039a1"/>
    </linearGradient>
    <linearGradient id="_Áåçûìÿííûé_ãðàäèåíò_395-2" data-name="Áåçûìÿííûé ãðàäèåíò 395" y1="187.25" y2="83.33" xlink:href="#_Áåçûìÿííûé_ãðàäèåíò_395"/>
    <linearGradient id="_Áåçûìÿííûé_ãðàäèåíò_538" data-name="Áåçûìÿííûé ãðàäèåíò 538" x1="211.21" y1="123.81" x2="166.12" y2="123.81" gradientUnits="userSpaceOnUse">
      <stop offset="0" stop-color="#fff"/>
      <stop offset=".4" stop-color="#ccdbf5"/>
      <stop offset=".71" stop-color="#abc3ef"/>
      <stop offset=".88" stop-color="#9fbbed"/>
    </linearGradient>
    <linearGradient id="_Áåçûìÿííûé_ãðàäèåíò_538-2" data-name="Áåçûìÿííûé ãðàäèåíò 538" x1="77.48" y1="126.88" x2="27.71" y2="126.88" xlink:href="#_Áåçûìÿííûé_ãðàäèåíò_538"/>
    <linearGradient id="_Áåçûìÿííûé_ãðàäèåíò_546" data-name="Áåçûìÿííûé ãðàäèåíò 546" x1="59.71" y1="119.31" x2="-10.53" y2="119.31" gradientUnits="userSpaceOnUse">
      <stop offset="0" stop-color="#3b7eca"/>
      <stop offset=".32" stop-color="#224975"/>
      <stop offset=".59" stop-color="#0f2136"/>
      <stop offset=".78" stop-color="#04090e"/>
      <stop offset=".88" stop-color="#000"/>
    </linearGradient>
    <linearGradient id="_Áåçûìÿííûé_ãðàäèåíò_4" data-name="Áåçûìÿííûé ãðàäèåíò 4" x1="88.65" y1="136.79" x2="98.56" y2="98.88" gradientUnits="userSpaceOnUse">
      <stop offset="0" stop-color="#bbc8fd"/>
      <stop offset=".46" stop-color="#ccd6fd"/>
      <stop offset="1" stop-color="#e6ebff"/>
    </linearGradient>
    <linearGradient id="_Áåçûìÿííûé_ãðàäèåíò_41" data-name="Áåçûìÿííûé ãðàäèåíò 41" x1="48.46" y1="107.14" x2="164.84" y2="107.14" gradientUnits="userSpaceOnUse">
      <stop offset="0" stop-color="#000"/>
      <stop offset=".42" stop-color="#5ea6fb"/>
      <stop offset=".51" stop-color="#4c86cb"/>
      <stop offset=".69" stop-color="#2b4d75"/>
      <stop offset=".84" stop-color="#142336"/>
      <stop offset=".94" stop-color="#05090e"/>
      <stop offset="1" stop-color="#000"/>
    </linearGradient>
    <linearGradient id="_Áåçûìÿííûé_ãðàäèåíò_41-2" data-name="Áåçûìÿííûé ãðàäèåíò 41" x1=".11" y1="124.13" x2="190.41" y2="124.13" xlink:href="#_Áåçûìÿííûé_ãðàäèåíò_41"/>
    <linearGradient id="_Áåçûìÿííûé_ãðàäèåíò_538-3" data-name="Áåçûìÿííûé ãðàäèåíò 538" x1="85.46" y1="117.12" x2="181.19" y2="117.12" xlink:href="#_Áåçûìÿííûé_ãðàäèåíò_538"/>
    <linearGradient id="_Áåçûìÿííûé_ãðàäèåíò_538-4" data-name="Áåçûìÿííûé ãðàäèåíò 538" x1="20.46" y1="120.02" x2="111.91" y2="120.02" xlink:href="#_Áåçûìÿííûé_ãðàäèåíò_538"/>
  </defs>
  <g class="cls-27">
    <g id="Layer_2" data-name="Layer 2">
      <g id="_Ñëîé_1" data-name="Ñëîé 1">
        <g>
          <g>
            <path class="cls-29" d="m64.58,100.05s3.08-4.26,4.18-4.03c0,0,.16-7.03-2.09-10.03-2.25-3-15.04-12.24-15.99-14.29,0,0-6.87-4.97-7.34-6.71-.47-1.74,14.21-1.11,17.76-7.1,3.55-6,6.32-11.29,7.66-15.24,1.34-3.95,1.58-14.68,1.58-14.68h2.84s18.31,11.21,21.79,10.58c3.47-.63,32.13-.87,41.29-1.66,9.16-.79,17.53-4.66,17.53-4.66l1.58,2.05s-4.03,5.37-4.18,17.13c-.16,11.76,5.45,34.42-3.61,53.79-9.05,19.37-69.79,8.32-69.79,8.32l-13.21-13.47Z"/>
            <path class="cls-23" d="m103.57,116.66s-13.58-7.61-15.95-42.98c-2.37-35.37,10.9-35.41,10.9-35.41,0,0,28.41-2.73,37.73,0,9.32,2.73,21.42,42.46,8.58,70.67,0,0-8.26,11.55-41.26,7.72Z"/>
            <path class="cls-24" d="m70.18,31.84s-.5-3.79-2.23-4.53c0,0,3.16-7.05,3.53-12.26s.53-11.1.53-11.1c0,0,3.63,2.16,4.58,4.95.95,2.79,0,7.16,0,7.16,0,0,4.68-10,5.26-16.05,0,0,4.89,2.42,3.95,7.26,0,0,1.84,3.26.74,5.84-1.11,2.58-9.79,10.89-11.68,12.89-1.89,2,2.26,4.47-.74,3.95,0,0-.89,5.11-2.53,1.9,0,0-1.22,2.32-1.4,0Z"/>
            <path class="cls-28" d="m151.7,33.07s2.91-1.1,4.93-3.82c0,0,12.99,5.36,16.94,6.2,3.95.85,9.58,1.69,9.58,1.69,0,0-3.81,2.96-6.2,3.24-2.4.28-5.85-.56-5.85-.56,0,0,5.43,4.02,9.37,4.86,0,0-5.07,3.31-9.37.92,0,0-3.17.56-4.86-.56-1.69-1.13-8.53-9.8-9.65-10.43-1.13-.63-3.93,3.87-2.38.56,0,0-4.16.99-1.13-1.55,0,0-2.76.16-1.37-.54Z"/>
            <path class="cls-15" d="m131.13,38.58c6.53-3.37,20.34,8.07,20.96,28.52.05,1.57.21,2.95.44,4.19-.45-7.86-1.42-14.85-1.35-19.86.01-1.06.07-2.05.14-3.01,0-.02-4.67-11.36-13.69-11.66-.39.08-.78.11-1.18.13-.06,0-.12.01-.18.02-5.24.45-16.88.22-26.52.55,11.36-.39,15.35,4.25,21.4,1.13Z"/>
            <path class="cls-15" d="m61.1,57.89c-3.55,6-18.24,5.37-17.76,7.1.47,1.74,7.34,6.71,7.34,6.71.95,2.05,13.74,11.29,15.99,14.29,2.25,3,2.09,10.03,2.09,10.03-1.11-.24-4.18,4.03-4.18,4.03l13.21,13.47s60.73,11.05,69.79-8.32c1.02-2.17,1.84-4.39,2.51-6.63-1.33,3.79-4.19,7.18-7.67,4.52-4-3.05-3.91,3.97-12.84,2.84-8.93-1.13-16.21-5.47-19.58-3.34s-12.84,10.08-26.1,0c-13.26-10.08-24.71-27.09-17.71-45.92,4.83-13,5.08-12,4-24.84-.19,3.48-.6,8.4-1.42,10.81-1.34,3.95-4.11,9.24-7.66,15.24Z"/>
            <path class="cls-16" d="m61.1,57.89c-3.55,6-18.24,5.37-17.76,7.1.47,1.74,7.34,6.71,7.34,6.71.95,2.05,13.74,11.29,15.99,14.29,2.25,3,2.09,10.03,2.09,10.03-1.11-.24-4.18,4.03-4.18,4.03l13.21,13.47s11.58,2.11,25.38,2.87c.26.18.41.27.41.27,33,3.82,41.26-7.72,41.26-7.72,1.15-1.1,2.08-2.33,2.74-3.73,8.36-17.89,4.22-38.58,3.66-50.91-1.83-10.98-7.74-15.74-13.44-17.57-.51.06-1.03.12-1.54.16-1.67.14-3.98.27-6.67.38-.53-.04-1.09-.07-1.65-.09,4.75.42,9.09,1.47,11.08,3.74,2.21,2.53,19.6,31.55-6.71,36.33-26.31,4.78-61.67-31.34-62.22-44.01-.22,3.31-.62,7.32-1.33,9.42-1.34,3.95-4.11,9.24-7.66,15.24Z"/>
            <path class="cls-19" d="m151.7,33.07c-1.39.7,1.37.54,1.37.54-3.03,2.54,1.13,1.55,1.13,1.55-1.55,3.31,1.25-1.19,2.38-.56,1.13.63,7.96,9.3,9.65,10.43s4.86.56,4.86.56c4.3,2.4,9.37-.92,9.37-.92,0,0-2.7,1.24-5.64.43-2.94-.81-11.79-9.13-11.79-9.13l7.58,8.4s-2.32,0-5.26-2.11c-2.95-2.11-8.73-13.02-8.73-13.02-2.02,2.72-4.93,3.82-4.93,3.82Z"/>
            <path class="cls-19" d="m79.15,19.06c1.62-1.48,3.06-2.92,3.82-4.03,2.82-4.11,2.82-7.76,2.82-7.76-1.38,5.29-4.22,9.22-6.64,11.79Z"/>
            <path class="cls-19" d="m81.84,0c-.58,6.05-5.26,16.05-5.26,16.05-1.09,3.84-2.61,6.27-3.34,7.29,3.46-4.57,9.66-13.22,10.12-16.34.63-4.21-1.53-7-1.53-7Z"/>
            <path class="cls-19" d="m74.84,9.74c-.84-3.37-2.84-5.79-2.84-5.79,0,0-.16,5.89-.53,11.1-.37,5.21-3.53,12.26-3.53,12.26,1.74.74,2.23,4.53,2.23,4.53.17,2.13,1.2.36,1.37.05-.65-1.44-1.62-4.43-.97-6.16,1.65-4.38,5.1-12.63,4.26-16Z"/>
            <path class="cls-19" d="m174.31,38.37c-3.37-.95-10.42-3.97-10.42-3.97,0,0,4.53,3.86,7.21,5.41,0,0,3.45.85,5.85.56,2.4-.28,6.2-3.24,6.2-3.24,0,0-5.47,2.17-8.84,1.23Z"/>
            <path class="cls-3" d="m132.31,77.25c12.42-2.15,15.53-10.38,13.96-19.52-1.57-9.15.41,6.96-5.99,11.46-6.39,4.5-26.21,3.16-39.71-3.08-13.5-6.24,12.95,14.39,31.74,11.14Z"/>
            <path class="cls-5" d="m132.61,38.9c-4.96,2.49-10.03.6-14.78-.4-16.86-3.57-25.81,8.44-15.28,9.92,7.76,1.09,18.31-.08,22.22-2.46.56,3.02,17.29,5.76,16.86.5-.32-3.81-5.9-9.13-9.01-7.57Z"/>
            <path class="cls-31" d="m110.14,38.76c2.86-.73,4.66-1.09,6.17.44,1.51,1.53-12.16,1.09-6.17-.44Z"/>
            <path class="cls-31" d="m132.67,39.25c1.22-.71,1.66-.64,2.45.27.79.91-3.42.29-2.45-.27Z"/>
            <path class="cls-1" d="m96.65,45.22c-.78-4.85-17.46-14.65-20.47-13.85-6.52,1.73-3.35,11.35,6.42,21.69,8.45,8.94,14.05-7.84,14.05-7.84Z"/>
            <path class="cls-30" d="m78.22,48.5c1.3,1.98,2.11,3.12,2.67,2.28.56-.85-5.38-6.42-2.67-2.28Z"/>
          </g>
          <g>
            <g class="cls-32">
              <g>
                <path class="cls-26" d="m-161.19,123.61s14.77,6.93,49.05-4.01c34.28-10.94,92.45-12.34,92.45-12.34l.91,2.37c.91,2.37,4.01.36,4.01.36,0,0,43.58,7.05,66.19,9.42,22.61,2.37,39.14,5.41,72.45-.18,33.31-5.59,52.52-4.73,52.52-4.73l1.46,1.81s33.55,5.35,42.3,6.32c0,0-4.62,3.16,25.04,2.67,29.66-.49,84.85-5.11,100.9-5.11l2.43,2.19s24.95-.43,29.66,1.22v48.87H-161.19v-48.87Z"/>
                <path class="cls-21" d="m-161.19,133.58s16.17,4.98,35.01,10.82l-1.82-2.31s66.37-9.97,98.95-10.94S-2,102.78-2,102.78l45.41,32.25s30.75-2.11,39.75-1.62l-19.81-9.08,51.49-1.66s61.37-15.24,74.01-15.73c12.64-.49,34.84,24.81,55.99,33.56l-19.33-11.31,23.34,10.7s36.23.24,48.14-1.7c11.91-1.94,18.48-4.62,18.48-4.62,0,0-4.38-6.08,10.7-.24,0,0,41.09-3.4,52.03.24v38.9H-161.19v-38.9Z"/>
                <g class="cls-34">
                  <path class="cls-10" d="m368.32,171.97c.29-1.51,1.66-5.94,1.66-5.94-1.08-.4-13.49-10.68-15.13-12.04l11.81,2.36-16.54-4.39-.34,1.57c-.01.06-.06.11-.12.13-.06.02-.13,0-.17-.03l-6.3-5.45-1.46,1.56s-.05.04-.09.05l-7.54,1.82c-.07.02-.13,0-.18-.06l-8.72-10.02-3.64.6c-.06,0-.12-.01-.16-.06l-3.29-3.56,3.13,5.16,3.63-1.52c.07-.03.15,0,.2.05l8.63,9.85s.04.07.04.11l.12,2.19c0,.07-.03.13-.09.16-.06.03-.13.03-.18,0l-9.94-5.91-7.03,3.12c-.07.03-.15.02-.2-.04l-8.87-9.24s-.05-.09-.05-.14c0-.05.03-.1.08-.13l4.83-3.18-6.48,3.01-5.89,1.64,5.84-1.27c.06-.01.12,0,.16.05l2.69,2.56c.68.65-4.25,10.41-4.25,10.41l-5.5,3.29-9.79-4.68s-8.24,10.4-9.31,10.14c0,0-20.87-4.98-20.87-4.98-.05-.01-.1-.05-.12-.1l-3.65-7.54c-.04-.08-.01-.18.07-.23l11.55-6.81s.07-.02.1-.02l8.03.32c-3.79-.34-8.14-.73-10.64-.97.4.16.7.29.73.3.06.03.1.09.11.15,0,.07-.03.13-.09.16l-12.72,7.68,3.66,5.31c.04.06.04.15,0,.21-.05.06-.13.09-.2.06l-8.27-2.61s-.08-.05-.1-.09l-5.58-10.62-2.91-.29s-.05,0-.07-.02l-3.61-1.94,4.11,2.65c.62.65-1.45,5.27-1.45,5.27,0,0-.34,2.83-.98,3.42l-2.78-2.91-13.15,3.98s-.05.01-.07,0l-9.11-.73h-6.05s-.07,0-.1-.03l-5.38-3.46-32.64-4.12.56,1.03c.03.06.03.12,0,.18-.03.05-.08.07-.16.09l-6.44-.12s-2.17-.59-2.17-.59c0,0-19.71-5.45-19.71-5.45l10.16,4.48,8.26,1.37s.1.04.18.07c1.28.42-16.05.36-16.05.36,0,0-5.72,4.79-11.1,6.92l-2.45-13.88c-.01-.06.01-.12.06-.16.04-.04.11-.06.17-.04l7.22,1.99-12.12-4.32,4.11,3.21s.06.07.07.12l1.58,16.12,6.17,8.84c.05.07.04.16-.02.23-.06.06-.15.07-.22.03l-7.14-4.44-.59-.53c-.06.06-.15.08-.22.03l-20.97-13.03-.34,1.81c-.01.05-.04.1-.09.12-.05.03-.1.03-.15,0l-.67-.28c-.06-.02-.1-.07-.11-.13l-1.33-6.73c-.01-.06,0-.12.05-.17.05-.04.11-.06.17-.04l3.37.96s.05.02.07.04l16.21,13.74-16.11-14.65-13.42-2.92,8.85,2.53c.06.02.11.07.12.13l1.61,6.71c.02.07,0,.13-.06.18-.05.04-.12.06-.18.03l-3.35-1.39-.32,1.61c-.01.07-.08.13-.15.14l-6.08.85c-.06,0-.11-.01-.15-.05l-11.38-11.93-13.78-1.56,12.31,2.54s.06.02.08.04l2.38,2.1c.41.36.27,1.04-10.8,6.56l-17.78-4.74,17.51,4.92s-8.68,4.97-16.42,7.29l-9.17-17.08-3.73-2.34s-.03-.02-.04-.03l-4.01-4.58-.91,5.1c-.01.06-.06.12-.12.14-.06.02-.13,0-.18-.04l-2.56-2.47,5.3,8.32s.02.03.02.05l1.18,4.68-.6-5.83-.81-.87c-1.67-1.75-2.44-2.8-2.28-3.12.15-.29,1.23-3.33,1.63-4.48.02-.06.08-.11.14-.12.08,0,.14.02.17.07l3.77,5.17,2.35,3.55,3.14,6.61s1.23,6.93,0,5.85c0,0-3.8-4.12-3.8-4.12l.53,3.69c0,.05,0,.1-.04.14-.03.04-.08.06-.13.06l-5.71.12c-.05,0-.13-.03-.16-.09l-2.46-4.21-6.16,4.27s-.09.04-.13.03l-35.79-6.5,4.52,1.53c.08.03.13.1.12.19,0,.08-.07.15-.15.16l-6.81.97c-.06,0-.11-.01-.15-.05l-5.81-5.92-4.44,2.19c-.06.03-.13.02-.18-.01s-.08-.1-.08-.16l.28-3.41-.92,1.92s-.06.08-.11.09c-.05.01-.1,0-.15-.02l-4.27-2.76-4.6.84s-.08,0-.12-.02l-15.56-8.63,12.53,9.5,7.34-.96c.06,0,.12.02.16.07l4.42,5.62,6.33-1.91c.06-.02.14,0,.18.05l3.53,3.77s.05.08.05.13c0,.05-.02.09-.06.12l-9,8.02c-.07.07-.19.06-.25-.01l-4.53-5.01-17.27,7.12s-.1.02-.14,0c-.05-.02-.08-.06-.09-.11l-1.31-4.21-14.47,8.08c-.06.03-.14.03-.2-.02l-4.2-3.29,1.65,1.94s.05.11.03.17c-.02.06-.07.1-.13.12l-16.17,4.13s-.07,0-.1,0l-3.27-1.13c-1.25-1.02-2.1-6.24-2.1-6.24-2.03-5.44-2.15-7.33-2.15-7.75,4.44-.88,9.73-1.85,9.73-1.85h-1.37l4.1-4.77-.52-2.31s.17,1.81.15,2.28-3.18,4.46-5.17,5.08c-1.99.62-13.86,2.77-13.86,2.77,0,0,.27.4-1.19,2.83-1.46,2.43-2.46,4.52-3.05,4.06,0,0-5.25-4.12-5.25-4.12l-.28.85c-.03.08-.1.14-.18.12l-25.92-1.63,3.39,1.41c.08.03.12.12.11.2-.02.08-.09.14-.18.14,0,0-22.37-.12-22.37-.12l-12.28-1.5-5.84,4.79,4.65-3.13s.06-.02.09-.02l39.51.49,14.75,3.5-9.58-3.03c-.08-.03-.14-.11-.12-.2.01-.09.09-.15.18-.15,0,0,13.25.12,13.25.12.03,0,.05,0,.08.02l4.86,2.43,15.48,9.87-8.02-5.93c-.06-.06-.08-.15-.04-.22.04-.07.13-.11.21-.08l12.52,3.89s.05.02.07.04l.8.71v-.58c0-.08.06-.15.14-.17l15.56-3.89s.09,0,.13.02l1.63.93,14.71-4.52c.05-.01.11,0,.16.03l1.3.96,15.1-6.04s.1-.02.15,0l6.51,3.52,3.95-1.99c2.53-.6,9.14,1.06,9.14,1.06l1,1.55s16.27-8.9,17.84-8.62l11.6,2.07c1.59.78-11.6,6.88-11.6,6.88,1.09.97,6.23,11.24,6.23,11.24h1.85c-3.83-1.7-7.16-10.98-7.16-10.98,0,0,11.35-7.03,12.52-6.82l3.71.66,6.26-2.36c.07-.03.15,0,.2.05l2.56,2.84,5.92-.35s.09.01.12.04l4.84,4.02c1.32,1.1,3.98,12.89,3.98,12.89h.43s-.97-2.8-.94-5.5c0,0-1.74-3.41-2.59-6.66l10.2,8.48-10.84-11.75c-1.28-1.88-1.7-8-1.7-8,0,0-2.08-3.9-2.57-5.37l11.79,17.82-2.11-3.93c-.26-.48,16.22-8.2,16.22-8.2,0,0,18.74.5,19.89,1.17l1.64,1.44,7.76-1.68c.06,0,.08,0,.1,0l2.89,1.12,8.82,4.7c.88.47,2.09,7.17,2.09,7.17l-13.07,6.44s13.25-6.38,14.71-6.26l-1.34-.55s-2.3-6.76-.96-6.04l21.14,11.27-.46-.87c-.27-.52,12-5.52,12-5.52,0,0,11.12,5.38,12.58,7.66,0,0,18.78-12.9,20.01-12.45.26.1.39.11.45.08l16.59,7.56,7.38-4.57c.06-.03.14-.03.19,0l4.65,3.15,13.13,2.51-12.97-3.51s-.04-.02-.06-.03l-4.92-3.69-3.26,2.62c-.06.05-.15.05-.22,0l-14.82-11.17c-.06-.05-.09-.13-.06-.2.03-.07.1-.13.18-.12l12.54.84s.07.02.1.04l5.48,4.66,5.78-.48,9.39.12,13.46-2.13s.1,0,.13.03l4.44,3.3s.03.03.04.04l5.23,7.8,6.41-2.35s.07-.01.11,0l5.02,1.42-5.79-2.63-5.52,2.64c-.08.04-.17.01-.22-.05l-5.38-7.21-1.64-1.72c-.56-1.09,2.75-8.66,3.05-8.47l1.1.71s.04.03.06.06l5.46,9.15,9.95,3.56,32.1,7.99,3.58-3.7c.05-.05.13-.07.2-.04l4.55,1.9-6.49-3.44-2.23,4.46c-.04.08-.12.11-.2.09l-6.9-1.65c-.76-.69,7.07-9.96,7.55-10.1.48-.13,9.91,4.58,9.91,4.58,5.53-3.95,5.25-2.49,5.25-2.49,0,0,4.36-10.8,5.51-10.49l6.44,6.14,6.82-1.77s.09,0,.13.02l18.81,10.88,2.01-.82c.06-.03.13-.01.18.03l3.3,2.68,20.11,9.25h2.68l-2.03-.51Zm-459.31-9.29s-.04-.02-.05-.03l-.67-.53s3.52-6.75,4.55-7.27c.39-.19,2.68-.69,5.39-1.23,0,0,4.39,13.76,3.86,13.58l-13.09-4.52Zm88.5-2.36c-1-.03-.73-1.37-.73-1.37,0,0-9.26-.76-8.3-1.46.04-.03.04-.04.07-.06l14.4-7.24s.07-.02.11-.02l2.55.45,1.67,4.58s-8.78,5.14-9.79,5.11Zm10.06-5.26c-.72-.97-1.5-4.01-1.59-4.37l7.09,1.27c1.31.49-5.5,3.1-5.5,3.1Zm66.88-6.02s9.99-5.91,10.81-5.92l7.88,6.95s-14.4-.71-18.69-1.03Zm89.67,18.01c-1.14,2.01-2.74,1.69-2.74,1.69,0,0-9.25-6.52-12.54-7.52,0,0-5.44,3.54-12.34,5.16l-4.76-9.14s-.01-.03-.02-.05l-.19-1.06c-.28-1.56,11.43-8.21,11.43-8.21,0,0,16.71-.41,18.63-.18.04.01,9.28,4.22,9.28,4.22l-5.16,3.37-1.09,6.7s.64,3.01-.5,5.01Zm.68-.41s.05-10.44,1.5-11.44c1.16-.8,3.81-2.45,4.85-3.1l8.97,4.09c.45.52-8.21,6.63-15.32,10.46Zm37.45-5.25c0,.06-.02.12-.07.16l-3.18,2.55s-.07.04-.11.04c-.03,0-.05,0-.08-.02l-31.49-15.56c-.08-.04-.12-.12-.09-.21.02-.08.09-.15.18-.13l10.9.73s.05,0,.07.02l23.76,12.27c.05.03.09.08.1.14Zm-2.89-2.31c.07.06.09.16.04.24-.03.05-.09.08-.15.08-.03,0-.06,0-.08-.02l-18.5-9.92c-.07-.04-.11-.13-.09-.21.02-.08.09-.14.18-.13l6.34.43s.07.02.1.04l12.16,9.49Zm155.68-4.42c.47-.04,14.41,11.61,14.41,11.61-.36,2.8-1.55,4.76-1.94,5.34l-4.43-1.92s-8.5-14.99-8.03-15.03Zm-7.51,8.3s-.06-.03-.07-.06l-3.09-4.39-2.07,1.66c-.05.05-.13.05-.19.02l-8-4.09c-.08-.04-.12-.14-.08-.23l1.7-4.01c.02-.05.07-.09.12-.1l7.78-2.07c.05-.01.11,0,.15.03l5.7,4.33,1.91-.72s.07-.01.1,0l2.61.52s8.6,15.69,8.1,15.47c0,0-14.66-6.35-14.66-6.35Z"/>
                </g>
                <path class="cls-12" d="m378.2,133.58c-10.94-3.65-52.03-.24-52.03-.24-15.07-5.84-10.7.24-10.7.24,0,0-6.56,2.67-18.48,4.62-11.91,1.95-48.14,1.7-48.14,1.7l-23.34-10.7,19.33,11.31c-21.15-8.75-37.15-40.1-49.8-39.62-12.64.49-78.84,17.05-78.84,17.05l-52.86,6.4,22.65,9.71c-9-.49-42.59.99-42.59.99L.11,111.73s3.43,18.44-29.15,19.42-98.95,10.94-98.95,10.94l1.82,2.31c-18.84-5.84-35.01-10.82-35.01-10.82v38.9h6.78l13.52-27.96h2.43l10.21,1.7v26.26h23.9l20.83-32.61,8.27-1.91,55.92-1.95-35.57,36.47h4.38l35.57-36.47H-2.79l-29.9,29.91,9.73.24,38.23-28.45-1.68-7.51,21.07,9.66-5.54,32.61h11.2l1.14-31.12,3.16-2.25,49.6,1.76,2.87,31.61h3.74l7.67-31.12,45.91-11.21,7.15,10.96v31.36l6.21-30.33,12.72-13.8,24.83,11.52,1.22,32.61h3.16l3.89-33.37,28.93,2.98-7.49,30.39h6.75l9-29.42,31.61-.97,6.81,1.46v28.93h13.37l3.65-32.61,9.73-2.4,1.7,3.4-3.81,31.61h4.36l7.96-35.01,13.13-1.46,4.62,3.1-2.76,33.37h4.35l7.89-36.47h18.6l2.74,3.1-2.75,33.37h6.22v-38.9Z"/>
                <polygon class="cls-11" points="6.94 137.22 3.84 140.22 -15.85 172.48 -9.89 172.48 12.14 137.18 6.94 137.22"/>
                <polygon class="cls-11" points="112.8 140.31 108.7 172.48 112.52 172.48 115.52 139.65 112.8 140.31"/>
                <polygon class="cls-11" points="52.22 139.38 47.32 172.48 48.82 172.48 56.87 139.54 52.22 139.38"/>
                <polygon class="cls-11" points="161.57 141.11 154.41 130.15 146.67 172.48 158.18 172.48 161.57 142.27 161.57 141.11"/>
                <polygon class="cls-11" points="94.22 140.87 80.26 140.38 74.03 172.48 97.09 172.48 94.22 140.87"/>
                <path class="cls-14" d="m326.17,133.33c-15.07-5.84-10.7.24-10.7.24,0,0-6.56,2.67-18.48,4.62-11.91,1.95-48.14,1.7-48.14,1.7l-23.34-10.7,19.33,11.31c-21.15-8.75-41.15-34.21-53.8-33.72-12.64.49-81.26,14.95-81.26,14.95l-46.44,2.61,19.81,9.08c-9-.49-39.75,1.62-39.75,1.62L-2,104.68s-2.53-12.21-27.05,26.47c-17.45,27.53-98.95,10.94-98.95,10.94l1.82,2.31c-18.84-5.84-35.01-10.82-35.01-10.82v14.16l10.58-4.62-5.12,29.36h1.33l13.52-27.96h2.43l10.21,1.7v26.26h2.24l5.75-25.62,21.79-2.55-10.96,28.17h.53l12.52-28.35,1.37.18-11.58,28.17h2.23l20.83-32.61,8.27-1.91,55.92-1.95-35.57,36.47h4.38l35.57-36.47H-2.79l-29.9,29.91,2.91.07,27-26.88-21.34,27.02,1.16.03,29.9-28.93,16.12,2.64,8.57,17.82-2.51,14.79h1.73l5.55-31.64,2.92.27-.35,31.36h1.36l1.14-31.12,3.16-2.25,49.6,1.76,2.87,31.61h.9l-.9-30.18,5.58-.27-2.22,30.45h.39l7.67-31.12,45.91-11.21,7.15,10.96v31.36l.74-11.73,4.92-20.05,17.4-20.06-2.65,51.84h1.72l7.59-35.01,4.29.64-3.27,34.37h5.39l3.99-32.61h3.65l1.22,32.61h3.16l3.89-33.37,28.93,2.98-7.49,30.39h1.52l7.42-22.52-3.35,22.52h1.16l9-29.42,31.61-.97,6.81,1.46v28.93h1.56l2.54-29.67,4.83-.72,4.21,30.39h.22l3.65-32.61,9.73-2.4,1.7,3.4-3.81,31.61h4.36l7.96-35.01,13.13-1.46,4.62,3.1-2.76,33.37h1.23l4.17-27.53-2.07,27.53h1.01l7.89-36.47h18.6l2.74,3.1-2.75,33.37h2.16l4.05-25.06v-13.84c-10.94-3.65-52.03-.24-52.03-.24Z"/>
                <path class="cls-18" d="m177.86,116.32l-1.46-1.81c-35.98,4.18,36.59,15.17,5.41,17.24,7.53-.06,18.25.21,29.4,1.37-7.1-1.67-66.59-15.94-33.35-16.8Z"/>
                <path class="cls-17" d="m77.48,122.01c-6.28-.4-12.28-1.08-18.59-1.78,18.46,2.5-31.18,10.67-31.18,10.67,7.7.12,12.53.24,12.53.24l1.93,2.38c-2.27-4.96,13.35-9.19,24.62-7.89l-3.46-1.29,5.8,1.66c1.06.21,2.06.49,2.98.83-2.42-.87-16.66-6.22,5.35-4.81Z"/>
                <path class="cls-2" d="m5.98,114.61s45.69,5.59,51.89,6.44c6.2.85-3.16,7.66-29.66,4.5-26.5-3.16-59.04-19.33-22.23-10.94Z"/>
              </g>
            </g>
            <path class="cls-22" d="m3.37,120.1v-2s12.26,25.4,99.41,20.49c0,0-6.47-3.33,1.74-4.59s40.86-4.65,52.52-3.95c11.66.7,27.37-7.89,33.37-20.21l-90.15,15.99L7.42,115.84.11,113.73l3.27,6.37Z"/>
            <path class="cls-25" d="m0,113.61s16.74.84,35.05-5.73,28.79-9.79,29.69-8.06,17.75,11.28,30.07,11.68c12.32.39,18.39-7.82,20.21-7.58,1.82.24,13.58,2.84,18.24,4.18,4.66,1.34,8.21-4.11,9.47-4.11s3.35,5.27,5.98-1.43c2.63-6.7,1.15-.73,5.97,3.38,4.82,4.1,35.73,3.89,35.73,3.89,0,0-5.68,18.42-65.26,21.16-59.58,2.74-27.37,6.1-27.37,6.1,0,0-63.26,10.19-97.78-23.49Z"/>
            <path class="cls-8" d="m82.1,109.84c12.16,5.68,21.08,7.5,27,.79,5.92-6.71,4.89-7.42,14.21-3.63,9.32,3.79,10.89,7.1,15.16,2.05,4.26-5.05,4.34-4.5,6.71-2.61,2.37,1.89,3.17,2.13,4.03-2.29s2.29.79,3.71,3.47c1.26,2.38,5.35.96,11.93,1.36-4.87-.52-8.93-1.34-10.43-2.62-4.82-4.1-3.08-10.5-5.71-3.8-2.63,6.7-4.71,1.43-5.98,1.43s-4.82,5.45-9.47,4.11c-4.66-1.34-16.42-3.95-18.24-4.18-1.82-.24-7.89,7.97-20.21,7.58-12.32-.39-29.16-9.95-30.07-11.68-.65-1.25-6.31.09-16.29,3.4,13.81-3.78,21.5.94,33.64,6.62Z"/>
            <path class="cls-6" d="m180.46,115.2c-5.84,6.16-32.39,14.86-52.26,14.68-19.87-.17-42,1.54-42,1.54-1.11,5.49-22.28,8.36-42.8,3.6-18.86-4.37-37.3-19.32-27.45-22.42-9.35,1.4-15.85,1.12-15.85,1.12,34.52,33.68,97.68,23.37,97.68,23.37,0,0-32.21-3.37,27.37-6.1,59.58-2.74,65.26-21.16,65.26-21.16,0,0-7.14.14-15.11-.16,4.18.5,8.64,1.86,5.16,5.52Z"/>
            <path class="cls-13" d="m111.91,130.1c5.27-.16,10.86-.26,16.29-.21,19.87.17,46.42-8.53,52.26-14.68.31-.33.53-.63.72-.92-1.19.59-3.73.98-8.75.78-14.19-.56-24.14-6.73-23.23-10.92-.54,2.81-1.07,3.73-1.98,3.55,4.28,2.58,14.41,8.34,21.64,9.73,9.39,1.81-1.31,4.81-13.5,4.72-12.16-.09-21.07-8.59-15.28-14.97-.47.51-.99,1.12-1.62,1.86-3.17,3.76-4.86,2.88-9.34.63,0,0,27.61,18.58,3.82,18.15-23.74-.42-28.4-11.95-20.18-21.4-.94.97-2.03,2.34-3.66,4.19-5.36,6.07-13.19,5.15-23.64.71,0,0,33.16,18.6,26.45,18.76Z"/>
            <path class="cls-20" d="m20.46,124.54c5.78,4.28,14.32,8.5,22.95,10.5,20.52,4.76,41.7,1.89,42.8-3.6,0,0,11.69-.91,25.7-1.34-6.72.16-30.13-2.05-37.91-5.96-7.79-3.91-14.95-5.98-3.16.39,11.79,6.37,13.16,9.45,0,5.62-13.16-3.82-31.63-23.75-19.83-27.55-.83.17-1.68.38-2.55.62-3.85,1.27-8.31,2.83-13.41,4.66-1.19.43-2.36.82-3.53,1.18,25.94-6.56,5.65,24.85-11.06,15.47Z"/>
          </g>
          <path class="cls-9" d="m67.95,80.49c-4.25-8.61-2.1-16.19-.12-20.16,1.98-3.98.66,17.41,7.5,30.81,3.6,7.04-2.32-.39-7.37-10.65Z"/>
          <path class="cls-9" d="m148.35,91.01c-1.57,7.39-3.05,14.32-6.83,10.57-2.38-2.36,9.06-14.86,6.62-23.99-1.28-4.8,3.05,0,.21,13.41Z"/>
          <path class="cls-7" d="m73.87,51.41c-3-4.54-3.04-8.37-2.42-10.74.62-2.37,3.43,11.86,8.74,18.15,2.79,3.31.29,2.58-6.32-7.4Z"/>
          <path class="cls-4" d="m145.26,53.66c-4.33-10.24-5.78-15.44-12.92-15.24-3.03.08.18,3.04,5.41,7.54,2,1.72,5.21,5.53,6.87,10.74,1.68,5.29,2.76,1.97.65-3.04Z"/>
        </g>
      </g>
    </g>
  </g>
</svg>