<svg xmlns="http://www.w3.org/2000/svg" xmlns:xlink="http://www.w3.org/1999/xlink" width="240" height="180" viewBox="0 0 240 180">
  <defs>
    <clipPath id="clip-SilverThrophy">
      <rect width="240" height="180"/>
    </clipPath>
  </defs>
  <g id="SilverThrophy" clip-path="url(#clip-SilverThrophy)">
    <g id="SilverTrophy" transform="translate(-423.461 -672.16)">
      <g id="Group_467" data-name="Group 467" transform="translate(463.461 692.16)">
        <g id="Group_462" data-name="Group 462" transform="translate(32.355 129.457)">
          <path id="Path_2977" data-name="Path 2977" d="M560.083,1097.678c.313-8.9,28.83-10.772,50.254-25.138,21.56,16.2,49.94,16.256,50.253,25.138h0v5.4H560.08v-5.4h0Z" transform="translate(-560.08 -1072.54)" fill="#aab9cc" fill-rule="evenodd"/>
          <path id="Path_2978" data-name="Path 2978" d="M666.494,1147.869H581.08a.83.83,0,0,1,0-1.659h85.414a.83.83,0,0,1,0,1.659Z" transform="translate(-573.53 -1121.665)" fill="#8096b3"/>
        </g>
        <path id="Path_2979" data-name="Path 2979" d="M671.99,963.577a50.571,50.571,0,0,1,5.261,11.908,25.66,25.66,0,0,1,1.549,7.94,26.876,26.876,0,0,1-1.709,7.94,58.558,58.558,0,0,1-5.1,11.908c0,7.157,25.938,7.157,25.938,0a58.905,58.905,0,0,1-5.1-11.908,26.73,26.73,0,0,1-1.709-7.94,25.566,25.566,0,0,1,1.549-7.94,50.574,50.574,0,0,1,5.261-11.908,12.967,12.967,0,0,0-25.935,0Z" transform="translate(-602.356 -861.777)" fill="#8096b3" fill-rule="evenodd"/>
        <g id="Group_463" data-name="Group 463" transform="translate(0 15.795)">
          <path id="Path_2980" data-name="Path 2980" d="M818.247,797.454a4.166,4.166,0,0,1-.313-8.32c18.5-1.4,29.966-11.075,30.666-25.875.227-4.784-.95-8.33-3.6-10.838-5.7-5.4-16.539-4.458-16.646-4.448a4.166,4.166,0,1,1-.846-8.289c.6-.06,14.687-1.4,23.223,6.684,4.455,4.218,6.537,10.032,6.194,17.282a32.625,32.625,0,0,1-10.7,23.136c-6.727,6.107-16.292,9.789-27.661,10.652-.107.007-.213.013-.32.013Z" transform="translate(-696.963 -739.565)" fill="#8096b3"/>
          <path id="Path_2981" data-name="Path 2981" d="M502.176,797.457c-.107,0-.213,0-.32-.013-11.368-.86-20.934-4.545-27.661-10.652a32.612,32.612,0,0,1-10.7-23.136c-.343-7.25,1.739-13.067,6.194-17.282,8.536-8.083,22.626-6.747,23.223-6.684a4.166,4.166,0,0,1-.836,8.289h0c-.11-.01-10.942-.993-16.679,4.465-2.635,2.505-3.8,6.047-3.578,10.818.7,14.8,12.164,24.472,30.666,25.875a4.166,4.166,0,0,1-.313,8.319Z" transform="translate(-463.461 -739.569)" fill="#8096b3"/>
        </g>
        <path id="Path_2982" data-name="Path 2982" d="M546.24,717.628V697.368a5.209,5.209,0,0,1,5.208-5.208h98.621a5.21,5.21,0,0,1,5.208,5.208v20.521c-.1,44.226-24.489,80.083-54.518,80.083S546.24,761.971,546.24,717.628Z" transform="translate(-518.359 -692.16)" fill="#aab9cc" fill-rule="evenodd"/>
        <g id="Group_464" data-name="Group 464" transform="translate(23.909)">
          <path id="Path_2983" data-name="Path 2983" d="M651.894,698.157a6,6,0,0,0-6.013-6H541.233a6,6,0,0,0-6.013,6h0a6,6,0,0,0,6.013,6H645.881a6,6,0,0,0,6.013-6Z" transform="translate(-535.22 -692.16)" fill="#cfd8e2" fill-rule="evenodd"/>
          <path id="Path_2984" data-name="Path 2984" d="M659.161,708.669H561.234a1.5,1.5,0,1,1,0-3h97.927a1.5,1.5,0,1,1,0,3Z" transform="translate(-551.564 -701.169)" fill="#8096b3"/>
        </g>
        <g id="Group_465" data-name="Group 465" transform="translate(49.761 20.411)">
          <circle id="Ellipse_76" data-name="Ellipse 76" cx="27.86" cy="27.86" r="27.86" transform="translate(4.631 4.635)" fill="#cfd8e2"/>
          <path id="Path_2985" data-name="Path 2985" d="M644.835,818.41a32.495,32.495,0,1,1,32.5-32.495A32.531,32.531,0,0,1,644.835,818.41Zm0-63.537a31.042,31.042,0,1,0,31.042,31.042A31.077,31.077,0,0,0,644.835,754.873Z" transform="translate(-612.34 -753.42)" fill="#8096b3"/>
          <path id="Path_2986" data-name="Path 2986" d="M682.1,828.637h12.114a4.522,4.522,0,0,1,2.755.713,2.71,2.71,0,0,1,.19,3.942,2.954,2.954,0,0,1-2.282.806H677.815a3.685,3.685,0,0,1-2.709-.95,3.137,3.137,0,0,1-1-2.282,6.643,6.643,0,0,1,.616-2.232,8.694,8.694,0,0,1,1.379-2.139c2.042-2.139,3.945-3.991,5.561-5.511a35.93,35.93,0,0,1,3.565-2.992,20.878,20.878,0,0,0,3.182-2.709,11.051,11.051,0,0,0,1.9-2.755,6.183,6.183,0,0,0,.666-2.8,4.958,4.958,0,0,0-.713-2.662,4.649,4.649,0,0,0-1.9-1.806,5.136,5.136,0,0,0-2.662-.666,5.5,5.5,0,0,0-4.8,2.662,15.84,15.84,0,0,0-.76,1.9,7.269,7.269,0,0,1-1.236,2.376,2.457,2.457,0,0,1-2,.856,2.581,2.581,0,0,1-1.949-.76,3.037,3.037,0,0,1-.76-2.089,8.529,8.529,0,0,1,.713-3.325,9.4,9.4,0,0,1,2.139-3.182,10.485,10.485,0,0,1,3.658-2.282,13.815,13.815,0,0,1,5.131-.856,15.208,15.208,0,0,1,6.034,1.093,9.551,9.551,0,0,1,2.852,2.042,9.076,9.076,0,0,1,1.949,2.992,10.115,10.115,0,0,1,.666,3.565,9.946,9.946,0,0,1-1.426,5.228,17.916,17.916,0,0,1-2.9,3.7c-1,.856-2.662,2.282-4.988,4.181a37,37,0,0,0-4.8,4.418,10.535,10.535,0,0,0-1.139,1.519Z" transform="translate(-653.529 -784.407)" fill="#bf3e33"/>
        </g>
        <g id="Group_466" data-name="Group 466" transform="translate(33.982 18.955)">
          <path id="Path_2987" data-name="Path 2987" d="M575.765,796.926a2.184,2.184,0,0,1-2.009-1.329,110.355,110.355,0,0,1-8.476-44.479,2.18,2.18,0,1,1,4.355.23h0a107.957,107.957,0,0,0,8.133,42.544,2.181,2.181,0,0,1-1.153,2.859,2.146,2.146,0,0,1-.853.173Z" transform="translate(-565.229 -749.052)" fill="#cfd8e2"/>
          <path id="Path_2988" data-name="Path 2988" d="M609.675,916.6a2.174,2.174,0,0,1-1.753-.88,82.858,82.858,0,0,1-6.264-9.832,2.182,2.182,0,0,1,3.835-2.082,78.427,78.427,0,0,0,5.934,9.312,2.18,2.18,0,0,1-1.749,3.482Z" transform="translate(-589.344 -851.483)" fill="#cfd8e2"/>
        </g>
      </g>
    </g>
  </g>
</svg>
